<?xml version="1.0"?>
<svg width="120" height="120"  viewBox="0 0 120 120"
     xmlns="http://www.w3.org/2000/svg" version="1.1">

	 <path d="M0,0 A10,10 0 0 0 0,20 A10,10 0 0 0 0,40 A10,10 0 0 0 0,20 A10,10 0 0 0 0,0 A20,20 0 0 0 0,40 A10,10 0 0 0 0,0" fill="none" stroke="black" stroke-width="1" transform="translate(30,20)"/>
	 
	 <path d="M0,0 A10,10 0 0 0 0,20 M0,0 A10,10 0 0 1 0,20 M0,20 A10,10 0 0 0 0,40 M0,20 A10,10 0 0 1 0,40 M0,0 A20,20 0 0 0 0,40 M0,0 A20,20 0 0 1 0,40" fill="none" stroke="black" stroke-width="1" transform="translate(90,20)"/>
	 
</svg>