<svg xmlns="http://www.w3.org/2000/svg" width="1120" version="1.1" height="1120"><desc>Created with Snap</desc><defs></defs><rect fill="#000000" style="" height="1120" width="1120" y="0" x="0"></rect><path stroke="#b3ff00" fill="none" style="stroke-width: 2;" transform="matrix(1,0,0,1,70,35)" d="M0,20 A10,10 0 0 0 0,40M0,20 A10,10 0 0 1 0,40M0,40 A10,10 0 0 0 0,60M0,60 A10,10 0 0 1 0,80M0,80 A10,10 0 0 0 0,100M0,80 A10,10 0 0 1 0,100M0,0 A20,20 0 0 0 0,40M0,0 A20,20 0 0 1 0,40M0,40 A20,20 0 0 0 0,80M0,40 A20,20 0 0 1 0,80M0,60 A20,20 0 0 0 0,100M0,0 A40,40 0 0 0 0,80M0,0 A40,40 0 0 1 0,80"></path><path stroke="#b3ff00" fill="none" style="stroke-width: 2;" transform="matrix(1,0,0,1,70,175)" d="M0,0 A10,10 0 0 1 0,20M0,20 A10,10 0 0 1 0,40M0,40 A10,10 0 0 0 0,60M0,40 A10,10 0 0 1 0,60M0,60 A10,10 0 0 0 0,80M0,80 A10,10 0 0 0 0,100M0,80 A10,10 0 0 1 0,100M0,0 A20,20 0 0 0 0,40M0,0 A20,20 0 0 1 0,40M0,0 A40,40 0 0 0 0,80M0,0 A40,40 0 0 1 0,80"></path><path stroke="#b3ff00" fill="none" style="stroke-width: 2;" transform="matrix(1,0,0,1,70,315)" d="M0,0 A10,10 0 0 0 0,20M0,0 A10,10 0 0 1 0,20M0,20 A10,10 0 0 0 0,40M0,20 A10,10 0 0 1 0,40M0,60 A10,10 0 0 0 0,80M0,80 A10,10 0 0 0 0,100M0,80 A10,10 0 0 1 0,100M0,0 A20,20 0 0 1 0,40M0,0 A40,40 0 0 0 0,80M0,0 A40,40 0 0 1 0,80"></path><path stroke="#b3ff00" fill="none" style="stroke-width: 2;" transform="matrix(1,0,0,1,70,455)" d="M0,20 A10,10 0 0 1 0,40M0,0 A20,20 0 0 0 0,40M0,0 A20,20 0 0 1 0,40M0,40 A20,20 0 0 1 0,80M0,0 A40,40 0 0 0 0,80M0,0 A40,40 0 0 1 0,80"></path><path stroke="#b3ff00" fill="none" style="stroke-width: 2;" transform="matrix(1,0,0,1,70,595)" d="M0,0 A10,10 0 0 0 0,20M0,20 A10,10 0 0 0 0,40M0,20 A10,10 0 0 1 0,40M0,40 A10,10 0 0 1 0,60M0,80 A10,10 0 0 0 0,100M0,80 A10,10 0 0 1 0,100M0,0 A20,20 0 0 0 0,40M0,0 A20,20 0 0 1 0,40M0,40 A20,20 0 0 0 0,80M0,0 A40,40 0 0 0 0,80M0,0 A40,40 0 0 1 0,80"></path><path stroke="#b3ff00" fill="none" style="stroke-width: 2;" transform="matrix(1,0,0,1,70,735)" d="M0,0 A10,10 0 0 1 0,20M0,20 A10,10 0 0 1 0,40M0,40 A10,10 0 0 0 0,60M0,60 A10,10 0 0 1 0,80M0,80 A10,10 0 0 0 0,100M0,80 A10,10 0 0 1 0,100M0,0 A20,20 0 0 1 0,40M0,0 A40,40 0 0 0 0,80M0,0 A40,40 0 0 1 0,80"></path><path stroke="#b3ff00" fill="none" style="stroke-width: 2;" transform="matrix(1,0,0,1,70,875)" d="M0,0 A10,10 0 0 0 0,20M0,20 A10,10 0 0 0 0,40M0,20 A10,10 0 0 1 0,40M0,40 A10,10 0 0 0 0,60M0,40 A20,20 0 0 1 0,80M0,60 A20,20 0 0 0 0,100M0,0 A40,40 0 0 0 0,80M0,0 A40,40 0 0 1 0,80"></path><path stroke="#b3ff00" fill="none" style="stroke-width: 2;" transform="matrix(1,0,0,1,70,1015)" d="M0,0 A10,10 0 0 0 0,20M0,40 A10,10 0 0 1 0,60M0,60 A10,10 0 0 0 0,80M0,60 A10,10 0 0 1 0,80M0,0 A20,20 0 0 0 0,40M0,40 A20,20 0 0 0 0,80M0,40 A20,20 0 0 1 0,80M0,60 A20,20 0 0 0 0,100M0,0 A40,40 0 0 0 0,80M0,0 A40,40 0 0 1 0,80"></path><path stroke="#b3ff00" fill="none" style="stroke-width: 2;" transform="matrix(1,0,0,1,210,35)" d="M0,20 A10,10 0 0 0 0,40M0,20 A10,10 0 0 1 0,40M0,40 A10,10 0 0 0 0,60M0,40 A10,10 0 0 1 0,60M0,60 A10,10 0 0 1 0,80M0,80 A10,10 0 0 1 0,100M0,40 A20,20 0 0 0 0,80M0,60 A20,20 0 0 0 0,100M0,0 A40,40 0 0 0 0,80M0,0 A40,40 0 0 1 0,80"></path><path stroke="#b3ff00" fill="none" style="stroke-width: 2;" transform="matrix(1,0,0,1,210,175)" d="M0,0 A10,10 0 0 1 0,20M0,20 A10,10 0 0 0 0,40M0,20 A10,10 0 0 1 0,40M0,40 A10,10 0 0 1 0,60M0,60 A10,10 0 0 1 0,80M0,80 A10,10 0 0 0 0,100M0,40 A20,20 0 0 1 0,80M0,0 A40,40 0 0 0 0,80M0,0 A40,40 0 0 1 0,80"></path><path stroke="#b3ff00" fill="none" style="stroke-width: 2;" transform="matrix(1,0,0,1,210,315)" d="M0,20 A10,10 0 0 1 0,40M0,40 A10,10 0 0 0 0,60M0,60 A10,10 0 0 0 0,80M0,0 A20,20 0 0 1 0,40M0,40 A20,20 0 0 1 0,80M0,60 A20,20 0 0 0 0,100M0,0 A40,40 0 0 0 0,80M0,0 A40,40 0 0 1 0,80"></path><path stroke="#b3ff00" fill="none" style="stroke-width: 2;" transform="matrix(1,0,0,1,210,455)" d="M0,20 A10,10 0 0 0 0,40M0,40 A10,10 0 0 0 0,60M0,40 A10,10 0 0 1 0,60M0,60 A10,10 0 0 0 0,80M0,0 A20,20 0 0 0 0,40M0,0 A20,20 0 0 1 0,40M0,40 A20,20 0 0 0 0,80M0,60 A20,20 0 0 0 0,100M0,0 A40,40 0 0 0 0,80M0,0 A40,40 0 0 1 0,80"></path><path stroke="#b3ff00" fill="none" style="stroke-width: 2;" transform="matrix(1,0,0,1,210,595)" d="M0,20 A10,10 0 0 0 0,40M0,40 A10,10 0 0 0 0,60M0,60 A10,10 0 0 0 0,80M0,80 A10,10 0 0 0 0,100M0,80 A10,10 0 0 1 0,100M0,0 A20,20 0 0 1 0,40M0,40 A20,20 0 0 0 0,80M0,0 A40,40 0 0 0 0,80M0,0 A40,40 0 0 1 0,80"></path><path stroke="#b3ff00" fill="none" style="stroke-width: 2;" transform="matrix(1,0,0,1,210,735)" d="M0,0 A10,10 0 0 0 0,20M0,20 A10,10 0 0 1 0,40M0,40 A10,10 0 0 0 0,60M0,40 A10,10 0 0 1 0,60M0,60 A10,10 0 0 0 0,80M0,60 A10,10 0 0 1 0,80M0,80 A10,10 0 0 0 0,100M0,80 A10,10 0 0 1 0,100M0,0 A20,20 0 0 1 0,40M0,40 A20,20 0 0 0 0,80M0,0 A40,40 0 0 0 0,80M0,0 A40,40 0 0 1 0,80"></path><path stroke="#b3ff00" fill="none" style="stroke-width: 2;" transform="matrix(1,0,0,1,210,875)" d="M0,20 A10,10 0 0 0 0,40M0,40 A10,10 0 0 0 0,60M0,40 A10,10 0 0 1 0,60M0,80 A10,10 0 0 0 0,100M0,80 A10,10 0 0 1 0,100M0,40 A20,20 0 0 1 0,80M0,0 A40,40 0 0 0 0,80M0,0 A40,40 0 0 1 0,80"></path><path stroke="#b3ff00" fill="none" style="stroke-width: 2;" transform="matrix(1,0,0,1,210,1015)" d="M0,20 A10,10 0 0 1 0,40M0,40 A10,10 0 0 0 0,60M0,40 A10,10 0 0 1 0,60M0,60 A10,10 0 0 1 0,80M0,80 A10,10 0 0 0 0,100M0,80 A10,10 0 0 1 0,100M0,40 A20,20 0 0 0 0,80M0,0 A40,40 0 0 0 0,80M0,0 A40,40 0 0 1 0,80"></path><path stroke="#b3ff00" fill="none" style="stroke-width: 2;" transform="matrix(1,0,0,1,350,35)" d="M0,20 A10,10 0 0 0 0,40M0,20 A10,10 0 0 1 0,40M0,40 A10,10 0 0 0 0,60M0,60 A10,10 0 0 1 0,80M0,80 A10,10 0 0 0 0,100M0,80 A10,10 0 0 1 0,100M0,0 A20,20 0 0 0 0,40M0,0 A20,20 0 0 1 0,40M0,40 A20,20 0 0 0 0,80M0,40 A20,20 0 0 1 0,80M0,60 A20,20 0 0 0 0,100M0,0 A40,40 0 0 0 0,80M0,0 A40,40 0 0 1 0,80"></path><path stroke="#b3ff00" fill="none" style="stroke-width: 2;" transform="matrix(1,0,0,1,350,175)" d="M0,0 A10,10 0 0 1 0,20M0,20 A10,10 0 0 1 0,40M0,40 A10,10 0 0 0 0,60M0,60 A10,10 0 0 0 0,80M0,60 A10,10 0 0 1 0,80M0,80 A10,10 0 0 1 0,100M0,0 A20,20 0 0 1 0,40M0,40 A20,20 0 0 0 0,80M0,0 A40,40 0 0 0 0,80M0,0 A40,40 0 0 1 0,80"></path><path stroke="#b3ff00" fill="none" style="stroke-width: 2;" transform="matrix(1,0,0,1,350,315)" d="M0,0 A10,10 0 0 0 0,20M0,20 A10,10 0 0 0 0,40M0,20 A10,10 0 0 1 0,40M0,80 A10,10 0 0 1 0,100M0,0 A20,20 0 0 1 0,40M0,40 A20,20 0 0 0 0,80M0,0 A40,40 0 0 0 0,80M0,0 A40,40 0 0 1 0,80"></path><path stroke="#b3ff00" fill="none" style="stroke-width: 2;" transform="matrix(1,0,0,1,350,455)" d="M0,0 A10,10 0 0 1 0,20M0,20 A10,10 0 0 1 0,40M0,40 A10,10 0 0 1 0,60M0,80 A10,10 0 0 0 0,100M0,80 A10,10 0 0 1 0,100M0,40 A20,20 0 0 1 0,80M0,0 A40,40 0 0 0 0,80M0,0 A40,40 0 0 1 0,80"></path><path stroke="#b3ff00" fill="none" style="stroke-width: 2;" transform="matrix(1,0,0,1,350,595)" d="M0,80 A10,10 0 0 1 0,100M0,0 A20,20 0 0 0 0,40M0,0 A20,20 0 0 1 0,40M0,40 A20,20 0 0 0 0,80M0,40 A20,20 0 0 1 0,80M0,0 A40,40 0 0 0 0,80M0,0 A40,40 0 0 1 0,80"></path><path stroke="#b3ff00" fill="none" style="stroke-width: 2;" transform="matrix(1,0,0,1,350,735)" d="M0,0 A10,10 0 0 1 0,20M0,20 A10,10 0 0 0 0,40M0,40 A10,10 0 0 0 0,60M0,40 A10,10 0 0 1 0,60M0,80 A10,10 0 0 0 0,100M0,80 A10,10 0 0 1 0,100M0,40 A20,20 0 0 1 0,80M0,60 A20,20 0 0 0 0,100M0,0 A40,40 0 0 0 0,80M0,0 A40,40 0 0 1 0,80"></path><path stroke="#b3ff00" fill="none" style="stroke-width: 2;" transform="matrix(1,0,0,1,350,875)" d="M0,0 A10,10 0 0 1 0,20M0,20 A10,10 0 0 1 0,40M0,40 A10,10 0 0 0 0,60M0,0 A20,20 0 0 0 0,40M0,0 A20,20 0 0 1 0,40M0,40 A20,20 0 0 0 0,80M0,60 A20,20 0 0 0 0,100M0,0 A40,40 0 0 0 0,80M0,0 A40,40 0 0 1 0,80"></path><path stroke="#b3ff00" fill="none" style="stroke-width: 2;" transform="matrix(1,0,0,1,350,1015)" d="M0,0 A10,10 0 0 1 0,20M0,20 A10,10 0 0 1 0,40M0,60 A10,10 0 0 1 0,80M0,80 A10,10 0 0 0 0,100M0,0 A20,20 0 0 0 0,40M0,0 A20,20 0 0 1 0,40M0,60 A20,20 0 0 0 0,100M0,0 A40,40 0 0 0 0,80M0,0 A40,40 0 0 1 0,80"></path><path stroke="#b3ff00" fill="none" style="stroke-width: 2;" transform="matrix(1,0,0,1,490,35)" d="M0,0 A10,10 0 0 1 0,20M0,20 A10,10 0 0 0 0,40M0,40 A10,10 0 0 1 0,60M0,60 A10,10 0 0 1 0,80M0,80 A10,10 0 0 1 0,100M0,0 A20,20 0 0 1 0,40M0,40 A20,20 0 0 1 0,80M0,60 A20,20 0 0 0 0,100M0,0 A40,40 0 0 0 0,80M0,0 A40,40 0 0 1 0,80"></path><path stroke="#b3ff00" fill="none" style="stroke-width: 2;" transform="matrix(1,0,0,1,490,175)" d="M0,20 A10,10 0 0 0 0,40M0,20 A10,10 0 0 1 0,40M0,40 A10,10 0 0 0 0,60M0,40 A10,10 0 0 1 0,60M0,60 A10,10 0 0 0 0,80M0,0 A20,20 0 0 0 0,40M0,0 A20,20 0 0 1 0,40M0,40 A20,20 0 0 0 0,80M0,0 A40,40 0 0 0 0,80M0,0 A40,40 0 0 1 0,80"></path><path stroke="#b3ff00" fill="none" style="stroke-width: 2;" transform="matrix(1,0,0,1,490,315)" d="M0,20 A10,10 0 0 0 0,40M0,40 A10,10 0 0 0 0,60M0,60 A10,10 0 0 0 0,80M0,80 A10,10 0 0 1 0,100M0,0 A20,20 0 0 0 0,40M0,0 A20,20 0 0 1 0,40M0,60 A20,20 0 0 0 0,100M0,0 A40,40 0 0 0 0,80M0,0 A40,40 0 0 1 0,80"></path><path stroke="#b3ff00" fill="none" style="stroke-width: 2;" transform="matrix(1,0,0,1,490,455)" d="M0,0 A10,10 0 0 0 0,20M0,0 A10,10 0 0 1 0,20M0,20 A10,10 0 0 0 0,40M0,40 A10,10 0 0 0 0,60M0,60 A10,10 0 0 0 0,80M0,60 A10,10 0 0 1 0,80M0,80 A10,10 0 0 0 0,100M0,0 A20,20 0 0 0 0,40M0,40 A20,20 0 0 0 0,80M0,0 A40,40 0 0 0 0,80M0,0 A40,40 0 0 1 0,80"></path><path stroke="#b3ff00" fill="none" style="stroke-width: 2;" transform="matrix(1,0,0,1,490,595)" d="M0,0 A10,10 0 0 1 0,20M0,20 A10,10 0 0 1 0,40M0,40 A10,10 0 0 1 0,60M0,60 A10,10 0 0 0 0,80M0,80 A10,10 0 0 0 0,100M0,40 A20,20 0 0 0 0,80M0,60 A20,20 0 0 0 0,100M0,0 A40,40 0 0 0 0,80M0,0 A40,40 0 0 1 0,80"></path><path stroke="#b3ff00" fill="none" style="stroke-width: 2;" transform="matrix(1,0,0,1,490,735)" d="M0,40 A10,10 0 0 0 0,60M0,40 A10,10 0 0 1 0,60M0,60 A10,10 0 0 0 0,80M0,80 A10,10 0 0 0 0,100M0,40 A20,20 0 0 0 0,80M0,40 A20,20 0 0 1 0,80M0,0 A40,40 0 0 0 0,80M0,0 A40,40 0 0 1 0,80"></path><path stroke="#b3ff00" fill="none" style="stroke-width: 2;" transform="matrix(1,0,0,1,490,875)" d="M0,0 A10,10 0 0 0 0,20M0,0 A10,10 0 0 1 0,20M0,20 A10,10 0 0 1 0,40M0,60 A10,10 0 0 0 0,80M0,80 A10,10 0 0 1 0,100M0,0 A20,20 0 0 0 0,40M0,40 A20,20 0 0 0 0,80M0,40 A20,20 0 0 1 0,80M0,0 A40,40 0 0 0 0,80M0,0 A40,40 0 0 1 0,80"></path><path stroke="#b3ff00" fill="none" style="stroke-width: 2;" transform="matrix(1,0,0,1,490,1015)" d="M0,0 A10,10 0 0 1 0,20M0,20 A10,10 0 0 0 0,40M0,40 A10,10 0 0 0 0,60M0,60 A10,10 0 0 0 0,80M0,80 A10,10 0 0 1 0,100M0,0 A20,20 0 0 0 0,40M0,0 A40,40 0 0 0 0,80M0,0 A40,40 0 0 1 0,80"></path><path stroke="#b3ff00" fill="none" style="stroke-width: 2;" transform="matrix(1,0,0,1,630,35)" d="M0,0 A10,10 0 0 0 0,20M0,0 A10,10 0 0 1 0,20M0,20 A10,10 0 0 0 0,40M0,40 A10,10 0 0 0 0,60M0,40 A10,10 0 0 1 0,60M0,60 A10,10 0 0 1 0,80M0,80 A10,10 0 0 1 0,100M0,40 A20,20 0 0 0 0,80M0,0 A40,40 0 0 0 0,80M0,0 A40,40 0 0 1 0,80"></path><path stroke="#b3ff00" fill="none" style="stroke-width: 2;" transform="matrix(1,0,0,1,630,175)" d="M0,0 A10,10 0 0 0 0,20M0,0 A10,10 0 0 1 0,20M0,20 A10,10 0 0 1 0,40M0,40 A10,10 0 0 0 0,60M0,60 A10,10 0 0 0 0,80M0,60 A10,10 0 0 1 0,80M0,80 A10,10 0 0 0 0,100M0,0 A20,20 0 0 0 0,40M0,0 A20,20 0 0 1 0,40M0,60 A20,20 0 0 0 0,100M0,0 A40,40 0 0 0 0,80M0,0 A40,40 0 0 1 0,80"></path><path stroke="#b3ff00" fill="none" style="stroke-width: 2;" transform="matrix(1,0,0,1,630,315)" d="M0,0 A10,10 0 0 0 0,20M0,20 A10,10 0 0 0 0,40M0,40 A10,10 0 0 0 0,60M0,60 A10,10 0 0 1 0,80M0,80 A10,10 0 0 0 0,100M0,80 A10,10 0 0 1 0,100M0,60 A20,20 0 0 0 0,100M0,0 A40,40 0 0 0 0,80M0,0 A40,40 0 0 1 0,80"></path><path stroke="#b3ff00" fill="none" style="stroke-width: 2;" transform="matrix(1,0,0,1,630,455)" d="M0,0 A10,10 0 0 0 0,20M0,20 A10,10 0 0 1 0,40M0,40 A10,10 0 0 1 0,60M0,60 A10,10 0 0 1 0,80M0,80 A10,10 0 0 1 0,100M0,0 A20,20 0 0 1 0,40M0,40 A20,20 0 0 0 0,80M0,0 A40,40 0 0 0 0,80M0,0 A40,40 0 0 1 0,80"></path><path stroke="#b3ff00" fill="none" style="stroke-width: 2;" transform="matrix(1,0,0,1,630,595)" d="M0,0 A10,10 0 0 0 0,20M0,20 A10,10 0 0 1 0,40M0,40 A10,10 0 0 0 0,60M0,80 A10,10 0 0 1 0,100M0,40 A20,20 0 0 0 0,80M0,60 A20,20 0 0 0 0,100M0,0 A40,40 0 0 0 0,80M0,0 A40,40 0 0 1 0,80"></path><path stroke="#b3ff00" fill="none" style="stroke-width: 2;" transform="matrix(1,0,0,1,630,735)" d="M0,0 A10,10 0 0 0 0,20M0,20 A10,10 0 0 1 0,40M0,40 A10,10 0 0 0 0,60M0,40 A10,10 0 0 1 0,60M0,60 A10,10 0 0 0 0,80M0,60 A10,10 0 0 1 0,80M0,0 A20,20 0 0 0 0,40M0,0 A20,20 0 0 1 0,40M0,40 A20,20 0 0 1 0,80M0,60 A20,20 0 0 0 0,100M0,0 A40,40 0 0 0 0,80M0,0 A40,40 0 0 1 0,80"></path><path stroke="#b3ff00" fill="none" style="stroke-width: 2;" transform="matrix(1,0,0,1,630,875)" d="M0,0 A10,10 0 0 0 0,20M0,0 A10,10 0 0 1 0,20M0,20 A10,10 0 0 1 0,40M0,60 A10,10 0 0 0 0,80M0,80 A10,10 0 0 0 0,100M0,80 A10,10 0 0 1 0,100M0,0 A20,20 0 0 1 0,40M0,60 A20,20 0 0 0 0,100M0,0 A40,40 0 0 0 0,80M0,0 A40,40 0 0 1 0,80"></path><path stroke="#b3ff00" fill="none" style="stroke-width: 2;" transform="matrix(1,0,0,1,630,1015)" d="M0,0 A10,10 0 0 1 0,20M0,20 A10,10 0 0 0 0,40M0,20 A10,10 0 0 1 0,40M0,60 A10,10 0 0 0 0,80M0,60 A10,10 0 0 1 0,80M0,80 A10,10 0 0 0 0,100M0,80 A10,10 0 0 1 0,100M0,40 A20,20 0 0 0 0,80M0,40 A20,20 0 0 1 0,80M0,60 A20,20 0 0 0 0,100M0,0 A40,40 0 0 0 0,80M0,0 A40,40 0 0 1 0,80"></path><path stroke="#b3ff00" fill="none" style="stroke-width: 2;" transform="matrix(1,0,0,1,770,35)" d="M0,0 A10,10 0 0 0 0,20M0,40 A10,10 0 0 0 0,60M0,40 A10,10 0 0 1 0,60M0,60 A10,10 0 0 0 0,80M0,60 A10,10 0 0 1 0,80M0,80 A10,10 0 0 0 0,100M0,40 A20,20 0 0 0 0,80M0,40 A20,20 0 0 1 0,80M0,0 A40,40 0 0 0 0,80M0,0 A40,40 0 0 1 0,80"></path><path stroke="#b3ff00" fill="none" style="stroke-width: 2;" transform="matrix(1,0,0,1,770,175)" d="M0,0 A10,10 0 0 1 0,20M0,20 A10,10 0 0 1 0,40M0,60 A10,10 0 0 0 0,80M0,80 A10,10 0 0 0 0,100M0,80 A10,10 0 0 1 0,100M0,0 A20,20 0 0 0 0,40M0,0 A20,20 0 0 1 0,40M0,40 A20,20 0 0 1 0,80M0,60 A20,20 0 0 0 0,100M0,0 A40,40 0 0 0 0,80M0,0 A40,40 0 0 1 0,80"></path><path stroke="#b3ff00" fill="none" style="stroke-width: 2;" transform="matrix(1,0,0,1,770,315)" d="M0,20 A10,10 0 0 0 0,40M0,20 A10,10 0 0 1 0,40M0,40 A10,10 0 0 0 0,60M0,60 A10,10 0 0 0 0,80M0,60 A10,10 0 0 1 0,80M0,80 A10,10 0 0 1 0,100M0,0 A20,20 0 0 1 0,40M0,40 A20,20 0 0 0 0,80M0,40 A20,20 0 0 1 0,80M0,0 A40,40 0 0 0 0,80M0,0 A40,40 0 0 1 0,80"></path><path stroke="#b3ff00" fill="none" style="stroke-width: 2;" transform="matrix(1,0,0,1,770,455)" d="M0,20 A10,10 0 0 0 0,40M0,40 A10,10 0 0 0 0,60M0,40 A20,20 0 0 0 0,80M0,0 A40,40 0 0 0 0,80M0,0 A40,40 0 0 1 0,80"></path><path stroke="#b3ff00" fill="none" style="stroke-width: 2;" transform="matrix(1,0,0,1,770,595)" d="M0,20 A10,10 0 0 0 0,40M0,40 A10,10 0 0 0 0,60M0,40 A10,10 0 0 1 0,60M0,60 A10,10 0 0 0 0,80M0,80 A10,10 0 0 0 0,100M0,0 A20,20 0 0 0 0,40M0,60 A20,20 0 0 0 0,100M0,0 A40,40 0 0 0 0,80M0,0 A40,40 0 0 1 0,80"></path><path stroke="#b3ff00" fill="none" style="stroke-width: 2;" transform="matrix(1,0,0,1,770,735)" d="M0,0 A10,10 0 0 0 0,20M0,0 A10,10 0 0 1 0,20M0,40 A10,10 0 0 0 0,60M0,40 A10,10 0 0 1 0,60M0,60 A10,10 0 0 0 0,80M0,60 A10,10 0 0 1 0,80M0,80 A10,10 0 0 0 0,100M0,0 A20,20 0 0 0 0,40M0,0 A20,20 0 0 1 0,40M0,40 A20,20 0 0 0 0,80M0,0 A40,40 0 0 0 0,80M0,0 A40,40 0 0 1 0,80"></path><path stroke="#b3ff00" fill="none" style="stroke-width: 2;" transform="matrix(1,0,0,1,770,875)" d="M0,0 A10,10 0 0 1 0,20M0,20 A10,10 0 0 1 0,40M0,60 A10,10 0 0 0 0,80M0,60 A10,10 0 0 1 0,80M0,80 A10,10 0 0 0 0,100M0,80 A10,10 0 0 1 0,100M0,0 A20,20 0 0 0 0,40M0,0 A20,20 0 0 1 0,40M0,0 A40,40 0 0 0 0,80M0,0 A40,40 0 0 1 0,80"></path><path stroke="#b3ff00" fill="none" style="stroke-width: 2;" transform="matrix(1,0,0,1,770,1015)" d="M0,0 A10,10 0 0 0 0,20M0,0 A10,10 0 0 1 0,20M0,20 A10,10 0 0 0 0,40M0,60 A10,10 0 0 0 0,80M0,0 A20,20 0 0 0 0,40M0,40 A20,20 0 0 0 0,80M0,40 A20,20 0 0 1 0,80M0,60 A20,20 0 0 0 0,100M0,0 A40,40 0 0 0 0,80M0,0 A40,40 0 0 1 0,80"></path><path stroke="#b3ff00" fill="none" style="stroke-width: 2;" transform="matrix(1,0,0,1,910,35)" d="M0,60 A10,10 0 0 0 0,80M0,80 A10,10 0 0 0 0,100M0,0 A40,40 0 0 0 0,80M0,0 A40,40 0 0 1 0,80"></path><path stroke="#b3ff00" fill="none" style="stroke-width: 2;" transform="matrix(1,0,0,1,910,175)" d="M0,0 A10,10 0 0 1 0,20M0,20 A10,10 0 0 0 0,40M0,40 A10,10 0 0 0 0,60M0,80 A10,10 0 0 0 0,100M0,80 A10,10 0 0 1 0,100M0,40 A20,20 0 0 0 0,80M0,0 A40,40 0 0 0 0,80M0,0 A40,40 0 0 1 0,80"></path><path stroke="#b3ff00" fill="none" style="stroke-width: 2;" transform="matrix(1,0,0,1,910,315)" d="M0,20 A10,10 0 0 0 0,40M0,20 A10,10 0 0 1 0,40M0,80 A10,10 0 0 0 0,100M0,80 A10,10 0 0 1 0,100M0,0 A20,20 0 0 1 0,40M0,40 A20,20 0 0 0 0,80M0,40 A20,20 0 0 1 0,80M0,0 A40,40 0 0 0 0,80M0,0 A40,40 0 0 1 0,80"></path><path stroke="#b3ff00" fill="none" style="stroke-width: 2;" transform="matrix(1,0,0,1,910,455)" d="M0,0 A10,10 0 0 0 0,20M0,60 A10,10 0 0 0 0,80M0,60 A10,10 0 0 1 0,80M0,80 A10,10 0 0 1 0,100M0,0 A20,20 0 0 0 0,40M0,0 A20,20 0 0 1 0,40M0,40 A20,20 0 0 0 0,80M0,40 A20,20 0 0 1 0,80M0,60 A20,20 0 0 0 0,100M0,0 A40,40 0 0 0 0,80M0,0 A40,40 0 0 1 0,80"></path><path stroke="#b3ff00" fill="none" style="stroke-width: 2;" transform="matrix(1,0,0,1,910,595)" d="M0,40 A10,10 0 0 0 0,60M0,60 A10,10 0 0 0 0,80M0,60 A10,10 0 0 1 0,80M0,0 A20,20 0 0 1 0,40M0,40 A20,20 0 0 1 0,80M0,0 A40,40 0 0 0 0,80M0,0 A40,40 0 0 1 0,80"></path><path stroke="#b3ff00" fill="none" style="stroke-width: 2;" transform="matrix(1,0,0,1,910,735)" d="M0,60 A10,10 0 0 1 0,80M0,80 A10,10 0 0 0 0,100M0,0 A20,20 0 0 0 0,40M0,40 A20,20 0 0 0 0,80M0,40 A20,20 0 0 1 0,80M0,60 A20,20 0 0 0 0,100M0,0 A40,40 0 0 0 0,80M0,0 A40,40 0 0 1 0,80"></path><path stroke="#b3ff00" fill="none" style="stroke-width: 2;" transform="matrix(1,0,0,1,910,875)" d="M0,0 A10,10 0 0 0 0,20M0,40 A10,10 0 0 0 0,60M0,0 A20,20 0 0 0 0,40M0,0 A20,20 0 0 1 0,40M0,40 A20,20 0 0 0 0,80M0,40 A20,20 0 0 1 0,80M0,0 A40,40 0 0 0 0,80M0,0 A40,40 0 0 1 0,80"></path><path stroke="#b3ff00" fill="none" style="stroke-width: 2;" transform="matrix(1,0,0,1,910,1015)" d="M0,0 A10,10 0 0 0 0,20M0,0 A10,10 0 0 1 0,20M0,20 A10,10 0 0 1 0,40M0,40 A10,10 0 0 0 0,60M0,60 A10,10 0 0 0 0,80M0,60 A10,10 0 0 1 0,80M0,80 A10,10 0 0 0 0,100M0,80 A10,10 0 0 1 0,100M0,0 A20,20 0 0 0 0,40M0,40 A20,20 0 0 0 0,80M0,60 A20,20 0 0 0 0,100M0,0 A40,40 0 0 0 0,80M0,0 A40,40 0 0 1 0,80"></path><path stroke="#b3ff00" fill="none" style="stroke-width: 2;" transform="matrix(1,0,0,1,1050,35)" d="M0,0 A10,10 0 0 1 0,20M0,20 A10,10 0 0 0 0,40M0,40 A10,10 0 0 1 0,60M0,60 A10,10 0 0 1 0,80M0,80 A10,10 0 0 0 0,100M0,0 A20,20 0 0 0 0,40M0,40 A20,20 0 0 1 0,80M0,0 A40,40 0 0 0 0,80M0,0 A40,40 0 0 1 0,80"></path><path stroke="#b3ff00" fill="none" style="stroke-width: 2;" transform="matrix(1,0,0,1,1050,175)" d="M0,0 A10,10 0 0 1 0,20M0,0 A20,20 0 0 0 0,40M0,0 A20,20 0 0 1 0,40M0,40 A20,20 0 0 0 0,80M0,0 A40,40 0 0 0 0,80M0,0 A40,40 0 0 1 0,80"></path><path stroke="#b3ff00" fill="none" style="stroke-width: 2;" transform="matrix(1,0,0,1,1050,315)" d="M0,20 A10,10 0 0 0 0,40M0,40 A10,10 0 0 0 0,60M0,60 A10,10 0 0 0 0,80M0,80 A10,10 0 0 0 0,100M0,0 A20,20 0 0 0 0,40M0,40 A20,20 0 0 0 0,80M0,40 A20,20 0 0 1 0,80M0,60 A20,20 0 0 0 0,100M0,0 A40,40 0 0 0 0,80M0,0 A40,40 0 0 1 0,80"></path><path stroke="#b3ff00" fill="none" style="stroke-width: 2;" transform="matrix(1,0,0,1,1050,455)" d="M0,0 A10,10 0 0 0 0,20M0,0 A10,10 0 0 1 0,20M0,20 A10,10 0 0 0 0,40M0,0 A20,20 0 0 0 0,40M0,40 A20,20 0 0 0 0,80M0,60 A20,20 0 0 0 0,100M0,0 A40,40 0 0 0 0,80M0,0 A40,40 0 0 1 0,80"></path><path stroke="#b3ff00" fill="none" style="stroke-width: 2;" transform="matrix(1,0,0,1,1050,595)" d="M0,0 A10,10 0 0 0 0,20M0,20 A10,10 0 0 0 0,40M0,40 A10,10 0 0 1 0,60M0,80 A10,10 0 0 1 0,100M0,0 A20,20 0 0 1 0,40M0,0 A40,40 0 0 0 0,80M0,0 A40,40 0 0 1 0,80"></path><path stroke="#b3ff00" fill="none" style="stroke-width: 2;" transform="matrix(1,0,0,1,1050,735)" d="M0,0 A10,10 0 0 0 0,20M0,0 A10,10 0 0 1 0,20M0,20 A10,10 0 0 0 0,40M0,20 A10,10 0 0 1 0,40M0,40 A10,10 0 0 0 0,60M0,40 A10,10 0 0 1 0,60M0,80 A10,10 0 0 0 0,100M0,80 A10,10 0 0 1 0,100M0,0 A20,20 0 0 0 0,40M0,40 A20,20 0 0 0 0,80M0,0 A40,40 0 0 0 0,80M0,0 A40,40 0 0 1 0,80"></path><path stroke="#b3ff00" fill="none" style="stroke-width: 2;" transform="matrix(1,0,0,1,1050,875)" d="M0,0 A10,10 0 0 0 0,20M0,0 A10,10 0 0 1 0,20M0,20 A10,10 0 0 0 0,40M0,40 A10,10 0 0 0 0,60M0,60 A10,10 0 0 1 0,80M0,80 A10,10 0 0 1 0,100M0,0 A20,20 0 0 1 0,40M0,0 A40,40 0 0 0 0,80M0,0 A40,40 0 0 1 0,80"></path><path stroke="#b3ff00" fill="none" style="stroke-width: 2;" transform="matrix(1,0,0,1,1050,1015)" d="M0,40 A10,10 0 0 1 0,60M0,80 A10,10 0 0 1 0,100M0,40 A20,20 0 0 0 0,80M0,60 A20,20 0 0 0 0,100M0,0 A40,40 0 0 0 0,80M0,0 A40,40 0 0 1 0,80"></path></svg>