<svg xmlns="http://www.w3.org/2000/svg" width="960" version="1.1" height="960"><desc>Created with Snap</desc><defs><filter filterUnits="userSpaceOnUse" id="Sib1f2ra84"><feGaussianBlur stdDeviation="5"></feGaussianBlur></filter><filter filterUnits="userSpaceOnUse" id="Sib1f2ra89"><feGaussianBlur stdDeviation="5"></feGaussianBlur></filter><filter filterUnits="userSpaceOnUse" id="Sib1f2ra8e"><feGaussianBlur stdDeviation="5"></feGaussianBlur></filter><filter filterUnits="userSpaceOnUse" id="Sib1f2ra8j"><feGaussianBlur stdDeviation="5"></feGaussianBlur></filter><filter filterUnits="userSpaceOnUse" id="Sib1f2ra8o"><feGaussianBlur stdDeviation="5"></feGaussianBlur></filter><filter filterUnits="userSpaceOnUse" id="Sib1f2ra8t"><feGaussianBlur stdDeviation="5"></feGaussianBlur></filter><filter filterUnits="userSpaceOnUse" id="Sib1f2ra8y"><feGaussianBlur stdDeviation="5"></feGaussianBlur></filter><filter filterUnits="userSpaceOnUse" id="Sib1f2ra813"><feGaussianBlur stdDeviation="5"></feGaussianBlur></filter><filter filterUnits="userSpaceOnUse" id="Sib1f2ra818"><feGaussianBlur stdDeviation="5"></feGaussianBlur></filter><filter filterUnits="userSpaceOnUse" id="Sib1f2ra81d"><feGaussianBlur stdDeviation="5"></feGaussianBlur></filter><filter filterUnits="userSpaceOnUse" id="Sib1f2ra81i"><feGaussianBlur stdDeviation="5"></feGaussianBlur></filter><filter filterUnits="userSpaceOnUse" id="Sib1f2ra81n"><feGaussianBlur stdDeviation="5"></feGaussianBlur></filter><filter filterUnits="userSpaceOnUse" id="Sib1f2ra81s"><feGaussianBlur stdDeviation="5"></feGaussianBlur></filter><filter filterUnits="userSpaceOnUse" id="Sib1f2ra81x"><feGaussianBlur stdDeviation="5"></feGaussianBlur></filter><filter filterUnits="userSpaceOnUse" id="Sib1f2ra822"><feGaussianBlur stdDeviation="5"></feGaussianBlur></filter><filter filterUnits="userSpaceOnUse" id="Sib1f2ra827"><feGaussianBlur stdDeviation="5"></feGaussianBlur></filter><filter filterUnits="userSpaceOnUse" id="Sib1f2ra82c"><feGaussianBlur stdDeviation="5"></feGaussianBlur></filter><filter filterUnits="userSpaceOnUse" id="Sib1f2ra82h"><feGaussianBlur stdDeviation="5"></feGaussianBlur></filter><filter filterUnits="userSpaceOnUse" id="Sib1f2ra82m"><feGaussianBlur stdDeviation="5"></feGaussianBlur></filter><filter filterUnits="userSpaceOnUse" id="Sib1f2ra82r"><feGaussianBlur stdDeviation="5"></feGaussianBlur></filter><filter filterUnits="userSpaceOnUse" id="Sib1f2ra82w"><feGaussianBlur stdDeviation="5"></feGaussianBlur></filter><filter filterUnits="userSpaceOnUse" id="Sib1f2ra831"><feGaussianBlur stdDeviation="5"></feGaussianBlur></filter><filter filterUnits="userSpaceOnUse" id="Sib1f2ra836"><feGaussianBlur stdDeviation="5"></feGaussianBlur></filter><filter filterUnits="userSpaceOnUse" id="Sib1f2ra83b"><feGaussianBlur stdDeviation="5"></feGaussianBlur></filter><filter filterUnits="userSpaceOnUse" id="Sib1f2ra83g"><feGaussianBlur stdDeviation="5"></feGaussianBlur></filter><filter filterUnits="userSpaceOnUse" id="Sib1f2ra83l"><feGaussianBlur stdDeviation="5"></feGaussianBlur></filter><filter filterUnits="userSpaceOnUse" id="Sib1f2ra83q"><feGaussianBlur stdDeviation="5"></feGaussianBlur></filter><filter filterUnits="userSpaceOnUse" id="Sib1f2ra83v"><feGaussianBlur stdDeviation="5"></feGaussianBlur></filter><filter filterUnits="userSpaceOnUse" id="Sib1f2ra840"><feGaussianBlur stdDeviation="5"></feGaussianBlur></filter><filter filterUnits="userSpaceOnUse" id="Sib1f2ra845"><feGaussianBlur stdDeviation="5"></feGaussianBlur></filter><filter filterUnits="userSpaceOnUse" id="Sib1f2ra84a"><feGaussianBlur stdDeviation="5"></feGaussianBlur></filter><filter filterUnits="userSpaceOnUse" id="Sib1f2ra84f"><feGaussianBlur stdDeviation="5"></feGaussianBlur></filter><filter filterUnits="userSpaceOnUse" id="Sib1f2ra84k"><feGaussianBlur stdDeviation="5"></feGaussianBlur></filter><filter filterUnits="userSpaceOnUse" id="Sib1f2ra84p"><feGaussianBlur stdDeviation="5"></feGaussianBlur></filter><filter filterUnits="userSpaceOnUse" id="Sib1f2ra84u"><feGaussianBlur stdDeviation="5"></feGaussianBlur></filter><filter filterUnits="userSpaceOnUse" id="Sib1f2ra84z"><feGaussianBlur stdDeviation="5"></feGaussianBlur></filter><filter filterUnits="userSpaceOnUse" id="Sib1f2ra854"><feGaussianBlur stdDeviation="5"></feGaussianBlur></filter><filter filterUnits="userSpaceOnUse" id="Sib1f2ra859"><feGaussianBlur stdDeviation="5"></feGaussianBlur></filter><filter filterUnits="userSpaceOnUse" id="Sib1f2ra85e"><feGaussianBlur stdDeviation="5"></feGaussianBlur></filter><filter filterUnits="userSpaceOnUse" id="Sib1f2ra85j"><feGaussianBlur stdDeviation="5"></feGaussianBlur></filter><filter filterUnits="userSpaceOnUse" id="Sib1f2ra85o"><feGaussianBlur stdDeviation="5"></feGaussianBlur></filter><filter filterUnits="userSpaceOnUse" id="Sib1f2ra85t"><feGaussianBlur stdDeviation="5"></feGaussianBlur></filter><filter filterUnits="userSpaceOnUse" id="Sib1f2ra85y"><feGaussianBlur stdDeviation="5"></feGaussianBlur></filter><filter filterUnits="userSpaceOnUse" id="Sib1f2ra863"><feGaussianBlur stdDeviation="5"></feGaussianBlur></filter><filter filterUnits="userSpaceOnUse" id="Sib1f2ra868"><feGaussianBlur stdDeviation="5"></feGaussianBlur></filter><filter filterUnits="userSpaceOnUse" id="Sib1f2ra86d"><feGaussianBlur stdDeviation="5"></feGaussianBlur></filter><filter filterUnits="userSpaceOnUse" id="Sib1f2ra86i"><feGaussianBlur stdDeviation="5"></feGaussianBlur></filter><filter filterUnits="userSpaceOnUse" id="Sib1f2ra86n"><feGaussianBlur stdDeviation="5"></feGaussianBlur></filter><filter filterUnits="userSpaceOnUse" id="Sib1f2ra86s"><feGaussianBlur stdDeviation="5"></feGaussianBlur></filter><filter filterUnits="userSpaceOnUse" id="Sib1f2ra86x"><feGaussianBlur stdDeviation="5"></feGaussianBlur></filter><filter filterUnits="userSpaceOnUse" id="Sib1f2ra872"><feGaussianBlur stdDeviation="5"></feGaussianBlur></filter><filter filterUnits="userSpaceOnUse" id="Sib1f2ra877"><feGaussianBlur stdDeviation="5"></feGaussianBlur></filter><filter filterUnits="userSpaceOnUse" id="Sib1f2ra87c"><feGaussianBlur stdDeviation="5"></feGaussianBlur></filter><filter filterUnits="userSpaceOnUse" id="Sib1f2ra87h"><feGaussianBlur stdDeviation="5"></feGaussianBlur></filter><filter filterUnits="userSpaceOnUse" id="Sib1f2ra87m"><feGaussianBlur stdDeviation="5"></feGaussianBlur></filter><filter filterUnits="userSpaceOnUse" id="Sib1f2ra87r"><feGaussianBlur stdDeviation="5"></feGaussianBlur></filter><filter filterUnits="userSpaceOnUse" id="Sib1f2ra87w"><feGaussianBlur stdDeviation="5"></feGaussianBlur></filter><filter filterUnits="userSpaceOnUse" id="Sib1f2ra881"><feGaussianBlur stdDeviation="5"></feGaussianBlur></filter><filter filterUnits="userSpaceOnUse" id="Sib1f2ra886"><feGaussianBlur stdDeviation="5"></feGaussianBlur></filter><filter filterUnits="userSpaceOnUse" id="Sib1f2ra88b"><feGaussianBlur stdDeviation="5"></feGaussianBlur></filter><filter filterUnits="userSpaceOnUse" id="Sib1f2ra88g"><feGaussianBlur stdDeviation="5"></feGaussianBlur></filter><filter filterUnits="userSpaceOnUse" id="Sib1f2ra88l"><feGaussianBlur stdDeviation="5"></feGaussianBlur></filter><filter filterUnits="userSpaceOnUse" id="Sib1f2ra88q"><feGaussianBlur stdDeviation="5"></feGaussianBlur></filter><filter filterUnits="userSpaceOnUse" id="Sib1f2ra88v"><feGaussianBlur stdDeviation="5"></feGaussianBlur></filter></defs><rect fill="#ffffff" style="" height="960" width="960" y="0" x="0"></rect><path stroke="#433ade" fill="none" style="" d="M0,0 V960 M120,0 V960 M240,0 V960 M360,0 V960 M480,0 V960 M600,0 V960 M720,0 V960 M840,0 V960 M960,0 V960 M0,0 H960 M0,120 H960 M0,240 H960 M0,360 H960 M0,480 H960 M0,600 H960 M0,720 H960 M0,840 H960 M0,960 H960 "></path><path stroke="#000000" fill="none" style="stroke-width: 2;" transform="matrix(1,0,0,1,60,20)" d="M0,0 L10,10 0,20M0,0 L-10,10 0,20M0,20 L10,30 0,40M0,20 L-10,30 0,40M0,40 L10,50 0,60M0,40 L-10,50 0,60M0,60 L10,70 0,80M0,60 L-10,70 0,80M0,0 L20,20 0,40M0,0 L-20,20 0,40M0,40 L20,60 0,80M0,40 L-20,60 0,80M0,0 L30,30 0,60"></path><path filter="url('#Sib1f2ra84')" stroke="#000000" fill="none" style="stroke-width: 2;" transform="matrix(1,0,0,1,60,20)" d="M0,0 L10,10 0,20M0,0 L-10,10 0,20M0,20 L10,30 0,40M0,20 L-10,30 0,40M0,40 L10,50 0,60M0,40 L-10,50 0,60M0,60 L10,70 0,80M0,60 L-10,70 0,80M0,0 L20,20 0,40M0,0 L-20,20 0,40M0,40 L20,60 0,80M0,40 L-20,60 0,80M0,0 L30,30 0,60"></path><path stroke="#000000" fill="none" style="stroke-width: 2;" transform="matrix(1,0,0,1,60,140)" d="M0,0 L10,10 0,20M0,20 L-10,30 0,40M0,60 L-10,70 0,80M0,0 L30,30 0,60"></path><path filter="url('#Sib1f2ra89')" stroke="#000000" fill="none" style="stroke-width: 2;" transform="matrix(1,0,0,1,60,140)" d="M0,0 L10,10 0,20M0,20 L-10,30 0,40M0,60 L-10,70 0,80M0,0 L30,30 0,60"></path><path stroke="#000000" fill="none" style="stroke-width: 2;" transform="matrix(1,0,0,1,60,260)" d="M0,40 L-10,50 0,60M0,60 L-10,70 0,80M0,0 L20,20 0,40M0,0 L30,30 0,60"></path><path filter="url('#Sib1f2ra8e')" stroke="#000000" fill="none" style="stroke-width: 2;" transform="matrix(1,0,0,1,60,260)" d="M0,40 L-10,50 0,60M0,60 L-10,70 0,80M0,0 L20,20 0,40M0,0 L30,30 0,60"></path><path stroke="#000000" fill="none" style="stroke-width: 2;" transform="matrix(1,0,0,1,60,380)" d="M0,60 L-10,70 0,80M0,0 L-20,20 0,40M0,0 L30,30 0,60"></path><path filter="url('#Sib1f2ra8j')" stroke="#000000" fill="none" style="stroke-width: 2;" transform="matrix(1,0,0,1,60,380)" d="M0,60 L-10,70 0,80M0,0 L-20,20 0,40M0,0 L30,30 0,60"></path><path stroke="#000000" fill="none" style="stroke-width: 2;" transform="matrix(1,0,0,1,60,500)" d="M0,0 L10,10 0,20M0,0 L-10,10 0,20M0,20 L-10,30 0,40M0,40 L10,50 0,60M0,60 L10,70 0,80M0,0 L-20,20 0,40M0,40 L20,60 0,80M0,0 L30,30 0,60"></path><path filter="url('#Sib1f2ra8o')" stroke="#000000" fill="none" style="stroke-width: 2;" transform="matrix(1,0,0,1,60,500)" d="M0,0 L10,10 0,20M0,0 L-10,10 0,20M0,20 L-10,30 0,40M0,40 L10,50 0,60M0,60 L10,70 0,80M0,0 L-20,20 0,40M0,40 L20,60 0,80M0,0 L30,30 0,60"></path><path stroke="#000000" fill="none" style="stroke-width: 2;" transform="matrix(1,0,0,1,60,620)" d="M0,0 L10,10 0,20M0,0 L-10,10 0,20M0,20 L10,30 0,40M0,40 L10,50 0,60M0,40 L-10,50 0,60M0,0 L20,20 0,40M0,0 L-20,20 0,40M0,40 L20,60 0,80M0,40 L-20,60 0,80M0,0 L30,30 0,60"></path><path filter="url('#Sib1f2ra8t')" stroke="#000000" fill="none" style="stroke-width: 2;" transform="matrix(1,0,0,1,60,620)" d="M0,0 L10,10 0,20M0,0 L-10,10 0,20M0,20 L10,30 0,40M0,40 L10,50 0,60M0,40 L-10,50 0,60M0,0 L20,20 0,40M0,0 L-20,20 0,40M0,40 L20,60 0,80M0,40 L-20,60 0,80M0,0 L30,30 0,60"></path><path stroke="#000000" fill="none" style="stroke-width: 2;" transform="matrix(1,0,0,1,60,740)" d="M0,0 L10,10 0,20M0,20 L10,30 0,40M0,20 L-10,30 0,40M0,40 L10,50 0,60M0,60 L-10,70 0,80M0,0 L-20,20 0,40M0,0 L30,30 0,60"></path><path filter="url('#Sib1f2ra8y')" stroke="#000000" fill="none" style="stroke-width: 2;" transform="matrix(1,0,0,1,60,740)" d="M0,0 L10,10 0,20M0,20 L10,30 0,40M0,20 L-10,30 0,40M0,40 L10,50 0,60M0,60 L-10,70 0,80M0,0 L-20,20 0,40M0,0 L30,30 0,60"></path><path stroke="#000000" fill="none" style="stroke-width: 2;" transform="matrix(1,0,0,1,60,860)" d="M0,0 L-10,10 0,20M0,60 L10,70 0,80M0,60 L-10,70 0,80M0,40 L20,60 0,80M0,0 L30,30 0,60"></path><path filter="url('#Sib1f2ra813')" stroke="#000000" fill="none" style="stroke-width: 2;" transform="matrix(1,0,0,1,60,860)" d="M0,0 L-10,10 0,20M0,60 L10,70 0,80M0,60 L-10,70 0,80M0,40 L20,60 0,80M0,0 L30,30 0,60"></path><path stroke="#000000" fill="none" style="stroke-width: 2;" transform="matrix(1,0,0,1,180,20)" d="M0,0 L10,10 0,20M0,0 L-10,10 0,20M0,20 L10,30 0,40M0,20 L-10,30 0,40M0,40 L10,50 0,60M0,0 L-20,20 0,40M0,40 L-20,60 0,80M0,0 L30,30 0,60"></path><path filter="url('#Sib1f2ra818')" stroke="#000000" fill="none" style="stroke-width: 2;" transform="matrix(1,0,0,1,180,20)" d="M0,0 L10,10 0,20M0,0 L-10,10 0,20M0,20 L10,30 0,40M0,20 L-10,30 0,40M0,40 L10,50 0,60M0,0 L-20,20 0,40M0,40 L-20,60 0,80M0,0 L30,30 0,60"></path><path stroke="#000000" fill="none" style="stroke-width: 2;" transform="matrix(1,0,0,1,180,140)" d="M0,20 L10,30 0,40M0,20 L-10,30 0,40M0,40 L10,50 0,60M0,40 L-10,50 0,60M0,60 L10,70 0,80M0,40 L-20,60 0,80M0,0 L30,30 0,60"></path><path filter="url('#Sib1f2ra81d')" stroke="#000000" fill="none" style="stroke-width: 2;" transform="matrix(1,0,0,1,180,140)" d="M0,20 L10,30 0,40M0,20 L-10,30 0,40M0,40 L10,50 0,60M0,40 L-10,50 0,60M0,60 L10,70 0,80M0,40 L-20,60 0,80M0,0 L30,30 0,60"></path><path stroke="#000000" fill="none" style="stroke-width: 2;" transform="matrix(1,0,0,1,180,260)" d="M0,0 L10,10 0,20M0,0 L-10,10 0,20M0,20 L-10,30 0,40M0,40 L10,50 0,60M0,60 L-10,70 0,80M0,0 L-20,20 0,40M0,40 L-20,60 0,80M0,0 L30,30 0,60"></path><path filter="url('#Sib1f2ra81i')" stroke="#000000" fill="none" style="stroke-width: 2;" transform="matrix(1,0,0,1,180,260)" d="M0,0 L10,10 0,20M0,0 L-10,10 0,20M0,20 L-10,30 0,40M0,40 L10,50 0,60M0,60 L-10,70 0,80M0,0 L-20,20 0,40M0,40 L-20,60 0,80M0,0 L30,30 0,60"></path><path stroke="#000000" fill="none" style="stroke-width: 2;" transform="matrix(1,0,0,1,180,380)" d="M0,0 L10,10 0,20M0,20 L10,30 0,40M0,20 L-10,30 0,40M0,40 L10,50 0,60M0,40 L-10,50 0,60M0,60 L10,70 0,80M0,60 L-10,70 0,80M0,0 L-20,20 0,40M0,40 L-20,60 0,80M0,0 L30,30 0,60"></path><path filter="url('#Sib1f2ra81n')" stroke="#000000" fill="none" style="stroke-width: 2;" transform="matrix(1,0,0,1,180,380)" d="M0,0 L10,10 0,20M0,20 L10,30 0,40M0,20 L-10,30 0,40M0,40 L10,50 0,60M0,40 L-10,50 0,60M0,60 L10,70 0,80M0,60 L-10,70 0,80M0,0 L-20,20 0,40M0,40 L-20,60 0,80M0,0 L30,30 0,60"></path><path stroke="#000000" fill="none" style="stroke-width: 2;" transform="matrix(1,0,0,1,180,500)" d="M0,0 L-10,10 0,20M0,20 L-10,30 0,40M0,40 L-10,50 0,60M0,60 L10,70 0,80M0,0 L20,20 0,40M0,0 L-20,20 0,40M0,40 L20,60 0,80M0,0 L30,30 0,60"></path><path filter="url('#Sib1f2ra81s')" stroke="#000000" fill="none" style="stroke-width: 2;" transform="matrix(1,0,0,1,180,500)" d="M0,0 L-10,10 0,20M0,20 L-10,30 0,40M0,40 L-10,50 0,60M0,60 L10,70 0,80M0,0 L20,20 0,40M0,0 L-20,20 0,40M0,40 L20,60 0,80M0,0 L30,30 0,60"></path><path stroke="#000000" fill="none" style="stroke-width: 2;" transform="matrix(1,0,0,1,180,620)" d="M0,0 L10,10 0,20M0,0 L-10,10 0,20M0,20 L-10,30 0,40M0,40 L10,50 0,60M0,40 L-10,50 0,60M0,0 L20,20 0,40M0,40 L-20,60 0,80M0,0 L30,30 0,60"></path><path filter="url('#Sib1f2ra81x')" stroke="#000000" fill="none" style="stroke-width: 2;" transform="matrix(1,0,0,1,180,620)" d="M0,0 L10,10 0,20M0,0 L-10,10 0,20M0,20 L-10,30 0,40M0,40 L10,50 0,60M0,40 L-10,50 0,60M0,0 L20,20 0,40M0,40 L-20,60 0,80M0,0 L30,30 0,60"></path><path stroke="#000000" fill="none" style="stroke-width: 2;" transform="matrix(1,0,0,1,180,740)" d="M0,0 L-10,10 0,20M0,20 L-10,30 0,40M0,40 L-10,50 0,60M0,60 L-10,70 0,80M0,0 L20,20 0,40M0,40 L20,60 0,80M0,40 L-20,60 0,80M0,0 L30,30 0,60"></path><path filter="url('#Sib1f2ra822')" stroke="#000000" fill="none" style="stroke-width: 2;" transform="matrix(1,0,0,1,180,740)" d="M0,0 L-10,10 0,20M0,20 L-10,30 0,40M0,40 L-10,50 0,60M0,60 L-10,70 0,80M0,0 L20,20 0,40M0,40 L20,60 0,80M0,40 L-20,60 0,80M0,0 L30,30 0,60"></path><path stroke="#000000" fill="none" style="stroke-width: 2;" transform="matrix(1,0,0,1,180,860)" d="M0,20 L10,30 0,40M0,40 L-10,50 0,60M0,0 L20,20 0,40M0,40 L20,60 0,80M0,0 L30,30 0,60"></path><path filter="url('#Sib1f2ra827')" stroke="#000000" fill="none" style="stroke-width: 2;" transform="matrix(1,0,0,1,180,860)" d="M0,20 L10,30 0,40M0,40 L-10,50 0,60M0,0 L20,20 0,40M0,40 L20,60 0,80M0,0 L30,30 0,60"></path><path stroke="#000000" fill="none" style="stroke-width: 2;" transform="matrix(1,0,0,1,300,20)" d="M0,20 L10,30 0,40M0,20 L-10,30 0,40M0,0 L20,20 0,40M0,40 L-20,60 0,80M0,0 L30,30 0,60"></path><path filter="url('#Sib1f2ra82c')" stroke="#000000" fill="none" style="stroke-width: 2;" transform="matrix(1,0,0,1,300,20)" d="M0,20 L10,30 0,40M0,20 L-10,30 0,40M0,0 L20,20 0,40M0,40 L-20,60 0,80M0,0 L30,30 0,60"></path><path stroke="#000000" fill="none" style="stroke-width: 2;" transform="matrix(1,0,0,1,300,140)" d="M0,0 L10,10 0,20M0,20 L10,30 0,40M0,20 L-10,30 0,40M0,40 L-10,50 0,60M0,60 L10,70 0,80M0,60 L-10,70 0,80M0,0 L20,20 0,40M0,0 L-20,20 0,40M0,40 L-20,60 0,80M0,0 L30,30 0,60"></path><path filter="url('#Sib1f2ra82h')" stroke="#000000" fill="none" style="stroke-width: 2;" transform="matrix(1,0,0,1,300,140)" d="M0,0 L10,10 0,20M0,20 L10,30 0,40M0,20 L-10,30 0,40M0,40 L-10,50 0,60M0,60 L10,70 0,80M0,60 L-10,70 0,80M0,0 L20,20 0,40M0,0 L-20,20 0,40M0,40 L-20,60 0,80M0,0 L30,30 0,60"></path><path stroke="#000000" fill="none" style="stroke-width: 2;" transform="matrix(1,0,0,1,300,260)" d="M0,0 L10,10 0,20M0,20 L10,30 0,40M0,60 L-10,70 0,80M0,0 L-20,20 0,40M0,40 L20,60 0,80M0,0 L30,30 0,60"></path><path filter="url('#Sib1f2ra82m')" stroke="#000000" fill="none" style="stroke-width: 2;" transform="matrix(1,0,0,1,300,260)" d="M0,0 L10,10 0,20M0,20 L10,30 0,40M0,60 L-10,70 0,80M0,0 L-20,20 0,40M0,40 L20,60 0,80M0,0 L30,30 0,60"></path><path stroke="#000000" fill="none" style="stroke-width: 2;" transform="matrix(1,0,0,1,300,380)" d="M0,0 L10,10 0,20M0,60 L10,70 0,80M0,60 L-10,70 0,80M0,0 L-20,20 0,40M0,40 L-20,60 0,80M0,0 L30,30 0,60"></path><path filter="url('#Sib1f2ra82r')" stroke="#000000" fill="none" style="stroke-width: 2;" transform="matrix(1,0,0,1,300,380)" d="M0,0 L10,10 0,20M0,60 L10,70 0,80M0,60 L-10,70 0,80M0,0 L-20,20 0,40M0,40 L-20,60 0,80M0,0 L30,30 0,60"></path><path stroke="#000000" fill="none" style="stroke-width: 2;" transform="matrix(1,0,0,1,300,500)" d="M0,0 L-10,10 0,20M0,60 L-10,70 0,80M0,40 L20,60 0,80M0,40 L-20,60 0,80M0,0 L30,30 0,60"></path><path filter="url('#Sib1f2ra82w')" stroke="#000000" fill="none" style="stroke-width: 2;" transform="matrix(1,0,0,1,300,500)" d="M0,0 L-10,10 0,20M0,60 L-10,70 0,80M0,40 L20,60 0,80M0,40 L-20,60 0,80M0,0 L30,30 0,60"></path><path stroke="#000000" fill="none" style="stroke-width: 2;" transform="matrix(1,0,0,1,300,620)" d="M0,0 L10,10 0,20M0,20 L-10,30 0,40M0,40 L10,50 0,60M0,40 L-10,50 0,60M0,60 L-10,70 0,80M0,0 L-20,20 0,40M0,40 L20,60 0,80M0,0 L30,30 0,60"></path><path filter="url('#Sib1f2ra831')" stroke="#000000" fill="none" style="stroke-width: 2;" transform="matrix(1,0,0,1,300,620)" d="M0,0 L10,10 0,20M0,20 L-10,30 0,40M0,40 L10,50 0,60M0,40 L-10,50 0,60M0,60 L-10,70 0,80M0,0 L-20,20 0,40M0,40 L20,60 0,80M0,0 L30,30 0,60"></path><path stroke="#000000" fill="none" style="stroke-width: 2;" transform="matrix(1,0,0,1,300,740)" d="M0,0 L-10,10 0,20M0,20 L-10,30 0,40M0,40 L10,50 0,60M0,40 L-10,50 0,60M0,60 L10,70 0,80M0,60 L-10,70 0,80M0,0 L20,20 0,40M0,40 L20,60 0,80M0,0 L30,30 0,60"></path><path filter="url('#Sib1f2ra836')" stroke="#000000" fill="none" style="stroke-width: 2;" transform="matrix(1,0,0,1,300,740)" d="M0,0 L-10,10 0,20M0,20 L-10,30 0,40M0,40 L10,50 0,60M0,40 L-10,50 0,60M0,60 L10,70 0,80M0,60 L-10,70 0,80M0,0 L20,20 0,40M0,40 L20,60 0,80M0,0 L30,30 0,60"></path><path stroke="#000000" fill="none" style="stroke-width: 2;" transform="matrix(1,0,0,1,300,860)" d="M0,20 L-10,30 0,40M0,0 L20,20 0,40M0,0 L30,30 0,60"></path><path filter="url('#Sib1f2ra83b')" stroke="#000000" fill="none" style="stroke-width: 2;" transform="matrix(1,0,0,1,300,860)" d="M0,20 L-10,30 0,40M0,0 L20,20 0,40M0,0 L30,30 0,60"></path><path stroke="#000000" fill="none" style="stroke-width: 2;" transform="matrix(1,0,0,1,420,20)" d="M0,0 L10,10 0,20M0,0 L-10,10 0,20M0,20 L10,30 0,40M0,40 L-10,50 0,60M0,40 L20,60 0,80M0,0 L30,30 0,60"></path><path filter="url('#Sib1f2ra83g')" stroke="#000000" fill="none" style="stroke-width: 2;" transform="matrix(1,0,0,1,420,20)" d="M0,0 L10,10 0,20M0,0 L-10,10 0,20M0,20 L10,30 0,40M0,40 L-10,50 0,60M0,40 L20,60 0,80M0,0 L30,30 0,60"></path><path stroke="#000000" fill="none" style="stroke-width: 2;" transform="matrix(1,0,0,1,420,140)" d="M0,0 L10,10 0,20M0,60 L10,70 0,80M0,60 L-10,70 0,80M0,0 L20,20 0,40M0,40 L20,60 0,80M0,0 L30,30 0,60"></path><path filter="url('#Sib1f2ra83l')" stroke="#000000" fill="none" style="stroke-width: 2;" transform="matrix(1,0,0,1,420,140)" d="M0,0 L10,10 0,20M0,60 L10,70 0,80M0,60 L-10,70 0,80M0,0 L20,20 0,40M0,40 L20,60 0,80M0,0 L30,30 0,60"></path><path stroke="#000000" fill="none" style="stroke-width: 2;" transform="matrix(1,0,0,1,420,260)" d="M0,40 L10,50 0,60M0,40 L-10,50 0,60M0,60 L-10,70 0,80M0,0 L20,20 0,40M0,0 L-20,20 0,40M0,0 L30,30 0,60"></path><path filter="url('#Sib1f2ra83q')" stroke="#000000" fill="none" style="stroke-width: 2;" transform="matrix(1,0,0,1,420,260)" d="M0,40 L10,50 0,60M0,40 L-10,50 0,60M0,60 L-10,70 0,80M0,0 L20,20 0,40M0,0 L-20,20 0,40M0,0 L30,30 0,60"></path><path stroke="#000000" fill="none" style="stroke-width: 2;" transform="matrix(1,0,0,1,420,380)" d="M0,0 L10,10 0,20M0,0 L-10,10 0,20M0,40 L10,50 0,60M0,40 L-10,50 0,60M0,60 L10,70 0,80M0,0 L20,20 0,40M0,40 L-20,60 0,80M0,0 L30,30 0,60"></path><path filter="url('#Sib1f2ra83v')" stroke="#000000" fill="none" style="stroke-width: 2;" transform="matrix(1,0,0,1,420,380)" d="M0,0 L10,10 0,20M0,0 L-10,10 0,20M0,40 L10,50 0,60M0,40 L-10,50 0,60M0,60 L10,70 0,80M0,0 L20,20 0,40M0,40 L-20,60 0,80M0,0 L30,30 0,60"></path><path stroke="#000000" fill="none" style="stroke-width: 2;" transform="matrix(1,0,0,1,420,500)" d="M0,0 L10,10 0,20M0,0 L-10,10 0,20M0,20 L-10,30 0,40M0,40 L10,50 0,60M0,60 L10,70 0,80M0,0 L20,20 0,40M0,0 L-20,20 0,40M0,0 L30,30 0,60"></path><path filter="url('#Sib1f2ra840')" stroke="#000000" fill="none" style="stroke-width: 2;" transform="matrix(1,0,0,1,420,500)" d="M0,0 L10,10 0,20M0,0 L-10,10 0,20M0,20 L-10,30 0,40M0,40 L10,50 0,60M0,60 L10,70 0,80M0,0 L20,20 0,40M0,0 L-20,20 0,40M0,0 L30,30 0,60"></path><path stroke="#000000" fill="none" style="stroke-width: 2;" transform="matrix(1,0,0,1,420,620)" d="M0,0 L10,10 0,20M0,20 L10,30 0,40M0,40 L10,50 0,60M0,40 L-10,50 0,60M0,60 L-10,70 0,80M0,0 L20,20 0,40M0,0 L30,30 0,60"></path><path filter="url('#Sib1f2ra845')" stroke="#000000" fill="none" style="stroke-width: 2;" transform="matrix(1,0,0,1,420,620)" d="M0,0 L10,10 0,20M0,20 L10,30 0,40M0,40 L10,50 0,60M0,40 L-10,50 0,60M0,60 L-10,70 0,80M0,0 L20,20 0,40M0,0 L30,30 0,60"></path><path stroke="#000000" fill="none" style="stroke-width: 2;" transform="matrix(1,0,0,1,420,740)" d="M0,0 L10,10 0,20M0,20 L-10,30 0,40M0,40 L10,50 0,60M0,60 L10,70 0,80M0,0 L-20,20 0,40M0,40 L20,60 0,80M0,40 L-20,60 0,80M0,0 L30,30 0,60"></path><path filter="url('#Sib1f2ra84a')" stroke="#000000" fill="none" style="stroke-width: 2;" transform="matrix(1,0,0,1,420,740)" d="M0,0 L10,10 0,20M0,20 L-10,30 0,40M0,40 L10,50 0,60M0,60 L10,70 0,80M0,0 L-20,20 0,40M0,40 L20,60 0,80M0,40 L-20,60 0,80M0,0 L30,30 0,60"></path><path stroke="#000000" fill="none" style="stroke-width: 2;" transform="matrix(1,0,0,1,420,860)" d="M0,0 L10,10 0,20M0,20 L10,30 0,40M0,20 L-10,30 0,40M0,40 L-10,50 0,60M0,0 L-20,20 0,40M0,0 L30,30 0,60"></path><path filter="url('#Sib1f2ra84f')" stroke="#000000" fill="none" style="stroke-width: 2;" transform="matrix(1,0,0,1,420,860)" d="M0,0 L10,10 0,20M0,20 L10,30 0,40M0,20 L-10,30 0,40M0,40 L-10,50 0,60M0,0 L-20,20 0,40M0,0 L30,30 0,60"></path><path stroke="#000000" fill="none" style="stroke-width: 2;" transform="matrix(1,0,0,1,540,20)" d="M0,0 L-10,10 0,20M0,60 L-10,70 0,80M0,40 L20,60 0,80M0,40 L-20,60 0,80M0,0 L30,30 0,60"></path><path filter="url('#Sib1f2ra84k')" stroke="#000000" fill="none" style="stroke-width: 2;" transform="matrix(1,0,0,1,540,20)" d="M0,0 L-10,10 0,20M0,60 L-10,70 0,80M0,40 L20,60 0,80M0,40 L-20,60 0,80M0,0 L30,30 0,60"></path><path stroke="#000000" fill="none" style="stroke-width: 2;" transform="matrix(1,0,0,1,540,140)" d="M0,0 L10,10 0,20M0,0 L-10,10 0,20M0,40 L10,50 0,60M0,40 L-10,50 0,60M0,60 L10,70 0,80M0,0 L-20,20 0,40M0,40 L-20,60 0,80M0,0 L30,30 0,60"></path><path filter="url('#Sib1f2ra84p')" stroke="#000000" fill="none" style="stroke-width: 2;" transform="matrix(1,0,0,1,540,140)" d="M0,0 L10,10 0,20M0,0 L-10,10 0,20M0,40 L10,50 0,60M0,40 L-10,50 0,60M0,60 L10,70 0,80M0,0 L-20,20 0,40M0,40 L-20,60 0,80M0,0 L30,30 0,60"></path><path stroke="#000000" fill="none" style="stroke-width: 2;" transform="matrix(1,0,0,1,540,260)" d="M0,0 L10,10 0,20M0,0 L-10,10 0,20M0,20 L10,30 0,40M0,40 L10,50 0,60M0,60 L10,70 0,80M0,0 L20,20 0,40M0,0 L-20,20 0,40M0,0 L30,30 0,60"></path><path filter="url('#Sib1f2ra84u')" stroke="#000000" fill="none" style="stroke-width: 2;" transform="matrix(1,0,0,1,540,260)" d="M0,0 L10,10 0,20M0,0 L-10,10 0,20M0,20 L10,30 0,40M0,40 L10,50 0,60M0,60 L10,70 0,80M0,0 L20,20 0,40M0,0 L-20,20 0,40M0,0 L30,30 0,60"></path><path stroke="#000000" fill="none" style="stroke-width: 2;" transform="matrix(1,0,0,1,540,380)" d="M0,0 L10,10 0,20M0,20 L-10,30 0,40M0,40 L10,50 0,60M0,0 L-20,20 0,40M0,40 L20,60 0,80M0,40 L-20,60 0,80M0,0 L30,30 0,60"></path><path filter="url('#Sib1f2ra84z')" stroke="#000000" fill="none" style="stroke-width: 2;" transform="matrix(1,0,0,1,540,380)" d="M0,0 L10,10 0,20M0,20 L-10,30 0,40M0,40 L10,50 0,60M0,0 L-20,20 0,40M0,40 L20,60 0,80M0,40 L-20,60 0,80M0,0 L30,30 0,60"></path><path stroke="#000000" fill="none" style="stroke-width: 2;" transform="matrix(1,0,0,1,540,500)" d="M0,0 L10,10 0,20M0,20 L-10,30 0,40M0,40 L10,50 0,60M0,40 L-10,50 0,60M0,60 L-10,70 0,80M0,40 L-20,60 0,80M0,0 L30,30 0,60"></path><path filter="url('#Sib1f2ra854')" stroke="#000000" fill="none" style="stroke-width: 2;" transform="matrix(1,0,0,1,540,500)" d="M0,0 L10,10 0,20M0,20 L-10,30 0,40M0,40 L10,50 0,60M0,40 L-10,50 0,60M0,60 L-10,70 0,80M0,40 L-20,60 0,80M0,0 L30,30 0,60"></path><path stroke="#000000" fill="none" style="stroke-width: 2;" transform="matrix(1,0,0,1,540,620)" d="M0,0 L10,10 0,20M0,0 L-10,10 0,20M0,20 L10,30 0,40M0,60 L10,70 0,80M0,60 L-10,70 0,80M0,40 L20,60 0,80M0,0 L30,30 0,60"></path><path filter="url('#Sib1f2ra859')" stroke="#000000" fill="none" style="stroke-width: 2;" transform="matrix(1,0,0,1,540,620)" d="M0,0 L10,10 0,20M0,0 L-10,10 0,20M0,20 L10,30 0,40M0,60 L10,70 0,80M0,60 L-10,70 0,80M0,40 L20,60 0,80M0,0 L30,30 0,60"></path><path stroke="#000000" fill="none" style="stroke-width: 2;" transform="matrix(1,0,0,1,540,740)" d="M0,0 L-10,10 0,20M0,20 L10,30 0,40M0,20 L-10,30 0,40M0,40 L10,50 0,60M0,40 L-10,50 0,60M0,60 L-10,70 0,80M0,0 L20,20 0,40M0,0 L-20,20 0,40M0,40 L20,60 0,80M0,40 L-20,60 0,80M0,0 L30,30 0,60"></path><path filter="url('#Sib1f2ra85e')" stroke="#000000" fill="none" style="stroke-width: 2;" transform="matrix(1,0,0,1,540,740)" d="M0,0 L-10,10 0,20M0,20 L10,30 0,40M0,20 L-10,30 0,40M0,40 L10,50 0,60M0,40 L-10,50 0,60M0,60 L-10,70 0,80M0,0 L20,20 0,40M0,0 L-20,20 0,40M0,40 L20,60 0,80M0,40 L-20,60 0,80M0,0 L30,30 0,60"></path><path stroke="#000000" fill="none" style="stroke-width: 2;" transform="matrix(1,0,0,1,540,860)" d="M0,40 L10,50 0,60M0,40 L-10,50 0,60M0,60 L10,70 0,80M0,60 L-10,70 0,80M0,40 L20,60 0,80M0,40 L-20,60 0,80M0,0 L30,30 0,60"></path><path filter="url('#Sib1f2ra85j')" stroke="#000000" fill="none" style="stroke-width: 2;" transform="matrix(1,0,0,1,540,860)" d="M0,40 L10,50 0,60M0,40 L-10,50 0,60M0,60 L10,70 0,80M0,60 L-10,70 0,80M0,40 L20,60 0,80M0,40 L-20,60 0,80M0,0 L30,30 0,60"></path><path stroke="#000000" fill="none" style="stroke-width: 2;" transform="matrix(1,0,0,1,660,20)" d="M0,20 L-10,30 0,40M0,40 L10,50 0,60M0,60 L10,70 0,80M0,0 L20,20 0,40M0,0 L-20,20 0,40M0,40 L-20,60 0,80M0,0 L30,30 0,60"></path><path filter="url('#Sib1f2ra85o')" stroke="#000000" fill="none" style="stroke-width: 2;" transform="matrix(1,0,0,1,660,20)" d="M0,20 L-10,30 0,40M0,40 L10,50 0,60M0,60 L10,70 0,80M0,0 L20,20 0,40M0,0 L-20,20 0,40M0,40 L-20,60 0,80M0,0 L30,30 0,60"></path><path stroke="#000000" fill="none" style="stroke-width: 2;" transform="matrix(1,0,0,1,660,140)" d="M0,0 L10,10 0,20M0,0 L-10,10 0,20M0,40 L-10,50 0,60M0,60 L10,70 0,80M0,60 L-10,70 0,80M0,0 L20,20 0,40M0,0 L-20,20 0,40M0,40 L20,60 0,80M0,40 L-20,60 0,80M0,0 L30,30 0,60"></path><path filter="url('#Sib1f2ra85t')" stroke="#000000" fill="none" style="stroke-width: 2;" transform="matrix(1,0,0,1,660,140)" d="M0,0 L10,10 0,20M0,0 L-10,10 0,20M0,40 L-10,50 0,60M0,60 L10,70 0,80M0,60 L-10,70 0,80M0,0 L20,20 0,40M0,0 L-20,20 0,40M0,40 L20,60 0,80M0,40 L-20,60 0,80M0,0 L30,30 0,60"></path><path stroke="#000000" fill="none" style="stroke-width: 2;" transform="matrix(1,0,0,1,660,260)" d="M0,0 L-10,10 0,20M0,20 L10,30 0,40M0,40 L10,50 0,60M0,40 L-10,50 0,60M0,60 L10,70 0,80M0,0 L-20,20 0,40M0,40 L-20,60 0,80M0,0 L30,30 0,60"></path><path filter="url('#Sib1f2ra85y')" stroke="#000000" fill="none" style="stroke-width: 2;" transform="matrix(1,0,0,1,660,260)" d="M0,0 L-10,10 0,20M0,20 L10,30 0,40M0,40 L10,50 0,60M0,40 L-10,50 0,60M0,60 L10,70 0,80M0,0 L-20,20 0,40M0,40 L-20,60 0,80M0,0 L30,30 0,60"></path><path stroke="#000000" fill="none" style="stroke-width: 2;" transform="matrix(1,0,0,1,660,380)" d="M0,0 L10,10 0,20M0,0 L-10,10 0,20M0,20 L-10,30 0,40M0,40 L10,50 0,60M0,40 L-10,50 0,60M0,0 L20,20 0,40M0,0 L-20,20 0,40M0,0 L30,30 0,60"></path><path filter="url('#Sib1f2ra863')" stroke="#000000" fill="none" style="stroke-width: 2;" transform="matrix(1,0,0,1,660,380)" d="M0,0 L10,10 0,20M0,0 L-10,10 0,20M0,20 L-10,30 0,40M0,40 L10,50 0,60M0,40 L-10,50 0,60M0,0 L20,20 0,40M0,0 L-20,20 0,40M0,0 L30,30 0,60"></path><path stroke="#000000" fill="none" style="stroke-width: 2;" transform="matrix(1,0,0,1,660,500)" d="M0,0 L10,10 0,20M0,20 L-10,30 0,40M0,40 L10,50 0,60M0,40 L-10,50 0,60M0,0 L20,20 0,40M0,40 L20,60 0,80M0,0 L30,30 0,60"></path><path filter="url('#Sib1f2ra868')" stroke="#000000" fill="none" style="stroke-width: 2;" transform="matrix(1,0,0,1,660,500)" d="M0,0 L10,10 0,20M0,20 L-10,30 0,40M0,40 L10,50 0,60M0,40 L-10,50 0,60M0,0 L20,20 0,40M0,40 L20,60 0,80M0,0 L30,30 0,60"></path><path stroke="#000000" fill="none" style="stroke-width: 2;" transform="matrix(1,0,0,1,660,620)" d="M0,0 L-10,10 0,20M0,20 L-10,30 0,40M0,40 L10,50 0,60M0,40 L-10,50 0,60M0,0 L20,20 0,40M0,0 L30,30 0,60"></path><path filter="url('#Sib1f2ra86d')" stroke="#000000" fill="none" style="stroke-width: 2;" transform="matrix(1,0,0,1,660,620)" d="M0,0 L-10,10 0,20M0,20 L-10,30 0,40M0,40 L10,50 0,60M0,40 L-10,50 0,60M0,0 L20,20 0,40M0,0 L30,30 0,60"></path><path stroke="#000000" fill="none" style="stroke-width: 2;" transform="matrix(1,0,0,1,660,740)" d="M0,0 L-10,10 0,20M0,20 L10,30 0,40M0,40 L-10,50 0,60M0,60 L10,70 0,80M0,0 L30,30 0,60"></path><path filter="url('#Sib1f2ra86i')" stroke="#000000" fill="none" style="stroke-width: 2;" transform="matrix(1,0,0,1,660,740)" d="M0,0 L-10,10 0,20M0,20 L10,30 0,40M0,40 L-10,50 0,60M0,60 L10,70 0,80M0,0 L30,30 0,60"></path><path stroke="#000000" fill="none" style="stroke-width: 2;" transform="matrix(1,0,0,1,660,860)" d="M0,0 L10,10 0,20M0,0 L-10,10 0,20M0,40 L-10,50 0,60M0,60 L10,70 0,80M0,0 L20,20 0,40M0,0 L-20,20 0,40M0,0 L30,30 0,60"></path><path filter="url('#Sib1f2ra86n')" stroke="#000000" fill="none" style="stroke-width: 2;" transform="matrix(1,0,0,1,660,860)" d="M0,0 L10,10 0,20M0,0 L-10,10 0,20M0,40 L-10,50 0,60M0,60 L10,70 0,80M0,0 L20,20 0,40M0,0 L-20,20 0,40M0,0 L30,30 0,60"></path><path stroke="#000000" fill="none" style="stroke-width: 2;" transform="matrix(1,0,0,1,780,20)" d="M0,0 L10,10 0,20M0,40 L10,50 0,60M0,40 L-10,50 0,60M0,60 L10,70 0,80M0,40 L20,60 0,80M0,0 L30,30 0,60"></path><path filter="url('#Sib1f2ra86s')" stroke="#000000" fill="none" style="stroke-width: 2;" transform="matrix(1,0,0,1,780,20)" d="M0,0 L10,10 0,20M0,40 L10,50 0,60M0,40 L-10,50 0,60M0,60 L10,70 0,80M0,40 L20,60 0,80M0,0 L30,30 0,60"></path><path stroke="#000000" fill="none" style="stroke-width: 2;" transform="matrix(1,0,0,1,780,140)" d="M0,0 L10,10 0,20M0,20 L10,30 0,40M0,60 L10,70 0,80M0,60 L-10,70 0,80M0,0 L20,20 0,40M0,0 L-20,20 0,40M0,0 L30,30 0,60"></path><path filter="url('#Sib1f2ra86x')" stroke="#000000" fill="none" style="stroke-width: 2;" transform="matrix(1,0,0,1,780,140)" d="M0,0 L10,10 0,20M0,20 L10,30 0,40M0,60 L10,70 0,80M0,60 L-10,70 0,80M0,0 L20,20 0,40M0,0 L-20,20 0,40M0,0 L30,30 0,60"></path><path stroke="#000000" fill="none" style="stroke-width: 2;" transform="matrix(1,0,0,1,780,260)" d="M0,20 L10,30 0,40M0,40 L-10,50 0,60M0,60 L10,70 0,80M0,60 L-10,70 0,80M0,0 L20,20 0,40M0,40 L20,60 0,80M0,40 L-20,60 0,80M0,0 L30,30 0,60"></path><path filter="url('#Sib1f2ra872')" stroke="#000000" fill="none" style="stroke-width: 2;" transform="matrix(1,0,0,1,780,260)" d="M0,20 L10,30 0,40M0,40 L-10,50 0,60M0,60 L10,70 0,80M0,60 L-10,70 0,80M0,0 L20,20 0,40M0,40 L20,60 0,80M0,40 L-20,60 0,80M0,0 L30,30 0,60"></path><path stroke="#000000" fill="none" style="stroke-width: 2;" transform="matrix(1,0,0,1,780,380)" d="M0,20 L10,30 0,40M0,40 L-10,50 0,60M0,60 L10,70 0,80M0,0 L-20,20 0,40M0,40 L20,60 0,80M0,0 L30,30 0,60"></path><path filter="url('#Sib1f2ra877')" stroke="#000000" fill="none" style="stroke-width: 2;" transform="matrix(1,0,0,1,780,380)" d="M0,20 L10,30 0,40M0,40 L-10,50 0,60M0,60 L10,70 0,80M0,0 L-20,20 0,40M0,40 L20,60 0,80M0,0 L30,30 0,60"></path><path stroke="#000000" fill="none" style="stroke-width: 2;" transform="matrix(1,0,0,1,780,500)" d="M0,20 L10,30 0,40M0,40 L10,50 0,60M0,40 L-10,50 0,60M0,60 L-10,70 0,80M0,0 L20,20 0,40M0,40 L-20,60 0,80M0,0 L30,30 0,60"></path><path filter="url('#Sib1f2ra87c')" stroke="#000000" fill="none" style="stroke-width: 2;" transform="matrix(1,0,0,1,780,500)" d="M0,20 L10,30 0,40M0,40 L10,50 0,60M0,40 L-10,50 0,60M0,60 L-10,70 0,80M0,0 L20,20 0,40M0,40 L-20,60 0,80M0,0 L30,30 0,60"></path><path stroke="#000000" fill="none" style="stroke-width: 2;" transform="matrix(1,0,0,1,780,620)" d="M0,0 L-10,10 0,20M0,20 L10,30 0,40M0,20 L-10,30 0,40M0,40 L10,50 0,60M0,60 L-10,70 0,80M0,0 L20,20 0,40M0,40 L20,60 0,80M0,40 L-20,60 0,80M0,0 L30,30 0,60"></path><path filter="url('#Sib1f2ra87h')" stroke="#000000" fill="none" style="stroke-width: 2;" transform="matrix(1,0,0,1,780,620)" d="M0,0 L-10,10 0,20M0,20 L10,30 0,40M0,20 L-10,30 0,40M0,40 L10,50 0,60M0,60 L-10,70 0,80M0,0 L20,20 0,40M0,40 L20,60 0,80M0,40 L-20,60 0,80M0,0 L30,30 0,60"></path><path stroke="#000000" fill="none" style="stroke-width: 2;" transform="matrix(1,0,0,1,780,740)" d="M0,0 L10,10 0,20M0,20 L10,30 0,40M0,60 L10,70 0,80M0,60 L-10,70 0,80M0,0 L20,20 0,40M0,40 L20,60 0,80M0,0 L30,30 0,60"></path><path filter="url('#Sib1f2ra87m')" stroke="#000000" fill="none" style="stroke-width: 2;" transform="matrix(1,0,0,1,780,740)" d="M0,0 L10,10 0,20M0,20 L10,30 0,40M0,60 L10,70 0,80M0,60 L-10,70 0,80M0,0 L20,20 0,40M0,40 L20,60 0,80M0,0 L30,30 0,60"></path><path stroke="#000000" fill="none" style="stroke-width: 2;" transform="matrix(1,0,0,1,780,860)" d="M0,0 L10,10 0,20M0,0 L-10,10 0,20M0,20 L10,30 0,40M0,40 L-10,50 0,60M0,60 L10,70 0,80M0,40 L20,60 0,80M0,0 L30,30 0,60"></path><path filter="url('#Sib1f2ra87r')" stroke="#000000" fill="none" style="stroke-width: 2;" transform="matrix(1,0,0,1,780,860)" d="M0,0 L10,10 0,20M0,0 L-10,10 0,20M0,20 L10,30 0,40M0,40 L-10,50 0,60M0,60 L10,70 0,80M0,40 L20,60 0,80M0,0 L30,30 0,60"></path><path stroke="#000000" fill="none" style="stroke-width: 2;" transform="matrix(1,0,0,1,900,20)" d="M0,0 L-10,10 0,20M0,60 L10,70 0,80M0,60 L-10,70 0,80M0,0 L-20,20 0,40M0,40 L-20,60 0,80M0,0 L30,30 0,60"></path><path filter="url('#Sib1f2ra87w')" stroke="#000000" fill="none" style="stroke-width: 2;" transform="matrix(1,0,0,1,900,20)" d="M0,0 L-10,10 0,20M0,60 L10,70 0,80M0,60 L-10,70 0,80M0,0 L-20,20 0,40M0,40 L-20,60 0,80M0,0 L30,30 0,60"></path><path stroke="#000000" fill="none" style="stroke-width: 2;" transform="matrix(1,0,0,1,900,140)" d="M0,20 L10,30 0,40M0,40 L-10,50 0,60M0,60 L-10,70 0,80M0,0 L20,20 0,40M0,40 L20,60 0,80M0,40 L-20,60 0,80M0,0 L30,30 0,60"></path><path filter="url('#Sib1f2ra881')" stroke="#000000" fill="none" style="stroke-width: 2;" transform="matrix(1,0,0,1,900,140)" d="M0,20 L10,30 0,40M0,40 L-10,50 0,60M0,60 L-10,70 0,80M0,0 L20,20 0,40M0,40 L20,60 0,80M0,40 L-20,60 0,80M0,0 L30,30 0,60"></path><path stroke="#000000" fill="none" style="stroke-width: 2;" transform="matrix(1,0,0,1,900,260)" d="M0,0 L10,10 0,20M0,40 L10,50 0,60M0,40 L-10,50 0,60M0,60 L-10,70 0,80M0,0 L20,20 0,40M0,0 L-20,20 0,40M0,40 L20,60 0,80M0,0 L30,30 0,60"></path><path filter="url('#Sib1f2ra886')" stroke="#000000" fill="none" style="stroke-width: 2;" transform="matrix(1,0,0,1,900,260)" d="M0,0 L10,10 0,20M0,40 L10,50 0,60M0,40 L-10,50 0,60M0,60 L-10,70 0,80M0,0 L20,20 0,40M0,0 L-20,20 0,40M0,40 L20,60 0,80M0,0 L30,30 0,60"></path><path stroke="#000000" fill="none" style="stroke-width: 2;" transform="matrix(1,0,0,1,900,380)" d="M0,0 L10,10 0,20M0,0 L-10,10 0,20M0,20 L-10,30 0,40M0,40 L-10,50 0,60M0,60 L-10,70 0,80M0,0 L20,20 0,40M0,40 L20,60 0,80M0,0 L30,30 0,60"></path><path filter="url('#Sib1f2ra88b')" stroke="#000000" fill="none" style="stroke-width: 2;" transform="matrix(1,0,0,1,900,380)" d="M0,0 L10,10 0,20M0,0 L-10,10 0,20M0,20 L-10,30 0,40M0,40 L-10,50 0,60M0,60 L-10,70 0,80M0,0 L20,20 0,40M0,40 L20,60 0,80M0,0 L30,30 0,60"></path><path stroke="#000000" fill="none" style="stroke-width: 2;" transform="matrix(1,0,0,1,900,500)" d="M0,0 L-10,10 0,20M0,20 L-10,30 0,40M0,40 L10,50 0,60M0,0 L20,20 0,40M0,0 L-20,20 0,40M0,40 L-20,60 0,80M0,0 L30,30 0,60"></path><path filter="url('#Sib1f2ra88g')" stroke="#000000" fill="none" style="stroke-width: 2;" transform="matrix(1,0,0,1,900,500)" d="M0,0 L-10,10 0,20M0,20 L-10,30 0,40M0,40 L10,50 0,60M0,0 L20,20 0,40M0,0 L-20,20 0,40M0,40 L-20,60 0,80M0,0 L30,30 0,60"></path><path stroke="#000000" fill="none" style="stroke-width: 2;" transform="matrix(1,0,0,1,900,620)" d="M0,0 L10,10 0,20M0,40 L10,50 0,60M0,40 L-10,50 0,60M0,60 L-10,70 0,80M0,0 L20,20 0,40M0,40 L20,60 0,80M0,0 L30,30 0,60"></path><path filter="url('#Sib1f2ra88l')" stroke="#000000" fill="none" style="stroke-width: 2;" transform="matrix(1,0,0,1,900,620)" d="M0,0 L10,10 0,20M0,40 L10,50 0,60M0,40 L-10,50 0,60M0,60 L-10,70 0,80M0,0 L20,20 0,40M0,40 L20,60 0,80M0,0 L30,30 0,60"></path><path stroke="#000000" fill="none" style="stroke-width: 2;" transform="matrix(1,0,0,1,900,740)" d="M0,0 L10,10 0,20M0,20 L-10,30 0,40M0,40 L10,50 0,60M0,60 L10,70 0,80M0,40 L-20,60 0,80M0,0 L30,30 0,60"></path><path filter="url('#Sib1f2ra88q')" stroke="#000000" fill="none" style="stroke-width: 2;" transform="matrix(1,0,0,1,900,740)" d="M0,0 L10,10 0,20M0,20 L-10,30 0,40M0,40 L10,50 0,60M0,60 L10,70 0,80M0,40 L-20,60 0,80M0,0 L30,30 0,60"></path><path stroke="#000000" fill="none" style="stroke-width: 2;" transform="matrix(1,0,0,1,900,860)" d="M0,0 L10,10 0,20M0,0 L-10,10 0,20M0,20 L10,30 0,40M0,20 L-10,30 0,40M0,40 L-10,50 0,60M0,60 L10,70 0,80M0,0 L-20,20 0,40M0,0 L30,30 0,60"></path><path filter="url('#Sib1f2ra88v')" stroke="#000000" fill="none" style="stroke-width: 2;" transform="matrix(1,0,0,1,900,860)" d="M0,0 L10,10 0,20M0,0 L-10,10 0,20M0,20 L10,30 0,40M0,20 L-10,30 0,40M0,40 L-10,50 0,60M0,60 L10,70 0,80M0,0 L-20,20 0,40M0,0 L30,30 0,60"></path></svg>