<svg xmlns="http://www.w3.org/2000/svg" width="800" version="1.1" height="800"><desc>Created with Snap</desc><defs><filter filterUnits="userSpaceOnUse" id="Sib3jhlse4"><feGaussianBlur stdDeviation="5,5"></feGaussianBlur></filter><filter filterUnits="userSpaceOnUse" x="-40%" height="180%" id="Sib3jhlsed"><feGaussianBlur stdDeviation="5,5"></feGaussianBlur></filter><filter filterUnits="userSpaceOnUse" id="Sib3jhlsem"><feGaussianBlur stdDeviation="5,5"></feGaussianBlur></filter><filter filterUnits="userSpaceOnUse" id="Sib3jhlsev"><feGaussianBlur stdDeviation="5,5"></feGaussianBlur></filter><filter filterUnits="userSpaceOnUse" id="Sib3jhlse14"><feGaussianBlur stdDeviation="5,5"></feGaussianBlur></filter><filter filterUnits="userSpaceOnUse" id="Sib3jhlse1d"><feGaussianBlur stdDeviation="5,5"></feGaussianBlur></filter><filter filterUnits="userSpaceOnUse" id="Sib3jhlse1m"><feGaussianBlur stdDeviation="5,5"></feGaussianBlur></filter><filter filterUnits="userSpaceOnUse" id="Sib3jhlse1v"><feGaussianBlur stdDeviation="5,5"></feGaussianBlur></filter><filter filterUnits="userSpaceOnUse" id="Sib3jhlse24"><feGaussianBlur stdDeviation="5,5"></feGaussianBlur></filter><filter filterUnits="userSpaceOnUse" id="Sib3jhlse2d"><feGaussianBlur stdDeviation="5,5"></feGaussianBlur></filter><filter filterUnits="userSpaceOnUse" id="Sib3jhlse2m"><feGaussianBlur stdDeviation="5,5"></feGaussianBlur></filter><filter filterUnits="userSpaceOnUse" id="Sib3jhlse2v"><feGaussianBlur stdDeviation="5,5"></feGaussianBlur></filter><filter filterUnits="userSpaceOnUse" id="Sib3jhlse34"><feGaussianBlur stdDeviation="5,5"></feGaussianBlur></filter><filter filterUnits="userSpaceOnUse" id="Sib3jhlse3d"><feGaussianBlur stdDeviation="5,5"></feGaussianBlur></filter><filter filterUnits="userSpaceOnUse" id="Sib3jhlse3m"><feGaussianBlur stdDeviation="5,5"></feGaussianBlur></filter><filter filterUnits="userSpaceOnUse" id="Sib3jhlse3v"><feGaussianBlur stdDeviation="5,5"></feGaussianBlur></filter><filter filterUnits="userSpaceOnUse" id="Sib3jhlse44"><feGaussianBlur stdDeviation="5,5"></feGaussianBlur></filter><filter filterUnits="userSpaceOnUse" id="Sib3jhlse4d"><feGaussianBlur stdDeviation="5,5"></feGaussianBlur></filter><filter filterUnits="userSpaceOnUse" id="Sib3jhlse4m"><feGaussianBlur stdDeviation="5,5"></feGaussianBlur></filter><filter filterUnits="userSpaceOnUse" id="Sib3jhlse4v"><feGaussianBlur stdDeviation="5,5"></feGaussianBlur></filter><filter filterUnits="userSpaceOnUse" id="Sib3jhlse54"><feGaussianBlur stdDeviation="5,5"></feGaussianBlur></filter><filter filterUnits="userSpaceOnUse" id="Sib3jhlse5d"><feGaussianBlur stdDeviation="5,5"></feGaussianBlur></filter><filter filterUnits="userSpaceOnUse" id="Sib3jhlse5m"><feGaussianBlur stdDeviation="5,5"></feGaussianBlur></filter><filter filterUnits="userSpaceOnUse" id="Sib3jhlse5v"><feGaussianBlur stdDeviation="5,5"></feGaussianBlur></filter><filter filterUnits="userSpaceOnUse" id="Sib3jhlse64"><feGaussianBlur stdDeviation="5,5"></feGaussianBlur></filter><filter filterUnits="userSpaceOnUse" id="Sib3jhlse6d"><feGaussianBlur stdDeviation="5,5"></feGaussianBlur></filter><filter filterUnits="userSpaceOnUse" id="Sib3jhlse6m"><feGaussianBlur stdDeviation="5,5"></feGaussianBlur></filter><filter filterUnits="userSpaceOnUse" id="Sib3jhlse6v"><feGaussianBlur stdDeviation="5,5"></feGaussianBlur></filter><filter filterUnits="userSpaceOnUse" id="Sib3jhlse74"><feGaussianBlur stdDeviation="5,5"></feGaussianBlur></filter><filter filterUnits="userSpaceOnUse" id="Sib3jhlse7d"><feGaussianBlur stdDeviation="5,5"></feGaussianBlur></filter><filter filterUnits="userSpaceOnUse" id="Sib3jhlse7m"><feGaussianBlur stdDeviation="5,5"></feGaussianBlur></filter><filter filterUnits="userSpaceOnUse" id="Sib3jhlse7v"><feGaussianBlur stdDeviation="5,5"></feGaussianBlur></filter><filter filterUnits="userSpaceOnUse" id="Sib3jhlse84"><feGaussianBlur stdDeviation="5,5"></feGaussianBlur></filter><filter filterUnits="userSpaceOnUse" id="Sib3jhlse8d"><feGaussianBlur stdDeviation="5,5"></feGaussianBlur></filter><filter filterUnits="userSpaceOnUse" id="Sib3jhlse8m"><feGaussianBlur stdDeviation="5,5"></feGaussianBlur></filter><filter filterUnits="userSpaceOnUse" id="Sib3jhlse8v"><feGaussianBlur stdDeviation="5,5"></feGaussianBlur></filter><filter filterUnits="userSpaceOnUse" id="Sib3jhlse94"><feGaussianBlur stdDeviation="5,5"></feGaussianBlur></filter><filter filterUnits="userSpaceOnUse" id="Sib3jhlse9d"><feGaussianBlur stdDeviation="5,5"></feGaussianBlur></filter><filter filterUnits="userSpaceOnUse" id="Sib3jhlse9m"><feGaussianBlur stdDeviation="5,5"></feGaussianBlur></filter><filter filterUnits="userSpaceOnUse" id="Sib3jhlse9v"><feGaussianBlur stdDeviation="5,5"></feGaussianBlur></filter><filter filterUnits="userSpaceOnUse" id="Sib3jhlsea4"><feGaussianBlur stdDeviation="5,5"></feGaussianBlur></filter><filter filterUnits="userSpaceOnUse" id="Sib3jhlsead"><feGaussianBlur stdDeviation="5,5"></feGaussianBlur></filter><filter filterUnits="userSpaceOnUse" id="Sib3jhlseam"><feGaussianBlur stdDeviation="5,5"></feGaussianBlur></filter><filter filterUnits="userSpaceOnUse" id="Sib3jhlseav"><feGaussianBlur stdDeviation="5,5"></feGaussianBlur></filter><filter filterUnits="userSpaceOnUse" id="Sib3jhlseb4"><feGaussianBlur stdDeviation="5,5"></feGaussianBlur></filter><filter filterUnits="userSpaceOnUse" id="Sib3jhlsebd"><feGaussianBlur stdDeviation="5,5"></feGaussianBlur></filter><filter filterUnits="userSpaceOnUse" id="Sib3jhlsebm"><feGaussianBlur stdDeviation="5,5"></feGaussianBlur></filter><filter filterUnits="userSpaceOnUse" id="Sib3jhlsebv"><feGaussianBlur stdDeviation="5,5"></feGaussianBlur></filter><filter filterUnits="userSpaceOnUse" id="Sib3jhlsec4"><feGaussianBlur stdDeviation="5,5"></feGaussianBlur></filter><filter filterUnits="userSpaceOnUse" id="Sib3jhlsecd"><feGaussianBlur stdDeviation="5,5"></feGaussianBlur></filter><filter filterUnits="userSpaceOnUse" id="Sib3jhlsecm"><feGaussianBlur stdDeviation="5,5"></feGaussianBlur></filter><filter filterUnits="userSpaceOnUse" id="Sib3jhlsecv"><feGaussianBlur stdDeviation="5,5"></feGaussianBlur></filter><filter filterUnits="userSpaceOnUse" id="Sib3jhlsed4"><feGaussianBlur stdDeviation="5,5"></feGaussianBlur></filter><filter filterUnits="userSpaceOnUse" id="Sib3jhlsedd"><feGaussianBlur stdDeviation="5,5"></feGaussianBlur></filter><filter filterUnits="userSpaceOnUse" id="Sib3jhlsedm"><feGaussianBlur stdDeviation="5,5"></feGaussianBlur></filter><filter filterUnits="userSpaceOnUse" id="Sib3jhlsedv"><feGaussianBlur stdDeviation="5,5"></feGaussianBlur></filter><filter filterUnits="userSpaceOnUse" id="Sib3jhlsee4"><feGaussianBlur stdDeviation="5,5"></feGaussianBlur></filter><filter filterUnits="userSpaceOnUse" id="Sib3jhlseed"><feGaussianBlur stdDeviation="5,5"></feGaussianBlur></filter><filter filterUnits="userSpaceOnUse" id="Sib3jhlseem"><feGaussianBlur stdDeviation="5,5"></feGaussianBlur></filter><filter filterUnits="userSpaceOnUse" id="Sib3jhlseev"><feGaussianBlur stdDeviation="5,5"></feGaussianBlur></filter><filter filterUnits="userSpaceOnUse" id="Sib3jhlsef4"><feGaussianBlur stdDeviation="5,5"></feGaussianBlur></filter><filter filterUnits="userSpaceOnUse" id="Sib3jhlsefd"><feGaussianBlur stdDeviation="5,5"></feGaussianBlur></filter><filter filterUnits="userSpaceOnUse" id="Sib3jhlsefm"><feGaussianBlur stdDeviation="5,5"></feGaussianBlur></filter><filter filterUnits="userSpaceOnUse" id="Sib3jhlsefv"><feGaussianBlur stdDeviation="5,5"></feGaussianBlur></filter></defs><rect fill="#000000" style="" height="800" width="800" y="0" x="0"></rect><path stroke="#ff00a6" fill="none" style="" d="M0,0 V800 M100,0 V800 M200,0 V800 M300,0 V800 M400,0 V800 M500,0 V800 M600,0 V800 M700,0 V800 M800,0 V800 M0,0 H800 M0,100 H800 M0,200 H800 M0,300 H800 M0,400 H800 M0,500 H800 M0,600 H800 M0,700 H800 M0,800 H800 "></path><path stroke="none" fill="none" style="stroke-width: 2; stroke-linecap: square;" transform="matrix(1,0,0,1,50,20)" d="M0,0 L10,10 0,20M0,0 L-10,10 0,20M0,20 L10,30 0,40M0,20 L-10,30 0,40M0,40 L10,50 0,60M0,40 L-10,50 0,60M0,0 L20,20 0,40M0,0 L-20,20 0,40M0,0 L30,30 0,60M0,0 L-30,30 0,60M0,20 L20,40 0,60M0,20 L-20,40 0,60"></path><path mask="url('#maskSib3jhlse8')" stroke="#b3ff00" fill="none" style="stroke-width: 4; stroke-linecap: square;" transform="matrix(1,0,0,1,50,20)" d="M0,0 L10,10 0,20M0,0 L-10,10 0,20M0,20 L10,30 0,40M0,20 L-10,30 0,40M0,40 L10,50 0,60M0,40 L-10,50 0,60M0,0 L20,20 0,40M0,0 L-20,20 0,40M0,0 L30,30 0,60M0,0 L-30,30 0,60M0,20 L20,40 0,60M0,20 L-20,40 0,60"></path><path filter="url('#Sib3jhlse4')" mask="url('#maskSib3jhlse8')" stroke="#b3ff00" fill="none" style="stroke-width: 4; stroke-linecap: square;" transform="matrix(1,0,0,1,50,20)" d="M0,0 L10,10 0,20M0,0 L-10,10 0,20M0,20 L10,30 0,40M0,20 L-10,30 0,40M0,40 L10,50 0,60M0,40 L-10,50 0,60M0,0 L20,20 0,40M0,0 L-20,20 0,40M0,0 L30,30 0,60M0,0 L-30,30 0,60M0,20 L20,40 0,60M0,20 L-20,40 0,60"></path><mask id="maskSib3jhlse8"><rect fill="#ffffff" style="" height="200" width="200" y="-100" x="-100"></rect><path stroke="#000000" fill="#ffffff" style="stroke-width: 2; stroke-linecap: square;" transform="matrix(1,0,0,1,0,0)" d="M0,0 L10,10 0,20M0,0 L-10,10 0,20M0,20 L10,30 0,40M0,20 L-10,30 0,40M0,40 L10,50 0,60M0,40 L-10,50 0,60M0,0 L20,20 0,40M0,0 L-20,20 0,40M0,0 L30,30 0,60M0,0 L-30,30 0,60M0,20 L20,40 0,60M0,20 L-20,40 0,60"></path></mask><path stroke="none" fill="none" style="stroke-width: 2; stroke-linecap: square;" transform="matrix(1,0,0,1,50,120)" d="M0,0 L10,10 0,20M0,20 L10,30 0,40M0,20 L-10,30 0,40M0,40 L10,50 0,60M0,40 L-10,50 0,60M0,0 L20,20 0,40"></path><path mask="url('#maskSib3jhlseh')" stroke="#b3ff00" fill="none" style="stroke-width: 4; stroke-linecap: square;" transform="matrix(1,0,0,1,50,120)" d="M0,0 L10,10 0,20M0,20 L10,30 0,40M0,20 L-10,30 0,40M0,40 L10,50 0,60M0,40 L-10,50 0,60M0,0 L20,20 0,40"></path><path filter="url('#Sib3jhlsed')" mask="url('#maskSib3jhlseh')" stroke="#b3ff00" fill="none" style="stroke-width: 4; stroke-linecap: square;" transform="matrix(1,0,0,1,50,120)" d="M0,0 L10,10 0,20M0,20 L10,30 0,40M0,20 L-10,30 0,40M0,40 L10,50 0,60M0,40 L-10,50 0,60M0,0 L20,20 0,40"></path><mask id="maskSib3jhlseh"><rect fill="#ffffff" style="" height="200" width="200" y="-100" x="-100"></rect><path stroke="#000000" fill="#ffffff" style="stroke-width: 2; stroke-linecap: square;" transform="matrix(1,0,0,1,0,0)" d="M0,0 L10,10 0,20M0,20 L10,30 0,40M0,20 L-10,30 0,40M0,40 L10,50 0,60M0,40 L-10,50 0,60M0,0 L20,20 0,40"></path></mask><path stroke="none" fill="none" style="stroke-width: 2; stroke-linecap: square;" transform="matrix(1,0,0,1,50,220)" d="M0,0 L-10,10 0,20M0,20 L-10,30 0,40M0,40 L10,50 0,60M0,40 L-10,50 0,60M0,0 L20,20 0,40M0,0 L30,30 0,60M0,0 L-30,30 0,60M0,20 L20,40 0,60M0,20 L-20,40 0,60"></path><path mask="url('#maskSib3jhlseq')" stroke="#b3ff00" fill="none" style="stroke-width: 4; stroke-linecap: square;" transform="matrix(1,0,0,1,50,220)" d="M0,0 L-10,10 0,20M0,20 L-10,30 0,40M0,40 L10,50 0,60M0,40 L-10,50 0,60M0,0 L20,20 0,40M0,0 L30,30 0,60M0,0 L-30,30 0,60M0,20 L20,40 0,60M0,20 L-20,40 0,60"></path><path filter="url('#Sib3jhlsem')" mask="url('#maskSib3jhlseq')" stroke="#b3ff00" fill="none" style="stroke-width: 4; stroke-linecap: square;" transform="matrix(1,0,0,1,50,220)" d="M0,0 L-10,10 0,20M0,20 L-10,30 0,40M0,40 L10,50 0,60M0,40 L-10,50 0,60M0,0 L20,20 0,40M0,0 L30,30 0,60M0,0 L-30,30 0,60M0,20 L20,40 0,60M0,20 L-20,40 0,60"></path><mask id="maskSib3jhlseq"><rect fill="#ffffff" style="" height="200" width="200" y="-100" x="-100"></rect><path stroke="#000000" fill="#ffffff" style="stroke-width: 2; stroke-linecap: square;" transform="matrix(1,0,0,1,0,0)" d="M0,0 L-10,10 0,20M0,20 L-10,30 0,40M0,40 L10,50 0,60M0,40 L-10,50 0,60M0,0 L20,20 0,40M0,0 L30,30 0,60M0,0 L-30,30 0,60M0,20 L20,40 0,60M0,20 L-20,40 0,60"></path></mask><path stroke="none" fill="none" style="stroke-width: 2; stroke-linecap: square;" transform="matrix(1,0,0,1,50,320)" d="M0,40 L-10,50 0,60M0,0 L-20,20 0,40M0,0 L30,30 0,60M0,0 L-30,30 0,60"></path><path mask="url('#maskSib3jhlsez')" stroke="#b3ff00" fill="none" style="stroke-width: 4; stroke-linecap: square;" transform="matrix(1,0,0,1,50,320)" d="M0,40 L-10,50 0,60M0,0 L-20,20 0,40M0,0 L30,30 0,60M0,0 L-30,30 0,60"></path><path filter="url('#Sib3jhlsev')" mask="url('#maskSib3jhlsez')" stroke="#b3ff00" fill="none" style="stroke-width: 4; stroke-linecap: square;" transform="matrix(1,0,0,1,50,320)" d="M0,40 L-10,50 0,60M0,0 L-20,20 0,40M0,0 L30,30 0,60M0,0 L-30,30 0,60"></path><mask id="maskSib3jhlsez"><rect fill="#ffffff" style="" height="200" width="200" y="-100" x="-100"></rect><path stroke="#000000" fill="#ffffff" style="stroke-width: 2; stroke-linecap: square;" transform="matrix(1,0,0,1,0,0)" d="M0,40 L-10,50 0,60M0,0 L-20,20 0,40M0,0 L30,30 0,60M0,0 L-30,30 0,60"></path></mask><path stroke="none" fill="none" style="stroke-width: 2; stroke-linecap: square;" transform="matrix(1,0,0,1,50,420)" d="M0,0 L-10,10 0,20M0,20 L10,30 0,40M0,20 L-10,30 0,40M0,40 L-10,50 0,60M0,0 L20,20 0,40M0,0 L-20,20 0,40M0,0 L30,30 0,60M0,20 L-20,40 0,60"></path><path mask="url('#maskSib3jhlse18')" stroke="#b3ff00" fill="none" style="stroke-width: 4; stroke-linecap: square;" transform="matrix(1,0,0,1,50,420)" d="M0,0 L-10,10 0,20M0,20 L10,30 0,40M0,20 L-10,30 0,40M0,40 L-10,50 0,60M0,0 L20,20 0,40M0,0 L-20,20 0,40M0,0 L30,30 0,60M0,20 L-20,40 0,60"></path><path filter="url('#Sib3jhlse14')" mask="url('#maskSib3jhlse18')" stroke="#b3ff00" fill="none" style="stroke-width: 4; stroke-linecap: square;" transform="matrix(1,0,0,1,50,420)" d="M0,0 L-10,10 0,20M0,20 L10,30 0,40M0,20 L-10,30 0,40M0,40 L-10,50 0,60M0,0 L20,20 0,40M0,0 L-20,20 0,40M0,0 L30,30 0,60M0,20 L-20,40 0,60"></path><mask id="maskSib3jhlse18"><rect fill="#ffffff" style="" height="200" width="200" y="-100" x="-100"></rect><path stroke="#000000" fill="#ffffff" style="stroke-width: 2; stroke-linecap: square;" transform="matrix(1,0,0,1,0,0)" d="M0,0 L-10,10 0,20M0,20 L10,30 0,40M0,20 L-10,30 0,40M0,40 L-10,50 0,60M0,0 L20,20 0,40M0,0 L-20,20 0,40M0,0 L30,30 0,60M0,20 L-20,40 0,60"></path></mask><path stroke="none" fill="none" style="stroke-width: 2; stroke-linecap: square;" transform="matrix(1,0,0,1,50,520)" d="M0,0 L-10,10 0,20M0,20 L10,30 0,40M0,20 L-10,30 0,40M0,40 L-10,50 0,60M0,0 L20,20 0,40M0,0 L-30,30 0,60M0,20 L20,40 0,60M0,20 L-20,40 0,60"></path><path mask="url('#maskSib3jhlse1h')" stroke="#b3ff00" fill="none" style="stroke-width: 4; stroke-linecap: square;" transform="matrix(1,0,0,1,50,520)" d="M0,0 L-10,10 0,20M0,20 L10,30 0,40M0,20 L-10,30 0,40M0,40 L-10,50 0,60M0,0 L20,20 0,40M0,0 L-30,30 0,60M0,20 L20,40 0,60M0,20 L-20,40 0,60"></path><path filter="url('#Sib3jhlse1d')" mask="url('#maskSib3jhlse1h')" stroke="#b3ff00" fill="none" style="stroke-width: 4; stroke-linecap: square;" transform="matrix(1,0,0,1,50,520)" d="M0,0 L-10,10 0,20M0,20 L10,30 0,40M0,20 L-10,30 0,40M0,40 L-10,50 0,60M0,0 L20,20 0,40M0,0 L-30,30 0,60M0,20 L20,40 0,60M0,20 L-20,40 0,60"></path><mask id="maskSib3jhlse1h"><rect fill="#ffffff" style="" height="200" width="200" y="-100" x="-100"></rect><path stroke="#000000" fill="#ffffff" style="stroke-width: 2; stroke-linecap: square;" transform="matrix(1,0,0,1,0,0)" d="M0,0 L-10,10 0,20M0,20 L10,30 0,40M0,20 L-10,30 0,40M0,40 L-10,50 0,60M0,0 L20,20 0,40M0,0 L-30,30 0,60M0,20 L20,40 0,60M0,20 L-20,40 0,60"></path></mask><path stroke="none" fill="none" style="stroke-width: 2; stroke-linecap: square;" transform="matrix(1,0,0,1,50,620)" d="M0,20 L10,30 0,40M0,20 L-10,30 0,40M0,40 L10,50 0,60M0,40 L-10,50 0,60M0,0 L20,20 0,40M0,0 L30,30 0,60M0,20 L20,40 0,60"></path><path mask="url('#maskSib3jhlse1q')" stroke="#b3ff00" fill="none" style="stroke-width: 4; stroke-linecap: square;" transform="matrix(1,0,0,1,50,620)" d="M0,20 L10,30 0,40M0,20 L-10,30 0,40M0,40 L10,50 0,60M0,40 L-10,50 0,60M0,0 L20,20 0,40M0,0 L30,30 0,60M0,20 L20,40 0,60"></path><path filter="url('#Sib3jhlse1m')" mask="url('#maskSib3jhlse1q')" stroke="#b3ff00" fill="none" style="stroke-width: 4; stroke-linecap: square;" transform="matrix(1,0,0,1,50,620)" d="M0,20 L10,30 0,40M0,20 L-10,30 0,40M0,40 L10,50 0,60M0,40 L-10,50 0,60M0,0 L20,20 0,40M0,0 L30,30 0,60M0,20 L20,40 0,60"></path><mask id="maskSib3jhlse1q"><rect fill="#ffffff" style="" height="200" width="200" y="-100" x="-100"></rect><path stroke="#000000" fill="#ffffff" style="stroke-width: 2; stroke-linecap: square;" transform="matrix(1,0,0,1,0,0)" d="M0,20 L10,30 0,40M0,20 L-10,30 0,40M0,40 L10,50 0,60M0,40 L-10,50 0,60M0,0 L20,20 0,40M0,0 L30,30 0,60M0,20 L20,40 0,60"></path></mask><path stroke="none" fill="none" style="stroke-width: 2; stroke-linecap: square;" transform="matrix(1,0,0,1,50,720)" d="M0,0 L10,10 0,20M0,0 L-10,10 0,20M0,20 L10,30 0,40M0,20 L-10,30 0,40M0,0 L-20,20 0,40M0,20 L-20,40 0,60"></path><path mask="url('#maskSib3jhlse1z')" stroke="#b3ff00" fill="none" style="stroke-width: 4; stroke-linecap: square;" transform="matrix(1,0,0,1,50,720)" d="M0,0 L10,10 0,20M0,0 L-10,10 0,20M0,20 L10,30 0,40M0,20 L-10,30 0,40M0,0 L-20,20 0,40M0,20 L-20,40 0,60"></path><path filter="url('#Sib3jhlse1v')" mask="url('#maskSib3jhlse1z')" stroke="#b3ff00" fill="none" style="stroke-width: 4; stroke-linecap: square;" transform="matrix(1,0,0,1,50,720)" d="M0,0 L10,10 0,20M0,0 L-10,10 0,20M0,20 L10,30 0,40M0,20 L-10,30 0,40M0,0 L-20,20 0,40M0,20 L-20,40 0,60"></path><mask id="maskSib3jhlse1z"><rect fill="#ffffff" style="" height="200" width="200" y="-100" x="-100"></rect><path stroke="#000000" fill="#ffffff" style="stroke-width: 2; stroke-linecap: square;" transform="matrix(1,0,0,1,0,0)" d="M0,0 L10,10 0,20M0,0 L-10,10 0,20M0,20 L10,30 0,40M0,20 L-10,30 0,40M0,0 L-20,20 0,40M0,20 L-20,40 0,60"></path></mask><path stroke="none" fill="none" style="stroke-width: 2; stroke-linecap: square;" transform="matrix(1,0,0,1,150,20)" d="M0,20 L10,30 0,40M0,40 L10,50 0,60M0,0 L20,20 0,40M0,0 L-20,20 0,40M0,0 L30,30 0,60M0,0 L-30,30 0,60M0,20 L20,40 0,60M0,20 L-20,40 0,60"></path><path mask="url('#maskSib3jhlse28')" stroke="#b3ff00" fill="none" style="stroke-width: 4; stroke-linecap: square;" transform="matrix(1,0,0,1,150,20)" d="M0,20 L10,30 0,40M0,40 L10,50 0,60M0,0 L20,20 0,40M0,0 L-20,20 0,40M0,0 L30,30 0,60M0,0 L-30,30 0,60M0,20 L20,40 0,60M0,20 L-20,40 0,60"></path><path filter="url('#Sib3jhlse24')" mask="url('#maskSib3jhlse28')" stroke="#b3ff00" fill="none" style="stroke-width: 4; stroke-linecap: square;" transform="matrix(1,0,0,1,150,20)" d="M0,20 L10,30 0,40M0,40 L10,50 0,60M0,0 L20,20 0,40M0,0 L-20,20 0,40M0,0 L30,30 0,60M0,0 L-30,30 0,60M0,20 L20,40 0,60M0,20 L-20,40 0,60"></path><mask id="maskSib3jhlse28"><rect fill="#ffffff" style="" height="200" width="200" y="-100" x="-100"></rect><path stroke="#000000" fill="#ffffff" style="stroke-width: 2; stroke-linecap: square;" transform="matrix(1,0,0,1,0,0)" d="M0,20 L10,30 0,40M0,40 L10,50 0,60M0,0 L20,20 0,40M0,0 L-20,20 0,40M0,0 L30,30 0,60M0,0 L-30,30 0,60M0,20 L20,40 0,60M0,20 L-20,40 0,60"></path></mask><path stroke="none" fill="none" style="stroke-width: 2; stroke-linecap: square;" transform="matrix(1,0,0,1,150,120)" d="M0,0 L10,10 0,20M0,20 L10,30 0,40M0,20 L-10,30 0,40M0,40 L10,50 0,60M0,0 L-20,20 0,40M0,0 L-30,30 0,60M0,20 L20,40 0,60"></path><path mask="url('#maskSib3jhlse2h')" stroke="#b3ff00" fill="none" style="stroke-width: 4; stroke-linecap: square;" transform="matrix(1,0,0,1,150,120)" d="M0,0 L10,10 0,20M0,20 L10,30 0,40M0,20 L-10,30 0,40M0,40 L10,50 0,60M0,0 L-20,20 0,40M0,0 L-30,30 0,60M0,20 L20,40 0,60"></path><path filter="url('#Sib3jhlse2d')" mask="url('#maskSib3jhlse2h')" stroke="#b3ff00" fill="none" style="stroke-width: 4; stroke-linecap: square;" transform="matrix(1,0,0,1,150,120)" d="M0,0 L10,10 0,20M0,20 L10,30 0,40M0,20 L-10,30 0,40M0,40 L10,50 0,60M0,0 L-20,20 0,40M0,0 L-30,30 0,60M0,20 L20,40 0,60"></path><mask id="maskSib3jhlse2h"><rect fill="#ffffff" style="" height="200" width="200" y="-100" x="-100"></rect><path stroke="#000000" fill="#ffffff" style="stroke-width: 2; stroke-linecap: square;" transform="matrix(1,0,0,1,0,0)" d="M0,0 L10,10 0,20M0,20 L10,30 0,40M0,20 L-10,30 0,40M0,40 L10,50 0,60M0,0 L-20,20 0,40M0,0 L-30,30 0,60M0,20 L20,40 0,60"></path></mask><path stroke="none" fill="none" style="stroke-width: 2; stroke-linecap: square;" transform="matrix(1,0,0,1,150,220)" d="M0,0 L10,10 0,20M0,0 L-10,10 0,20M0,20 L-10,30 0,40M0,40 L10,50 0,60M0,40 L-10,50 0,60M0,0 L20,20 0,40M0,0 L30,30 0,60M0,0 L-30,30 0,60M0,20 L20,40 0,60M0,20 L-20,40 0,60"></path><path mask="url('#maskSib3jhlse2q')" stroke="#b3ff00" fill="none" style="stroke-width: 4; stroke-linecap: square;" transform="matrix(1,0,0,1,150,220)" d="M0,0 L10,10 0,20M0,0 L-10,10 0,20M0,20 L-10,30 0,40M0,40 L10,50 0,60M0,40 L-10,50 0,60M0,0 L20,20 0,40M0,0 L30,30 0,60M0,0 L-30,30 0,60M0,20 L20,40 0,60M0,20 L-20,40 0,60"></path><path filter="url('#Sib3jhlse2m')" mask="url('#maskSib3jhlse2q')" stroke="#b3ff00" fill="none" style="stroke-width: 4; stroke-linecap: square;" transform="matrix(1,0,0,1,150,220)" d="M0,0 L10,10 0,20M0,0 L-10,10 0,20M0,20 L-10,30 0,40M0,40 L10,50 0,60M0,40 L-10,50 0,60M0,0 L20,20 0,40M0,0 L30,30 0,60M0,0 L-30,30 0,60M0,20 L20,40 0,60M0,20 L-20,40 0,60"></path><mask id="maskSib3jhlse2q"><rect fill="#ffffff" style="" height="200" width="200" y="-100" x="-100"></rect><path stroke="#000000" fill="#ffffff" style="stroke-width: 2; stroke-linecap: square;" transform="matrix(1,0,0,1,0,0)" d="M0,0 L10,10 0,20M0,0 L-10,10 0,20M0,20 L-10,30 0,40M0,40 L10,50 0,60M0,40 L-10,50 0,60M0,0 L20,20 0,40M0,0 L30,30 0,60M0,0 L-30,30 0,60M0,20 L20,40 0,60M0,20 L-20,40 0,60"></path></mask><path stroke="none" fill="none" style="stroke-width: 2; stroke-linecap: square;" transform="matrix(1,0,0,1,150,320)" d="M0,0 L10,10 0,20M0,20 L-10,30 0,40M0,40 L10,50 0,60M0,0 L-20,20 0,40M0,20 L20,40 0,60M0,20 L-20,40 0,60"></path><path mask="url('#maskSib3jhlse2z')" stroke="#b3ff00" fill="none" style="stroke-width: 4; stroke-linecap: square;" transform="matrix(1,0,0,1,150,320)" d="M0,0 L10,10 0,20M0,20 L-10,30 0,40M0,40 L10,50 0,60M0,0 L-20,20 0,40M0,20 L20,40 0,60M0,20 L-20,40 0,60"></path><path filter="url('#Sib3jhlse2v')" mask="url('#maskSib3jhlse2z')" stroke="#b3ff00" fill="none" style="stroke-width: 4; stroke-linecap: square;" transform="matrix(1,0,0,1,150,320)" d="M0,0 L10,10 0,20M0,20 L-10,30 0,40M0,40 L10,50 0,60M0,0 L-20,20 0,40M0,20 L20,40 0,60M0,20 L-20,40 0,60"></path><mask id="maskSib3jhlse2z"><rect fill="#ffffff" style="" height="200" width="200" y="-100" x="-100"></rect><path stroke="#000000" fill="#ffffff" style="stroke-width: 2; stroke-linecap: square;" transform="matrix(1,0,0,1,0,0)" d="M0,0 L10,10 0,20M0,20 L-10,30 0,40M0,40 L10,50 0,60M0,0 L-20,20 0,40M0,20 L20,40 0,60M0,20 L-20,40 0,60"></path></mask><path stroke="none" fill="none" style="stroke-width: 2; stroke-linecap: square;" transform="matrix(1,0,0,1,150,420)" d="M0,0 L10,10 0,20M0,20 L10,30 0,40M0,20 L-10,30 0,40M0,0 L20,20 0,40M0,0 L-20,20 0,40M0,0 L30,30 0,60M0,0 L-30,30 0,60M0,20 L20,40 0,60"></path><path mask="url('#maskSib3jhlse38')" stroke="#b3ff00" fill="none" style="stroke-width: 4; stroke-linecap: square;" transform="matrix(1,0,0,1,150,420)" d="M0,0 L10,10 0,20M0,20 L10,30 0,40M0,20 L-10,30 0,40M0,0 L20,20 0,40M0,0 L-20,20 0,40M0,0 L30,30 0,60M0,0 L-30,30 0,60M0,20 L20,40 0,60"></path><path filter="url('#Sib3jhlse34')" mask="url('#maskSib3jhlse38')" stroke="#b3ff00" fill="none" style="stroke-width: 4; stroke-linecap: square;" transform="matrix(1,0,0,1,150,420)" d="M0,0 L10,10 0,20M0,20 L10,30 0,40M0,20 L-10,30 0,40M0,0 L20,20 0,40M0,0 L-20,20 0,40M0,0 L30,30 0,60M0,0 L-30,30 0,60M0,20 L20,40 0,60"></path><mask id="maskSib3jhlse38"><rect fill="#ffffff" style="" height="200" width="200" y="-100" x="-100"></rect><path stroke="#000000" fill="#ffffff" style="stroke-width: 2; stroke-linecap: square;" transform="matrix(1,0,0,1,0,0)" d="M0,0 L10,10 0,20M0,20 L10,30 0,40M0,20 L-10,30 0,40M0,0 L20,20 0,40M0,0 L-20,20 0,40M0,0 L30,30 0,60M0,0 L-30,30 0,60M0,20 L20,40 0,60"></path></mask><path stroke="none" fill="none" style="stroke-width: 2; stroke-linecap: square;" transform="matrix(1,0,0,1,150,520)" d="M0,0 L10,10 0,20M0,0 L-10,10 0,20M0,0 L20,20 0,40M0,0 L30,30 0,60"></path><path mask="url('#maskSib3jhlse3h')" stroke="#b3ff00" fill="none" style="stroke-width: 4; stroke-linecap: square;" transform="matrix(1,0,0,1,150,520)" d="M0,0 L10,10 0,20M0,0 L-10,10 0,20M0,0 L20,20 0,40M0,0 L30,30 0,60"></path><path filter="url('#Sib3jhlse3d')" mask="url('#maskSib3jhlse3h')" stroke="#b3ff00" fill="none" style="stroke-width: 4; stroke-linecap: square;" transform="matrix(1,0,0,1,150,520)" d="M0,0 L10,10 0,20M0,0 L-10,10 0,20M0,0 L20,20 0,40M0,0 L30,30 0,60"></path><mask id="maskSib3jhlse3h"><rect fill="#ffffff" style="" height="200" width="200" y="-100" x="-100"></rect><path stroke="#000000" fill="#ffffff" style="stroke-width: 2; stroke-linecap: square;" transform="matrix(1,0,0,1,0,0)" d="M0,0 L10,10 0,20M0,0 L-10,10 0,20M0,0 L20,20 0,40M0,0 L30,30 0,60"></path></mask><path stroke="none" fill="none" style="stroke-width: 2; stroke-linecap: square;" transform="matrix(1,0,0,1,150,620)" d="M0,0 L10,10 0,20M0,20 L10,30 0,40M0,40 L-10,50 0,60M0,0 L-20,20 0,40M0,0 L30,30 0,60M0,20 L20,40 0,60"></path><path mask="url('#maskSib3jhlse3q')" stroke="#b3ff00" fill="none" style="stroke-width: 4; stroke-linecap: square;" transform="matrix(1,0,0,1,150,620)" d="M0,0 L10,10 0,20M0,20 L10,30 0,40M0,40 L-10,50 0,60M0,0 L-20,20 0,40M0,0 L30,30 0,60M0,20 L20,40 0,60"></path><path filter="url('#Sib3jhlse3m')" mask="url('#maskSib3jhlse3q')" stroke="#b3ff00" fill="none" style="stroke-width: 4; stroke-linecap: square;" transform="matrix(1,0,0,1,150,620)" d="M0,0 L10,10 0,20M0,20 L10,30 0,40M0,40 L-10,50 0,60M0,0 L-20,20 0,40M0,0 L30,30 0,60M0,20 L20,40 0,60"></path><mask id="maskSib3jhlse3q"><rect fill="#ffffff" style="" height="200" width="200" y="-100" x="-100"></rect><path stroke="#000000" fill="#ffffff" style="stroke-width: 2; stroke-linecap: square;" transform="matrix(1,0,0,1,0,0)" d="M0,0 L10,10 0,20M0,20 L10,30 0,40M0,40 L-10,50 0,60M0,0 L-20,20 0,40M0,0 L30,30 0,60M0,20 L20,40 0,60"></path></mask><path stroke="none" fill="none" style="stroke-width: 2; stroke-linecap: square;" transform="matrix(1,0,0,1,150,720)" d="M0,0 L10,10 0,20M0,20 L-10,30 0,40M0,40 L10,50 0,60M0,0 L20,20 0,40M0,0 L-20,20 0,40M0,20 L20,40 0,60"></path><path mask="url('#maskSib3jhlse3z')" stroke="#b3ff00" fill="none" style="stroke-width: 4; stroke-linecap: square;" transform="matrix(1,0,0,1,150,720)" d="M0,0 L10,10 0,20M0,20 L-10,30 0,40M0,40 L10,50 0,60M0,0 L20,20 0,40M0,0 L-20,20 0,40M0,20 L20,40 0,60"></path><path filter="url('#Sib3jhlse3v')" mask="url('#maskSib3jhlse3z')" stroke="#b3ff00" fill="none" style="stroke-width: 4; stroke-linecap: square;" transform="matrix(1,0,0,1,150,720)" d="M0,0 L10,10 0,20M0,20 L-10,30 0,40M0,40 L10,50 0,60M0,0 L20,20 0,40M0,0 L-20,20 0,40M0,20 L20,40 0,60"></path><mask id="maskSib3jhlse3z"><rect fill="#ffffff" style="" height="200" width="200" y="-100" x="-100"></rect><path stroke="#000000" fill="#ffffff" style="stroke-width: 2; stroke-linecap: square;" transform="matrix(1,0,0,1,0,0)" d="M0,0 L10,10 0,20M0,20 L-10,30 0,40M0,40 L10,50 0,60M0,0 L20,20 0,40M0,0 L-20,20 0,40M0,20 L20,40 0,60"></path></mask><path stroke="none" fill="none" style="stroke-width: 2; stroke-linecap: square;" transform="matrix(1,0,0,1,250,20)" d="M0,0 L10,10 0,20M0,0 L-10,10 0,20M0,0 L20,20 0,40M0,0 L30,30 0,60M0,20 L20,40 0,60"></path><path mask="url('#maskSib3jhlse48')" stroke="#b3ff00" fill="none" style="stroke-width: 4; stroke-linecap: square;" transform="matrix(1,0,0,1,250,20)" d="M0,0 L10,10 0,20M0,0 L-10,10 0,20M0,0 L20,20 0,40M0,0 L30,30 0,60M0,20 L20,40 0,60"></path><path filter="url('#Sib3jhlse44')" mask="url('#maskSib3jhlse48')" stroke="#b3ff00" fill="none" style="stroke-width: 4; stroke-linecap: square;" transform="matrix(1,0,0,1,250,20)" d="M0,0 L10,10 0,20M0,0 L-10,10 0,20M0,0 L20,20 0,40M0,0 L30,30 0,60M0,20 L20,40 0,60"></path><mask id="maskSib3jhlse48"><rect fill="#ffffff" style="" height="200" width="200" y="-100" x="-100"></rect><path stroke="#000000" fill="#ffffff" style="stroke-width: 2; stroke-linecap: square;" transform="matrix(1,0,0,1,0,0)" d="M0,0 L10,10 0,20M0,0 L-10,10 0,20M0,0 L20,20 0,40M0,0 L30,30 0,60M0,20 L20,40 0,60"></path></mask><path stroke="none" fill="none" style="stroke-width: 2; stroke-linecap: square;" transform="matrix(1,0,0,1,250,120)" d="M0,0 L-10,10 0,20M0,20 L10,30 0,40M0,40 L10,50 0,60M0,40 L-10,50 0,60M0,0 L20,20 0,40M0,0 L-20,20 0,40M0,0 L-30,30 0,60"></path><path mask="url('#maskSib3jhlse4h')" stroke="#b3ff00" fill="none" style="stroke-width: 4; stroke-linecap: square;" transform="matrix(1,0,0,1,250,120)" d="M0,0 L-10,10 0,20M0,20 L10,30 0,40M0,40 L10,50 0,60M0,40 L-10,50 0,60M0,0 L20,20 0,40M0,0 L-20,20 0,40M0,0 L-30,30 0,60"></path><path filter="url('#Sib3jhlse4d')" mask="url('#maskSib3jhlse4h')" stroke="#b3ff00" fill="none" style="stroke-width: 4; stroke-linecap: square;" transform="matrix(1,0,0,1,250,120)" d="M0,0 L-10,10 0,20M0,20 L10,30 0,40M0,40 L10,50 0,60M0,40 L-10,50 0,60M0,0 L20,20 0,40M0,0 L-20,20 0,40M0,0 L-30,30 0,60"></path><mask id="maskSib3jhlse4h"><rect fill="#ffffff" style="" height="200" width="200" y="-100" x="-100"></rect><path stroke="#000000" fill="#ffffff" style="stroke-width: 2; stroke-linecap: square;" transform="matrix(1,0,0,1,0,0)" d="M0,0 L-10,10 0,20M0,20 L10,30 0,40M0,40 L10,50 0,60M0,40 L-10,50 0,60M0,0 L20,20 0,40M0,0 L-20,20 0,40M0,0 L-30,30 0,60"></path></mask><path stroke="none" fill="none" style="stroke-width: 2; stroke-linecap: square;" transform="matrix(1,0,0,1,250,220)" d="M0,20 L10,30 0,40M0,20 L-10,30 0,40M0,0 L20,20 0,40M0,0 L30,30 0,60M0,20 L20,40 0,60M0,20 L-20,40 0,60"></path><path mask="url('#maskSib3jhlse4q')" stroke="#b3ff00" fill="none" style="stroke-width: 4; stroke-linecap: square;" transform="matrix(1,0,0,1,250,220)" d="M0,20 L10,30 0,40M0,20 L-10,30 0,40M0,0 L20,20 0,40M0,0 L30,30 0,60M0,20 L20,40 0,60M0,20 L-20,40 0,60"></path><path filter="url('#Sib3jhlse4m')" mask="url('#maskSib3jhlse4q')" stroke="#b3ff00" fill="none" style="stroke-width: 4; stroke-linecap: square;" transform="matrix(1,0,0,1,250,220)" d="M0,20 L10,30 0,40M0,20 L-10,30 0,40M0,0 L20,20 0,40M0,0 L30,30 0,60M0,20 L20,40 0,60M0,20 L-20,40 0,60"></path><mask id="maskSib3jhlse4q"><rect fill="#ffffff" style="" height="200" width="200" y="-100" x="-100"></rect><path stroke="#000000" fill="#ffffff" style="stroke-width: 2; stroke-linecap: square;" transform="matrix(1,0,0,1,0,0)" d="M0,20 L10,30 0,40M0,20 L-10,30 0,40M0,0 L20,20 0,40M0,0 L30,30 0,60M0,20 L20,40 0,60M0,20 L-20,40 0,60"></path></mask><path stroke="none" fill="none" style="stroke-width: 2; stroke-linecap: square;" transform="matrix(1,0,0,1,250,320)" d="M0,20 L-10,30 0,40M0,40 L-10,50 0,60M0,0 L-20,20 0,40M0,20 L-20,40 0,60"></path><path mask="url('#maskSib3jhlse4z')" stroke="#b3ff00" fill="none" style="stroke-width: 4; stroke-linecap: square;" transform="matrix(1,0,0,1,250,320)" d="M0,20 L-10,30 0,40M0,40 L-10,50 0,60M0,0 L-20,20 0,40M0,20 L-20,40 0,60"></path><path filter="url('#Sib3jhlse4v')" mask="url('#maskSib3jhlse4z')" stroke="#b3ff00" fill="none" style="stroke-width: 4; stroke-linecap: square;" transform="matrix(1,0,0,1,250,320)" d="M0,20 L-10,30 0,40M0,40 L-10,50 0,60M0,0 L-20,20 0,40M0,20 L-20,40 0,60"></path><mask id="maskSib3jhlse4z"><rect fill="#ffffff" style="" height="200" width="200" y="-100" x="-100"></rect><path stroke="#000000" fill="#ffffff" style="stroke-width: 2; stroke-linecap: square;" transform="matrix(1,0,0,1,0,0)" d="M0,20 L-10,30 0,40M0,40 L-10,50 0,60M0,0 L-20,20 0,40M0,20 L-20,40 0,60"></path></mask><path stroke="none" fill="none" style="stroke-width: 2; stroke-linecap: square;" transform="matrix(1,0,0,1,250,420)" d="M0,0 L-10,10 0,20M0,20 L10,30 0,40M0,40 L10,50 0,60M0,0 L20,20 0,40M0,0 L30,30 0,60M0,0 L-30,30 0,60M0,20 L-20,40 0,60"></path><path mask="url('#maskSib3jhlse58')" stroke="#b3ff00" fill="none" style="stroke-width: 4; stroke-linecap: square;" transform="matrix(1,0,0,1,250,420)" d="M0,0 L-10,10 0,20M0,20 L10,30 0,40M0,40 L10,50 0,60M0,0 L20,20 0,40M0,0 L30,30 0,60M0,0 L-30,30 0,60M0,20 L-20,40 0,60"></path><path filter="url('#Sib3jhlse54')" mask="url('#maskSib3jhlse58')" stroke="#b3ff00" fill="none" style="stroke-width: 4; stroke-linecap: square;" transform="matrix(1,0,0,1,250,420)" d="M0,0 L-10,10 0,20M0,20 L10,30 0,40M0,40 L10,50 0,60M0,0 L20,20 0,40M0,0 L30,30 0,60M0,0 L-30,30 0,60M0,20 L-20,40 0,60"></path><mask id="maskSib3jhlse58"><rect fill="#ffffff" style="" height="200" width="200" y="-100" x="-100"></rect><path stroke="#000000" fill="#ffffff" style="stroke-width: 2; stroke-linecap: square;" transform="matrix(1,0,0,1,0,0)" d="M0,0 L-10,10 0,20M0,20 L10,30 0,40M0,40 L10,50 0,60M0,0 L20,20 0,40M0,0 L30,30 0,60M0,0 L-30,30 0,60M0,20 L-20,40 0,60"></path></mask><path stroke="none" fill="none" style="stroke-width: 2; stroke-linecap: square;" transform="matrix(1,0,0,1,250,520)" d="M0,0 L10,10 0,20M0,20 L-10,30 0,40M0,40 L10,50 0,60M0,0 L-20,20 0,40M0,20 L-20,40 0,60"></path><path mask="url('#maskSib3jhlse5h')" stroke="#b3ff00" fill="none" style="stroke-width: 4; stroke-linecap: square;" transform="matrix(1,0,0,1,250,520)" d="M0,0 L10,10 0,20M0,20 L-10,30 0,40M0,40 L10,50 0,60M0,0 L-20,20 0,40M0,20 L-20,40 0,60"></path><path filter="url('#Sib3jhlse5d')" mask="url('#maskSib3jhlse5h')" stroke="#b3ff00" fill="none" style="stroke-width: 4; stroke-linecap: square;" transform="matrix(1,0,0,1,250,520)" d="M0,0 L10,10 0,20M0,20 L-10,30 0,40M0,40 L10,50 0,60M0,0 L-20,20 0,40M0,20 L-20,40 0,60"></path><mask id="maskSib3jhlse5h"><rect fill="#ffffff" style="" height="200" width="200" y="-100" x="-100"></rect><path stroke="#000000" fill="#ffffff" style="stroke-width: 2; stroke-linecap: square;" transform="matrix(1,0,0,1,0,0)" d="M0,0 L10,10 0,20M0,20 L-10,30 0,40M0,40 L10,50 0,60M0,0 L-20,20 0,40M0,20 L-20,40 0,60"></path></mask><path stroke="none" fill="none" style="stroke-width: 2; stroke-linecap: square;" transform="matrix(1,0,0,1,250,620)" d="M0,0 L10,10 0,20M0,0 L20,20 0,40M0,0 L30,30 0,60M0,20 L20,40 0,60M0,20 L-20,40 0,60"></path><path mask="url('#maskSib3jhlse5q')" stroke="#b3ff00" fill="none" style="stroke-width: 4; stroke-linecap: square;" transform="matrix(1,0,0,1,250,620)" d="M0,0 L10,10 0,20M0,0 L20,20 0,40M0,0 L30,30 0,60M0,20 L20,40 0,60M0,20 L-20,40 0,60"></path><path filter="url('#Sib3jhlse5m')" mask="url('#maskSib3jhlse5q')" stroke="#b3ff00" fill="none" style="stroke-width: 4; stroke-linecap: square;" transform="matrix(1,0,0,1,250,620)" d="M0,0 L10,10 0,20M0,0 L20,20 0,40M0,0 L30,30 0,60M0,20 L20,40 0,60M0,20 L-20,40 0,60"></path><mask id="maskSib3jhlse5q"><rect fill="#ffffff" style="" height="200" width="200" y="-100" x="-100"></rect><path stroke="#000000" fill="#ffffff" style="stroke-width: 2; stroke-linecap: square;" transform="matrix(1,0,0,1,0,0)" d="M0,0 L10,10 0,20M0,0 L20,20 0,40M0,0 L30,30 0,60M0,20 L20,40 0,60M0,20 L-20,40 0,60"></path></mask><path stroke="none" fill="none" style="stroke-width: 2; stroke-linecap: square;" transform="matrix(1,0,0,1,250,720)" d="M0,0 L10,10 0,20M0,0 L-10,10 0,20M0,20 L-10,30 0,40M0,40 L10,50 0,60M0,0 L20,20 0,40M0,0 L30,30 0,60M0,0 L-30,30 0,60M0,20 L20,40 0,60M0,20 L-20,40 0,60"></path><path mask="url('#maskSib3jhlse5z')" stroke="#b3ff00" fill="none" style="stroke-width: 4; stroke-linecap: square;" transform="matrix(1,0,0,1,250,720)" d="M0,0 L10,10 0,20M0,0 L-10,10 0,20M0,20 L-10,30 0,40M0,40 L10,50 0,60M0,0 L20,20 0,40M0,0 L30,30 0,60M0,0 L-30,30 0,60M0,20 L20,40 0,60M0,20 L-20,40 0,60"></path><path filter="url('#Sib3jhlse5v')" mask="url('#maskSib3jhlse5z')" stroke="#b3ff00" fill="none" style="stroke-width: 4; stroke-linecap: square;" transform="matrix(1,0,0,1,250,720)" d="M0,0 L10,10 0,20M0,0 L-10,10 0,20M0,20 L-10,30 0,40M0,40 L10,50 0,60M0,0 L20,20 0,40M0,0 L30,30 0,60M0,0 L-30,30 0,60M0,20 L20,40 0,60M0,20 L-20,40 0,60"></path><mask id="maskSib3jhlse5z"><rect fill="#ffffff" style="" height="200" width="200" y="-100" x="-100"></rect><path stroke="#000000" fill="#ffffff" style="stroke-width: 2; stroke-linecap: square;" transform="matrix(1,0,0,1,0,0)" d="M0,0 L10,10 0,20M0,0 L-10,10 0,20M0,20 L-10,30 0,40M0,40 L10,50 0,60M0,0 L20,20 0,40M0,0 L30,30 0,60M0,0 L-30,30 0,60M0,20 L20,40 0,60M0,20 L-20,40 0,60"></path></mask><path stroke="none" fill="none" style="stroke-width: 2; stroke-linecap: square;" transform="matrix(1,0,0,1,350,20)" d="M0,0 L10,10 0,20M0,40 L10,50 0,60M0,0 L20,20 0,40M0,20 L20,40 0,60"></path><path mask="url('#maskSib3jhlse68')" stroke="#b3ff00" fill="none" style="stroke-width: 4; stroke-linecap: square;" transform="matrix(1,0,0,1,350,20)" d="M0,0 L10,10 0,20M0,40 L10,50 0,60M0,0 L20,20 0,40M0,20 L20,40 0,60"></path><path filter="url('#Sib3jhlse64')" mask="url('#maskSib3jhlse68')" stroke="#b3ff00" fill="none" style="stroke-width: 4; stroke-linecap: square;" transform="matrix(1,0,0,1,350,20)" d="M0,0 L10,10 0,20M0,40 L10,50 0,60M0,0 L20,20 0,40M0,20 L20,40 0,60"></path><mask id="maskSib3jhlse68"><rect fill="#ffffff" style="" height="200" width="200" y="-100" x="-100"></rect><path stroke="#000000" fill="#ffffff" style="stroke-width: 2; stroke-linecap: square;" transform="matrix(1,0,0,1,0,0)" d="M0,0 L10,10 0,20M0,40 L10,50 0,60M0,0 L20,20 0,40M0,20 L20,40 0,60"></path></mask><path stroke="none" fill="none" style="stroke-width: 2; stroke-linecap: square;" transform="matrix(1,0,0,1,350,120)" d="M0,20 L10,30 0,40M0,20 L20,40 0,60"></path><path mask="url('#maskSib3jhlse6h')" stroke="#b3ff00" fill="none" style="stroke-width: 4; stroke-linecap: square;" transform="matrix(1,0,0,1,350,120)" d="M0,20 L10,30 0,40M0,20 L20,40 0,60"></path><path filter="url('#Sib3jhlse6d')" mask="url('#maskSib3jhlse6h')" stroke="#b3ff00" fill="none" style="stroke-width: 4; stroke-linecap: square;" transform="matrix(1,0,0,1,350,120)" d="M0,20 L10,30 0,40M0,20 L20,40 0,60"></path><mask id="maskSib3jhlse6h"><rect fill="#ffffff" style="" height="200" width="200" y="-100" x="-100"></rect><path stroke="#000000" fill="#ffffff" style="stroke-width: 2; stroke-linecap: square;" transform="matrix(1,0,0,1,0,0)" d="M0,20 L10,30 0,40M0,20 L20,40 0,60"></path></mask><path stroke="none" fill="none" style="stroke-width: 2; stroke-linecap: square;" transform="matrix(1,0,0,1,350,220)" d="M0,0 L10,10 0,20M0,0 L-10,10 0,20M0,20 L10,30 0,40M0,0 L20,20 0,40M0,0 L30,30 0,60M0,20 L20,40 0,60"></path><path mask="url('#maskSib3jhlse6q')" stroke="#b3ff00" fill="none" style="stroke-width: 4; stroke-linecap: square;" transform="matrix(1,0,0,1,350,220)" d="M0,0 L10,10 0,20M0,0 L-10,10 0,20M0,20 L10,30 0,40M0,0 L20,20 0,40M0,0 L30,30 0,60M0,20 L20,40 0,60"></path><path filter="url('#Sib3jhlse6m')" mask="url('#maskSib3jhlse6q')" stroke="#b3ff00" fill="none" style="stroke-width: 4; stroke-linecap: square;" transform="matrix(1,0,0,1,350,220)" d="M0,0 L10,10 0,20M0,0 L-10,10 0,20M0,20 L10,30 0,40M0,0 L20,20 0,40M0,0 L30,30 0,60M0,20 L20,40 0,60"></path><mask id="maskSib3jhlse6q"><rect fill="#ffffff" style="" height="200" width="200" y="-100" x="-100"></rect><path stroke="#000000" fill="#ffffff" style="stroke-width: 2; stroke-linecap: square;" transform="matrix(1,0,0,1,0,0)" d="M0,0 L10,10 0,20M0,0 L-10,10 0,20M0,20 L10,30 0,40M0,0 L20,20 0,40M0,0 L30,30 0,60M0,20 L20,40 0,60"></path></mask><path stroke="none" fill="none" style="stroke-width: 2; stroke-linecap: square;" transform="matrix(1,0,0,1,350,320)" d="M0,0 L10,10 0,20M0,0 L-10,10 0,20M0,20 L-10,30 0,40M0,40 L10,50 0,60M0,40 L-10,50 0,60M0,20 L20,40 0,60"></path><path mask="url('#maskSib3jhlse6z')" stroke="#b3ff00" fill="none" style="stroke-width: 4; stroke-linecap: square;" transform="matrix(1,0,0,1,350,320)" d="M0,0 L10,10 0,20M0,0 L-10,10 0,20M0,20 L-10,30 0,40M0,40 L10,50 0,60M0,40 L-10,50 0,60M0,20 L20,40 0,60"></path><path filter="url('#Sib3jhlse6v')" mask="url('#maskSib3jhlse6z')" stroke="#b3ff00" fill="none" style="stroke-width: 4; stroke-linecap: square;" transform="matrix(1,0,0,1,350,320)" d="M0,0 L10,10 0,20M0,0 L-10,10 0,20M0,20 L-10,30 0,40M0,40 L10,50 0,60M0,40 L-10,50 0,60M0,20 L20,40 0,60"></path><mask id="maskSib3jhlse6z"><rect fill="#ffffff" style="" height="200" width="200" y="-100" x="-100"></rect><path stroke="#000000" fill="#ffffff" style="stroke-width: 2; stroke-linecap: square;" transform="matrix(1,0,0,1,0,0)" d="M0,0 L10,10 0,20M0,0 L-10,10 0,20M0,20 L-10,30 0,40M0,40 L10,50 0,60M0,40 L-10,50 0,60M0,20 L20,40 0,60"></path></mask><path stroke="none" fill="none" style="stroke-width: 2; stroke-linecap: square;" transform="matrix(1,0,0,1,350,420)" d="M0,0 L10,10 0,20M0,0 L-10,10 0,20M0,20 L-10,30 0,40M0,0 L-20,20 0,40M0,20 L-20,40 0,60"></path><path mask="url('#maskSib3jhlse78')" stroke="#b3ff00" fill="none" style="stroke-width: 4; stroke-linecap: square;" transform="matrix(1,0,0,1,350,420)" d="M0,0 L10,10 0,20M0,0 L-10,10 0,20M0,20 L-10,30 0,40M0,0 L-20,20 0,40M0,20 L-20,40 0,60"></path><path filter="url('#Sib3jhlse74')" mask="url('#maskSib3jhlse78')" stroke="#b3ff00" fill="none" style="stroke-width: 4; stroke-linecap: square;" transform="matrix(1,0,0,1,350,420)" d="M0,0 L10,10 0,20M0,0 L-10,10 0,20M0,20 L-10,30 0,40M0,0 L-20,20 0,40M0,20 L-20,40 0,60"></path><mask id="maskSib3jhlse78"><rect fill="#ffffff" style="" height="200" width="200" y="-100" x="-100"></rect><path stroke="#000000" fill="#ffffff" style="stroke-width: 2; stroke-linecap: square;" transform="matrix(1,0,0,1,0,0)" d="M0,0 L10,10 0,20M0,0 L-10,10 0,20M0,20 L-10,30 0,40M0,0 L-20,20 0,40M0,20 L-20,40 0,60"></path></mask><path stroke="none" fill="none" style="stroke-width: 2; stroke-linecap: square;" transform="matrix(1,0,0,1,350,520)" d="M0,0 L10,10 0,20M0,0 L-10,10 0,20M0,20 L10,30 0,40M0,40 L10,50 0,60M0,0 L30,30 0,60M0,0 L-30,30 0,60M0,20 L-20,40 0,60"></path><path mask="url('#maskSib3jhlse7h')" stroke="#b3ff00" fill="none" style="stroke-width: 4; stroke-linecap: square;" transform="matrix(1,0,0,1,350,520)" d="M0,0 L10,10 0,20M0,0 L-10,10 0,20M0,20 L10,30 0,40M0,40 L10,50 0,60M0,0 L30,30 0,60M0,0 L-30,30 0,60M0,20 L-20,40 0,60"></path><path filter="url('#Sib3jhlse7d')" mask="url('#maskSib3jhlse7h')" stroke="#b3ff00" fill="none" style="stroke-width: 4; stroke-linecap: square;" transform="matrix(1,0,0,1,350,520)" d="M0,0 L10,10 0,20M0,0 L-10,10 0,20M0,20 L10,30 0,40M0,40 L10,50 0,60M0,0 L30,30 0,60M0,0 L-30,30 0,60M0,20 L-20,40 0,60"></path><mask id="maskSib3jhlse7h"><rect fill="#ffffff" style="" height="200" width="200" y="-100" x="-100"></rect><path stroke="#000000" fill="#ffffff" style="stroke-width: 2; stroke-linecap: square;" transform="matrix(1,0,0,1,0,0)" d="M0,0 L10,10 0,20M0,0 L-10,10 0,20M0,20 L10,30 0,40M0,40 L10,50 0,60M0,0 L30,30 0,60M0,0 L-30,30 0,60M0,20 L-20,40 0,60"></path></mask><path stroke="none" fill="none" style="stroke-width: 2; stroke-linecap: square;" transform="matrix(1,0,0,1,350,620)" d="M0,20 L10,30 0,40M0,40 L-10,50 0,60M0,0 L30,30 0,60M0,0 L-30,30 0,60"></path><path mask="url('#maskSib3jhlse7q')" stroke="#b3ff00" fill="none" style="stroke-width: 4; stroke-linecap: square;" transform="matrix(1,0,0,1,350,620)" d="M0,20 L10,30 0,40M0,40 L-10,50 0,60M0,0 L30,30 0,60M0,0 L-30,30 0,60"></path><path filter="url('#Sib3jhlse7m')" mask="url('#maskSib3jhlse7q')" stroke="#b3ff00" fill="none" style="stroke-width: 4; stroke-linecap: square;" transform="matrix(1,0,0,1,350,620)" d="M0,20 L10,30 0,40M0,40 L-10,50 0,60M0,0 L30,30 0,60M0,0 L-30,30 0,60"></path><mask id="maskSib3jhlse7q"><rect fill="#ffffff" style="" height="200" width="200" y="-100" x="-100"></rect><path stroke="#000000" fill="#ffffff" style="stroke-width: 2; stroke-linecap: square;" transform="matrix(1,0,0,1,0,0)" d="M0,20 L10,30 0,40M0,40 L-10,50 0,60M0,0 L30,30 0,60M0,0 L-30,30 0,60"></path></mask><path stroke="none" fill="none" style="stroke-width: 2; stroke-linecap: square;" transform="matrix(1,0,0,1,350,720)" d="M0,0 L-10,10 0,20M0,40 L-10,50 0,60M0,20 L-20,40 0,60"></path><path mask="url('#maskSib3jhlse7z')" stroke="#b3ff00" fill="none" style="stroke-width: 4; stroke-linecap: square;" transform="matrix(1,0,0,1,350,720)" d="M0,0 L-10,10 0,20M0,40 L-10,50 0,60M0,20 L-20,40 0,60"></path><path filter="url('#Sib3jhlse7v')" mask="url('#maskSib3jhlse7z')" stroke="#b3ff00" fill="none" style="stroke-width: 4; stroke-linecap: square;" transform="matrix(1,0,0,1,350,720)" d="M0,0 L-10,10 0,20M0,40 L-10,50 0,60M0,20 L-20,40 0,60"></path><mask id="maskSib3jhlse7z"><rect fill="#ffffff" style="" height="200" width="200" y="-100" x="-100"></rect><path stroke="#000000" fill="#ffffff" style="stroke-width: 2; stroke-linecap: square;" transform="matrix(1,0,0,1,0,0)" d="M0,0 L-10,10 0,20M0,40 L-10,50 0,60M0,20 L-20,40 0,60"></path></mask><path stroke="none" fill="none" style="stroke-width: 2; stroke-linecap: square;" transform="matrix(1,0,0,1,450,20)" d="M0,40 L10,50 0,60M0,40 L-10,50 0,60M0,0 L20,20 0,40M0,0 L-20,20 0,40M0,0 L30,30 0,60M0,20 L-20,40 0,60"></path><path mask="url('#maskSib3jhlse88')" stroke="#b3ff00" fill="none" style="stroke-width: 4; stroke-linecap: square;" transform="matrix(1,0,0,1,450,20)" d="M0,40 L10,50 0,60M0,40 L-10,50 0,60M0,0 L20,20 0,40M0,0 L-20,20 0,40M0,0 L30,30 0,60M0,20 L-20,40 0,60"></path><path filter="url('#Sib3jhlse84')" mask="url('#maskSib3jhlse88')" stroke="#b3ff00" fill="none" style="stroke-width: 4; stroke-linecap: square;" transform="matrix(1,0,0,1,450,20)" d="M0,40 L10,50 0,60M0,40 L-10,50 0,60M0,0 L20,20 0,40M0,0 L-20,20 0,40M0,0 L30,30 0,60M0,20 L-20,40 0,60"></path><mask id="maskSib3jhlse88"><rect fill="#ffffff" style="" height="200" width="200" y="-100" x="-100"></rect><path stroke="#000000" fill="#ffffff" style="stroke-width: 2; stroke-linecap: square;" transform="matrix(1,0,0,1,0,0)" d="M0,40 L10,50 0,60M0,40 L-10,50 0,60M0,0 L20,20 0,40M0,0 L-20,20 0,40M0,0 L30,30 0,60M0,20 L-20,40 0,60"></path></mask><path stroke="none" fill="none" style="stroke-width: 2; stroke-linecap: square;" transform="matrix(1,0,0,1,450,120)" d="M0,0 L10,10 0,20M0,20 L-10,30 0,40M0,40 L-10,50 0,60M0,0 L30,30 0,60M0,0 L-30,30 0,60M0,20 L20,40 0,60M0,20 L-20,40 0,60"></path><path mask="url('#maskSib3jhlse8h')" stroke="#b3ff00" fill="none" style="stroke-width: 4; stroke-linecap: square;" transform="matrix(1,0,0,1,450,120)" d="M0,0 L10,10 0,20M0,20 L-10,30 0,40M0,40 L-10,50 0,60M0,0 L30,30 0,60M0,0 L-30,30 0,60M0,20 L20,40 0,60M0,20 L-20,40 0,60"></path><path filter="url('#Sib3jhlse8d')" mask="url('#maskSib3jhlse8h')" stroke="#b3ff00" fill="none" style="stroke-width: 4; stroke-linecap: square;" transform="matrix(1,0,0,1,450,120)" d="M0,0 L10,10 0,20M0,20 L-10,30 0,40M0,40 L-10,50 0,60M0,0 L30,30 0,60M0,0 L-30,30 0,60M0,20 L20,40 0,60M0,20 L-20,40 0,60"></path><mask id="maskSib3jhlse8h"><rect fill="#ffffff" style="" height="200" width="200" y="-100" x="-100"></rect><path stroke="#000000" fill="#ffffff" style="stroke-width: 2; stroke-linecap: square;" transform="matrix(1,0,0,1,0,0)" d="M0,0 L10,10 0,20M0,20 L-10,30 0,40M0,40 L-10,50 0,60M0,0 L30,30 0,60M0,0 L-30,30 0,60M0,20 L20,40 0,60M0,20 L-20,40 0,60"></path></mask><path stroke="none" fill="none" style="stroke-width: 2; stroke-linecap: square;" transform="matrix(1,0,0,1,450,220)" d="M0,0 L10,10 0,20M0,20 L10,30 0,40M0,40 L10,50 0,60M0,0 L20,20 0,40M0,0 L-20,20 0,40M0,0 L-30,30 0,60"></path><path mask="url('#maskSib3jhlse8q')" stroke="#b3ff00" fill="none" style="stroke-width: 4; stroke-linecap: square;" transform="matrix(1,0,0,1,450,220)" d="M0,0 L10,10 0,20M0,20 L10,30 0,40M0,40 L10,50 0,60M0,0 L20,20 0,40M0,0 L-20,20 0,40M0,0 L-30,30 0,60"></path><path filter="url('#Sib3jhlse8m')" mask="url('#maskSib3jhlse8q')" stroke="#b3ff00" fill="none" style="stroke-width: 4; stroke-linecap: square;" transform="matrix(1,0,0,1,450,220)" d="M0,0 L10,10 0,20M0,20 L10,30 0,40M0,40 L10,50 0,60M0,0 L20,20 0,40M0,0 L-20,20 0,40M0,0 L-30,30 0,60"></path><mask id="maskSib3jhlse8q"><rect fill="#ffffff" style="" height="200" width="200" y="-100" x="-100"></rect><path stroke="#000000" fill="#ffffff" style="stroke-width: 2; stroke-linecap: square;" transform="matrix(1,0,0,1,0,0)" d="M0,0 L10,10 0,20M0,20 L10,30 0,40M0,40 L10,50 0,60M0,0 L20,20 0,40M0,0 L-20,20 0,40M0,0 L-30,30 0,60"></path></mask><path stroke="none" fill="none" style="stroke-width: 2; stroke-linecap: square;" transform="matrix(1,0,0,1,450,320)" d="M0,40 L10,50 0,60M0,0 L-20,20 0,40M0,0 L30,30 0,60M0,0 L-30,30 0,60M0,20 L20,40 0,60M0,20 L-20,40 0,60"></path><path mask="url('#maskSib3jhlse8z')" stroke="#b3ff00" fill="none" style="stroke-width: 4; stroke-linecap: square;" transform="matrix(1,0,0,1,450,320)" d="M0,40 L10,50 0,60M0,0 L-20,20 0,40M0,0 L30,30 0,60M0,0 L-30,30 0,60M0,20 L20,40 0,60M0,20 L-20,40 0,60"></path><path filter="url('#Sib3jhlse8v')" mask="url('#maskSib3jhlse8z')" stroke="#b3ff00" fill="none" style="stroke-width: 4; stroke-linecap: square;" transform="matrix(1,0,0,1,450,320)" d="M0,40 L10,50 0,60M0,0 L-20,20 0,40M0,0 L30,30 0,60M0,0 L-30,30 0,60M0,20 L20,40 0,60M0,20 L-20,40 0,60"></path><mask id="maskSib3jhlse8z"><rect fill="#ffffff" style="" height="200" width="200" y="-100" x="-100"></rect><path stroke="#000000" fill="#ffffff" style="stroke-width: 2; stroke-linecap: square;" transform="matrix(1,0,0,1,0,0)" d="M0,40 L10,50 0,60M0,0 L-20,20 0,40M0,0 L30,30 0,60M0,0 L-30,30 0,60M0,20 L20,40 0,60M0,20 L-20,40 0,60"></path></mask><path stroke="none" fill="none" style="stroke-width: 2; stroke-linecap: square;" transform="matrix(1,0,0,1,450,420)" d="M0,0 L10,10 0,20M0,20 L10,30 0,40M0,20 L-10,30 0,40M0,0 L20,20 0,40M0,0 L-30,30 0,60"></path><path mask="url('#maskSib3jhlse98')" stroke="#b3ff00" fill="none" style="stroke-width: 4; stroke-linecap: square;" transform="matrix(1,0,0,1,450,420)" d="M0,0 L10,10 0,20M0,20 L10,30 0,40M0,20 L-10,30 0,40M0,0 L20,20 0,40M0,0 L-30,30 0,60"></path><path filter="url('#Sib3jhlse94')" mask="url('#maskSib3jhlse98')" stroke="#b3ff00" fill="none" style="stroke-width: 4; stroke-linecap: square;" transform="matrix(1,0,0,1,450,420)" d="M0,0 L10,10 0,20M0,20 L10,30 0,40M0,20 L-10,30 0,40M0,0 L20,20 0,40M0,0 L-30,30 0,60"></path><mask id="maskSib3jhlse98"><rect fill="#ffffff" style="" height="200" width="200" y="-100" x="-100"></rect><path stroke="#000000" fill="#ffffff" style="stroke-width: 2; stroke-linecap: square;" transform="matrix(1,0,0,1,0,0)" d="M0,0 L10,10 0,20M0,20 L10,30 0,40M0,20 L-10,30 0,40M0,0 L20,20 0,40M0,0 L-30,30 0,60"></path></mask><path stroke="none" fill="none" style="stroke-width: 2; stroke-linecap: square;" transform="matrix(1,0,0,1,450,520)" d="M0,0 L10,10 0,20M0,20 L10,30 0,40M0,40 L-10,50 0,60M0,0 L-20,20 0,40M0,20 L20,40 0,60M0,20 L-20,40 0,60"></path><path mask="url('#maskSib3jhlse9h')" stroke="#b3ff00" fill="none" style="stroke-width: 4; stroke-linecap: square;" transform="matrix(1,0,0,1,450,520)" d="M0,0 L10,10 0,20M0,20 L10,30 0,40M0,40 L-10,50 0,60M0,0 L-20,20 0,40M0,20 L20,40 0,60M0,20 L-20,40 0,60"></path><path filter="url('#Sib3jhlse9d')" mask="url('#maskSib3jhlse9h')" stroke="#b3ff00" fill="none" style="stroke-width: 4; stroke-linecap: square;" transform="matrix(1,0,0,1,450,520)" d="M0,0 L10,10 0,20M0,20 L10,30 0,40M0,40 L-10,50 0,60M0,0 L-20,20 0,40M0,20 L20,40 0,60M0,20 L-20,40 0,60"></path><mask id="maskSib3jhlse9h"><rect fill="#ffffff" style="" height="200" width="200" y="-100" x="-100"></rect><path stroke="#000000" fill="#ffffff" style="stroke-width: 2; stroke-linecap: square;" transform="matrix(1,0,0,1,0,0)" d="M0,0 L10,10 0,20M0,20 L10,30 0,40M0,40 L-10,50 0,60M0,0 L-20,20 0,40M0,20 L20,40 0,60M0,20 L-20,40 0,60"></path></mask><path stroke="none" fill="none" style="stroke-width: 2; stroke-linecap: square;" transform="matrix(1,0,0,1,450,620)" d="M0,0 L10,10 0,20M0,0 L-10,10 0,20M0,20 L10,30 0,40M0,0 L20,20 0,40M0,0 L-20,20 0,40M0,0 L-30,30 0,60"></path><path mask="url('#maskSib3jhlse9q')" stroke="#b3ff00" fill="none" style="stroke-width: 4; stroke-linecap: square;" transform="matrix(1,0,0,1,450,620)" d="M0,0 L10,10 0,20M0,0 L-10,10 0,20M0,20 L10,30 0,40M0,0 L20,20 0,40M0,0 L-20,20 0,40M0,0 L-30,30 0,60"></path><path filter="url('#Sib3jhlse9m')" mask="url('#maskSib3jhlse9q')" stroke="#b3ff00" fill="none" style="stroke-width: 4; stroke-linecap: square;" transform="matrix(1,0,0,1,450,620)" d="M0,0 L10,10 0,20M0,0 L-10,10 0,20M0,20 L10,30 0,40M0,0 L20,20 0,40M0,0 L-20,20 0,40M0,0 L-30,30 0,60"></path><mask id="maskSib3jhlse9q"><rect fill="#ffffff" style="" height="200" width="200" y="-100" x="-100"></rect><path stroke="#000000" fill="#ffffff" style="stroke-width: 2; stroke-linecap: square;" transform="matrix(1,0,0,1,0,0)" d="M0,0 L10,10 0,20M0,0 L-10,10 0,20M0,20 L10,30 0,40M0,0 L20,20 0,40M0,0 L-20,20 0,40M0,0 L-30,30 0,60"></path></mask><path stroke="none" fill="none" style="stroke-width: 2; stroke-linecap: square;" transform="matrix(1,0,0,1,450,720)" d="M0,0 L-10,10 0,20M0,40 L10,50 0,60M0,0 L20,20 0,40M0,0 L30,30 0,60"></path><path mask="url('#maskSib3jhlse9z')" stroke="#b3ff00" fill="none" style="stroke-width: 4; stroke-linecap: square;" transform="matrix(1,0,0,1,450,720)" d="M0,0 L-10,10 0,20M0,40 L10,50 0,60M0,0 L20,20 0,40M0,0 L30,30 0,60"></path><path filter="url('#Sib3jhlse9v')" mask="url('#maskSib3jhlse9z')" stroke="#b3ff00" fill="none" style="stroke-width: 4; stroke-linecap: square;" transform="matrix(1,0,0,1,450,720)" d="M0,0 L-10,10 0,20M0,40 L10,50 0,60M0,0 L20,20 0,40M0,0 L30,30 0,60"></path><mask id="maskSib3jhlse9z"><rect fill="#ffffff" style="" height="200" width="200" y="-100" x="-100"></rect><path stroke="#000000" fill="#ffffff" style="stroke-width: 2; stroke-linecap: square;" transform="matrix(1,0,0,1,0,0)" d="M0,0 L-10,10 0,20M0,40 L10,50 0,60M0,0 L20,20 0,40M0,0 L30,30 0,60"></path></mask><path stroke="none" fill="none" style="stroke-width: 2; stroke-linecap: square;" transform="matrix(1,0,0,1,550,20)" d="M0,20 L10,30 0,40M0,20 L-10,30 0,40M0,0 L-20,20 0,40M0,0 L30,30 0,60M0,0 L-30,30 0,60M0,20 L-20,40 0,60"></path><path mask="url('#maskSib3jhlsea8')" stroke="#b3ff00" fill="none" style="stroke-width: 4; stroke-linecap: square;" transform="matrix(1,0,0,1,550,20)" d="M0,20 L10,30 0,40M0,20 L-10,30 0,40M0,0 L-20,20 0,40M0,0 L30,30 0,60M0,0 L-30,30 0,60M0,20 L-20,40 0,60"></path><path filter="url('#Sib3jhlsea4')" mask="url('#maskSib3jhlsea8')" stroke="#b3ff00" fill="none" style="stroke-width: 4; stroke-linecap: square;" transform="matrix(1,0,0,1,550,20)" d="M0,20 L10,30 0,40M0,20 L-10,30 0,40M0,0 L-20,20 0,40M0,0 L30,30 0,60M0,0 L-30,30 0,60M0,20 L-20,40 0,60"></path><mask id="maskSib3jhlsea8"><rect fill="#ffffff" style="" height="200" width="200" y="-100" x="-100"></rect><path stroke="#000000" fill="#ffffff" style="stroke-width: 2; stroke-linecap: square;" transform="matrix(1,0,0,1,0,0)" d="M0,20 L10,30 0,40M0,20 L-10,30 0,40M0,0 L-20,20 0,40M0,0 L30,30 0,60M0,0 L-30,30 0,60M0,20 L-20,40 0,60"></path></mask><path stroke="none" fill="none" style="stroke-width: 2; stroke-linecap: square;" transform="matrix(1,0,0,1,550,120)" d="M0,0 L-10,10 0,20M0,20 L-10,30 0,40M0,40 L10,50 0,60M0,40 L-10,50 0,60M0,0 L20,20 0,40M0,0 L-30,30 0,60M0,20 L20,40 0,60M0,20 L-20,40 0,60"></path><path mask="url('#maskSib3jhlseah')" stroke="#b3ff00" fill="none" style="stroke-width: 4; stroke-linecap: square;" transform="matrix(1,0,0,1,550,120)" d="M0,0 L-10,10 0,20M0,20 L-10,30 0,40M0,40 L10,50 0,60M0,40 L-10,50 0,60M0,0 L20,20 0,40M0,0 L-30,30 0,60M0,20 L20,40 0,60M0,20 L-20,40 0,60"></path><path filter="url('#Sib3jhlsead')" mask="url('#maskSib3jhlseah')" stroke="#b3ff00" fill="none" style="stroke-width: 4; stroke-linecap: square;" transform="matrix(1,0,0,1,550,120)" d="M0,0 L-10,10 0,20M0,20 L-10,30 0,40M0,40 L10,50 0,60M0,40 L-10,50 0,60M0,0 L20,20 0,40M0,0 L-30,30 0,60M0,20 L20,40 0,60M0,20 L-20,40 0,60"></path><mask id="maskSib3jhlseah"><rect fill="#ffffff" style="" height="200" width="200" y="-100" x="-100"></rect><path stroke="#000000" fill="#ffffff" style="stroke-width: 2; stroke-linecap: square;" transform="matrix(1,0,0,1,0,0)" d="M0,0 L-10,10 0,20M0,20 L-10,30 0,40M0,40 L10,50 0,60M0,40 L-10,50 0,60M0,0 L20,20 0,40M0,0 L-30,30 0,60M0,20 L20,40 0,60M0,20 L-20,40 0,60"></path></mask><path stroke="none" fill="none" style="stroke-width: 2; stroke-linecap: square;" transform="matrix(1,0,0,1,550,220)" d="M0,20 L-10,30 0,40M0,0 L20,20 0,40M0,20 L20,40 0,60M0,20 L-20,40 0,60"></path><path mask="url('#maskSib3jhlseaq')" stroke="#b3ff00" fill="none" style="stroke-width: 4; stroke-linecap: square;" transform="matrix(1,0,0,1,550,220)" d="M0,20 L-10,30 0,40M0,0 L20,20 0,40M0,20 L20,40 0,60M0,20 L-20,40 0,60"></path><path filter="url('#Sib3jhlseam')" mask="url('#maskSib3jhlseaq')" stroke="#b3ff00" fill="none" style="stroke-width: 4; stroke-linecap: square;" transform="matrix(1,0,0,1,550,220)" d="M0,20 L-10,30 0,40M0,0 L20,20 0,40M0,20 L20,40 0,60M0,20 L-20,40 0,60"></path><mask id="maskSib3jhlseaq"><rect fill="#ffffff" style="" height="200" width="200" y="-100" x="-100"></rect><path stroke="#000000" fill="#ffffff" style="stroke-width: 2; stroke-linecap: square;" transform="matrix(1,0,0,1,0,0)" d="M0,20 L-10,30 0,40M0,0 L20,20 0,40M0,20 L20,40 0,60M0,20 L-20,40 0,60"></path></mask><path stroke="none" fill="none" style="stroke-width: 2; stroke-linecap: square;" transform="matrix(1,0,0,1,550,320)" d="M0,0 L10,10 0,20M0,20 L10,30 0,40M0,20 L-10,30 0,40M0,40 L10,50 0,60M0,40 L-10,50 0,60M0,20 L20,40 0,60M0,20 L-20,40 0,60"></path><path mask="url('#maskSib3jhlseaz')" stroke="#b3ff00" fill="none" style="stroke-width: 4; stroke-linecap: square;" transform="matrix(1,0,0,1,550,320)" d="M0,0 L10,10 0,20M0,20 L10,30 0,40M0,20 L-10,30 0,40M0,40 L10,50 0,60M0,40 L-10,50 0,60M0,20 L20,40 0,60M0,20 L-20,40 0,60"></path><path filter="url('#Sib3jhlseav')" mask="url('#maskSib3jhlseaz')" stroke="#b3ff00" fill="none" style="stroke-width: 4; stroke-linecap: square;" transform="matrix(1,0,0,1,550,320)" d="M0,0 L10,10 0,20M0,20 L10,30 0,40M0,20 L-10,30 0,40M0,40 L10,50 0,60M0,40 L-10,50 0,60M0,20 L20,40 0,60M0,20 L-20,40 0,60"></path><mask id="maskSib3jhlseaz"><rect fill="#ffffff" style="" height="200" width="200" y="-100" x="-100"></rect><path stroke="#000000" fill="#ffffff" style="stroke-width: 2; stroke-linecap: square;" transform="matrix(1,0,0,1,0,0)" d="M0,0 L10,10 0,20M0,20 L10,30 0,40M0,20 L-10,30 0,40M0,40 L10,50 0,60M0,40 L-10,50 0,60M0,20 L20,40 0,60M0,20 L-20,40 0,60"></path></mask><path stroke="none" fill="none" style="stroke-width: 2; stroke-linecap: square;" transform="matrix(1,0,0,1,550,420)" d="M0,0 L-10,10 0,20M0,40 L-10,50 0,60M0,0 L20,20 0,40M0,20 L20,40 0,60"></path><path mask="url('#maskSib3jhlseb8')" stroke="#b3ff00" fill="none" style="stroke-width: 4; stroke-linecap: square;" transform="matrix(1,0,0,1,550,420)" d="M0,0 L-10,10 0,20M0,40 L-10,50 0,60M0,0 L20,20 0,40M0,20 L20,40 0,60"></path><path filter="url('#Sib3jhlseb4')" mask="url('#maskSib3jhlseb8')" stroke="#b3ff00" fill="none" style="stroke-width: 4; stroke-linecap: square;" transform="matrix(1,0,0,1,550,420)" d="M0,0 L-10,10 0,20M0,40 L-10,50 0,60M0,0 L20,20 0,40M0,20 L20,40 0,60"></path><mask id="maskSib3jhlseb8"><rect fill="#ffffff" style="" height="200" width="200" y="-100" x="-100"></rect><path stroke="#000000" fill="#ffffff" style="stroke-width: 2; stroke-linecap: square;" transform="matrix(1,0,0,1,0,0)" d="M0,0 L-10,10 0,20M0,40 L-10,50 0,60M0,0 L20,20 0,40M0,20 L20,40 0,60"></path></mask><path stroke="none" fill="none" style="stroke-width: 2; stroke-linecap: square;" transform="matrix(1,0,0,1,550,520)" d="M0,0 L-10,10 0,20M0,20 L10,30 0,40M0,20 L-10,30 0,40M0,40 L-10,50 0,60M0,0 L20,20 0,40M0,0 L-20,20 0,40M0,0 L30,30 0,60M0,0 L-30,30 0,60M0,20 L20,40 0,60M0,20 L-20,40 0,60"></path><path mask="url('#maskSib3jhlsebh')" stroke="#b3ff00" fill="none" style="stroke-width: 4; stroke-linecap: square;" transform="matrix(1,0,0,1,550,520)" d="M0,0 L-10,10 0,20M0,20 L10,30 0,40M0,20 L-10,30 0,40M0,40 L-10,50 0,60M0,0 L20,20 0,40M0,0 L-20,20 0,40M0,0 L30,30 0,60M0,0 L-30,30 0,60M0,20 L20,40 0,60M0,20 L-20,40 0,60"></path><path filter="url('#Sib3jhlsebd')" mask="url('#maskSib3jhlsebh')" stroke="#b3ff00" fill="none" style="stroke-width: 4; stroke-linecap: square;" transform="matrix(1,0,0,1,550,520)" d="M0,0 L-10,10 0,20M0,20 L10,30 0,40M0,20 L-10,30 0,40M0,40 L-10,50 0,60M0,0 L20,20 0,40M0,0 L-20,20 0,40M0,0 L30,30 0,60M0,0 L-30,30 0,60M0,20 L20,40 0,60M0,20 L-20,40 0,60"></path><mask id="maskSib3jhlsebh"><rect fill="#ffffff" style="" height="200" width="200" y="-100" x="-100"></rect><path stroke="#000000" fill="#ffffff" style="stroke-width: 2; stroke-linecap: square;" transform="matrix(1,0,0,1,0,0)" d="M0,0 L-10,10 0,20M0,20 L10,30 0,40M0,20 L-10,30 0,40M0,40 L-10,50 0,60M0,0 L20,20 0,40M0,0 L-20,20 0,40M0,0 L30,30 0,60M0,0 L-30,30 0,60M0,20 L20,40 0,60M0,20 L-20,40 0,60"></path></mask><path stroke="none" fill="none" style="stroke-width: 2; stroke-linecap: square;" transform="matrix(1,0,0,1,550,620)"></path><path mask="url('#maskSib3jhlsebq')" stroke="#b3ff00" fill="none" style="stroke-width: 4; stroke-linecap: square;" transform="matrix(1,0,0,1,550,620)"></path><path filter="url('#Sib3jhlsebm')" mask="url('#maskSib3jhlsebq')" stroke="#b3ff00" fill="none" style="stroke-width: 4; stroke-linecap: square;" transform="matrix(1,0,0,1,550,620)"></path><mask id="maskSib3jhlsebq"><rect fill="#ffffff" style="" height="200" width="200" y="-100" x="-100"></rect><path stroke="#000000" fill="#ffffff" style="stroke-width: 2; stroke-linecap: square;" transform="matrix(1,0,0,1,0,0)"></path></mask><path stroke="none" fill="none" style="stroke-width: 2; stroke-linecap: square;" transform="matrix(1,0,0,1,550,720)" d="M0,0 L10,10 0,20M0,0 L-10,10 0,20M0,20 L10,30 0,40M0,20 L-10,30 0,40M0,40 L10,50 0,60M0,40 L-10,50 0,60M0,0 L-30,30 0,60M0,20 L20,40 0,60"></path><path mask="url('#maskSib3jhlsebz')" stroke="#b3ff00" fill="none" style="stroke-width: 4; stroke-linecap: square;" transform="matrix(1,0,0,1,550,720)" d="M0,0 L10,10 0,20M0,0 L-10,10 0,20M0,20 L10,30 0,40M0,20 L-10,30 0,40M0,40 L10,50 0,60M0,40 L-10,50 0,60M0,0 L-30,30 0,60M0,20 L20,40 0,60"></path><path filter="url('#Sib3jhlsebv')" mask="url('#maskSib3jhlsebz')" stroke="#b3ff00" fill="none" style="stroke-width: 4; stroke-linecap: square;" transform="matrix(1,0,0,1,550,720)" d="M0,0 L10,10 0,20M0,0 L-10,10 0,20M0,20 L10,30 0,40M0,20 L-10,30 0,40M0,40 L10,50 0,60M0,40 L-10,50 0,60M0,0 L-30,30 0,60M0,20 L20,40 0,60"></path><mask id="maskSib3jhlsebz"><rect fill="#ffffff" style="" height="200" width="200" y="-100" x="-100"></rect><path stroke="#000000" fill="#ffffff" style="stroke-width: 2; stroke-linecap: square;" transform="matrix(1,0,0,1,0,0)" d="M0,0 L10,10 0,20M0,0 L-10,10 0,20M0,20 L10,30 0,40M0,20 L-10,30 0,40M0,40 L10,50 0,60M0,40 L-10,50 0,60M0,0 L-30,30 0,60M0,20 L20,40 0,60"></path></mask><path stroke="none" fill="none" style="stroke-width: 2; stroke-linecap: square;" transform="matrix(1,0,0,1,650,20)" d="M0,0 L-10,10 0,20M0,0 L20,20 0,40M0,0 L30,30 0,60M0,20 L20,40 0,60M0,20 L-20,40 0,60"></path><path mask="url('#maskSib3jhlsec8')" stroke="#b3ff00" fill="none" style="stroke-width: 4; stroke-linecap: square;" transform="matrix(1,0,0,1,650,20)" d="M0,0 L-10,10 0,20M0,0 L20,20 0,40M0,0 L30,30 0,60M0,20 L20,40 0,60M0,20 L-20,40 0,60"></path><path filter="url('#Sib3jhlsec4')" mask="url('#maskSib3jhlsec8')" stroke="#b3ff00" fill="none" style="stroke-width: 4; stroke-linecap: square;" transform="matrix(1,0,0,1,650,20)" d="M0,0 L-10,10 0,20M0,0 L20,20 0,40M0,0 L30,30 0,60M0,20 L20,40 0,60M0,20 L-20,40 0,60"></path><mask id="maskSib3jhlsec8"><rect fill="#ffffff" style="" height="200" width="200" y="-100" x="-100"></rect><path stroke="#000000" fill="#ffffff" style="stroke-width: 2; stroke-linecap: square;" transform="matrix(1,0,0,1,0,0)" d="M0,0 L-10,10 0,20M0,0 L20,20 0,40M0,0 L30,30 0,60M0,20 L20,40 0,60M0,20 L-20,40 0,60"></path></mask><path stroke="none" fill="none" style="stroke-width: 2; stroke-linecap: square;" transform="matrix(1,0,0,1,650,120)" d="M0,0 L10,10 0,20M0,20 L-10,30 0,40M0,40 L10,50 0,60M0,0 L30,30 0,60M0,20 L-20,40 0,60"></path><path mask="url('#maskSib3jhlsech')" stroke="#b3ff00" fill="none" style="stroke-width: 4; stroke-linecap: square;" transform="matrix(1,0,0,1,650,120)" d="M0,0 L10,10 0,20M0,20 L-10,30 0,40M0,40 L10,50 0,60M0,0 L30,30 0,60M0,20 L-20,40 0,60"></path><path filter="url('#Sib3jhlsecd')" mask="url('#maskSib3jhlsech')" stroke="#b3ff00" fill="none" style="stroke-width: 4; stroke-linecap: square;" transform="matrix(1,0,0,1,650,120)" d="M0,0 L10,10 0,20M0,20 L-10,30 0,40M0,40 L10,50 0,60M0,0 L30,30 0,60M0,20 L-20,40 0,60"></path><mask id="maskSib3jhlsech"><rect fill="#ffffff" style="" height="200" width="200" y="-100" x="-100"></rect><path stroke="#000000" fill="#ffffff" style="stroke-width: 2; stroke-linecap: square;" transform="matrix(1,0,0,1,0,0)" d="M0,0 L10,10 0,20M0,20 L-10,30 0,40M0,40 L10,50 0,60M0,0 L30,30 0,60M0,20 L-20,40 0,60"></path></mask><path stroke="none" fill="none" style="stroke-width: 2; stroke-linecap: square;" transform="matrix(1,0,0,1,650,220)" d="M0,0 L10,10 0,20M0,0 L-10,10 0,20M0,20 L10,30 0,40M0,40 L10,50 0,60M0,0 L20,20 0,40M0,0 L-20,20 0,40M0,0 L-30,30 0,60"></path><path mask="url('#maskSib3jhlsecq')" stroke="#b3ff00" fill="none" style="stroke-width: 4; stroke-linecap: square;" transform="matrix(1,0,0,1,650,220)" d="M0,0 L10,10 0,20M0,0 L-10,10 0,20M0,20 L10,30 0,40M0,40 L10,50 0,60M0,0 L20,20 0,40M0,0 L-20,20 0,40M0,0 L-30,30 0,60"></path><path filter="url('#Sib3jhlsecm')" mask="url('#maskSib3jhlsecq')" stroke="#b3ff00" fill="none" style="stroke-width: 4; stroke-linecap: square;" transform="matrix(1,0,0,1,650,220)" d="M0,0 L10,10 0,20M0,0 L-10,10 0,20M0,20 L10,30 0,40M0,40 L10,50 0,60M0,0 L20,20 0,40M0,0 L-20,20 0,40M0,0 L-30,30 0,60"></path><mask id="maskSib3jhlsecq"><rect fill="#ffffff" style="" height="200" width="200" y="-100" x="-100"></rect><path stroke="#000000" fill="#ffffff" style="stroke-width: 2; stroke-linecap: square;" transform="matrix(1,0,0,1,0,0)" d="M0,0 L10,10 0,20M0,0 L-10,10 0,20M0,20 L10,30 0,40M0,40 L10,50 0,60M0,0 L20,20 0,40M0,0 L-20,20 0,40M0,0 L-30,30 0,60"></path></mask><path stroke="none" fill="none" style="stroke-width: 2; stroke-linecap: square;" transform="matrix(1,0,0,1,650,320)" d="M0,20 L-10,30 0,40M0,0 L30,30 0,60M0,0 L-30,30 0,60M0,20 L20,40 0,60"></path><path mask="url('#maskSib3jhlsecz')" stroke="#b3ff00" fill="none" style="stroke-width: 4; stroke-linecap: square;" transform="matrix(1,0,0,1,650,320)" d="M0,20 L-10,30 0,40M0,0 L30,30 0,60M0,0 L-30,30 0,60M0,20 L20,40 0,60"></path><path filter="url('#Sib3jhlsecv')" mask="url('#maskSib3jhlsecz')" stroke="#b3ff00" fill="none" style="stroke-width: 4; stroke-linecap: square;" transform="matrix(1,0,0,1,650,320)" d="M0,20 L-10,30 0,40M0,0 L30,30 0,60M0,0 L-30,30 0,60M0,20 L20,40 0,60"></path><mask id="maskSib3jhlsecz"><rect fill="#ffffff" style="" height="200" width="200" y="-100" x="-100"></rect><path stroke="#000000" fill="#ffffff" style="stroke-width: 2; stroke-linecap: square;" transform="matrix(1,0,0,1,0,0)" d="M0,20 L-10,30 0,40M0,0 L30,30 0,60M0,0 L-30,30 0,60M0,20 L20,40 0,60"></path></mask><path stroke="none" fill="none" style="stroke-width: 2; stroke-linecap: square;" transform="matrix(1,0,0,1,650,420)" d="M0,0 L-10,10 0,20M0,20 L-10,30 0,40M0,0 L-20,20 0,40M0,20 L20,40 0,60"></path><path mask="url('#maskSib3jhlsed8')" stroke="#b3ff00" fill="none" style="stroke-width: 4; stroke-linecap: square;" transform="matrix(1,0,0,1,650,420)" d="M0,0 L-10,10 0,20M0,20 L-10,30 0,40M0,0 L-20,20 0,40M0,20 L20,40 0,60"></path><path filter="url('#Sib3jhlsed4')" mask="url('#maskSib3jhlsed8')" stroke="#b3ff00" fill="none" style="stroke-width: 4; stroke-linecap: square;" transform="matrix(1,0,0,1,650,420)" d="M0,0 L-10,10 0,20M0,20 L-10,30 0,40M0,0 L-20,20 0,40M0,20 L20,40 0,60"></path><mask id="maskSib3jhlsed8"><rect fill="#ffffff" style="" height="200" width="200" y="-100" x="-100"></rect><path stroke="#000000" fill="#ffffff" style="stroke-width: 2; stroke-linecap: square;" transform="matrix(1,0,0,1,0,0)" d="M0,0 L-10,10 0,20M0,20 L-10,30 0,40M0,0 L-20,20 0,40M0,20 L20,40 0,60"></path></mask><path stroke="none" fill="none" style="stroke-width: 2; stroke-linecap: square;" transform="matrix(1,0,0,1,650,520)" d="M0,0 L10,10 0,20M0,0 L-10,10 0,20M0,20 L-10,30 0,40M0,40 L-10,50 0,60M0,0 L30,30 0,60M0,0 L-30,30 0,60M0,20 L-20,40 0,60"></path><path mask="url('#maskSib3jhlsedh')" stroke="#b3ff00" fill="none" style="stroke-width: 4; stroke-linecap: square;" transform="matrix(1,0,0,1,650,520)" d="M0,0 L10,10 0,20M0,0 L-10,10 0,20M0,20 L-10,30 0,40M0,40 L-10,50 0,60M0,0 L30,30 0,60M0,0 L-30,30 0,60M0,20 L-20,40 0,60"></path><path filter="url('#Sib3jhlsedd')" mask="url('#maskSib3jhlsedh')" stroke="#b3ff00" fill="none" style="stroke-width: 4; stroke-linecap: square;" transform="matrix(1,0,0,1,650,520)" d="M0,0 L10,10 0,20M0,0 L-10,10 0,20M0,20 L-10,30 0,40M0,40 L-10,50 0,60M0,0 L30,30 0,60M0,0 L-30,30 0,60M0,20 L-20,40 0,60"></path><mask id="maskSib3jhlsedh"><rect fill="#ffffff" style="" height="200" width="200" y="-100" x="-100"></rect><path stroke="#000000" fill="#ffffff" style="stroke-width: 2; stroke-linecap: square;" transform="matrix(1,0,0,1,0,0)" d="M0,0 L10,10 0,20M0,0 L-10,10 0,20M0,20 L-10,30 0,40M0,40 L-10,50 0,60M0,0 L30,30 0,60M0,0 L-30,30 0,60M0,20 L-20,40 0,60"></path></mask><path stroke="none" fill="none" style="stroke-width: 2; stroke-linecap: square;" transform="matrix(1,0,0,1,650,620)" d="M0,0 L10,10 0,20M0,0 L-10,10 0,20M0,20 L10,30 0,40M0,40 L10,50 0,60M0,0 L20,20 0,40M0,20 L20,40 0,60M0,20 L-20,40 0,60"></path><path mask="url('#maskSib3jhlsedq')" stroke="#b3ff00" fill="none" style="stroke-width: 4; stroke-linecap: square;" transform="matrix(1,0,0,1,650,620)" d="M0,0 L10,10 0,20M0,0 L-10,10 0,20M0,20 L10,30 0,40M0,40 L10,50 0,60M0,0 L20,20 0,40M0,20 L20,40 0,60M0,20 L-20,40 0,60"></path><path filter="url('#Sib3jhlsedm')" mask="url('#maskSib3jhlsedq')" stroke="#b3ff00" fill="none" style="stroke-width: 4; stroke-linecap: square;" transform="matrix(1,0,0,1,650,620)" d="M0,0 L10,10 0,20M0,0 L-10,10 0,20M0,20 L10,30 0,40M0,40 L10,50 0,60M0,0 L20,20 0,40M0,20 L20,40 0,60M0,20 L-20,40 0,60"></path><mask id="maskSib3jhlsedq"><rect fill="#ffffff" style="" height="200" width="200" y="-100" x="-100"></rect><path stroke="#000000" fill="#ffffff" style="stroke-width: 2; stroke-linecap: square;" transform="matrix(1,0,0,1,0,0)" d="M0,0 L10,10 0,20M0,0 L-10,10 0,20M0,20 L10,30 0,40M0,40 L10,50 0,60M0,0 L20,20 0,40M0,20 L20,40 0,60M0,20 L-20,40 0,60"></path></mask><path stroke="none" fill="none" style="stroke-width: 2; stroke-linecap: square;" transform="matrix(1,0,0,1,650,720)" d="M0,0 L-10,10 0,20M0,40 L10,50 0,60M0,40 L-10,50 0,60M0,0 L20,20 0,40M0,0 L-20,20 0,40M0,0 L30,30 0,60M0,20 L20,40 0,60"></path><path mask="url('#maskSib3jhlsedz')" stroke="#b3ff00" fill="none" style="stroke-width: 4; stroke-linecap: square;" transform="matrix(1,0,0,1,650,720)" d="M0,0 L-10,10 0,20M0,40 L10,50 0,60M0,40 L-10,50 0,60M0,0 L20,20 0,40M0,0 L-20,20 0,40M0,0 L30,30 0,60M0,20 L20,40 0,60"></path><path filter="url('#Sib3jhlsedv')" mask="url('#maskSib3jhlsedz')" stroke="#b3ff00" fill="none" style="stroke-width: 4; stroke-linecap: square;" transform="matrix(1,0,0,1,650,720)" d="M0,0 L-10,10 0,20M0,40 L10,50 0,60M0,40 L-10,50 0,60M0,0 L20,20 0,40M0,0 L-20,20 0,40M0,0 L30,30 0,60M0,20 L20,40 0,60"></path><mask id="maskSib3jhlsedz"><rect fill="#ffffff" style="" height="200" width="200" y="-100" x="-100"></rect><path stroke="#000000" fill="#ffffff" style="stroke-width: 2; stroke-linecap: square;" transform="matrix(1,0,0,1,0,0)" d="M0,0 L-10,10 0,20M0,40 L10,50 0,60M0,40 L-10,50 0,60M0,0 L20,20 0,40M0,0 L-20,20 0,40M0,0 L30,30 0,60M0,20 L20,40 0,60"></path></mask><path stroke="none" fill="none" style="stroke-width: 2; stroke-linecap: square;" transform="matrix(1,0,0,1,750,20)" d="M0,0 L-10,10 0,20M0,20 L10,30 0,40M0,40 L10,50 0,60M0,40 L-10,50 0,60M0,0 L20,20 0,40M0,0 L-30,30 0,60M0,20 L-20,40 0,60"></path><path mask="url('#maskSib3jhlsee8')" stroke="#b3ff00" fill="none" style="stroke-width: 4; stroke-linecap: square;" transform="matrix(1,0,0,1,750,20)" d="M0,0 L-10,10 0,20M0,20 L10,30 0,40M0,40 L10,50 0,60M0,40 L-10,50 0,60M0,0 L20,20 0,40M0,0 L-30,30 0,60M0,20 L-20,40 0,60"></path><path filter="url('#Sib3jhlsee4')" mask="url('#maskSib3jhlsee8')" stroke="#b3ff00" fill="none" style="stroke-width: 4; stroke-linecap: square;" transform="matrix(1,0,0,1,750,20)" d="M0,0 L-10,10 0,20M0,20 L10,30 0,40M0,40 L10,50 0,60M0,40 L-10,50 0,60M0,0 L20,20 0,40M0,0 L-30,30 0,60M0,20 L-20,40 0,60"></path><mask id="maskSib3jhlsee8"><rect fill="#ffffff" style="" height="200" width="200" y="-100" x="-100"></rect><path stroke="#000000" fill="#ffffff" style="stroke-width: 2; stroke-linecap: square;" transform="matrix(1,0,0,1,0,0)" d="M0,0 L-10,10 0,20M0,20 L10,30 0,40M0,40 L10,50 0,60M0,40 L-10,50 0,60M0,0 L20,20 0,40M0,0 L-30,30 0,60M0,20 L-20,40 0,60"></path></mask><path stroke="none" fill="none" style="stroke-width: 2; stroke-linecap: square;" transform="matrix(1,0,0,1,750,120)" d="M0,0 L10,10 0,20M0,0 L-10,10 0,20M0,20 L10,30 0,40M0,20 L-10,30 0,40M0,0 L20,20 0,40M0,0 L-20,20 0,40M0,0 L-30,30 0,60M0,20 L20,40 0,60"></path><path mask="url('#maskSib3jhlseeh')" stroke="#b3ff00" fill="none" style="stroke-width: 4; stroke-linecap: square;" transform="matrix(1,0,0,1,750,120)" d="M0,0 L10,10 0,20M0,0 L-10,10 0,20M0,20 L10,30 0,40M0,20 L-10,30 0,40M0,0 L20,20 0,40M0,0 L-20,20 0,40M0,0 L-30,30 0,60M0,20 L20,40 0,60"></path><path filter="url('#Sib3jhlseed')" mask="url('#maskSib3jhlseeh')" stroke="#b3ff00" fill="none" style="stroke-width: 4; stroke-linecap: square;" transform="matrix(1,0,0,1,750,120)" d="M0,0 L10,10 0,20M0,0 L-10,10 0,20M0,20 L10,30 0,40M0,20 L-10,30 0,40M0,0 L20,20 0,40M0,0 L-20,20 0,40M0,0 L-30,30 0,60M0,20 L20,40 0,60"></path><mask id="maskSib3jhlseeh"><rect fill="#ffffff" style="" height="200" width="200" y="-100" x="-100"></rect><path stroke="#000000" fill="#ffffff" style="stroke-width: 2; stroke-linecap: square;" transform="matrix(1,0,0,1,0,0)" d="M0,0 L10,10 0,20M0,0 L-10,10 0,20M0,20 L10,30 0,40M0,20 L-10,30 0,40M0,0 L20,20 0,40M0,0 L-20,20 0,40M0,0 L-30,30 0,60M0,20 L20,40 0,60"></path></mask><path stroke="none" fill="none" style="stroke-width: 2; stroke-linecap: square;" transform="matrix(1,0,0,1,750,220)" d="M0,0 L-10,10 0,20M0,20 L10,30 0,40M0,20 L-10,30 0,40M0,40 L-10,50 0,60M0,0 L-20,20 0,40M0,0 L30,30 0,60M0,20 L20,40 0,60M0,20 L-20,40 0,60"></path><path mask="url('#maskSib3jhlseeq')" stroke="#b3ff00" fill="none" style="stroke-width: 4; stroke-linecap: square;" transform="matrix(1,0,0,1,750,220)" d="M0,0 L-10,10 0,20M0,20 L10,30 0,40M0,20 L-10,30 0,40M0,40 L-10,50 0,60M0,0 L-20,20 0,40M0,0 L30,30 0,60M0,20 L20,40 0,60M0,20 L-20,40 0,60"></path><path filter="url('#Sib3jhlseem')" mask="url('#maskSib3jhlseeq')" stroke="#b3ff00" fill="none" style="stroke-width: 4; stroke-linecap: square;" transform="matrix(1,0,0,1,750,220)" d="M0,0 L-10,10 0,20M0,20 L10,30 0,40M0,20 L-10,30 0,40M0,40 L-10,50 0,60M0,0 L-20,20 0,40M0,0 L30,30 0,60M0,20 L20,40 0,60M0,20 L-20,40 0,60"></path><mask id="maskSib3jhlseeq"><rect fill="#ffffff" style="" height="200" width="200" y="-100" x="-100"></rect><path stroke="#000000" fill="#ffffff" style="stroke-width: 2; stroke-linecap: square;" transform="matrix(1,0,0,1,0,0)" d="M0,0 L-10,10 0,20M0,20 L10,30 0,40M0,20 L-10,30 0,40M0,40 L-10,50 0,60M0,0 L-20,20 0,40M0,0 L30,30 0,60M0,20 L20,40 0,60M0,20 L-20,40 0,60"></path></mask><path stroke="none" fill="none" style="stroke-width: 2; stroke-linecap: square;" transform="matrix(1,0,0,1,750,320)" d="M0,40 L10,50 0,60M0,0 L20,20 0,40M0,0 L-20,20 0,40M0,20 L20,40 0,60M0,20 L-20,40 0,60"></path><path mask="url('#maskSib3jhlseez')" stroke="#b3ff00" fill="none" style="stroke-width: 4; stroke-linecap: square;" transform="matrix(1,0,0,1,750,320)" d="M0,40 L10,50 0,60M0,0 L20,20 0,40M0,0 L-20,20 0,40M0,20 L20,40 0,60M0,20 L-20,40 0,60"></path><path filter="url('#Sib3jhlseev')" mask="url('#maskSib3jhlseez')" stroke="#b3ff00" fill="none" style="stroke-width: 4; stroke-linecap: square;" transform="matrix(1,0,0,1,750,320)" d="M0,40 L10,50 0,60M0,0 L20,20 0,40M0,0 L-20,20 0,40M0,20 L20,40 0,60M0,20 L-20,40 0,60"></path><mask id="maskSib3jhlseez"><rect fill="#ffffff" style="" height="200" width="200" y="-100" x="-100"></rect><path stroke="#000000" fill="#ffffff" style="stroke-width: 2; stroke-linecap: square;" transform="matrix(1,0,0,1,0,0)" d="M0,40 L10,50 0,60M0,0 L20,20 0,40M0,0 L-20,20 0,40M0,20 L20,40 0,60M0,20 L-20,40 0,60"></path></mask><path stroke="none" fill="none" style="stroke-width: 2; stroke-linecap: square;" transform="matrix(1,0,0,1,750,420)" d="M0,20 L10,30 0,40M0,20 L-10,30 0,40M0,0 L-20,20 0,40M0,0 L30,30 0,60M0,0 L-30,30 0,60"></path><path mask="url('#maskSib3jhlsef8')" stroke="#b3ff00" fill="none" style="stroke-width: 4; stroke-linecap: square;" transform="matrix(1,0,0,1,750,420)" d="M0,20 L10,30 0,40M0,20 L-10,30 0,40M0,0 L-20,20 0,40M0,0 L30,30 0,60M0,0 L-30,30 0,60"></path><path filter="url('#Sib3jhlsef4')" mask="url('#maskSib3jhlsef8')" stroke="#b3ff00" fill="none" style="stroke-width: 4; stroke-linecap: square;" transform="matrix(1,0,0,1,750,420)" d="M0,20 L10,30 0,40M0,20 L-10,30 0,40M0,0 L-20,20 0,40M0,0 L30,30 0,60M0,0 L-30,30 0,60"></path><mask id="maskSib3jhlsef8"><rect fill="#ffffff" style="" height="200" width="200" y="-100" x="-100"></rect><path stroke="#000000" fill="#ffffff" style="stroke-width: 2; stroke-linecap: square;" transform="matrix(1,0,0,1,0,0)" d="M0,20 L10,30 0,40M0,20 L-10,30 0,40M0,0 L-20,20 0,40M0,0 L30,30 0,60M0,0 L-30,30 0,60"></path></mask><path stroke="none" fill="none" style="stroke-width: 2; stroke-linecap: square;" transform="matrix(1,0,0,1,750,520)" d="M0,0 L-10,10 0,20M0,20 L10,30 0,40M0,20 L-10,30 0,40M0,0 L-20,20 0,40M0,0 L-30,30 0,60M0,20 L-20,40 0,60"></path><path mask="url('#maskSib3jhlsefh')" stroke="#b3ff00" fill="none" style="stroke-width: 4; stroke-linecap: square;" transform="matrix(1,0,0,1,750,520)" d="M0,0 L-10,10 0,20M0,20 L10,30 0,40M0,20 L-10,30 0,40M0,0 L-20,20 0,40M0,0 L-30,30 0,60M0,20 L-20,40 0,60"></path><path filter="url('#Sib3jhlsefd')" mask="url('#maskSib3jhlsefh')" stroke="#b3ff00" fill="none" style="stroke-width: 4; stroke-linecap: square;" transform="matrix(1,0,0,1,750,520)" d="M0,0 L-10,10 0,20M0,20 L10,30 0,40M0,20 L-10,30 0,40M0,0 L-20,20 0,40M0,0 L-30,30 0,60M0,20 L-20,40 0,60"></path><mask id="maskSib3jhlsefh"><rect fill="#ffffff" style="" height="200" width="200" y="-100" x="-100"></rect><path stroke="#000000" fill="#ffffff" style="stroke-width: 2; stroke-linecap: square;" transform="matrix(1,0,0,1,0,0)" d="M0,0 L-10,10 0,20M0,20 L10,30 0,40M0,20 L-10,30 0,40M0,0 L-20,20 0,40M0,0 L-30,30 0,60M0,20 L-20,40 0,60"></path></mask><path stroke="none" fill="none" style="stroke-width: 2; stroke-linecap: square;" transform="matrix(1,0,0,1,750,620)" d="M0,20 L10,30 0,40M0,20 L-10,30 0,40M0,40 L10,50 0,60M0,0 L20,20 0,40M0,0 L-20,20 0,40M0,0 L30,30 0,60M0,0 L-30,30 0,60"></path><path mask="url('#maskSib3jhlsefq')" stroke="#b3ff00" fill="none" style="stroke-width: 4; stroke-linecap: square;" transform="matrix(1,0,0,1,750,620)" d="M0,20 L10,30 0,40M0,20 L-10,30 0,40M0,40 L10,50 0,60M0,0 L20,20 0,40M0,0 L-20,20 0,40M0,0 L30,30 0,60M0,0 L-30,30 0,60"></path><path filter="url('#Sib3jhlsefm')" mask="url('#maskSib3jhlsefq')" stroke="#b3ff00" fill="none" style="stroke-width: 4; stroke-linecap: square;" transform="matrix(1,0,0,1,750,620)" d="M0,20 L10,30 0,40M0,20 L-10,30 0,40M0,40 L10,50 0,60M0,0 L20,20 0,40M0,0 L-20,20 0,40M0,0 L30,30 0,60M0,0 L-30,30 0,60"></path><mask id="maskSib3jhlsefq"><rect fill="#ffffff" style="" height="200" width="200" y="-100" x="-100"></rect><path stroke="#000000" fill="#ffffff" style="stroke-width: 2; stroke-linecap: square;" transform="matrix(1,0,0,1,0,0)" d="M0,20 L10,30 0,40M0,20 L-10,30 0,40M0,40 L10,50 0,60M0,0 L20,20 0,40M0,0 L-20,20 0,40M0,0 L30,30 0,60M0,0 L-30,30 0,60"></path></mask><path stroke="none" fill="none" style="stroke-width: 2; stroke-linecap: square;" transform="matrix(1,0,0,1,750,720)" d="M0,0 L20,20 0,40M0,0 L-30,30 0,60M0,20 L20,40 0,60"></path><path mask="url('#maskSib3jhlsefz')" stroke="#b3ff00" fill="none" style="stroke-width: 4; stroke-linecap: square;" transform="matrix(1,0,0,1,750,720)" d="M0,0 L20,20 0,40M0,0 L-30,30 0,60M0,20 L20,40 0,60"></path><path filter="url('#Sib3jhlsefv')" mask="url('#maskSib3jhlsefz')" stroke="#b3ff00" fill="none" style="stroke-width: 4; stroke-linecap: square;" transform="matrix(1,0,0,1,750,720)" d="M0,0 L20,20 0,40M0,0 L-30,30 0,60M0,20 L20,40 0,60"></path><mask id="maskSib3jhlsefz"><rect fill="#ffffff" style="" height="200" width="200" y="-100" x="-100"></rect><path stroke="#000000" fill="#ffffff" style="stroke-width: 2; stroke-linecap: square;" transform="matrix(1,0,0,1,0,0)" d="M0,0 L20,20 0,40M0,0 L-30,30 0,60M0,20 L20,40 0,60"></path></mask></svg>