<svg xmlns="http://www.w3.org/2000/svg" width="800" version="1.1" height="800"><desc>Created with Snap</desc><defs></defs><rect fill="#14871a" style="" height="800" width="800" y="0" x="0"></rect><path stroke="#ff00a6" fill="none" style="" d="M0,0 V800 M100,0 V800 M200,0 V800 M300,0 V800 M400,0 V800 M500,0 V800 M600,0 V800 M700,0 V800 M800,0 V800 M0,0 H800 M0,100 H800 M0,200 H800 M0,300 H800 M0,400 H800 M0,500 H800 M0,600 H800 M0,700 H800 M0,800 H800 "></path><path stroke="#ffffff" fill="none" style="stroke-width: 2;" transform="matrix(1,0,0,1,50,20)" d="M0,0 A10,10 0 0 0 0,20M0,0 A10,10 0 0 1 0,20M0,20 A10,10 0 0 0 0,40M0,20 A10,10 0 0 1 0,40M0,40 A10,10 0 0 0 0,60M0,40 A10,10 0 0 1 0,60M0,0 A20,20 0 0 0 0,40M0,0 A20,20 0 0 1 0,40M0,0 A30,30 0 0 0 0,60M0,0 A30,30 0 0 1 0,60M0,20 A20,20 0 0 0 0,60M0,20 A20,20 0 0 1 0,60"></path><path stroke="#ffffff" fill="none" style="stroke-width: 7;" transform="matrix(1,0,0,1,50,20)" d="M0,0 A10,10 0 0 0 0,20M0,0 A10,10 0 0 1 0,20M0,20 A10,10 0 0 0 0,40M0,20 A10,10 0 0 1 0,40M0,40 A10,10 0 0 0 0,60M0,40 A10,10 0 0 1 0,60M0,0 A20,20 0 0 0 0,40M0,0 A20,20 0 0 1 0,40M0,0 A30,30 0 0 0 0,60M0,0 A30,30 0 0 1 0,60M0,20 A20,20 0 0 0 0,60M0,20 A20,20 0 0 1 0,60"></path><path stroke="#ff0000" fill="none" style="stroke-width: 7; stroke-dasharray: 3, 3;" transform="matrix(1,0,0,1,50,20)" d="M0,0 A10,10 0 0 0 0,20M0,0 A10,10 0 0 1 0,20M0,20 A10,10 0 0 0 0,40M0,20 A10,10 0 0 1 0,40M0,40 A10,10 0 0 0 0,60M0,40 A10,10 0 0 1 0,60M0,0 A20,20 0 0 0 0,40M0,0 A20,20 0 0 1 0,40M0,0 A30,30 0 0 0 0,60M0,0 A30,30 0 0 1 0,60M0,20 A20,20 0 0 0 0,60M0,20 A20,20 0 0 1 0,60"></path><path stroke="#808080" fill="none" style="stroke-width: 4;" transform="matrix(1,0,0,1,50,20)" d="M0,0 A10,10 0 0 0 0,20M0,0 A10,10 0 0 1 0,20M0,20 A10,10 0 0 0 0,40M0,20 A10,10 0 0 1 0,40M0,40 A10,10 0 0 0 0,60M0,40 A10,10 0 0 1 0,60M0,0 A20,20 0 0 0 0,40M0,0 A20,20 0 0 1 0,40M0,0 A30,30 0 0 0 0,60M0,0 A30,30 0 0 1 0,60M0,20 A20,20 0 0 0 0,60M0,20 A20,20 0 0 1 0,60"></path><path stroke="#ffffff" fill="none" style="stroke-width: 2;" transform="matrix(1,0,0,1,50,120)" d="M0,20 A10,10 0 0 0 0,40M0,40 A10,10 0 0 0 0,60M0,0 A20,20 0 0 1 0,40M0,0 A30,30 0 0 1 0,60"></path><path stroke="#ffffff" fill="none" style="stroke-width: 7;" transform="matrix(1,0,0,1,50,120)" d="M0,20 A10,10 0 0 0 0,40M0,40 A10,10 0 0 0 0,60M0,0 A20,20 0 0 1 0,40M0,0 A30,30 0 0 1 0,60"></path><path stroke="#ff0000" fill="none" style="stroke-width: 7; stroke-dasharray: 3, 3;" transform="matrix(1,0,0,1,50,120)" d="M0,20 A10,10 0 0 0 0,40M0,40 A10,10 0 0 0 0,60M0,0 A20,20 0 0 1 0,40M0,0 A30,30 0 0 1 0,60"></path><path stroke="#808080" fill="none" style="stroke-width: 4;" transform="matrix(1,0,0,1,50,120)" d="M0,20 A10,10 0 0 0 0,40M0,40 A10,10 0 0 0 0,60M0,0 A20,20 0 0 1 0,40M0,0 A30,30 0 0 1 0,60"></path><path stroke="#ffffff" fill="none" style="stroke-width: 2;" transform="matrix(1,0,0,1,50,220)" d="M0,0 A10,10 0 0 0 0,20M0,20 A10,10 0 0 0 0,40M0,20 A10,10 0 0 1 0,40M0,0 A20,20 0 0 0 0,40M0,20 A20,20 0 0 0 0,60"></path><path stroke="#ffffff" fill="none" style="stroke-width: 7;" transform="matrix(1,0,0,1,50,220)" d="M0,0 A10,10 0 0 0 0,20M0,20 A10,10 0 0 0 0,40M0,20 A10,10 0 0 1 0,40M0,0 A20,20 0 0 0 0,40M0,20 A20,20 0 0 0 0,60"></path><path stroke="#ff0000" fill="none" style="stroke-width: 7; stroke-dasharray: 3, 3;" transform="matrix(1,0,0,1,50,220)" d="M0,0 A10,10 0 0 0 0,20M0,20 A10,10 0 0 0 0,40M0,20 A10,10 0 0 1 0,40M0,0 A20,20 0 0 0 0,40M0,20 A20,20 0 0 0 0,60"></path><path stroke="#808080" fill="none" style="stroke-width: 4;" transform="matrix(1,0,0,1,50,220)" d="M0,0 A10,10 0 0 0 0,20M0,20 A10,10 0 0 0 0,40M0,20 A10,10 0 0 1 0,40M0,0 A20,20 0 0 0 0,40M0,20 A20,20 0 0 0 0,60"></path><path stroke="#ffffff" fill="none" style="stroke-width: 2;" transform="matrix(1,0,0,1,50,320)" d="M0,0 A10,10 0 0 1 0,20M0,20 A10,10 0 0 1 0,40M0,0 A30,30 0 0 0 0,60M0,0 A30,30 0 0 1 0,60M0,20 A20,20 0 0 1 0,60"></path><path stroke="#ffffff" fill="none" style="stroke-width: 7;" transform="matrix(1,0,0,1,50,320)" d="M0,0 A10,10 0 0 1 0,20M0,20 A10,10 0 0 1 0,40M0,0 A30,30 0 0 0 0,60M0,0 A30,30 0 0 1 0,60M0,20 A20,20 0 0 1 0,60"></path><path stroke="#ff0000" fill="none" style="stroke-width: 7; stroke-dasharray: 3, 3;" transform="matrix(1,0,0,1,50,320)" d="M0,0 A10,10 0 0 1 0,20M0,20 A10,10 0 0 1 0,40M0,0 A30,30 0 0 0 0,60M0,0 A30,30 0 0 1 0,60M0,20 A20,20 0 0 1 0,60"></path><path stroke="#808080" fill="none" style="stroke-width: 4;" transform="matrix(1,0,0,1,50,320)" d="M0,0 A10,10 0 0 1 0,20M0,20 A10,10 0 0 1 0,40M0,0 A30,30 0 0 0 0,60M0,0 A30,30 0 0 1 0,60M0,20 A20,20 0 0 1 0,60"></path><path stroke="#ffffff" fill="none" style="stroke-width: 2;" transform="matrix(1,0,0,1,50,420)" d="M0,0 A10,10 0 0 1 0,20M0,20 A10,10 0 0 0 0,40M0,20 A10,10 0 0 1 0,40M0,40 A10,10 0 0 0 0,60M0,40 A10,10 0 0 1 0,60M0,0 A20,20 0 0 0 0,40M0,0 A20,20 0 0 1 0,40M0,0 A30,30 0 0 0 0,60M0,0 A30,30 0 0 1 0,60M0,20 A20,20 0 0 0 0,60"></path><path stroke="#ffffff" fill="none" style="stroke-width: 7;" transform="matrix(1,0,0,1,50,420)" d="M0,0 A10,10 0 0 1 0,20M0,20 A10,10 0 0 0 0,40M0,20 A10,10 0 0 1 0,40M0,40 A10,10 0 0 0 0,60M0,40 A10,10 0 0 1 0,60M0,0 A20,20 0 0 0 0,40M0,0 A20,20 0 0 1 0,40M0,0 A30,30 0 0 0 0,60M0,0 A30,30 0 0 1 0,60M0,20 A20,20 0 0 0 0,60"></path><path stroke="#ff0000" fill="none" style="stroke-width: 7; stroke-dasharray: 3, 3;" transform="matrix(1,0,0,1,50,420)" d="M0,0 A10,10 0 0 1 0,20M0,20 A10,10 0 0 0 0,40M0,20 A10,10 0 0 1 0,40M0,40 A10,10 0 0 0 0,60M0,40 A10,10 0 0 1 0,60M0,0 A20,20 0 0 0 0,40M0,0 A20,20 0 0 1 0,40M0,0 A30,30 0 0 0 0,60M0,0 A30,30 0 0 1 0,60M0,20 A20,20 0 0 0 0,60"></path><path stroke="#808080" fill="none" style="stroke-width: 4;" transform="matrix(1,0,0,1,50,420)" d="M0,0 A10,10 0 0 1 0,20M0,20 A10,10 0 0 0 0,40M0,20 A10,10 0 0 1 0,40M0,40 A10,10 0 0 0 0,60M0,40 A10,10 0 0 1 0,60M0,0 A20,20 0 0 0 0,40M0,0 A20,20 0 0 1 0,40M0,0 A30,30 0 0 0 0,60M0,0 A30,30 0 0 1 0,60M0,20 A20,20 0 0 0 0,60"></path><path stroke="#ffffff" fill="none" style="stroke-width: 2;" transform="matrix(1,0,0,1,50,520)" d="M0,0 A10,10 0 0 0 0,20M0,0 A10,10 0 0 1 0,20M0,20 A10,10 0 0 0 0,40M0,20 A10,10 0 0 1 0,40M0,40 A10,10 0 0 1 0,60M0,0 A20,20 0 0 0 0,40M0,0 A20,20 0 0 1 0,40M0,0 A30,30 0 0 1 0,60"></path><path stroke="#ffffff" fill="none" style="stroke-width: 7;" transform="matrix(1,0,0,1,50,520)" d="M0,0 A10,10 0 0 0 0,20M0,0 A10,10 0 0 1 0,20M0,20 A10,10 0 0 0 0,40M0,20 A10,10 0 0 1 0,40M0,40 A10,10 0 0 1 0,60M0,0 A20,20 0 0 0 0,40M0,0 A20,20 0 0 1 0,40M0,0 A30,30 0 0 1 0,60"></path><path stroke="#ff0000" fill="none" style="stroke-width: 7; stroke-dasharray: 3, 3;" transform="matrix(1,0,0,1,50,520)" d="M0,0 A10,10 0 0 0 0,20M0,0 A10,10 0 0 1 0,20M0,20 A10,10 0 0 0 0,40M0,20 A10,10 0 0 1 0,40M0,40 A10,10 0 0 1 0,60M0,0 A20,20 0 0 0 0,40M0,0 A20,20 0 0 1 0,40M0,0 A30,30 0 0 1 0,60"></path><path stroke="#808080" fill="none" style="stroke-width: 4;" transform="matrix(1,0,0,1,50,520)" d="M0,0 A10,10 0 0 0 0,20M0,0 A10,10 0 0 1 0,20M0,20 A10,10 0 0 0 0,40M0,20 A10,10 0 0 1 0,40M0,40 A10,10 0 0 1 0,60M0,0 A20,20 0 0 0 0,40M0,0 A20,20 0 0 1 0,40M0,0 A30,30 0 0 1 0,60"></path><path stroke="#ffffff" fill="none" style="stroke-width: 2;" transform="matrix(1,0,0,1,50,620)" d="M0,0 A10,10 0 0 0 0,20M0,0 A10,10 0 0 1 0,20M0,20 A10,10 0 0 0 0,40M0,20 A10,10 0 0 1 0,40M0,40 A10,10 0 0 0 0,60M0,40 A10,10 0 0 1 0,60M0,0 A20,20 0 0 0 0,40M0,0 A30,30 0 0 0 0,60M0,0 A30,30 0 0 1 0,60"></path><path stroke="#ffffff" fill="none" style="stroke-width: 7;" transform="matrix(1,0,0,1,50,620)" d="M0,0 A10,10 0 0 0 0,20M0,0 A10,10 0 0 1 0,20M0,20 A10,10 0 0 0 0,40M0,20 A10,10 0 0 1 0,40M0,40 A10,10 0 0 0 0,60M0,40 A10,10 0 0 1 0,60M0,0 A20,20 0 0 0 0,40M0,0 A30,30 0 0 0 0,60M0,0 A30,30 0 0 1 0,60"></path><path stroke="#ff0000" fill="none" style="stroke-width: 7; stroke-dasharray: 3, 3;" transform="matrix(1,0,0,1,50,620)" d="M0,0 A10,10 0 0 0 0,20M0,0 A10,10 0 0 1 0,20M0,20 A10,10 0 0 0 0,40M0,20 A10,10 0 0 1 0,40M0,40 A10,10 0 0 0 0,60M0,40 A10,10 0 0 1 0,60M0,0 A20,20 0 0 0 0,40M0,0 A30,30 0 0 0 0,60M0,0 A30,30 0 0 1 0,60"></path><path stroke="#808080" fill="none" style="stroke-width: 4;" transform="matrix(1,0,0,1,50,620)" d="M0,0 A10,10 0 0 0 0,20M0,0 A10,10 0 0 1 0,20M0,20 A10,10 0 0 0 0,40M0,20 A10,10 0 0 1 0,40M0,40 A10,10 0 0 0 0,60M0,40 A10,10 0 0 1 0,60M0,0 A20,20 0 0 0 0,40M0,0 A30,30 0 0 0 0,60M0,0 A30,30 0 0 1 0,60"></path><path stroke="#ffffff" fill="none" style="stroke-width: 2;" transform="matrix(1,0,0,1,50,720)" d="M0,0 A10,10 0 0 1 0,20M0,20 A10,10 0 0 1 0,40M0,40 A10,10 0 0 0 0,60M0,40 A10,10 0 0 1 0,60M0,0 A20,20 0 0 0 0,40M0,0 A30,30 0 0 0 0,60M0,20 A20,20 0 0 0 0,60M0,20 A20,20 0 0 1 0,60"></path><path stroke="#ffffff" fill="none" style="stroke-width: 7;" transform="matrix(1,0,0,1,50,720)" d="M0,0 A10,10 0 0 1 0,20M0,20 A10,10 0 0 1 0,40M0,40 A10,10 0 0 0 0,60M0,40 A10,10 0 0 1 0,60M0,0 A20,20 0 0 0 0,40M0,0 A30,30 0 0 0 0,60M0,20 A20,20 0 0 0 0,60M0,20 A20,20 0 0 1 0,60"></path><path stroke="#ff0000" fill="none" style="stroke-width: 7; stroke-dasharray: 3, 3;" transform="matrix(1,0,0,1,50,720)" d="M0,0 A10,10 0 0 1 0,20M0,20 A10,10 0 0 1 0,40M0,40 A10,10 0 0 0 0,60M0,40 A10,10 0 0 1 0,60M0,0 A20,20 0 0 0 0,40M0,0 A30,30 0 0 0 0,60M0,20 A20,20 0 0 0 0,60M0,20 A20,20 0 0 1 0,60"></path><path stroke="#808080" fill="none" style="stroke-width: 4;" transform="matrix(1,0,0,1,50,720)" d="M0,0 A10,10 0 0 1 0,20M0,20 A10,10 0 0 1 0,40M0,40 A10,10 0 0 0 0,60M0,40 A10,10 0 0 1 0,60M0,0 A20,20 0 0 0 0,40M0,0 A30,30 0 0 0 0,60M0,20 A20,20 0 0 0 0,60M0,20 A20,20 0 0 1 0,60"></path><path stroke="#ffffff" fill="none" style="stroke-width: 2;" transform="matrix(1,0,0,1,150,20)" d="M0,0 A10,10 0 0 0 0,20M0,0 A10,10 0 0 1 0,20M0,20 A10,10 0 0 0 0,40M0,20 A10,10 0 0 1 0,40M0,40 A10,10 0 0 1 0,60M0,0 A20,20 0 0 0 0,40M0,0 A30,30 0 0 0 0,60M0,20 A20,20 0 0 0 0,60"></path><path stroke="#ffffff" fill="none" style="stroke-width: 7;" transform="matrix(1,0,0,1,150,20)" d="M0,0 A10,10 0 0 0 0,20M0,0 A10,10 0 0 1 0,20M0,20 A10,10 0 0 0 0,40M0,20 A10,10 0 0 1 0,40M0,40 A10,10 0 0 1 0,60M0,0 A20,20 0 0 0 0,40M0,0 A30,30 0 0 0 0,60M0,20 A20,20 0 0 0 0,60"></path><path stroke="#ff0000" fill="none" style="stroke-width: 7; stroke-dasharray: 3, 3;" transform="matrix(1,0,0,1,150,20)" d="M0,0 A10,10 0 0 0 0,20M0,0 A10,10 0 0 1 0,20M0,20 A10,10 0 0 0 0,40M0,20 A10,10 0 0 1 0,40M0,40 A10,10 0 0 1 0,60M0,0 A20,20 0 0 0 0,40M0,0 A30,30 0 0 0 0,60M0,20 A20,20 0 0 0 0,60"></path><path stroke="#808080" fill="none" style="stroke-width: 4;" transform="matrix(1,0,0,1,150,20)" d="M0,0 A10,10 0 0 0 0,20M0,0 A10,10 0 0 1 0,20M0,20 A10,10 0 0 0 0,40M0,20 A10,10 0 0 1 0,40M0,40 A10,10 0 0 1 0,60M0,0 A20,20 0 0 0 0,40M0,0 A30,30 0 0 0 0,60M0,20 A20,20 0 0 0 0,60"></path><path stroke="#ffffff" fill="none" style="stroke-width: 2;" transform="matrix(1,0,0,1,150,120)" d="M0,0 A10,10 0 0 0 0,20M0,20 A10,10 0 0 0 0,40M0,20 A10,10 0 0 1 0,40M0,0 A20,20 0 0 0 0,40"></path><path stroke="#ffffff" fill="none" style="stroke-width: 7;" transform="matrix(1,0,0,1,150,120)" d="M0,0 A10,10 0 0 0 0,20M0,20 A10,10 0 0 0 0,40M0,20 A10,10 0 0 1 0,40M0,0 A20,20 0 0 0 0,40"></path><path stroke="#ff0000" fill="none" style="stroke-width: 7; stroke-dasharray: 3, 3;" transform="matrix(1,0,0,1,150,120)" d="M0,0 A10,10 0 0 0 0,20M0,20 A10,10 0 0 0 0,40M0,20 A10,10 0 0 1 0,40M0,0 A20,20 0 0 0 0,40"></path><path stroke="#808080" fill="none" style="stroke-width: 4;" transform="matrix(1,0,0,1,150,120)" d="M0,0 A10,10 0 0 0 0,20M0,20 A10,10 0 0 0 0,40M0,20 A10,10 0 0 1 0,40M0,0 A20,20 0 0 0 0,40"></path><path stroke="#ffffff" fill="none" style="stroke-width: 2;" transform="matrix(1,0,0,1,150,220)" d="M0,20 A10,10 0 0 0 0,40M0,40 A10,10 0 0 0 0,60M0,0 A20,20 0 0 0 0,40M0,0 A30,30 0 0 0 0,60"></path><path stroke="#ffffff" fill="none" style="stroke-width: 7;" transform="matrix(1,0,0,1,150,220)" d="M0,20 A10,10 0 0 0 0,40M0,40 A10,10 0 0 0 0,60M0,0 A20,20 0 0 0 0,40M0,0 A30,30 0 0 0 0,60"></path><path stroke="#ff0000" fill="none" style="stroke-width: 7; stroke-dasharray: 3, 3;" transform="matrix(1,0,0,1,150,220)" d="M0,20 A10,10 0 0 0 0,40M0,40 A10,10 0 0 0 0,60M0,0 A20,20 0 0 0 0,40M0,0 A30,30 0 0 0 0,60"></path><path stroke="#808080" fill="none" style="stroke-width: 4;" transform="matrix(1,0,0,1,150,220)" d="M0,20 A10,10 0 0 0 0,40M0,40 A10,10 0 0 0 0,60M0,0 A20,20 0 0 0 0,40M0,0 A30,30 0 0 0 0,60"></path><path stroke="#ffffff" fill="none" style="stroke-width: 2;" transform="matrix(1,0,0,1,150,320)" d="M0,20 A10,10 0 0 0 0,40M0,20 A10,10 0 0 1 0,40M0,40 A10,10 0 0 0 0,60M0,0 A20,20 0 0 0 0,40M0,20 A20,20 0 0 1 0,60"></path><path stroke="#ffffff" fill="none" style="stroke-width: 7;" transform="matrix(1,0,0,1,150,320)" d="M0,20 A10,10 0 0 0 0,40M0,20 A10,10 0 0 1 0,40M0,40 A10,10 0 0 0 0,60M0,0 A20,20 0 0 0 0,40M0,20 A20,20 0 0 1 0,60"></path><path stroke="#ff0000" fill="none" style="stroke-width: 7; stroke-dasharray: 3, 3;" transform="matrix(1,0,0,1,150,320)" d="M0,20 A10,10 0 0 0 0,40M0,20 A10,10 0 0 1 0,40M0,40 A10,10 0 0 0 0,60M0,0 A20,20 0 0 0 0,40M0,20 A20,20 0 0 1 0,60"></path><path stroke="#808080" fill="none" style="stroke-width: 4;" transform="matrix(1,0,0,1,150,320)" d="M0,20 A10,10 0 0 0 0,40M0,20 A10,10 0 0 1 0,40M0,40 A10,10 0 0 0 0,60M0,0 A20,20 0 0 0 0,40M0,20 A20,20 0 0 1 0,60"></path><path stroke="#ffffff" fill="none" style="stroke-width: 2;" transform="matrix(1,0,0,1,150,420)" d="M0,0 A10,10 0 0 0 0,20M0,0 A10,10 0 0 1 0,20M0,20 A10,10 0 0 0 0,40M0,0 A20,20 0 0 0 0,40M0,0 A20,20 0 0 1 0,40M0,0 A30,30 0 0 0 0,60M0,0 A30,30 0 0 1 0,60M0,20 A20,20 0 0 0 0,60M0,20 A20,20 0 0 1 0,60"></path><path stroke="#ffffff" fill="none" style="stroke-width: 7;" transform="matrix(1,0,0,1,150,420)" d="M0,0 A10,10 0 0 0 0,20M0,0 A10,10 0 0 1 0,20M0,20 A10,10 0 0 0 0,40M0,0 A20,20 0 0 0 0,40M0,0 A20,20 0 0 1 0,40M0,0 A30,30 0 0 0 0,60M0,0 A30,30 0 0 1 0,60M0,20 A20,20 0 0 0 0,60M0,20 A20,20 0 0 1 0,60"></path><path stroke="#ff0000" fill="none" style="stroke-width: 7; stroke-dasharray: 3, 3;" transform="matrix(1,0,0,1,150,420)" d="M0,0 A10,10 0 0 0 0,20M0,0 A10,10 0 0 1 0,20M0,20 A10,10 0 0 0 0,40M0,0 A20,20 0 0 0 0,40M0,0 A20,20 0 0 1 0,40M0,0 A30,30 0 0 0 0,60M0,0 A30,30 0 0 1 0,60M0,20 A20,20 0 0 0 0,60M0,20 A20,20 0 0 1 0,60"></path><path stroke="#808080" fill="none" style="stroke-width: 4;" transform="matrix(1,0,0,1,150,420)" d="M0,0 A10,10 0 0 0 0,20M0,0 A10,10 0 0 1 0,20M0,20 A10,10 0 0 0 0,40M0,0 A20,20 0 0 0 0,40M0,0 A20,20 0 0 1 0,40M0,0 A30,30 0 0 0 0,60M0,0 A30,30 0 0 1 0,60M0,20 A20,20 0 0 0 0,60M0,20 A20,20 0 0 1 0,60"></path><path stroke="#ffffff" fill="none" style="stroke-width: 2;" transform="matrix(1,0,0,1,150,520)" d="M0,0 A10,10 0 0 0 0,20M0,0 A10,10 0 0 1 0,20M0,40 A10,10 0 0 0 0,60M0,40 A10,10 0 0 1 0,60M0,0 A20,20 0 0 1 0,40M0,0 A30,30 0 0 0 0,60M0,20 A20,20 0 0 1 0,60"></path><path stroke="#ffffff" fill="none" style="stroke-width: 7;" transform="matrix(1,0,0,1,150,520)" d="M0,0 A10,10 0 0 0 0,20M0,0 A10,10 0 0 1 0,20M0,40 A10,10 0 0 0 0,60M0,40 A10,10 0 0 1 0,60M0,0 A20,20 0 0 1 0,40M0,0 A30,30 0 0 0 0,60M0,20 A20,20 0 0 1 0,60"></path><path stroke="#ff0000" fill="none" style="stroke-width: 7; stroke-dasharray: 3, 3;" transform="matrix(1,0,0,1,150,520)" d="M0,0 A10,10 0 0 0 0,20M0,0 A10,10 0 0 1 0,20M0,40 A10,10 0 0 0 0,60M0,40 A10,10 0 0 1 0,60M0,0 A20,20 0 0 1 0,40M0,0 A30,30 0 0 0 0,60M0,20 A20,20 0 0 1 0,60"></path><path stroke="#808080" fill="none" style="stroke-width: 4;" transform="matrix(1,0,0,1,150,520)" d="M0,0 A10,10 0 0 0 0,20M0,0 A10,10 0 0 1 0,20M0,40 A10,10 0 0 0 0,60M0,40 A10,10 0 0 1 0,60M0,0 A20,20 0 0 1 0,40M0,0 A30,30 0 0 0 0,60M0,20 A20,20 0 0 1 0,60"></path><path stroke="#ffffff" fill="none" style="stroke-width: 2;" transform="matrix(1,0,0,1,150,620)" d="M0,0 A10,10 0 0 0 0,20M0,0 A10,10 0 0 1 0,20M0,20 A10,10 0 0 0 0,40M0,20 A10,10 0 0 1 0,40M0,40 A10,10 0 0 1 0,60M0,0 A20,20 0 0 1 0,40M0,0 A30,30 0 0 0 0,60M0,0 A30,30 0 0 1 0,60"></path><path stroke="#ffffff" fill="none" style="stroke-width: 7;" transform="matrix(1,0,0,1,150,620)" d="M0,0 A10,10 0 0 0 0,20M0,0 A10,10 0 0 1 0,20M0,20 A10,10 0 0 0 0,40M0,20 A10,10 0 0 1 0,40M0,40 A10,10 0 0 1 0,60M0,0 A20,20 0 0 1 0,40M0,0 A30,30 0 0 0 0,60M0,0 A30,30 0 0 1 0,60"></path><path stroke="#ff0000" fill="none" style="stroke-width: 7; stroke-dasharray: 3, 3;" transform="matrix(1,0,0,1,150,620)" d="M0,0 A10,10 0 0 0 0,20M0,0 A10,10 0 0 1 0,20M0,20 A10,10 0 0 0 0,40M0,20 A10,10 0 0 1 0,40M0,40 A10,10 0 0 1 0,60M0,0 A20,20 0 0 1 0,40M0,0 A30,30 0 0 0 0,60M0,0 A30,30 0 0 1 0,60"></path><path stroke="#808080" fill="none" style="stroke-width: 4;" transform="matrix(1,0,0,1,150,620)" d="M0,0 A10,10 0 0 0 0,20M0,0 A10,10 0 0 1 0,20M0,20 A10,10 0 0 0 0,40M0,20 A10,10 0 0 1 0,40M0,40 A10,10 0 0 1 0,60M0,0 A20,20 0 0 1 0,40M0,0 A30,30 0 0 0 0,60M0,0 A30,30 0 0 1 0,60"></path><path stroke="#ffffff" fill="none" style="stroke-width: 2;" transform="matrix(1,0,0,1,150,720)" d="M0,20 A10,10 0 0 0 0,40M0,20 A10,10 0 0 1 0,40M0,40 A10,10 0 0 0 0,60M0,40 A10,10 0 0 1 0,60M0,0 A30,30 0 0 1 0,60M0,20 A20,20 0 0 0 0,60M0,20 A20,20 0 0 1 0,60"></path><path stroke="#ffffff" fill="none" style="stroke-width: 7;" transform="matrix(1,0,0,1,150,720)" d="M0,20 A10,10 0 0 0 0,40M0,20 A10,10 0 0 1 0,40M0,40 A10,10 0 0 0 0,60M0,40 A10,10 0 0 1 0,60M0,0 A30,30 0 0 1 0,60M0,20 A20,20 0 0 0 0,60M0,20 A20,20 0 0 1 0,60"></path><path stroke="#ff0000" fill="none" style="stroke-width: 7; stroke-dasharray: 3, 3;" transform="matrix(1,0,0,1,150,720)" d="M0,20 A10,10 0 0 0 0,40M0,20 A10,10 0 0 1 0,40M0,40 A10,10 0 0 0 0,60M0,40 A10,10 0 0 1 0,60M0,0 A30,30 0 0 1 0,60M0,20 A20,20 0 0 0 0,60M0,20 A20,20 0 0 1 0,60"></path><path stroke="#808080" fill="none" style="stroke-width: 4;" transform="matrix(1,0,0,1,150,720)" d="M0,20 A10,10 0 0 0 0,40M0,20 A10,10 0 0 1 0,40M0,40 A10,10 0 0 0 0,60M0,40 A10,10 0 0 1 0,60M0,0 A30,30 0 0 1 0,60M0,20 A20,20 0 0 0 0,60M0,20 A20,20 0 0 1 0,60"></path><path stroke="#ffffff" fill="none" style="stroke-width: 2;" transform="matrix(1,0,0,1,250,20)" d="M0,20 A10,10 0 0 0 0,40M0,0 A20,20 0 0 1 0,40M0,0 A30,30 0 0 0 0,60M0,0 A30,30 0 0 1 0,60M0,20 A20,20 0 0 0 0,60"></path><path stroke="#ffffff" fill="none" style="stroke-width: 7;" transform="matrix(1,0,0,1,250,20)" d="M0,20 A10,10 0 0 0 0,40M0,0 A20,20 0 0 1 0,40M0,0 A30,30 0 0 0 0,60M0,0 A30,30 0 0 1 0,60M0,20 A20,20 0 0 0 0,60"></path><path stroke="#ff0000" fill="none" style="stroke-width: 7; stroke-dasharray: 3, 3;" transform="matrix(1,0,0,1,250,20)" d="M0,20 A10,10 0 0 0 0,40M0,0 A20,20 0 0 1 0,40M0,0 A30,30 0 0 0 0,60M0,0 A30,30 0 0 1 0,60M0,20 A20,20 0 0 0 0,60"></path><path stroke="#808080" fill="none" style="stroke-width: 4;" transform="matrix(1,0,0,1,250,20)" d="M0,20 A10,10 0 0 0 0,40M0,0 A20,20 0 0 1 0,40M0,0 A30,30 0 0 0 0,60M0,0 A30,30 0 0 1 0,60M0,20 A20,20 0 0 0 0,60"></path><path stroke="#ffffff" fill="none" style="stroke-width: 2;" transform="matrix(1,0,0,1,250,120)" d="M0,0 A10,10 0 0 0 0,20M0,0 A10,10 0 0 1 0,20M0,40 A10,10 0 0 1 0,60M0,20 A20,20 0 0 0 0,60M0,20 A20,20 0 0 1 0,60"></path><path stroke="#ffffff" fill="none" style="stroke-width: 7;" transform="matrix(1,0,0,1,250,120)" d="M0,0 A10,10 0 0 0 0,20M0,0 A10,10 0 0 1 0,20M0,40 A10,10 0 0 1 0,60M0,20 A20,20 0 0 0 0,60M0,20 A20,20 0 0 1 0,60"></path><path stroke="#ff0000" fill="none" style="stroke-width: 7; stroke-dasharray: 3, 3;" transform="matrix(1,0,0,1,250,120)" d="M0,0 A10,10 0 0 0 0,20M0,0 A10,10 0 0 1 0,20M0,40 A10,10 0 0 1 0,60M0,20 A20,20 0 0 0 0,60M0,20 A20,20 0 0 1 0,60"></path><path stroke="#808080" fill="none" style="stroke-width: 4;" transform="matrix(1,0,0,1,250,120)" d="M0,0 A10,10 0 0 0 0,20M0,0 A10,10 0 0 1 0,20M0,40 A10,10 0 0 1 0,60M0,20 A20,20 0 0 0 0,60M0,20 A20,20 0 0 1 0,60"></path><path stroke="#ffffff" fill="none" style="stroke-width: 2;" transform="matrix(1,0,0,1,250,220)" d="M0,20 A10,10 0 0 0 0,40M0,40 A10,10 0 0 1 0,60M0,0 A20,20 0 0 0 0,40M0,0 A20,20 0 0 1 0,40"></path><path stroke="#ffffff" fill="none" style="stroke-width: 7;" transform="matrix(1,0,0,1,250,220)" d="M0,20 A10,10 0 0 0 0,40M0,40 A10,10 0 0 1 0,60M0,0 A20,20 0 0 0 0,40M0,0 A20,20 0 0 1 0,40"></path><path stroke="#ff0000" fill="none" style="stroke-width: 7; stroke-dasharray: 3, 3;" transform="matrix(1,0,0,1,250,220)" d="M0,20 A10,10 0 0 0 0,40M0,40 A10,10 0 0 1 0,60M0,0 A20,20 0 0 0 0,40M0,0 A20,20 0 0 1 0,40"></path><path stroke="#808080" fill="none" style="stroke-width: 4;" transform="matrix(1,0,0,1,250,220)" d="M0,20 A10,10 0 0 0 0,40M0,40 A10,10 0 0 1 0,60M0,0 A20,20 0 0 0 0,40M0,0 A20,20 0 0 1 0,40"></path><path stroke="#ffffff" fill="none" style="stroke-width: 2;" transform="matrix(1,0,0,1,250,320)" d="M0,0 A10,10 0 0 0 0,20M0,0 A10,10 0 0 1 0,20M0,20 A10,10 0 0 1 0,40M0,40 A10,10 0 0 0 0,60M0,40 A10,10 0 0 1 0,60M0,0 A20,20 0 0 0 0,40M0,0 A20,20 0 0 1 0,40M0,0 A30,30 0 0 0 0,60M0,20 A20,20 0 0 1 0,60"></path><path stroke="#ffffff" fill="none" style="stroke-width: 7;" transform="matrix(1,0,0,1,250,320)" d="M0,0 A10,10 0 0 0 0,20M0,0 A10,10 0 0 1 0,20M0,20 A10,10 0 0 1 0,40M0,40 A10,10 0 0 0 0,60M0,40 A10,10 0 0 1 0,60M0,0 A20,20 0 0 0 0,40M0,0 A20,20 0 0 1 0,40M0,0 A30,30 0 0 0 0,60M0,20 A20,20 0 0 1 0,60"></path><path stroke="#ff0000" fill="none" style="stroke-width: 7; stroke-dasharray: 3, 3;" transform="matrix(1,0,0,1,250,320)" d="M0,0 A10,10 0 0 0 0,20M0,0 A10,10 0 0 1 0,20M0,20 A10,10 0 0 1 0,40M0,40 A10,10 0 0 0 0,60M0,40 A10,10 0 0 1 0,60M0,0 A20,20 0 0 0 0,40M0,0 A20,20 0 0 1 0,40M0,0 A30,30 0 0 0 0,60M0,20 A20,20 0 0 1 0,60"></path><path stroke="#808080" fill="none" style="stroke-width: 4;" transform="matrix(1,0,0,1,250,320)" d="M0,0 A10,10 0 0 0 0,20M0,0 A10,10 0 0 1 0,20M0,20 A10,10 0 0 1 0,40M0,40 A10,10 0 0 0 0,60M0,40 A10,10 0 0 1 0,60M0,0 A20,20 0 0 0 0,40M0,0 A20,20 0 0 1 0,40M0,0 A30,30 0 0 0 0,60M0,20 A20,20 0 0 1 0,60"></path><path stroke="#ffffff" fill="none" style="stroke-width: 2;" transform="matrix(1,0,0,1,250,420)" d="M0,20 A10,10 0 0 0 0,40M0,0 A20,20 0 0 1 0,40M0,0 A30,30 0 0 0 0,60M0,20 A20,20 0 0 1 0,60"></path><path stroke="#ffffff" fill="none" style="stroke-width: 7;" transform="matrix(1,0,0,1,250,420)" d="M0,20 A10,10 0 0 0 0,40M0,0 A20,20 0 0 1 0,40M0,0 A30,30 0 0 0 0,60M0,20 A20,20 0 0 1 0,60"></path><path stroke="#ff0000" fill="none" style="stroke-width: 7; stroke-dasharray: 3, 3;" transform="matrix(1,0,0,1,250,420)" d="M0,20 A10,10 0 0 0 0,40M0,0 A20,20 0 0 1 0,40M0,0 A30,30 0 0 0 0,60M0,20 A20,20 0 0 1 0,60"></path><path stroke="#808080" fill="none" style="stroke-width: 4;" transform="matrix(1,0,0,1,250,420)" d="M0,20 A10,10 0 0 0 0,40M0,0 A20,20 0 0 1 0,40M0,0 A30,30 0 0 0 0,60M0,20 A20,20 0 0 1 0,60"></path><path stroke="#ffffff" fill="none" style="stroke-width: 2;" transform="matrix(1,0,0,1,250,520)" d="M0,0 A10,10 0 0 0 0,20M0,0 A10,10 0 0 1 0,20M0,20 A10,10 0 0 1 0,40M0,40 A10,10 0 0 1 0,60M0,0 A20,20 0 0 1 0,40M0,0 A30,30 0 0 0 0,60M0,20 A20,20 0 0 0 0,60"></path><path stroke="#ffffff" fill="none" style="stroke-width: 7;" transform="matrix(1,0,0,1,250,520)" d="M0,0 A10,10 0 0 0 0,20M0,0 A10,10 0 0 1 0,20M0,20 A10,10 0 0 1 0,40M0,40 A10,10 0 0 1 0,60M0,0 A20,20 0 0 1 0,40M0,0 A30,30 0 0 0 0,60M0,20 A20,20 0 0 0 0,60"></path><path stroke="#ff0000" fill="none" style="stroke-width: 7; stroke-dasharray: 3, 3;" transform="matrix(1,0,0,1,250,520)" d="M0,0 A10,10 0 0 0 0,20M0,0 A10,10 0 0 1 0,20M0,20 A10,10 0 0 1 0,40M0,40 A10,10 0 0 1 0,60M0,0 A20,20 0 0 1 0,40M0,0 A30,30 0 0 0 0,60M0,20 A20,20 0 0 0 0,60"></path><path stroke="#808080" fill="none" style="stroke-width: 4;" transform="matrix(1,0,0,1,250,520)" d="M0,0 A10,10 0 0 0 0,20M0,0 A10,10 0 0 1 0,20M0,20 A10,10 0 0 1 0,40M0,40 A10,10 0 0 1 0,60M0,0 A20,20 0 0 1 0,40M0,0 A30,30 0 0 0 0,60M0,20 A20,20 0 0 0 0,60"></path><path stroke="#ffffff" fill="none" style="stroke-width: 2;" transform="matrix(1,0,0,1,250,620)" d="M0,20 A10,10 0 0 1 0,40M0,0 A20,20 0 0 0 0,40M0,0 A20,20 0 0 1 0,40M0,0 A30,30 0 0 0 0,60M0,0 A30,30 0 0 1 0,60"></path><path stroke="#ffffff" fill="none" style="stroke-width: 7;" transform="matrix(1,0,0,1,250,620)" d="M0,20 A10,10 0 0 1 0,40M0,0 A20,20 0 0 0 0,40M0,0 A20,20 0 0 1 0,40M0,0 A30,30 0 0 0 0,60M0,0 A30,30 0 0 1 0,60"></path><path stroke="#ff0000" fill="none" style="stroke-width: 7; stroke-dasharray: 3, 3;" transform="matrix(1,0,0,1,250,620)" d="M0,20 A10,10 0 0 1 0,40M0,0 A20,20 0 0 0 0,40M0,0 A20,20 0 0 1 0,40M0,0 A30,30 0 0 0 0,60M0,0 A30,30 0 0 1 0,60"></path><path stroke="#808080" fill="none" style="stroke-width: 4;" transform="matrix(1,0,0,1,250,620)" d="M0,20 A10,10 0 0 1 0,40M0,0 A20,20 0 0 0 0,40M0,0 A20,20 0 0 1 0,40M0,0 A30,30 0 0 0 0,60M0,0 A30,30 0 0 1 0,60"></path><path stroke="#ffffff" fill="none" style="stroke-width: 2;" transform="matrix(1,0,0,1,250,720)" d="M0,40 A10,10 0 0 0 0,60M0,40 A10,10 0 0 1 0,60M0,0 A20,20 0 0 0 0,40M0,0 A20,20 0 0 1 0,40M0,0 A30,30 0 0 0 0,60M0,0 A30,30 0 0 1 0,60"></path><path stroke="#ffffff" fill="none" style="stroke-width: 7;" transform="matrix(1,0,0,1,250,720)" d="M0,40 A10,10 0 0 0 0,60M0,40 A10,10 0 0 1 0,60M0,0 A20,20 0 0 0 0,40M0,0 A20,20 0 0 1 0,40M0,0 A30,30 0 0 0 0,60M0,0 A30,30 0 0 1 0,60"></path><path stroke="#ff0000" fill="none" style="stroke-width: 7; stroke-dasharray: 3, 3;" transform="matrix(1,0,0,1,250,720)" d="M0,40 A10,10 0 0 0 0,60M0,40 A10,10 0 0 1 0,60M0,0 A20,20 0 0 0 0,40M0,0 A20,20 0 0 1 0,40M0,0 A30,30 0 0 0 0,60M0,0 A30,30 0 0 1 0,60"></path><path stroke="#808080" fill="none" style="stroke-width: 4;" transform="matrix(1,0,0,1,250,720)" d="M0,40 A10,10 0 0 0 0,60M0,40 A10,10 0 0 1 0,60M0,0 A20,20 0 0 0 0,40M0,0 A20,20 0 0 1 0,40M0,0 A30,30 0 0 0 0,60M0,0 A30,30 0 0 1 0,60"></path><path stroke="#ffffff" fill="none" style="stroke-width: 2;" transform="matrix(1,0,0,1,350,20)" d="M0,20 A10,10 0 0 0 0,40M0,0 A30,30 0 0 0 0,60M0,20 A20,20 0 0 0 0,60"></path><path stroke="#ffffff" fill="none" style="stroke-width: 7;" transform="matrix(1,0,0,1,350,20)" d="M0,20 A10,10 0 0 0 0,40M0,0 A30,30 0 0 0 0,60M0,20 A20,20 0 0 0 0,60"></path><path stroke="#ff0000" fill="none" style="stroke-width: 7; stroke-dasharray: 3, 3;" transform="matrix(1,0,0,1,350,20)" d="M0,20 A10,10 0 0 0 0,40M0,0 A30,30 0 0 0 0,60M0,20 A20,20 0 0 0 0,60"></path><path stroke="#808080" fill="none" style="stroke-width: 4;" transform="matrix(1,0,0,1,350,20)" d="M0,20 A10,10 0 0 0 0,40M0,0 A30,30 0 0 0 0,60M0,20 A20,20 0 0 0 0,60"></path><path stroke="#ffffff" fill="none" style="stroke-width: 2;" transform="matrix(1,0,0,1,350,120)" d="M0,0 A10,10 0 0 1 0,20M0,20 A10,10 0 0 0 0,40M0,40 A10,10 0 0 0 0,60M0,0 A20,20 0 0 0 0,40M0,0 A20,20 0 0 1 0,40M0,0 A30,30 0 0 1 0,60M0,20 A20,20 0 0 0 0,60"></path><path stroke="#ffffff" fill="none" style="stroke-width: 7;" transform="matrix(1,0,0,1,350,120)" d="M0,0 A10,10 0 0 1 0,20M0,20 A10,10 0 0 0 0,40M0,40 A10,10 0 0 0 0,60M0,0 A20,20 0 0 0 0,40M0,0 A20,20 0 0 1 0,40M0,0 A30,30 0 0 1 0,60M0,20 A20,20 0 0 0 0,60"></path><path stroke="#ff0000" fill="none" style="stroke-width: 7; stroke-dasharray: 3, 3;" transform="matrix(1,0,0,1,350,120)" d="M0,0 A10,10 0 0 1 0,20M0,20 A10,10 0 0 0 0,40M0,40 A10,10 0 0 0 0,60M0,0 A20,20 0 0 0 0,40M0,0 A20,20 0 0 1 0,40M0,0 A30,30 0 0 1 0,60M0,20 A20,20 0 0 0 0,60"></path><path stroke="#808080" fill="none" style="stroke-width: 4;" transform="matrix(1,0,0,1,350,120)" d="M0,0 A10,10 0 0 1 0,20M0,20 A10,10 0 0 0 0,40M0,40 A10,10 0 0 0 0,60M0,0 A20,20 0 0 0 0,40M0,0 A20,20 0 0 1 0,40M0,0 A30,30 0 0 1 0,60M0,20 A20,20 0 0 0 0,60"></path><path stroke="#ffffff" fill="none" style="stroke-width: 2;" transform="matrix(1,0,0,1,350,220)" d="M0,0 A10,10 0 0 0 0,20M0,0 A10,10 0 0 1 0,20M0,20 A10,10 0 0 1 0,40M0,40 A10,10 0 0 0 0,60M0,0 A20,20 0 0 0 0,40M0,0 A20,20 0 0 1 0,40M0,0 A30,30 0 0 1 0,60"></path><path stroke="#ffffff" fill="none" style="stroke-width: 7;" transform="matrix(1,0,0,1,350,220)" d="M0,0 A10,10 0 0 0 0,20M0,0 A10,10 0 0 1 0,20M0,20 A10,10 0 0 1 0,40M0,40 A10,10 0 0 0 0,60M0,0 A20,20 0 0 0 0,40M0,0 A20,20 0 0 1 0,40M0,0 A30,30 0 0 1 0,60"></path><path stroke="#ff0000" fill="none" style="stroke-width: 7; stroke-dasharray: 3, 3;" transform="matrix(1,0,0,1,350,220)" d="M0,0 A10,10 0 0 0 0,20M0,0 A10,10 0 0 1 0,20M0,20 A10,10 0 0 1 0,40M0,40 A10,10 0 0 0 0,60M0,0 A20,20 0 0 0 0,40M0,0 A20,20 0 0 1 0,40M0,0 A30,30 0 0 1 0,60"></path><path stroke="#808080" fill="none" style="stroke-width: 4;" transform="matrix(1,0,0,1,350,220)" d="M0,0 A10,10 0 0 0 0,20M0,0 A10,10 0 0 1 0,20M0,20 A10,10 0 0 1 0,40M0,40 A10,10 0 0 0 0,60M0,0 A20,20 0 0 0 0,40M0,0 A20,20 0 0 1 0,40M0,0 A30,30 0 0 1 0,60"></path><path stroke="#ffffff" fill="none" style="stroke-width: 2;" transform="matrix(1,0,0,1,350,320)" d="M0,0 A10,10 0 0 0 0,20M0,0 A10,10 0 0 1 0,20M0,20 A10,10 0 0 0 0,40M0,40 A10,10 0 0 1 0,60M0,0 A20,20 0 0 1 0,40M0,0 A30,30 0 0 0 0,60M0,0 A30,30 0 0 1 0,60M0,20 A20,20 0 0 0 0,60M0,20 A20,20 0 0 1 0,60"></path><path stroke="#ffffff" fill="none" style="stroke-width: 7;" transform="matrix(1,0,0,1,350,320)" d="M0,0 A10,10 0 0 0 0,20M0,0 A10,10 0 0 1 0,20M0,20 A10,10 0 0 0 0,40M0,40 A10,10 0 0 1 0,60M0,0 A20,20 0 0 1 0,40M0,0 A30,30 0 0 0 0,60M0,0 A30,30 0 0 1 0,60M0,20 A20,20 0 0 0 0,60M0,20 A20,20 0 0 1 0,60"></path><path stroke="#ff0000" fill="none" style="stroke-width: 7; stroke-dasharray: 3, 3;" transform="matrix(1,0,0,1,350,320)" d="M0,0 A10,10 0 0 0 0,20M0,0 A10,10 0 0 1 0,20M0,20 A10,10 0 0 0 0,40M0,40 A10,10 0 0 1 0,60M0,0 A20,20 0 0 1 0,40M0,0 A30,30 0 0 0 0,60M0,0 A30,30 0 0 1 0,60M0,20 A20,20 0 0 0 0,60M0,20 A20,20 0 0 1 0,60"></path><path stroke="#808080" fill="none" style="stroke-width: 4;" transform="matrix(1,0,0,1,350,320)" d="M0,0 A10,10 0 0 0 0,20M0,0 A10,10 0 0 1 0,20M0,20 A10,10 0 0 0 0,40M0,40 A10,10 0 0 1 0,60M0,0 A20,20 0 0 1 0,40M0,0 A30,30 0 0 0 0,60M0,0 A30,30 0 0 1 0,60M0,20 A20,20 0 0 0 0,60M0,20 A20,20 0 0 1 0,60"></path><path stroke="#ffffff" fill="none" style="stroke-width: 2;" transform="matrix(1,0,0,1,350,420)" d="M0,0 A10,10 0 0 0 0,20M0,40 A10,10 0 0 1 0,60M0,0 A20,20 0 0 1 0,40M0,20 A20,20 0 0 0 0,60"></path><path stroke="#ffffff" fill="none" style="stroke-width: 7;" transform="matrix(1,0,0,1,350,420)" d="M0,0 A10,10 0 0 0 0,20M0,40 A10,10 0 0 1 0,60M0,0 A20,20 0 0 1 0,40M0,20 A20,20 0 0 0 0,60"></path><path stroke="#ff0000" fill="none" style="stroke-width: 7; stroke-dasharray: 3, 3;" transform="matrix(1,0,0,1,350,420)" d="M0,0 A10,10 0 0 0 0,20M0,40 A10,10 0 0 1 0,60M0,0 A20,20 0 0 1 0,40M0,20 A20,20 0 0 0 0,60"></path><path stroke="#808080" fill="none" style="stroke-width: 4;" transform="matrix(1,0,0,1,350,420)" d="M0,0 A10,10 0 0 0 0,20M0,40 A10,10 0 0 1 0,60M0,0 A20,20 0 0 1 0,40M0,20 A20,20 0 0 0 0,60"></path><path stroke="#ffffff" fill="none" style="stroke-width: 2;" transform="matrix(1,0,0,1,350,520)" d="M0,20 A10,10 0 0 0 0,40M0,0 A20,20 0 0 0 0,40M0,0 A30,30 0 0 1 0,60M0,20 A20,20 0 0 1 0,60"></path><path stroke="#ffffff" fill="none" style="stroke-width: 7;" transform="matrix(1,0,0,1,350,520)" d="M0,20 A10,10 0 0 0 0,40M0,0 A20,20 0 0 0 0,40M0,0 A30,30 0 0 1 0,60M0,20 A20,20 0 0 1 0,60"></path><path stroke="#ff0000" fill="none" style="stroke-width: 7; stroke-dasharray: 3, 3;" transform="matrix(1,0,0,1,350,520)" d="M0,20 A10,10 0 0 0 0,40M0,0 A20,20 0 0 0 0,40M0,0 A30,30 0 0 1 0,60M0,20 A20,20 0 0 1 0,60"></path><path stroke="#808080" fill="none" style="stroke-width: 4;" transform="matrix(1,0,0,1,350,520)" d="M0,20 A10,10 0 0 0 0,40M0,0 A20,20 0 0 0 0,40M0,0 A30,30 0 0 1 0,60M0,20 A20,20 0 0 1 0,60"></path><path stroke="#ffffff" fill="none" style="stroke-width: 2;" transform="matrix(1,0,0,1,350,620)" d="M0,0 A10,10 0 0 1 0,20M0,0 A20,20 0 0 0 0,40M0,0 A30,30 0 0 0 0,60"></path><path stroke="#ffffff" fill="none" style="stroke-width: 7;" transform="matrix(1,0,0,1,350,620)" d="M0,0 A10,10 0 0 1 0,20M0,0 A20,20 0 0 0 0,40M0,0 A30,30 0 0 0 0,60"></path><path stroke="#ff0000" fill="none" style="stroke-width: 7; stroke-dasharray: 3, 3;" transform="matrix(1,0,0,1,350,620)" d="M0,0 A10,10 0 0 1 0,20M0,0 A20,20 0 0 0 0,40M0,0 A30,30 0 0 0 0,60"></path><path stroke="#808080" fill="none" style="stroke-width: 4;" transform="matrix(1,0,0,1,350,620)" d="M0,0 A10,10 0 0 1 0,20M0,0 A20,20 0 0 0 0,40M0,0 A30,30 0 0 0 0,60"></path><path stroke="#ffffff" fill="none" style="stroke-width: 2;" transform="matrix(1,0,0,1,350,720)" d="M0,0 A10,10 0 0 0 0,20M0,0 A10,10 0 0 1 0,20M0,20 A10,10 0 0 0 0,40M0,0 A20,20 0 0 0 0,40"></path><path stroke="#ffffff" fill="none" style="stroke-width: 7;" transform="matrix(1,0,0,1,350,720)" d="M0,0 A10,10 0 0 0 0,20M0,0 A10,10 0 0 1 0,20M0,20 A10,10 0 0 0 0,40M0,0 A20,20 0 0 0 0,40"></path><path stroke="#ff0000" fill="none" style="stroke-width: 7; stroke-dasharray: 3, 3;" transform="matrix(1,0,0,1,350,720)" d="M0,0 A10,10 0 0 0 0,20M0,0 A10,10 0 0 1 0,20M0,20 A10,10 0 0 0 0,40M0,0 A20,20 0 0 0 0,40"></path><path stroke="#808080" fill="none" style="stroke-width: 4;" transform="matrix(1,0,0,1,350,720)" d="M0,0 A10,10 0 0 0 0,20M0,0 A10,10 0 0 1 0,20M0,20 A10,10 0 0 0 0,40M0,0 A20,20 0 0 0 0,40"></path><path stroke="#ffffff" fill="none" style="stroke-width: 2;" transform="matrix(1,0,0,1,450,20)" d="M0,0 A10,10 0 0 0 0,20M0,20 A10,10 0 0 1 0,40M0,40 A10,10 0 0 0 0,60M0,40 A10,10 0 0 1 0,60M0,0 A20,20 0 0 0 0,40M0,0 A30,30 0 0 0 0,60M0,0 A30,30 0 0 1 0,60M0,20 A20,20 0 0 0 0,60M0,20 A20,20 0 0 1 0,60"></path><path stroke="#ffffff" fill="none" style="stroke-width: 7;" transform="matrix(1,0,0,1,450,20)" d="M0,0 A10,10 0 0 0 0,20M0,20 A10,10 0 0 1 0,40M0,40 A10,10 0 0 0 0,60M0,40 A10,10 0 0 1 0,60M0,0 A20,20 0 0 0 0,40M0,0 A30,30 0 0 0 0,60M0,0 A30,30 0 0 1 0,60M0,20 A20,20 0 0 0 0,60M0,20 A20,20 0 0 1 0,60"></path><path stroke="#ff0000" fill="none" style="stroke-width: 7; stroke-dasharray: 3, 3;" transform="matrix(1,0,0,1,450,20)" d="M0,0 A10,10 0 0 0 0,20M0,20 A10,10 0 0 1 0,40M0,40 A10,10 0 0 0 0,60M0,40 A10,10 0 0 1 0,60M0,0 A20,20 0 0 0 0,40M0,0 A30,30 0 0 0 0,60M0,0 A30,30 0 0 1 0,60M0,20 A20,20 0 0 0 0,60M0,20 A20,20 0 0 1 0,60"></path><path stroke="#808080" fill="none" style="stroke-width: 4;" transform="matrix(1,0,0,1,450,20)" d="M0,0 A10,10 0 0 0 0,20M0,20 A10,10 0 0 1 0,40M0,40 A10,10 0 0 0 0,60M0,40 A10,10 0 0 1 0,60M0,0 A20,20 0 0 0 0,40M0,0 A30,30 0 0 0 0,60M0,0 A30,30 0 0 1 0,60M0,20 A20,20 0 0 0 0,60M0,20 A20,20 0 0 1 0,60"></path><path stroke="#ffffff" fill="none" style="stroke-width: 2;" transform="matrix(1,0,0,1,450,120)" d="M0,0 A10,10 0 0 0 0,20M0,20 A10,10 0 0 0 0,40M0,20 A10,10 0 0 1 0,40M0,0 A20,20 0 0 0 0,40M0,0 A20,20 0 0 1 0,40M0,0 A30,30 0 0 0 0,60M0,0 A30,30 0 0 1 0,60M0,20 A20,20 0 0 0 0,60"></path><path stroke="#ffffff" fill="none" style="stroke-width: 7;" transform="matrix(1,0,0,1,450,120)" d="M0,0 A10,10 0 0 0 0,20M0,20 A10,10 0 0 0 0,40M0,20 A10,10 0 0 1 0,40M0,0 A20,20 0 0 0 0,40M0,0 A20,20 0 0 1 0,40M0,0 A30,30 0 0 0 0,60M0,0 A30,30 0 0 1 0,60M0,20 A20,20 0 0 0 0,60"></path><path stroke="#ff0000" fill="none" style="stroke-width: 7; stroke-dasharray: 3, 3;" transform="matrix(1,0,0,1,450,120)" d="M0,0 A10,10 0 0 0 0,20M0,20 A10,10 0 0 0 0,40M0,20 A10,10 0 0 1 0,40M0,0 A20,20 0 0 0 0,40M0,0 A20,20 0 0 1 0,40M0,0 A30,30 0 0 0 0,60M0,0 A30,30 0 0 1 0,60M0,20 A20,20 0 0 0 0,60"></path><path stroke="#808080" fill="none" style="stroke-width: 4;" transform="matrix(1,0,0,1,450,120)" d="M0,0 A10,10 0 0 0 0,20M0,20 A10,10 0 0 0 0,40M0,20 A10,10 0 0 1 0,40M0,0 A20,20 0 0 0 0,40M0,0 A20,20 0 0 1 0,40M0,0 A30,30 0 0 0 0,60M0,0 A30,30 0 0 1 0,60M0,20 A20,20 0 0 0 0,60"></path><path stroke="#ffffff" fill="none" style="stroke-width: 2;" transform="matrix(1,0,0,1,450,220)" d="M0,0 A10,10 0 0 1 0,20M0,0 A30,30 0 0 1 0,60M0,20 A20,20 0 0 0 0,60M0,20 A20,20 0 0 1 0,60"></path><path stroke="#ffffff" fill="none" style="stroke-width: 7;" transform="matrix(1,0,0,1,450,220)" d="M0,0 A10,10 0 0 1 0,20M0,0 A30,30 0 0 1 0,60M0,20 A20,20 0 0 0 0,60M0,20 A20,20 0 0 1 0,60"></path><path stroke="#ff0000" fill="none" style="stroke-width: 7; stroke-dasharray: 3, 3;" transform="matrix(1,0,0,1,450,220)" d="M0,0 A10,10 0 0 1 0,20M0,0 A30,30 0 0 1 0,60M0,20 A20,20 0 0 0 0,60M0,20 A20,20 0 0 1 0,60"></path><path stroke="#808080" fill="none" style="stroke-width: 4;" transform="matrix(1,0,0,1,450,220)" d="M0,0 A10,10 0 0 1 0,20M0,0 A30,30 0 0 1 0,60M0,20 A20,20 0 0 0 0,60M0,20 A20,20 0 0 1 0,60"></path><path stroke="#ffffff" fill="none" style="stroke-width: 2;" transform="matrix(1,0,0,1,450,320)" d="M0,0 A10,10 0 0 0 0,20M0,0 A10,10 0 0 1 0,20M0,20 A10,10 0 0 0 0,40M0,0 A20,20 0 0 0 0,40M0,0 A20,20 0 0 1 0,40M0,0 A30,30 0 0 0 0,60M0,0 A30,30 0 0 1 0,60M0,20 A20,20 0 0 0 0,60M0,20 A20,20 0 0 1 0,60"></path><path stroke="#ffffff" fill="none" style="stroke-width: 7;" transform="matrix(1,0,0,1,450,320)" d="M0,0 A10,10 0 0 0 0,20M0,0 A10,10 0 0 1 0,20M0,20 A10,10 0 0 0 0,40M0,0 A20,20 0 0 0 0,40M0,0 A20,20 0 0 1 0,40M0,0 A30,30 0 0 0 0,60M0,0 A30,30 0 0 1 0,60M0,20 A20,20 0 0 0 0,60M0,20 A20,20 0 0 1 0,60"></path><path stroke="#ff0000" fill="none" style="stroke-width: 7; stroke-dasharray: 3, 3;" transform="matrix(1,0,0,1,450,320)" d="M0,0 A10,10 0 0 0 0,20M0,0 A10,10 0 0 1 0,20M0,20 A10,10 0 0 0 0,40M0,0 A20,20 0 0 0 0,40M0,0 A20,20 0 0 1 0,40M0,0 A30,30 0 0 0 0,60M0,0 A30,30 0 0 1 0,60M0,20 A20,20 0 0 0 0,60M0,20 A20,20 0 0 1 0,60"></path><path stroke="#808080" fill="none" style="stroke-width: 4;" transform="matrix(1,0,0,1,450,320)" d="M0,0 A10,10 0 0 0 0,20M0,0 A10,10 0 0 1 0,20M0,20 A10,10 0 0 0 0,40M0,0 A20,20 0 0 0 0,40M0,0 A20,20 0 0 1 0,40M0,0 A30,30 0 0 0 0,60M0,0 A30,30 0 0 1 0,60M0,20 A20,20 0 0 0 0,60M0,20 A20,20 0 0 1 0,60"></path><path stroke="#ffffff" fill="none" style="stroke-width: 2;" transform="matrix(1,0,0,1,450,420)" d="M0,0 A10,10 0 0 0 0,20M0,40 A10,10 0 0 0 0,60M0,20 A20,20 0 0 0 0,60"></path><path stroke="#ffffff" fill="none" style="stroke-width: 7;" transform="matrix(1,0,0,1,450,420)" d="M0,0 A10,10 0 0 0 0,20M0,40 A10,10 0 0 0 0,60M0,20 A20,20 0 0 0 0,60"></path><path stroke="#ff0000" fill="none" style="stroke-width: 7; stroke-dasharray: 3, 3;" transform="matrix(1,0,0,1,450,420)" d="M0,0 A10,10 0 0 0 0,20M0,40 A10,10 0 0 0 0,60M0,20 A20,20 0 0 0 0,60"></path><path stroke="#808080" fill="none" style="stroke-width: 4;" transform="matrix(1,0,0,1,450,420)" d="M0,0 A10,10 0 0 0 0,20M0,40 A10,10 0 0 0 0,60M0,20 A20,20 0 0 0 0,60"></path><path stroke="#ffffff" fill="none" style="stroke-width: 2;" transform="matrix(1,0,0,1,450,520)" d="M0,0 A20,20 0 0 0 0,40M0,0 A20,20 0 0 1 0,40M0,0 A30,30 0 0 1 0,60M0,20 A20,20 0 0 0 0,60M0,20 A20,20 0 0 1 0,60"></path><path stroke="#ffffff" fill="none" style="stroke-width: 7;" transform="matrix(1,0,0,1,450,520)" d="M0,0 A20,20 0 0 0 0,40M0,0 A20,20 0 0 1 0,40M0,0 A30,30 0 0 1 0,60M0,20 A20,20 0 0 0 0,60M0,20 A20,20 0 0 1 0,60"></path><path stroke="#ff0000" fill="none" style="stroke-width: 7; stroke-dasharray: 3, 3;" transform="matrix(1,0,0,1,450,520)" d="M0,0 A20,20 0 0 0 0,40M0,0 A20,20 0 0 1 0,40M0,0 A30,30 0 0 1 0,60M0,20 A20,20 0 0 0 0,60M0,20 A20,20 0 0 1 0,60"></path><path stroke="#808080" fill="none" style="stroke-width: 4;" transform="matrix(1,0,0,1,450,520)" d="M0,0 A20,20 0 0 0 0,40M0,0 A20,20 0 0 1 0,40M0,0 A30,30 0 0 1 0,60M0,20 A20,20 0 0 0 0,60M0,20 A20,20 0 0 1 0,60"></path><path stroke="#ffffff" fill="none" style="stroke-width: 2;" transform="matrix(1,0,0,1,450,620)" d="M0,20 A10,10 0 0 0 0,40M0,40 A10,10 0 0 0 0,60M0,0 A20,20 0 0 1 0,40M0,0 A30,30 0 0 1 0,60M0,20 A20,20 0 0 1 0,60"></path><path stroke="#ffffff" fill="none" style="stroke-width: 7;" transform="matrix(1,0,0,1,450,620)" d="M0,20 A10,10 0 0 0 0,40M0,40 A10,10 0 0 0 0,60M0,0 A20,20 0 0 1 0,40M0,0 A30,30 0 0 1 0,60M0,20 A20,20 0 0 1 0,60"></path><path stroke="#ff0000" fill="none" style="stroke-width: 7; stroke-dasharray: 3, 3;" transform="matrix(1,0,0,1,450,620)" d="M0,20 A10,10 0 0 0 0,40M0,40 A10,10 0 0 0 0,60M0,0 A20,20 0 0 1 0,40M0,0 A30,30 0 0 1 0,60M0,20 A20,20 0 0 1 0,60"></path><path stroke="#808080" fill="none" style="stroke-width: 4;" transform="matrix(1,0,0,1,450,620)" d="M0,20 A10,10 0 0 0 0,40M0,40 A10,10 0 0 0 0,60M0,0 A20,20 0 0 1 0,40M0,0 A30,30 0 0 1 0,60M0,20 A20,20 0 0 1 0,60"></path><path stroke="#ffffff" fill="none" style="stroke-width: 2;" transform="matrix(1,0,0,1,450,720)" d="M0,0 A10,10 0 0 0 0,20M0,20 A10,10 0 0 1 0,40M0,0 A20,20 0 0 1 0,40M0,0 A30,30 0 0 1 0,60M0,20 A20,20 0 0 1 0,60"></path><path stroke="#ffffff" fill="none" style="stroke-width: 7;" transform="matrix(1,0,0,1,450,720)" d="M0,0 A10,10 0 0 0 0,20M0,20 A10,10 0 0 1 0,40M0,0 A20,20 0 0 1 0,40M0,0 A30,30 0 0 1 0,60M0,20 A20,20 0 0 1 0,60"></path><path stroke="#ff0000" fill="none" style="stroke-width: 7; stroke-dasharray: 3, 3;" transform="matrix(1,0,0,1,450,720)" d="M0,0 A10,10 0 0 0 0,20M0,20 A10,10 0 0 1 0,40M0,0 A20,20 0 0 1 0,40M0,0 A30,30 0 0 1 0,60M0,20 A20,20 0 0 1 0,60"></path><path stroke="#808080" fill="none" style="stroke-width: 4;" transform="matrix(1,0,0,1,450,720)" d="M0,0 A10,10 0 0 0 0,20M0,20 A10,10 0 0 1 0,40M0,0 A20,20 0 0 1 0,40M0,0 A30,30 0 0 1 0,60M0,20 A20,20 0 0 1 0,60"></path><path stroke="#ffffff" fill="none" style="stroke-width: 2;" transform="matrix(1,0,0,1,550,20)" d="M0,0 A10,10 0 0 1 0,20M0,40 A10,10 0 0 0 0,60M0,40 A10,10 0 0 1 0,60M0,0 A20,20 0 0 1 0,40M0,0 A30,30 0 0 1 0,60M0,20 A20,20 0 0 0 0,60M0,20 A20,20 0 0 1 0,60"></path><path stroke="#ffffff" fill="none" style="stroke-width: 7;" transform="matrix(1,0,0,1,550,20)" d="M0,0 A10,10 0 0 1 0,20M0,40 A10,10 0 0 0 0,60M0,40 A10,10 0 0 1 0,60M0,0 A20,20 0 0 1 0,40M0,0 A30,30 0 0 1 0,60M0,20 A20,20 0 0 0 0,60M0,20 A20,20 0 0 1 0,60"></path><path stroke="#ff0000" fill="none" style="stroke-width: 7; stroke-dasharray: 3, 3;" transform="matrix(1,0,0,1,550,20)" d="M0,0 A10,10 0 0 1 0,20M0,40 A10,10 0 0 0 0,60M0,40 A10,10 0 0 1 0,60M0,0 A20,20 0 0 1 0,40M0,0 A30,30 0 0 1 0,60M0,20 A20,20 0 0 0 0,60M0,20 A20,20 0 0 1 0,60"></path><path stroke="#808080" fill="none" style="stroke-width: 4;" transform="matrix(1,0,0,1,550,20)" d="M0,0 A10,10 0 0 1 0,20M0,40 A10,10 0 0 0 0,60M0,40 A10,10 0 0 1 0,60M0,0 A20,20 0 0 1 0,40M0,0 A30,30 0 0 1 0,60M0,20 A20,20 0 0 0 0,60M0,20 A20,20 0 0 1 0,60"></path><path stroke="#ffffff" fill="none" style="stroke-width: 2;" transform="matrix(1,0,0,1,550,120)" d="M0,0 A10,10 0 0 1 0,20M0,40 A10,10 0 0 0 0,60M0,40 A10,10 0 0 1 0,60M0,0 A20,20 0 0 0 0,40M0,0 A20,20 0 0 1 0,40M0,20 A20,20 0 0 0 0,60M0,20 A20,20 0 0 1 0,60"></path><path stroke="#ffffff" fill="none" style="stroke-width: 7;" transform="matrix(1,0,0,1,550,120)" d="M0,0 A10,10 0 0 1 0,20M0,40 A10,10 0 0 0 0,60M0,40 A10,10 0 0 1 0,60M0,0 A20,20 0 0 0 0,40M0,0 A20,20 0 0 1 0,40M0,20 A20,20 0 0 0 0,60M0,20 A20,20 0 0 1 0,60"></path><path stroke="#ff0000" fill="none" style="stroke-width: 7; stroke-dasharray: 3, 3;" transform="matrix(1,0,0,1,550,120)" d="M0,0 A10,10 0 0 1 0,20M0,40 A10,10 0 0 0 0,60M0,40 A10,10 0 0 1 0,60M0,0 A20,20 0 0 0 0,40M0,0 A20,20 0 0 1 0,40M0,20 A20,20 0 0 0 0,60M0,20 A20,20 0 0 1 0,60"></path><path stroke="#808080" fill="none" style="stroke-width: 4;" transform="matrix(1,0,0,1,550,120)" d="M0,0 A10,10 0 0 1 0,20M0,40 A10,10 0 0 0 0,60M0,40 A10,10 0 0 1 0,60M0,0 A20,20 0 0 0 0,40M0,0 A20,20 0 0 1 0,40M0,20 A20,20 0 0 0 0,60M0,20 A20,20 0 0 1 0,60"></path><path stroke="#ffffff" fill="none" style="stroke-width: 2;" transform="matrix(1,0,0,1,550,220)" d="M0,0 A10,10 0 0 0 0,20M0,40 A10,10 0 0 0 0,60M0,0 A20,20 0 0 0 0,40M0,0 A20,20 0 0 1 0,40M0,0 A30,30 0 0 0 0,60"></path><path stroke="#ffffff" fill="none" style="stroke-width: 7;" transform="matrix(1,0,0,1,550,220)" d="M0,0 A10,10 0 0 0 0,20M0,40 A10,10 0 0 0 0,60M0,0 A20,20 0 0 0 0,40M0,0 A20,20 0 0 1 0,40M0,0 A30,30 0 0 0 0,60"></path><path stroke="#ff0000" fill="none" style="stroke-width: 7; stroke-dasharray: 3, 3;" transform="matrix(1,0,0,1,550,220)" d="M0,0 A10,10 0 0 0 0,20M0,40 A10,10 0 0 0 0,60M0,0 A20,20 0 0 0 0,40M0,0 A20,20 0 0 1 0,40M0,0 A30,30 0 0 0 0,60"></path><path stroke="#808080" fill="none" style="stroke-width: 4;" transform="matrix(1,0,0,1,550,220)" d="M0,0 A10,10 0 0 0 0,20M0,40 A10,10 0 0 0 0,60M0,0 A20,20 0 0 0 0,40M0,0 A20,20 0 0 1 0,40M0,0 A30,30 0 0 0 0,60"></path><path stroke="#ffffff" fill="none" style="stroke-width: 2;" transform="matrix(1,0,0,1,550,320)" d="M0,0 A10,10 0 0 0 0,20M0,20 A10,10 0 0 1 0,40M0,40 A10,10 0 0 1 0,60M0,0 A20,20 0 0 0 0,40M0,0 A20,20 0 0 1 0,40M0,0 A30,30 0 0 1 0,60M0,20 A20,20 0 0 1 0,60"></path><path stroke="#ffffff" fill="none" style="stroke-width: 7;" transform="matrix(1,0,0,1,550,320)" d="M0,0 A10,10 0 0 0 0,20M0,20 A10,10 0 0 1 0,40M0,40 A10,10 0 0 1 0,60M0,0 A20,20 0 0 0 0,40M0,0 A20,20 0 0 1 0,40M0,0 A30,30 0 0 1 0,60M0,20 A20,20 0 0 1 0,60"></path><path stroke="#ff0000" fill="none" style="stroke-width: 7; stroke-dasharray: 3, 3;" transform="matrix(1,0,0,1,550,320)" d="M0,0 A10,10 0 0 0 0,20M0,20 A10,10 0 0 1 0,40M0,40 A10,10 0 0 1 0,60M0,0 A20,20 0 0 0 0,40M0,0 A20,20 0 0 1 0,40M0,0 A30,30 0 0 1 0,60M0,20 A20,20 0 0 1 0,60"></path><path stroke="#808080" fill="none" style="stroke-width: 4;" transform="matrix(1,0,0,1,550,320)" d="M0,0 A10,10 0 0 0 0,20M0,20 A10,10 0 0 1 0,40M0,40 A10,10 0 0 1 0,60M0,0 A20,20 0 0 0 0,40M0,0 A20,20 0 0 1 0,40M0,0 A30,30 0 0 1 0,60M0,20 A20,20 0 0 1 0,60"></path><path stroke="#ffffff" fill="none" style="stroke-width: 2;" transform="matrix(1,0,0,1,550,420)" d="M0,0 A10,10 0 0 0 0,20M0,40 A10,10 0 0 0 0,60M0,0 A30,30 0 0 0 0,60"></path><path stroke="#ffffff" fill="none" style="stroke-width: 7;" transform="matrix(1,0,0,1,550,420)" d="M0,0 A10,10 0 0 0 0,20M0,40 A10,10 0 0 0 0,60M0,0 A30,30 0 0 0 0,60"></path><path stroke="#ff0000" fill="none" style="stroke-width: 7; stroke-dasharray: 3, 3;" transform="matrix(1,0,0,1,550,420)" d="M0,0 A10,10 0 0 0 0,20M0,40 A10,10 0 0 0 0,60M0,0 A30,30 0 0 0 0,60"></path><path stroke="#808080" fill="none" style="stroke-width: 4;" transform="matrix(1,0,0,1,550,420)" d="M0,0 A10,10 0 0 0 0,20M0,40 A10,10 0 0 0 0,60M0,0 A30,30 0 0 0 0,60"></path><path stroke="#ffffff" fill="none" style="stroke-width: 2;" transform="matrix(1,0,0,1,550,520)" d="M0,0 A10,10 0 0 1 0,20M0,0 A20,20 0 0 0 0,40M0,0 A20,20 0 0 1 0,40"></path><path stroke="#ffffff" fill="none" style="stroke-width: 7;" transform="matrix(1,0,0,1,550,520)" d="M0,0 A10,10 0 0 1 0,20M0,0 A20,20 0 0 0 0,40M0,0 A20,20 0 0 1 0,40"></path><path stroke="#ff0000" fill="none" style="stroke-width: 7; stroke-dasharray: 3, 3;" transform="matrix(1,0,0,1,550,520)" d="M0,0 A10,10 0 0 1 0,20M0,0 A20,20 0 0 0 0,40M0,0 A20,20 0 0 1 0,40"></path><path stroke="#808080" fill="none" style="stroke-width: 4;" transform="matrix(1,0,0,1,550,520)" d="M0,0 A10,10 0 0 1 0,20M0,0 A20,20 0 0 0 0,40M0,0 A20,20 0 0 1 0,40"></path><path stroke="#ffffff" fill="none" style="stroke-width: 2;" transform="matrix(1,0,0,1,550,620)" d="M0,0 A30,30 0 0 0 0,60M0,20 A20,20 0 0 0 0,60M0,20 A20,20 0 0 1 0,60"></path><path stroke="#ffffff" fill="none" style="stroke-width: 7;" transform="matrix(1,0,0,1,550,620)" d="M0,0 A30,30 0 0 0 0,60M0,20 A20,20 0 0 0 0,60M0,20 A20,20 0 0 1 0,60"></path><path stroke="#ff0000" fill="none" style="stroke-width: 7; stroke-dasharray: 3, 3;" transform="matrix(1,0,0,1,550,620)" d="M0,0 A30,30 0 0 0 0,60M0,20 A20,20 0 0 0 0,60M0,20 A20,20 0 0 1 0,60"></path><path stroke="#808080" fill="none" style="stroke-width: 4;" transform="matrix(1,0,0,1,550,620)" d="M0,0 A30,30 0 0 0 0,60M0,20 A20,20 0 0 0 0,60M0,20 A20,20 0 0 1 0,60"></path><path stroke="#ffffff" fill="none" style="stroke-width: 2;" transform="matrix(1,0,0,1,550,720)" d="M0,40 A10,10 0 0 0 0,60M0,0 A20,20 0 0 1 0,40M0,20 A20,20 0 0 0 0,60M0,20 A20,20 0 0 1 0,60"></path><path stroke="#ffffff" fill="none" style="stroke-width: 7;" transform="matrix(1,0,0,1,550,720)" d="M0,40 A10,10 0 0 0 0,60M0,0 A20,20 0 0 1 0,40M0,20 A20,20 0 0 0 0,60M0,20 A20,20 0 0 1 0,60"></path><path stroke="#ff0000" fill="none" style="stroke-width: 7; stroke-dasharray: 3, 3;" transform="matrix(1,0,0,1,550,720)" d="M0,40 A10,10 0 0 0 0,60M0,0 A20,20 0 0 1 0,40M0,20 A20,20 0 0 0 0,60M0,20 A20,20 0 0 1 0,60"></path><path stroke="#808080" fill="none" style="stroke-width: 4;" transform="matrix(1,0,0,1,550,720)" d="M0,40 A10,10 0 0 0 0,60M0,0 A20,20 0 0 1 0,40M0,20 A20,20 0 0 0 0,60M0,20 A20,20 0 0 1 0,60"></path><path stroke="#ffffff" fill="none" style="stroke-width: 2;" transform="matrix(1,0,0,1,650,20)" d="M0,40 A10,10 0 0 0 0,60M0,40 A10,10 0 0 1 0,60M0,0 A20,20 0 0 0 0,40M0,0 A20,20 0 0 1 0,40M0,20 A20,20 0 0 1 0,60"></path><path stroke="#ffffff" fill="none" style="stroke-width: 7;" transform="matrix(1,0,0,1,650,20)" d="M0,40 A10,10 0 0 0 0,60M0,40 A10,10 0 0 1 0,60M0,0 A20,20 0 0 0 0,40M0,0 A20,20 0 0 1 0,40M0,20 A20,20 0 0 1 0,60"></path><path stroke="#ff0000" fill="none" style="stroke-width: 7; stroke-dasharray: 3, 3;" transform="matrix(1,0,0,1,650,20)" d="M0,40 A10,10 0 0 0 0,60M0,40 A10,10 0 0 1 0,60M0,0 A20,20 0 0 0 0,40M0,0 A20,20 0 0 1 0,40M0,20 A20,20 0 0 1 0,60"></path><path stroke="#808080" fill="none" style="stroke-width: 4;" transform="matrix(1,0,0,1,650,20)" d="M0,40 A10,10 0 0 0 0,60M0,40 A10,10 0 0 1 0,60M0,0 A20,20 0 0 0 0,40M0,0 A20,20 0 0 1 0,40M0,20 A20,20 0 0 1 0,60"></path><path stroke="#ffffff" fill="none" style="stroke-width: 2;" transform="matrix(1,0,0,1,650,120)" d="M0,20 A10,10 0 0 0 0,40M0,20 A10,10 0 0 1 0,40M0,40 A10,10 0 0 1 0,60M0,0 A20,20 0 0 0 0,40M0,0 A20,20 0 0 1 0,40"></path><path stroke="#ffffff" fill="none" style="stroke-width: 7;" transform="matrix(1,0,0,1,650,120)" d="M0,20 A10,10 0 0 0 0,40M0,20 A10,10 0 0 1 0,40M0,40 A10,10 0 0 1 0,60M0,0 A20,20 0 0 0 0,40M0,0 A20,20 0 0 1 0,40"></path><path stroke="#ff0000" fill="none" style="stroke-width: 7; stroke-dasharray: 3, 3;" transform="matrix(1,0,0,1,650,120)" d="M0,20 A10,10 0 0 0 0,40M0,20 A10,10 0 0 1 0,40M0,40 A10,10 0 0 1 0,60M0,0 A20,20 0 0 0 0,40M0,0 A20,20 0 0 1 0,40"></path><path stroke="#808080" fill="none" style="stroke-width: 4;" transform="matrix(1,0,0,1,650,120)" d="M0,20 A10,10 0 0 0 0,40M0,20 A10,10 0 0 1 0,40M0,40 A10,10 0 0 1 0,60M0,0 A20,20 0 0 0 0,40M0,0 A20,20 0 0 1 0,40"></path><path stroke="#ffffff" fill="none" style="stroke-width: 2;" transform="matrix(1,0,0,1,650,220)" d="M0,0 A10,10 0 0 1 0,20M0,20 A10,10 0 0 1 0,40M0,40 A10,10 0 0 0 0,60M0,40 A10,10 0 0 1 0,60"></path><path stroke="#ffffff" fill="none" style="stroke-width: 7;" transform="matrix(1,0,0,1,650,220)" d="M0,0 A10,10 0 0 1 0,20M0,20 A10,10 0 0 1 0,40M0,40 A10,10 0 0 0 0,60M0,40 A10,10 0 0 1 0,60"></path><path stroke="#ff0000" fill="none" style="stroke-width: 7; stroke-dasharray: 3, 3;" transform="matrix(1,0,0,1,650,220)" d="M0,0 A10,10 0 0 1 0,20M0,20 A10,10 0 0 1 0,40M0,40 A10,10 0 0 0 0,60M0,40 A10,10 0 0 1 0,60"></path><path stroke="#808080" fill="none" style="stroke-width: 4;" transform="matrix(1,0,0,1,650,220)" d="M0,0 A10,10 0 0 1 0,20M0,20 A10,10 0 0 1 0,40M0,40 A10,10 0 0 0 0,60M0,40 A10,10 0 0 1 0,60"></path><path stroke="#ffffff" fill="none" style="stroke-width: 2;" transform="matrix(1,0,0,1,650,320)" d="M0,0 A10,10 0 0 1 0,20M0,20 A10,10 0 0 0 0,40M0,40 A10,10 0 0 1 0,60"></path><path stroke="#ffffff" fill="none" style="stroke-width: 7;" transform="matrix(1,0,0,1,650,320)" d="M0,0 A10,10 0 0 1 0,20M0,20 A10,10 0 0 0 0,40M0,40 A10,10 0 0 1 0,60"></path><path stroke="#ff0000" fill="none" style="stroke-width: 7; stroke-dasharray: 3, 3;" transform="matrix(1,0,0,1,650,320)" d="M0,0 A10,10 0 0 1 0,20M0,20 A10,10 0 0 0 0,40M0,40 A10,10 0 0 1 0,60"></path><path stroke="#808080" fill="none" style="stroke-width: 4;" transform="matrix(1,0,0,1,650,320)" d="M0,0 A10,10 0 0 1 0,20M0,20 A10,10 0 0 0 0,40M0,40 A10,10 0 0 1 0,60"></path><path stroke="#ffffff" fill="none" style="stroke-width: 2;" transform="matrix(1,0,0,1,650,420)" d="M0,0 A10,10 0 0 0 0,20M0,0 A10,10 0 0 1 0,20M0,20 A10,10 0 0 1 0,40M0,0 A30,30 0 0 0 0,60M0,0 A30,30 0 0 1 0,60"></path><path stroke="#ffffff" fill="none" style="stroke-width: 7;" transform="matrix(1,0,0,1,650,420)" d="M0,0 A10,10 0 0 0 0,20M0,0 A10,10 0 0 1 0,20M0,20 A10,10 0 0 1 0,40M0,0 A30,30 0 0 0 0,60M0,0 A30,30 0 0 1 0,60"></path><path stroke="#ff0000" fill="none" style="stroke-width: 7; stroke-dasharray: 3, 3;" transform="matrix(1,0,0,1,650,420)" d="M0,0 A10,10 0 0 0 0,20M0,0 A10,10 0 0 1 0,20M0,20 A10,10 0 0 1 0,40M0,0 A30,30 0 0 0 0,60M0,0 A30,30 0 0 1 0,60"></path><path stroke="#808080" fill="none" style="stroke-width: 4;" transform="matrix(1,0,0,1,650,420)" d="M0,0 A10,10 0 0 0 0,20M0,0 A10,10 0 0 1 0,20M0,20 A10,10 0 0 1 0,40M0,0 A30,30 0 0 0 0,60M0,0 A30,30 0 0 1 0,60"></path><path stroke="#ffffff" fill="none" style="stroke-width: 2;" transform="matrix(1,0,0,1,650,520)" d="M0,0 A10,10 0 0 0 0,20M0,0 A10,10 0 0 1 0,20M0,20 A10,10 0 0 0 0,40M0,20 A10,10 0 0 1 0,40M0,40 A10,10 0 0 1 0,60M0,0 A20,20 0 0 0 0,40M0,0 A20,20 0 0 1 0,40M0,0 A30,30 0 0 0 0,60M0,20 A20,20 0 0 1 0,60"></path><path stroke="#ffffff" fill="none" style="stroke-width: 7;" transform="matrix(1,0,0,1,650,520)" d="M0,0 A10,10 0 0 0 0,20M0,0 A10,10 0 0 1 0,20M0,20 A10,10 0 0 0 0,40M0,20 A10,10 0 0 1 0,40M0,40 A10,10 0 0 1 0,60M0,0 A20,20 0 0 0 0,40M0,0 A20,20 0 0 1 0,40M0,0 A30,30 0 0 0 0,60M0,20 A20,20 0 0 1 0,60"></path><path stroke="#ff0000" fill="none" style="stroke-width: 7; stroke-dasharray: 3, 3;" transform="matrix(1,0,0,1,650,520)" d="M0,0 A10,10 0 0 0 0,20M0,0 A10,10 0 0 1 0,20M0,20 A10,10 0 0 0 0,40M0,20 A10,10 0 0 1 0,40M0,40 A10,10 0 0 1 0,60M0,0 A20,20 0 0 0 0,40M0,0 A20,20 0 0 1 0,40M0,0 A30,30 0 0 0 0,60M0,20 A20,20 0 0 1 0,60"></path><path stroke="#808080" fill="none" style="stroke-width: 4;" transform="matrix(1,0,0,1,650,520)" d="M0,0 A10,10 0 0 0 0,20M0,0 A10,10 0 0 1 0,20M0,20 A10,10 0 0 0 0,40M0,20 A10,10 0 0 1 0,40M0,40 A10,10 0 0 1 0,60M0,0 A20,20 0 0 0 0,40M0,0 A20,20 0 0 1 0,40M0,0 A30,30 0 0 0 0,60M0,20 A20,20 0 0 1 0,60"></path><path stroke="#ffffff" fill="none" style="stroke-width: 2;" transform="matrix(1,0,0,1,650,620)" d="M0,0 A10,10 0 0 0 0,20M0,0 A10,10 0 0 1 0,20M0,20 A10,10 0 0 0 0,40M0,40 A10,10 0 0 1 0,60M0,0 A20,20 0 0 0 0,40M0,0 A20,20 0 0 1 0,40M0,0 A30,30 0 0 0 0,60M0,0 A30,30 0 0 1 0,60M0,20 A20,20 0 0 1 0,60"></path><path stroke="#ffffff" fill="none" style="stroke-width: 7;" transform="matrix(1,0,0,1,650,620)" d="M0,0 A10,10 0 0 0 0,20M0,0 A10,10 0 0 1 0,20M0,20 A10,10 0 0 0 0,40M0,40 A10,10 0 0 1 0,60M0,0 A20,20 0 0 0 0,40M0,0 A20,20 0 0 1 0,40M0,0 A30,30 0 0 0 0,60M0,0 A30,30 0 0 1 0,60M0,20 A20,20 0 0 1 0,60"></path><path stroke="#ff0000" fill="none" style="stroke-width: 7; stroke-dasharray: 3, 3;" transform="matrix(1,0,0,1,650,620)" d="M0,0 A10,10 0 0 0 0,20M0,0 A10,10 0 0 1 0,20M0,20 A10,10 0 0 0 0,40M0,40 A10,10 0 0 1 0,60M0,0 A20,20 0 0 0 0,40M0,0 A20,20 0 0 1 0,40M0,0 A30,30 0 0 0 0,60M0,0 A30,30 0 0 1 0,60M0,20 A20,20 0 0 1 0,60"></path><path stroke="#808080" fill="none" style="stroke-width: 4;" transform="matrix(1,0,0,1,650,620)" d="M0,0 A10,10 0 0 0 0,20M0,0 A10,10 0 0 1 0,20M0,20 A10,10 0 0 0 0,40M0,40 A10,10 0 0 1 0,60M0,0 A20,20 0 0 0 0,40M0,0 A20,20 0 0 1 0,40M0,0 A30,30 0 0 0 0,60M0,0 A30,30 0 0 1 0,60M0,20 A20,20 0 0 1 0,60"></path><path stroke="#ffffff" fill="none" style="stroke-width: 2;" transform="matrix(1,0,0,1,650,720)" d="M0,0 A10,10 0 0 0 0,20M0,40 A10,10 0 0 0 0,60M0,40 A10,10 0 0 1 0,60M0,0 A20,20 0 0 0 0,40M0,20 A20,20 0 0 1 0,60"></path><path stroke="#ffffff" fill="none" style="stroke-width: 7;" transform="matrix(1,0,0,1,650,720)" d="M0,0 A10,10 0 0 0 0,20M0,40 A10,10 0 0 0 0,60M0,40 A10,10 0 0 1 0,60M0,0 A20,20 0 0 0 0,40M0,20 A20,20 0 0 1 0,60"></path><path stroke="#ff0000" fill="none" style="stroke-width: 7; stroke-dasharray: 3, 3;" transform="matrix(1,0,0,1,650,720)" d="M0,0 A10,10 0 0 0 0,20M0,40 A10,10 0 0 0 0,60M0,40 A10,10 0 0 1 0,60M0,0 A20,20 0 0 0 0,40M0,20 A20,20 0 0 1 0,60"></path><path stroke="#808080" fill="none" style="stroke-width: 4;" transform="matrix(1,0,0,1,650,720)" d="M0,0 A10,10 0 0 0 0,20M0,40 A10,10 0 0 0 0,60M0,40 A10,10 0 0 1 0,60M0,0 A20,20 0 0 0 0,40M0,20 A20,20 0 0 1 0,60"></path><path stroke="#ffffff" fill="none" style="stroke-width: 2;" transform="matrix(1,0,0,1,750,20)" d="M0,20 A10,10 0 0 0 0,40M0,40 A10,10 0 0 0 0,60M0,40 A10,10 0 0 1 0,60M0,0 A20,20 0 0 1 0,40M0,0 A30,30 0 0 0 0,60M0,20 A20,20 0 0 1 0,60"></path><path stroke="#ffffff" fill="none" style="stroke-width: 7;" transform="matrix(1,0,0,1,750,20)" d="M0,20 A10,10 0 0 0 0,40M0,40 A10,10 0 0 0 0,60M0,40 A10,10 0 0 1 0,60M0,0 A20,20 0 0 1 0,40M0,0 A30,30 0 0 0 0,60M0,20 A20,20 0 0 1 0,60"></path><path stroke="#ff0000" fill="none" style="stroke-width: 7; stroke-dasharray: 3, 3;" transform="matrix(1,0,0,1,750,20)" d="M0,20 A10,10 0 0 0 0,40M0,40 A10,10 0 0 0 0,60M0,40 A10,10 0 0 1 0,60M0,0 A20,20 0 0 1 0,40M0,0 A30,30 0 0 0 0,60M0,20 A20,20 0 0 1 0,60"></path><path stroke="#808080" fill="none" style="stroke-width: 4;" transform="matrix(1,0,0,1,750,20)" d="M0,20 A10,10 0 0 0 0,40M0,40 A10,10 0 0 0 0,60M0,40 A10,10 0 0 1 0,60M0,0 A20,20 0 0 1 0,40M0,0 A30,30 0 0 0 0,60M0,20 A20,20 0 0 1 0,60"></path><path stroke="#ffffff" fill="none" style="stroke-width: 2;" transform="matrix(1,0,0,1,750,120)" d="M0,40 A10,10 0 0 1 0,60M0,0 A20,20 0 0 1 0,40M0,0 A30,30 0 0 0 0,60M0,0 A30,30 0 0 1 0,60M0,20 A20,20 0 0 1 0,60"></path><path stroke="#ffffff" fill="none" style="stroke-width: 7;" transform="matrix(1,0,0,1,750,120)" d="M0,40 A10,10 0 0 1 0,60M0,0 A20,20 0 0 1 0,40M0,0 A30,30 0 0 0 0,60M0,0 A30,30 0 0 1 0,60M0,20 A20,20 0 0 1 0,60"></path><path stroke="#ff0000" fill="none" style="stroke-width: 7; stroke-dasharray: 3, 3;" transform="matrix(1,0,0,1,750,120)" d="M0,40 A10,10 0 0 1 0,60M0,0 A20,20 0 0 1 0,40M0,0 A30,30 0 0 0 0,60M0,0 A30,30 0 0 1 0,60M0,20 A20,20 0 0 1 0,60"></path><path stroke="#808080" fill="none" style="stroke-width: 4;" transform="matrix(1,0,0,1,750,120)" d="M0,40 A10,10 0 0 1 0,60M0,0 A20,20 0 0 1 0,40M0,0 A30,30 0 0 0 0,60M0,0 A30,30 0 0 1 0,60M0,20 A20,20 0 0 1 0,60"></path><path stroke="#ffffff" fill="none" style="stroke-width: 2;" transform="matrix(1,0,0,1,750,220)" d="M0,20 A10,10 0 0 0 0,40M0,20 A10,10 0 0 1 0,40M0,40 A10,10 0 0 0 0,60M0,40 A10,10 0 0 1 0,60M0,0 A20,20 0 0 1 0,40M0,0 A30,30 0 0 1 0,60"></path><path stroke="#ffffff" fill="none" style="stroke-width: 7;" transform="matrix(1,0,0,1,750,220)" d="M0,20 A10,10 0 0 0 0,40M0,20 A10,10 0 0 1 0,40M0,40 A10,10 0 0 0 0,60M0,40 A10,10 0 0 1 0,60M0,0 A20,20 0 0 1 0,40M0,0 A30,30 0 0 1 0,60"></path><path stroke="#ff0000" fill="none" style="stroke-width: 7; stroke-dasharray: 3, 3;" transform="matrix(1,0,0,1,750,220)" d="M0,20 A10,10 0 0 0 0,40M0,20 A10,10 0 0 1 0,40M0,40 A10,10 0 0 0 0,60M0,40 A10,10 0 0 1 0,60M0,0 A20,20 0 0 1 0,40M0,0 A30,30 0 0 1 0,60"></path><path stroke="#808080" fill="none" style="stroke-width: 4;" transform="matrix(1,0,0,1,750,220)" d="M0,20 A10,10 0 0 0 0,40M0,20 A10,10 0 0 1 0,40M0,40 A10,10 0 0 0 0,60M0,40 A10,10 0 0 1 0,60M0,0 A20,20 0 0 1 0,40M0,0 A30,30 0 0 1 0,60"></path><path stroke="#ffffff" fill="none" style="stroke-width: 2;" transform="matrix(1,0,0,1,750,320)" d="M0,0 A10,10 0 0 0 0,20M0,40 A10,10 0 0 0 0,60M0,0 A20,20 0 0 0 0,40M0,0 A20,20 0 0 1 0,40M0,0 A30,30 0 0 0 0,60"></path><path stroke="#ffffff" fill="none" style="stroke-width: 7;" transform="matrix(1,0,0,1,750,320)" d="M0,0 A10,10 0 0 0 0,20M0,40 A10,10 0 0 0 0,60M0,0 A20,20 0 0 0 0,40M0,0 A20,20 0 0 1 0,40M0,0 A30,30 0 0 0 0,60"></path><path stroke="#ff0000" fill="none" style="stroke-width: 7; stroke-dasharray: 3, 3;" transform="matrix(1,0,0,1,750,320)" d="M0,0 A10,10 0 0 0 0,20M0,40 A10,10 0 0 0 0,60M0,0 A20,20 0 0 0 0,40M0,0 A20,20 0 0 1 0,40M0,0 A30,30 0 0 0 0,60"></path><path stroke="#808080" fill="none" style="stroke-width: 4;" transform="matrix(1,0,0,1,750,320)" d="M0,0 A10,10 0 0 0 0,20M0,40 A10,10 0 0 0 0,60M0,0 A20,20 0 0 0 0,40M0,0 A20,20 0 0 1 0,40M0,0 A30,30 0 0 0 0,60"></path><path stroke="#ffffff" fill="none" style="stroke-width: 2;" transform="matrix(1,0,0,1,750,420)" d="M0,0 A10,10 0 0 1 0,20M0,20 A10,10 0 0 0 0,40M0,20 A10,10 0 0 1 0,40M0,40 A10,10 0 0 0 0,60M0,0 A20,20 0 0 0 0,40M0,0 A30,30 0 0 0 0,60M0,20 A20,20 0 0 0 0,60M0,20 A20,20 0 0 1 0,60"></path><path stroke="#ffffff" fill="none" style="stroke-width: 7;" transform="matrix(1,0,0,1,750,420)" d="M0,0 A10,10 0 0 1 0,20M0,20 A10,10 0 0 0 0,40M0,20 A10,10 0 0 1 0,40M0,40 A10,10 0 0 0 0,60M0,0 A20,20 0 0 0 0,40M0,0 A30,30 0 0 0 0,60M0,20 A20,20 0 0 0 0,60M0,20 A20,20 0 0 1 0,60"></path><path stroke="#ff0000" fill="none" style="stroke-width: 7; stroke-dasharray: 3, 3;" transform="matrix(1,0,0,1,750,420)" d="M0,0 A10,10 0 0 1 0,20M0,20 A10,10 0 0 0 0,40M0,20 A10,10 0 0 1 0,40M0,40 A10,10 0 0 0 0,60M0,0 A20,20 0 0 0 0,40M0,0 A30,30 0 0 0 0,60M0,20 A20,20 0 0 0 0,60M0,20 A20,20 0 0 1 0,60"></path><path stroke="#808080" fill="none" style="stroke-width: 4;" transform="matrix(1,0,0,1,750,420)" d="M0,0 A10,10 0 0 1 0,20M0,20 A10,10 0 0 0 0,40M0,20 A10,10 0 0 1 0,40M0,40 A10,10 0 0 0 0,60M0,0 A20,20 0 0 0 0,40M0,0 A30,30 0 0 0 0,60M0,20 A20,20 0 0 0 0,60M0,20 A20,20 0 0 1 0,60"></path><path stroke="#ffffff" fill="none" style="stroke-width: 2;" transform="matrix(1,0,0,1,750,520)" d="M0,0 A10,10 0 0 1 0,20M0,20 A10,10 0 0 1 0,40M0,40 A10,10 0 0 1 0,60M0,0 A30,30 0 0 0 0,60M0,20 A20,20 0 0 0 0,60M0,20 A20,20 0 0 1 0,60"></path><path stroke="#ffffff" fill="none" style="stroke-width: 7;" transform="matrix(1,0,0,1,750,520)" d="M0,0 A10,10 0 0 1 0,20M0,20 A10,10 0 0 1 0,40M0,40 A10,10 0 0 1 0,60M0,0 A30,30 0 0 0 0,60M0,20 A20,20 0 0 0 0,60M0,20 A20,20 0 0 1 0,60"></path><path stroke="#ff0000" fill="none" style="stroke-width: 7; stroke-dasharray: 3, 3;" transform="matrix(1,0,0,1,750,520)" d="M0,0 A10,10 0 0 1 0,20M0,20 A10,10 0 0 1 0,40M0,40 A10,10 0 0 1 0,60M0,0 A30,30 0 0 0 0,60M0,20 A20,20 0 0 0 0,60M0,20 A20,20 0 0 1 0,60"></path><path stroke="#808080" fill="none" style="stroke-width: 4;" transform="matrix(1,0,0,1,750,520)" d="M0,0 A10,10 0 0 1 0,20M0,20 A10,10 0 0 1 0,40M0,40 A10,10 0 0 1 0,60M0,0 A30,30 0 0 0 0,60M0,20 A20,20 0 0 0 0,60M0,20 A20,20 0 0 1 0,60"></path><path stroke="#ffffff" fill="none" style="stroke-width: 2;" transform="matrix(1,0,0,1,750,620)" d="M0,0 A10,10 0 0 0 0,20M0,20 A10,10 0 0 0 0,40M0,20 A10,10 0 0 1 0,40M0,0 A20,20 0 0 0 0,40M0,0 A20,20 0 0 1 0,40M0,0 A30,30 0 0 1 0,60M0,20 A20,20 0 0 1 0,60"></path><path stroke="#ffffff" fill="none" style="stroke-width: 7;" transform="matrix(1,0,0,1,750,620)" d="M0,0 A10,10 0 0 0 0,20M0,20 A10,10 0 0 0 0,40M0,20 A10,10 0 0 1 0,40M0,0 A20,20 0 0 0 0,40M0,0 A20,20 0 0 1 0,40M0,0 A30,30 0 0 1 0,60M0,20 A20,20 0 0 1 0,60"></path><path stroke="#ff0000" fill="none" style="stroke-width: 7; stroke-dasharray: 3, 3;" transform="matrix(1,0,0,1,750,620)" d="M0,0 A10,10 0 0 0 0,20M0,20 A10,10 0 0 0 0,40M0,20 A10,10 0 0 1 0,40M0,0 A20,20 0 0 0 0,40M0,0 A20,20 0 0 1 0,40M0,0 A30,30 0 0 1 0,60M0,20 A20,20 0 0 1 0,60"></path><path stroke="#808080" fill="none" style="stroke-width: 4;" transform="matrix(1,0,0,1,750,620)" d="M0,0 A10,10 0 0 0 0,20M0,20 A10,10 0 0 0 0,40M0,20 A10,10 0 0 1 0,40M0,0 A20,20 0 0 0 0,40M0,0 A20,20 0 0 1 0,40M0,0 A30,30 0 0 1 0,60M0,20 A20,20 0 0 1 0,60"></path><path stroke="#ffffff" fill="none" style="stroke-width: 2;" transform="matrix(1,0,0,1,750,720)" d="M0,0 A10,10 0 0 0 0,20M0,20 A10,10 0 0 0 0,40M0,20 A20,20 0 0 0 0,60M0,20 A20,20 0 0 1 0,60"></path><path stroke="#ffffff" fill="none" style="stroke-width: 7;" transform="matrix(1,0,0,1,750,720)" d="M0,0 A10,10 0 0 0 0,20M0,20 A10,10 0 0 0 0,40M0,20 A20,20 0 0 0 0,60M0,20 A20,20 0 0 1 0,60"></path><path stroke="#ff0000" fill="none" style="stroke-width: 7; stroke-dasharray: 3, 3;" transform="matrix(1,0,0,1,750,720)" d="M0,0 A10,10 0 0 0 0,20M0,20 A10,10 0 0 0 0,40M0,20 A20,20 0 0 0 0,60M0,20 A20,20 0 0 1 0,60"></path><path stroke="#808080" fill="none" style="stroke-width: 4;" transform="matrix(1,0,0,1,750,720)" d="M0,0 A10,10 0 0 0 0,20M0,20 A10,10 0 0 0 0,40M0,20 A20,20 0 0 0 0,60M0,20 A20,20 0 0 1 0,60"></path></svg>