<svg xmlns="http://www.w3.org/2000/svg" width="800" version="1.1" height="800"><desc>Created with Snap</desc><defs><mask id="maskSib3624917"><path stroke="#ffffff" fill="none" style="stroke-width: 2;" transform="matrix(1,0,0,1,50,20)" d="M0,0 A10,10 0 0 0 0,20M0,0 A10,10 0 0 1 0,20M0,20 A10,10 0 0 0 0,40M0,20 A10,10 0 0 1 0,40M0,40 A10,10 0 0 0 0,60M0,40 A10,10 0 0 1 0,60M0,0 A20,20 0 0 0 0,40M0,0 A20,20 0 0 1 0,40M0,0 A30,30 0 0 0 0,60M0,0 A30,30 0 0 1 0,60M0,20 A20,20 0 0 0 0,60M0,20 A20,20 0 0 1 0,60"></path></mask><mask id="maskSib362491b"><path stroke="#ffffff" fill="none" style="stroke-width: 2;" transform="matrix(1,0,0,1,50,120)" d="M0,0 A10,10 0 0 0 0,20M0,0 A10,10 0 0 1 0,20M0,20 A10,10 0 0 1 0,40M0,40 A10,10 0 0 1 0,60M0,0 A30,30 0 0 1 0,60M0,20 A20,20 0 0 0 0,60"></path></mask><mask id="maskSib362491f"><path stroke="#ffffff" fill="none" style="stroke-width: 2;" transform="matrix(1,0,0,1,50,220)" d="M0,0 A10,10 0 0 0 0,20M0,40 A10,10 0 0 1 0,60M0,0 A20,20 0 0 0 0,40M0,0 A20,20 0 0 1 0,40M0,0 A30,30 0 0 0 0,60M0,20 A20,20 0 0 0 0,60M0,20 A20,20 0 0 1 0,60"></path></mask><mask id="maskSib362491j"><path stroke="#ffffff" fill="none" style="stroke-width: 2;" transform="matrix(1,0,0,1,50,320)" d="M0,0 A10,10 0 0 0 0,20M0,0 A10,10 0 0 1 0,20M0,20 A10,10 0 0 0 0,40M0,20 A10,10 0 0 1 0,40M0,40 A10,10 0 0 0 0,60M0,40 A10,10 0 0 1 0,60M0,0 A20,20 0 0 0 0,40M0,0 A20,20 0 0 1 0,40M0,0 A30,30 0 0 0 0,60M0,20 A20,20 0 0 0 0,60"></path></mask><mask id="maskSib362491n"><path stroke="#ffffff" fill="none" style="stroke-width: 2;" transform="matrix(1,0,0,1,50,420)" d="M0,40 A10,10 0 0 0 0,60M0,0 A20,20 0 0 1 0,40"></path></mask><mask id="maskSib362491r"><path stroke="#ffffff" fill="none" style="stroke-width: 2;" transform="matrix(1,0,0,1,50,520)" d="M0,20 A10,10 0 0 0 0,40M0,20 A10,10 0 0 1 0,40M0,20 A20,20 0 0 1 0,60"></path></mask><mask id="maskSib362491v"><path stroke="#ffffff" fill="none" style="stroke-width: 2;" transform="matrix(1,0,0,1,50,620)" d="M0,0 A10,10 0 0 0 0,20M0,0 A10,10 0 0 1 0,20M0,20 A10,10 0 0 0 0,40M0,20 A10,10 0 0 1 0,40M0,40 A10,10 0 0 0 0,60M0,0 A30,30 0 0 0 0,60M0,20 A20,20 0 0 0 0,60"></path></mask><mask id="maskSib362491z"><path stroke="#ffffff" fill="none" style="stroke-width: 2;" transform="matrix(1,0,0,1,50,720)" d="M0,0 A10,10 0 0 1 0,20M0,20 A10,10 0 0 0 0,40M0,40 A10,10 0 0 0 0,60M0,40 A10,10 0 0 1 0,60M0,0 A20,20 0 0 0 0,40M0,0 A20,20 0 0 1 0,40"></path></mask><mask id="maskSib36249113"><path stroke="#ffffff" fill="none" style="stroke-width: 2;" transform="matrix(1,0,0,1,150,20)" d="M0,0 A10,10 0 0 1 0,20M0,20 A10,10 0 0 0 0,40M0,20 A10,10 0 0 1 0,40M0,40 A10,10 0 0 0 0,60M0,40 A10,10 0 0 1 0,60M0,0 A20,20 0 0 0 0,40M0,0 A20,20 0 0 1 0,40M0,0 A30,30 0 0 0 0,60M0,0 A30,30 0 0 1 0,60M0,20 A20,20 0 0 1 0,60"></path></mask><mask id="maskSib36249117"><path stroke="#ffffff" fill="none" style="stroke-width: 2;" transform="matrix(1,0,0,1,150,120)" d="M0,20 A10,10 0 0 1 0,40M0,40 A10,10 0 0 0 0,60M0,0 A30,30 0 0 0 0,60M0,20 A20,20 0 0 0 0,60M0,20 A20,20 0 0 1 0,60"></path></mask><mask id="maskSib3624911b"><path stroke="#ffffff" fill="none" style="stroke-width: 2;" transform="matrix(1,0,0,1,150,220)" d="M0,0 A10,10 0 0 0 0,20M0,0 A10,10 0 0 1 0,20M0,20 A10,10 0 0 0 0,40M0,20 A10,10 0 0 1 0,40M0,40 A10,10 0 0 0 0,60M0,0 A30,30 0 0 0 0,60M0,20 A20,20 0 0 0 0,60"></path></mask><mask id="maskSib3624911f"><path stroke="#ffffff" fill="none" style="stroke-width: 2;" transform="matrix(1,0,0,1,150,320)" d="M0,0 A10,10 0 0 0 0,20M0,0 A10,10 0 0 1 0,20M0,20 A10,10 0 0 1 0,40M0,0 A20,20 0 0 0 0,40M0,20 A20,20 0 0 0 0,60M0,20 A20,20 0 0 1 0,60"></path></mask><mask id="maskSib3624911j"><path stroke="#ffffff" fill="none" style="stroke-width: 2;" transform="matrix(1,0,0,1,150,420)" d="M0,0 A10,10 0 0 1 0,20M0,20 A10,10 0 0 1 0,40M0,40 A10,10 0 0 0 0,60M0,40 A10,10 0 0 1 0,60M0,0 A20,20 0 0 0 0,40M0,0 A20,20 0 0 1 0,40M0,0 A30,30 0 0 0 0,60M0,20 A20,20 0 0 0 0,60M0,20 A20,20 0 0 1 0,60"></path></mask><mask id="maskSib3624911n"><path stroke="#ffffff" fill="none" style="stroke-width: 2;" transform="matrix(1,0,0,1,150,520)" d="M0,0 A10,10 0 0 0 0,20M0,0 A10,10 0 0 1 0,20M0,40 A10,10 0 0 0 0,60M0,40 A10,10 0 0 1 0,60M0,0 A20,20 0 0 0 0,40M0,0 A20,20 0 0 1 0,40M0,0 A30,30 0 0 1 0,60M0,20 A20,20 0 0 0 0,60"></path></mask><mask id="maskSib3624911r"><path stroke="#ffffff" fill="none" style="stroke-width: 2;" transform="matrix(1,0,0,1,150,620)" d="M0,0 A10,10 0 0 1 0,20M0,20 A10,10 0 0 0 0,40M0,20 A10,10 0 0 1 0,40M0,40 A10,10 0 0 1 0,60M0,0 A30,30 0 0 0 0,60M0,0 A30,30 0 0 1 0,60M0,20 A20,20 0 0 1 0,60"></path></mask><mask id="maskSib3624911v"><path stroke="#ffffff" fill="none" style="stroke-width: 2;" transform="matrix(1,0,0,1,150,720)" d="M0,20 A10,10 0 0 0 0,40M0,0 A30,30 0 0 1 0,60M0,20 A20,20 0 0 1 0,60"></path></mask><mask id="maskSib3624911z"><path stroke="#ffffff" fill="none" style="stroke-width: 2;" transform="matrix(1,0,0,1,250,20)" d="M0,40 A10,10 0 0 1 0,60M0,0 A20,20 0 0 0 0,40M0,0 A20,20 0 0 1 0,40M0,0 A30,30 0 0 1 0,60M0,20 A20,20 0 0 0 0,60M0,20 A20,20 0 0 1 0,60"></path></mask><mask id="maskSib36249123"><path stroke="#ffffff" fill="none" style="stroke-width: 2;" transform="matrix(1,0,0,1,250,120)" d="M0,20 A10,10 0 0 1 0,40M0,40 A10,10 0 0 0 0,60M0,0 A20,20 0 0 0 0,40M0,0 A20,20 0 0 1 0,40"></path></mask><mask id="maskSib36249127"><path stroke="#ffffff" fill="none" style="stroke-width: 2;" transform="matrix(1,0,0,1,250,220)" d="M0,20 A10,10 0 0 1 0,40M0,0 A20,20 0 0 1 0,40M0,0 A30,30 0 0 0 0,60M0,20 A20,20 0 0 0 0,60M0,20 A20,20 0 0 1 0,60"></path></mask><mask id="maskSib3624912b"><path stroke="#ffffff" fill="none" style="stroke-width: 2;" transform="matrix(1,0,0,1,250,320)" d="M0,0 A10,10 0 0 1 0,20M0,40 A10,10 0 0 0 0,60M0,40 A10,10 0 0 1 0,60M0,0 A20,20 0 0 0 0,40M0,0 A20,20 0 0 1 0,40M0,0 A30,30 0 0 0 0,60M0,20 A20,20 0 0 0 0,60M0,20 A20,20 0 0 1 0,60"></path></mask><mask id="maskSib3624912f"><path stroke="#ffffff" fill="none" style="stroke-width: 2;" transform="matrix(1,0,0,1,250,420)" d="M0,0 A10,10 0 0 0 0,20M0,0 A10,10 0 0 1 0,20M0,20 A10,10 0 0 1 0,40M0,0 A20,20 0 0 0 0,40"></path></mask><mask id="maskSib3624912j"><path stroke="#ffffff" fill="none" style="stroke-width: 2;" transform="matrix(1,0,0,1,250,520)" d="M0,0 A10,10 0 0 0 0,20M0,40 A10,10 0 0 0 0,60M0,40 A10,10 0 0 1 0,60M0,0 A30,30 0 0 1 0,60"></path></mask><mask id="maskSib3624912n"><path stroke="#ffffff" fill="none" style="stroke-width: 2;" transform="matrix(1,0,0,1,250,620)" d="M0,0 A10,10 0 0 1 0,20M0,20 A10,10 0 0 1 0,40M0,40 A10,10 0 0 0 0,60M0,40 A10,10 0 0 1 0,60M0,0 A30,30 0 0 0 0,60"></path></mask><mask id="maskSib3624912r"><path stroke="#ffffff" fill="none" style="stroke-width: 2;" transform="matrix(1,0,0,1,250,720)" d="M0,20 A10,10 0 0 0 0,40M0,0 A30,30 0 0 1 0,60"></path></mask><mask id="maskSib3624912v"><path stroke="#ffffff" fill="none" style="stroke-width: 2;" transform="matrix(1,0,0,1,350,20)" d="M0,20 A10,10 0 0 1 0,40M0,0 A20,20 0 0 0 0,40M0,0 A30,30 0 0 0 0,60M0,20 A20,20 0 0 0 0,60M0,20 A20,20 0 0 1 0,60"></path></mask><mask id="maskSib3624912z"><path stroke="#ffffff" fill="none" style="stroke-width: 2;" transform="matrix(1,0,0,1,350,120)" d="M0,40 A10,10 0 0 0 0,60M0,40 A10,10 0 0 1 0,60M0,0 A20,20 0 0 0 0,40M0,0 A20,20 0 0 1 0,40"></path></mask><mask id="maskSib36249133"><path stroke="#ffffff" fill="none" style="stroke-width: 2;" transform="matrix(1,0,0,1,350,220)" d="M0,0 A10,10 0 0 1 0,20M0,20 A10,10 0 0 0 0,40M0,40 A10,10 0 0 0 0,60M0,40 A10,10 0 0 1 0,60M0,0 A20,20 0 0 0 0,40M0,0 A20,20 0 0 1 0,40M0,0 A30,30 0 0 0 0,60M0,20 A20,20 0 0 0 0,60M0,20 A20,20 0 0 1 0,60"></path></mask><mask id="maskSib36249137"><path stroke="#ffffff" fill="none" style="stroke-width: 2;" transform="matrix(1,0,0,1,350,320)" d="M0,20 A10,10 0 0 0 0,40M0,0 A20,20 0 0 0 0,40M0,20 A20,20 0 0 1 0,60"></path></mask><mask id="maskSib3624913b"><path stroke="#ffffff" fill="none" style="stroke-width: 2;" transform="matrix(1,0,0,1,350,420)" d="M0,20 A10,10 0 0 0 0,40M0,20 A10,10 0 0 1 0,40M0,40 A10,10 0 0 1 0,60M0,0 A20,20 0 0 0 0,40M0,0 A30,30 0 0 0 0,60M0,20 A20,20 0 0 1 0,60"></path></mask><mask id="maskSib3624913f"><path stroke="#ffffff" fill="none" style="stroke-width: 2;" transform="matrix(1,0,0,1,350,520)" d="M0,0 A10,10 0 0 0 0,20M0,20 A10,10 0 0 1 0,40M0,40 A10,10 0 0 1 0,60M0,0 A20,20 0 0 0 0,40M0,20 A20,20 0 0 1 0,60"></path></mask><mask id="maskSib3624913j"><path stroke="#ffffff" fill="none" style="stroke-width: 2;" transform="matrix(1,0,0,1,350,620)" d="M0,40 A10,10 0 0 0 0,60M0,40 A10,10 0 0 1 0,60M0,0 A20,20 0 0 0 0,40M0,0 A30,30 0 0 0 0,60M0,20 A20,20 0 0 0 0,60"></path></mask><mask id="maskSib3624913n"><path stroke="#ffffff" fill="none" style="stroke-width: 2;" transform="matrix(1,0,0,1,350,720)" d="M0,0 A10,10 0 0 1 0,20M0,20 A10,10 0 0 0 0,40M0,40 A10,10 0 0 0 0,60M0,0 A20,20 0 0 0 0,40M0,0 A30,30 0 0 1 0,60M0,20 A20,20 0 0 1 0,60"></path></mask><mask id="maskSib3624913r"><path stroke="#ffffff" fill="none" style="stroke-width: 2;" transform="matrix(1,0,0,1,450,20)" d="M0,0 A10,10 0 0 0 0,20M0,0 A10,10 0 0 1 0,20M0,20 A10,10 0 0 1 0,40M0,0 A20,20 0 0 0 0,40M0,0 A20,20 0 0 1 0,40M0,20 A20,20 0 0 0 0,60"></path></mask><mask id="maskSib3624913v"><path stroke="#ffffff" fill="none" style="stroke-width: 2;" transform="matrix(1,0,0,1,450,120)" d="M0,0 A10,10 0 0 0 0,20M0,20 A10,10 0 0 0 0,40M0,20 A10,10 0 0 1 0,40M0,40 A10,10 0 0 0 0,60M0,40 A10,10 0 0 1 0,60M0,0 A20,20 0 0 0 0,40M0,0 A20,20 0 0 1 0,40M0,0 A30,30 0 0 0 0,60M0,0 A30,30 0 0 1 0,60"></path></mask><mask id="maskSib3624913z"><path stroke="#ffffff" fill="none" style="stroke-width: 2;" transform="matrix(1,0,0,1,450,220)" d="M0,0 A10,10 0 0 0 0,20M0,40 A10,10 0 0 1 0,60M0,0 A20,20 0 0 0 0,40M0,0 A20,20 0 0 1 0,40M0,0 A30,30 0 0 0 0,60M0,20 A20,20 0 0 0 0,60M0,20 A20,20 0 0 1 0,60"></path></mask><mask id="maskSib36249143"><path stroke="#ffffff" fill="none" style="stroke-width: 2;" transform="matrix(1,0,0,1,450,320)" d="M0,20 A10,10 0 0 0 0,40M0,40 A10,10 0 0 0 0,60M0,40 A10,10 0 0 1 0,60M0,0 A20,20 0 0 1 0,40M0,0 A30,30 0 0 0 0,60M0,20 A20,20 0 0 0 0,60M0,20 A20,20 0 0 1 0,60"></path></mask><mask id="maskSib36249147"><path stroke="#ffffff" fill="none" style="stroke-width: 2;" transform="matrix(1,0,0,1,450,420)" d="M0,0 A10,10 0 0 0 0,20M0,20 A10,10 0 0 1 0,40M0,40 A10,10 0 0 0 0,60M0,0 A20,20 0 0 0 0,40M0,0 A20,20 0 0 1 0,40M0,0 A30,30 0 0 0 0,60M0,0 A30,30 0 0 1 0,60M0,20 A20,20 0 0 1 0,60"></path></mask><mask id="maskSib3624914b"><path stroke="#ffffff" fill="none" style="stroke-width: 2;" transform="matrix(1,0,0,1,450,520)" d="M0,0 A10,10 0 0 0 0,20M0,0 A10,10 0 0 1 0,20M0,0 A20,20 0 0 1 0,40M0,0 A30,30 0 0 0 0,60M0,0 A30,30 0 0 1 0,60M0,20 A20,20 0 0 0 0,60M0,20 A20,20 0 0 1 0,60"></path></mask><mask id="maskSib3624914f"><path stroke="#ffffff" fill="none" style="stroke-width: 2;" transform="matrix(1,0,0,1,450,620)" d="M0,20 A10,10 0 0 0 0,40M0,0 A30,30 0 0 0 0,60M0,0 A30,30 0 0 1 0,60M0,20 A20,20 0 0 1 0,60"></path></mask><mask id="maskSib3624914j"><path stroke="#ffffff" fill="none" style="stroke-width: 2;" transform="matrix(1,0,0,1,450,720)" d="M0,0 A10,10 0 0 1 0,20M0,40 A10,10 0 0 0 0,60M0,40 A10,10 0 0 1 0,60M0,0 A20,20 0 0 0 0,40M0,0 A20,20 0 0 1 0,40M0,0 A30,30 0 0 0 0,60M0,20 A20,20 0 0 0 0,60M0,20 A20,20 0 0 1 0,60"></path></mask><mask id="maskSib3624914n"><path stroke="#ffffff" fill="none" style="stroke-width: 2;" transform="matrix(1,0,0,1,550,20)" d="M0,0 A10,10 0 0 0 0,20M0,0 A10,10 0 0 1 0,20M0,20 A10,10 0 0 0 0,40M0,40 A10,10 0 0 0 0,60M0,0 A30,30 0 0 0 0,60M0,20 A20,20 0 0 0 0,60M0,20 A20,20 0 0 1 0,60"></path></mask><mask id="maskSib3624914r"><path stroke="#ffffff" fill="none" style="stroke-width: 2;" transform="matrix(1,0,0,1,550,120)" d="M0,0 A10,10 0 0 0 0,20M0,20 A10,10 0 0 0 0,40M0,0 A20,20 0 0 1 0,40M0,0 A30,30 0 0 0 0,60M0,20 A20,20 0 0 0 0,60"></path></mask><mask id="maskSib3624914v"><path stroke="#ffffff" fill="none" style="stroke-width: 2;" transform="matrix(1,0,0,1,550,220)" d="M0,20 A10,10 0 0 0 0,40M0,20 A10,10 0 0 1 0,40M0,0 A30,30 0 0 1 0,60"></path></mask><mask id="maskSib3624914z"><path stroke="#ffffff" fill="none" style="stroke-width: 2;" transform="matrix(1,0,0,1,550,320)" d="M0,20 A10,10 0 0 0 0,40M0,40 A10,10 0 0 1 0,60M0,0 A20,20 0 0 0 0,40M0,0 A30,30 0 0 1 0,60M0,20 A20,20 0 0 0 0,60M0,20 A20,20 0 0 1 0,60"></path></mask><mask id="maskSib36249153"><path stroke="#ffffff" fill="none" style="stroke-width: 2;" transform="matrix(1,0,0,1,550,420)" d="M0,0 A20,20 0 0 1 0,40M0,0 A30,30 0 0 0 0,60M0,20 A20,20 0 0 0 0,60M0,20 A20,20 0 0 1 0,60"></path></mask><mask id="maskSib36249157"><path stroke="#ffffff" fill="none" style="stroke-width: 2;" transform="matrix(1,0,0,1,550,520)" d="M0,0 A10,10 0 0 0 0,20M0,20 A10,10 0 0 0 0,40M0,40 A10,10 0 0 0 0,60M0,40 A10,10 0 0 1 0,60M0,0 A20,20 0 0 1 0,40M0,0 A30,30 0 0 0 0,60"></path></mask><mask id="maskSib3624915b"><path stroke="#ffffff" fill="none" style="stroke-width: 2;" transform="matrix(1,0,0,1,550,620)" d="M0,20 A10,10 0 0 0 0,40M0,40 A10,10 0 0 0 0,60M0,40 A10,10 0 0 1 0,60M0,0 A20,20 0 0 0 0,40M0,0 A20,20 0 0 1 0,40M0,0 A30,30 0 0 0 0,60M0,0 A30,30 0 0 1 0,60"></path></mask><mask id="maskSib3624915f"><path stroke="#ffffff" fill="none" style="stroke-width: 2;" transform="matrix(1,0,0,1,550,720)" d="M0,20 A10,10 0 0 1 0,40M0,40 A10,10 0 0 0 0,60M0,0 A20,20 0 0 0 0,40M0,0 A20,20 0 0 1 0,40M0,0 A30,30 0 0 0 0,60M0,0 A30,30 0 0 1 0,60M0,20 A20,20 0 0 0 0,60M0,20 A20,20 0 0 1 0,60"></path></mask><mask id="maskSib3624915j"><path stroke="#ffffff" fill="none" style="stroke-width: 2;" transform="matrix(1,0,0,1,650,20)" d="M0,0 A10,10 0 0 1 0,20M0,20 A10,10 0 0 0 0,40M0,20 A10,10 0 0 1 0,40M0,40 A10,10 0 0 0 0,60M0,40 A10,10 0 0 1 0,60M0,0 A20,20 0 0 0 0,40M0,0 A20,20 0 0 1 0,40M0,0 A30,30 0 0 0 0,60M0,0 A30,30 0 0 1 0,60M0,20 A20,20 0 0 1 0,60"></path></mask><mask id="maskSib3624915n"><path stroke="#ffffff" fill="none" style="stroke-width: 2;" transform="matrix(1,0,0,1,650,120)" d="M0,0 A10,10 0 0 1 0,20M0,20 A10,10 0 0 0 0,40M0,20 A10,10 0 0 1 0,40M0,40 A10,10 0 0 0 0,60M0,40 A10,10 0 0 1 0,60M0,0 A20,20 0 0 1 0,40M0,0 A30,30 0 0 1 0,60"></path></mask><mask id="maskSib3624915r"><path stroke="#ffffff" fill="none" style="stroke-width: 2;" transform="matrix(1,0,0,1,650,220)" d="M0,0 A10,10 0 0 0 0,20M0,0 A10,10 0 0 1 0,20M0,20 A10,10 0 0 1 0,40M0,40 A10,10 0 0 0 0,60M0,0 A30,30 0 0 0 0,60M0,0 A30,30 0 0 1 0,60M0,20 A20,20 0 0 0 0,60M0,20 A20,20 0 0 1 0,60"></path></mask><mask id="maskSib3624915v"><path stroke="#ffffff" fill="none" style="stroke-width: 2;" transform="matrix(1,0,0,1,650,320)" d="M0,20 A10,10 0 0 0 0,40M0,20 A10,10 0 0 1 0,40M0,40 A10,10 0 0 0 0,60M0,40 A10,10 0 0 1 0,60M0,0 A20,20 0 0 0 0,40M0,0 A20,20 0 0 1 0,40M0,20 A20,20 0 0 1 0,60"></path></mask><mask id="maskSib3624915z"><path stroke="#ffffff" fill="none" style="stroke-width: 2;" transform="matrix(1,0,0,1,650,420)" d="M0,0 A10,10 0 0 1 0,20M0,20 A10,10 0 0 0 0,40M0,40 A10,10 0 0 0 0,60M0,0 A20,20 0 0 1 0,40M0,0 A30,30 0 0 0 0,60M0,20 A20,20 0 0 1 0,60"></path></mask><mask id="maskSib36249163"><path stroke="#ffffff" fill="none" style="stroke-width: 2;" transform="matrix(1,0,0,1,650,520)" d="M0,0 A10,10 0 0 1 0,20M0,20 A10,10 0 0 1 0,40M0,40 A10,10 0 0 0 0,60M0,0 A20,20 0 0 0 0,40M0,0 A20,20 0 0 1 0,40M0,0 A30,30 0 0 0 0,60M0,0 A30,30 0 0 1 0,60M0,20 A20,20 0 0 0 0,60"></path></mask><mask id="maskSib36249167"><path stroke="#ffffff" fill="none" style="stroke-width: 2;" transform="matrix(1,0,0,1,650,620)" d="M0,0 A10,10 0 0 0 0,20M0,40 A10,10 0 0 0 0,60M0,40 A10,10 0 0 1 0,60M0,0 A20,20 0 0 1 0,40M0,20 A20,20 0 0 0 0,60"></path></mask><mask id="maskSib3624916b"><path stroke="#ffffff" fill="none" style="stroke-width: 2;" transform="matrix(1,0,0,1,650,720)" d="M0,20 A10,10 0 0 0 0,40M0,40 A10,10 0 0 0 0,60M0,40 A10,10 0 0 1 0,60M0,0 A30,30 0 0 1 0,60M0,20 A20,20 0 0 0 0,60M0,20 A20,20 0 0 1 0,60"></path></mask><mask id="maskSib3624916f"><path stroke="#ffffff" fill="none" style="stroke-width: 2;" transform="matrix(1,0,0,1,750,20)" d="M0,0 A10,10 0 0 1 0,20M0,20 A10,10 0 0 0 0,40M0,20 A10,10 0 0 1 0,40M0,0 A20,20 0 0 0 0,40M0,0 A20,20 0 0 1 0,40M0,0 A30,30 0 0 0 0,60"></path></mask><mask id="maskSib3624916j"><path stroke="#ffffff" fill="none" style="stroke-width: 2;" transform="matrix(1,0,0,1,750,120)" d="M0,0 A10,10 0 0 1 0,20M0,40 A10,10 0 0 0 0,60M0,40 A10,10 0 0 1 0,60M0,0 A20,20 0 0 1 0,40M0,0 A30,30 0 0 0 0,60M0,0 A30,30 0 0 1 0,60M0,20 A20,20 0 0 1 0,60"></path></mask><mask id="maskSib3624916n"><path stroke="#ffffff" fill="none" style="stroke-width: 2;" transform="matrix(1,0,0,1,750,220)" d="M0,0 A10,10 0 0 0 0,20M0,40 A10,10 0 0 0 0,60M0,40 A10,10 0 0 1 0,60M0,0 A20,20 0 0 0 0,40M0,0 A20,20 0 0 1 0,40M0,0 A30,30 0 0 0 0,60M0,0 A30,30 0 0 1 0,60"></path></mask><mask id="maskSib3624916r"><path stroke="#ffffff" fill="none" style="stroke-width: 2;" transform="matrix(1,0,0,1,750,320)" d="M0,0 A10,10 0 0 0 0,20M0,0 A20,20 0 0 0 0,40M0,0 A20,20 0 0 1 0,40M0,0 A30,30 0 0 0 0,60M0,20 A20,20 0 0 1 0,60"></path></mask><mask id="maskSib3624916v"><path stroke="#ffffff" fill="none" style="stroke-width: 2;" transform="matrix(1,0,0,1,750,420)" d="M0,20 A10,10 0 0 0 0,40M0,20 A10,10 0 0 1 0,40M0,0 A20,20 0 0 1 0,40M0,20 A20,20 0 0 0 0,60"></path></mask><mask id="maskSib3624916z"><path stroke="#ffffff" fill="none" style="stroke-width: 2;" transform="matrix(1,0,0,1,750,520)" d="M0,20 A10,10 0 0 1 0,40M0,40 A10,10 0 0 0 0,60M0,0 A20,20 0 0 1 0,40M0,0 A30,30 0 0 0 0,60M0,0 A30,30 0 0 1 0,60M0,20 A20,20 0 0 1 0,60"></path></mask><mask id="maskSib36249173"><path stroke="#ffffff" fill="none" style="stroke-width: 2;" transform="matrix(1,0,0,1,750,620)" d="M0,0 A10,10 0 0 1 0,20M0,20 A10,10 0 0 0 0,40M0,40 A10,10 0 0 1 0,60M0,0 A20,20 0 0 1 0,40M0,0 A30,30 0 0 0 0,60M0,0 A30,30 0 0 1 0,60"></path></mask><mask id="maskSib36249177"><path stroke="#ffffff" fill="none" style="stroke-width: 2;" transform="matrix(1,0,0,1,750,720)" d="M0,0 A10,10 0 0 0 0,20M0,0 A10,10 0 0 1 0,20M0,20 A10,10 0 0 1 0,40M0,40 A10,10 0 0 1 0,60M0,0 A30,30 0 0 1 0,60M0,20 A20,20 0 0 1 0,60"></path></mask></defs><rect fill="#7891e4" style="" height="800" width="800" y="0" x="0"></rect><path stroke="#000000" fill="none" style="" d="M0,0 V800 M100,0 V800 M200,0 V800 M300,0 V800 M400,0 V800 M500,0 V800 M600,0 V800 M700,0 V800 M800,0 V800 M0,0 H800 M0,100 H800 M0,200 H800 M0,300 H800 M0,400 H800 M0,500 H800 M0,600 H800 M0,700 H800 M0,800 H800 "></path><path stroke="#ffffff" fill="none" style="stroke-width: 2;" transform="matrix(1,0,0,1,50,20)" d="M0,0 A10,10 0 0 0 0,20M0,0 A10,10 0 0 1 0,20M0,20 A10,10 0 0 0 0,40M0,20 A10,10 0 0 1 0,40M0,40 A10,10 0 0 0 0,60M0,40 A10,10 0 0 1 0,60M0,0 A20,20 0 0 0 0,40M0,0 A20,20 0 0 1 0,40M0,0 A30,30 0 0 0 0,60M0,0 A30,30 0 0 1 0,60M0,20 A20,20 0 0 0 0,60M0,20 A20,20 0 0 1 0,60"></path><path mask="url('#maskSib3624917')" stroke="#ffffff" fill="none" style="stroke-width: 4;" transform="matrix(1,0,0,1,50,20)" d="M0,0 A10,10 0 0 0 0,20M0,0 A10,10 0 0 1 0,20M0,20 A10,10 0 0 0 0,40M0,20 A10,10 0 0 1 0,40M0,40 A10,10 0 0 0 0,60M0,40 A10,10 0 0 1 0,60M0,0 A20,20 0 0 0 0,40M0,0 A20,20 0 0 1 0,40M0,0 A30,30 0 0 0 0,60M0,0 A30,30 0 0 1 0,60M0,20 A20,20 0 0 0 0,60M0,20 A20,20 0 0 1 0,60"></path><path stroke="#ffffff" fill="none" style="stroke-width: 2;" transform="matrix(1,0,0,1,50,120)" d="M0,0 A10,10 0 0 0 0,20M0,0 A10,10 0 0 1 0,20M0,20 A10,10 0 0 1 0,40M0,40 A10,10 0 0 1 0,60M0,0 A30,30 0 0 1 0,60M0,20 A20,20 0 0 0 0,60"></path><path mask="url('#maskSib362491b')" stroke="#ffffff" fill="none" style="stroke-width: 4;" transform="matrix(1,0,0,1,50,120)" d="M0,0 A10,10 0 0 0 0,20M0,0 A10,10 0 0 1 0,20M0,20 A10,10 0 0 1 0,40M0,40 A10,10 0 0 1 0,60M0,0 A30,30 0 0 1 0,60M0,20 A20,20 0 0 0 0,60"></path><path stroke="#ffffff" fill="none" style="stroke-width: 2;" transform="matrix(1,0,0,1,50,220)" d="M0,0 A10,10 0 0 0 0,20M0,40 A10,10 0 0 1 0,60M0,0 A20,20 0 0 0 0,40M0,0 A20,20 0 0 1 0,40M0,0 A30,30 0 0 0 0,60M0,20 A20,20 0 0 0 0,60M0,20 A20,20 0 0 1 0,60"></path><path mask="url('#maskSib362491f')" stroke="#ffffff" fill="none" style="stroke-width: 4;" transform="matrix(1,0,0,1,50,220)" d="M0,0 A10,10 0 0 0 0,20M0,40 A10,10 0 0 1 0,60M0,0 A20,20 0 0 0 0,40M0,0 A20,20 0 0 1 0,40M0,0 A30,30 0 0 0 0,60M0,20 A20,20 0 0 0 0,60M0,20 A20,20 0 0 1 0,60"></path><path stroke="#ffffff" fill="none" style="stroke-width: 2;" transform="matrix(1,0,0,1,50,320)" d="M0,0 A10,10 0 0 0 0,20M0,0 A10,10 0 0 1 0,20M0,20 A10,10 0 0 0 0,40M0,20 A10,10 0 0 1 0,40M0,40 A10,10 0 0 0 0,60M0,40 A10,10 0 0 1 0,60M0,0 A20,20 0 0 0 0,40M0,0 A20,20 0 0 1 0,40M0,0 A30,30 0 0 0 0,60M0,20 A20,20 0 0 0 0,60"></path><path mask="url('#maskSib362491j')" stroke="#ffffff" fill="none" style="stroke-width: 4;" transform="matrix(1,0,0,1,50,320)" d="M0,0 A10,10 0 0 0 0,20M0,0 A10,10 0 0 1 0,20M0,20 A10,10 0 0 0 0,40M0,20 A10,10 0 0 1 0,40M0,40 A10,10 0 0 0 0,60M0,40 A10,10 0 0 1 0,60M0,0 A20,20 0 0 0 0,40M0,0 A20,20 0 0 1 0,40M0,0 A30,30 0 0 0 0,60M0,20 A20,20 0 0 0 0,60"></path><path stroke="#ffffff" fill="none" style="stroke-width: 2;" transform="matrix(1,0,0,1,50,420)" d="M0,40 A10,10 0 0 0 0,60M0,0 A20,20 0 0 1 0,40"></path><path mask="url('#maskSib362491n')" stroke="#ffffff" fill="none" style="stroke-width: 4;" transform="matrix(1,0,0,1,50,420)" d="M0,40 A10,10 0 0 0 0,60M0,0 A20,20 0 0 1 0,40"></path><path stroke="#ffffff" fill="none" style="stroke-width: 2;" transform="matrix(1,0,0,1,50,520)" d="M0,20 A10,10 0 0 0 0,40M0,20 A10,10 0 0 1 0,40M0,20 A20,20 0 0 1 0,60"></path><path mask="url('#maskSib362491r')" stroke="#ffffff" fill="none" style="stroke-width: 4;" transform="matrix(1,0,0,1,50,520)" d="M0,20 A10,10 0 0 0 0,40M0,20 A10,10 0 0 1 0,40M0,20 A20,20 0 0 1 0,60"></path><path stroke="#ffffff" fill="none" style="stroke-width: 2;" transform="matrix(1,0,0,1,50,620)" d="M0,0 A10,10 0 0 0 0,20M0,0 A10,10 0 0 1 0,20M0,20 A10,10 0 0 0 0,40M0,20 A10,10 0 0 1 0,40M0,40 A10,10 0 0 0 0,60M0,0 A30,30 0 0 0 0,60M0,20 A20,20 0 0 0 0,60"></path><path mask="url('#maskSib362491v')" stroke="#ffffff" fill="none" style="stroke-width: 4;" transform="matrix(1,0,0,1,50,620)" d="M0,0 A10,10 0 0 0 0,20M0,0 A10,10 0 0 1 0,20M0,20 A10,10 0 0 0 0,40M0,20 A10,10 0 0 1 0,40M0,40 A10,10 0 0 0 0,60M0,0 A30,30 0 0 0 0,60M0,20 A20,20 0 0 0 0,60"></path><path stroke="#ffffff" fill="none" style="stroke-width: 2;" transform="matrix(1,0,0,1,50,720)" d="M0,0 A10,10 0 0 1 0,20M0,20 A10,10 0 0 0 0,40M0,40 A10,10 0 0 0 0,60M0,40 A10,10 0 0 1 0,60M0,0 A20,20 0 0 0 0,40M0,0 A20,20 0 0 1 0,40"></path><path mask="url('#maskSib362491z')" stroke="#ffffff" fill="none" style="stroke-width: 4;" transform="matrix(1,0,0,1,50,720)" d="M0,0 A10,10 0 0 1 0,20M0,20 A10,10 0 0 0 0,40M0,40 A10,10 0 0 0 0,60M0,40 A10,10 0 0 1 0,60M0,0 A20,20 0 0 0 0,40M0,0 A20,20 0 0 1 0,40"></path><path stroke="#ffffff" fill="none" style="stroke-width: 2;" transform="matrix(1,0,0,1,150,20)" d="M0,0 A10,10 0 0 1 0,20M0,20 A10,10 0 0 0 0,40M0,20 A10,10 0 0 1 0,40M0,40 A10,10 0 0 0 0,60M0,40 A10,10 0 0 1 0,60M0,0 A20,20 0 0 0 0,40M0,0 A20,20 0 0 1 0,40M0,0 A30,30 0 0 0 0,60M0,0 A30,30 0 0 1 0,60M0,20 A20,20 0 0 1 0,60"></path><path mask="url('#maskSib36249113')" stroke="#ffffff" fill="none" style="stroke-width: 4;" transform="matrix(1,0,0,1,150,20)" d="M0,0 A10,10 0 0 1 0,20M0,20 A10,10 0 0 0 0,40M0,20 A10,10 0 0 1 0,40M0,40 A10,10 0 0 0 0,60M0,40 A10,10 0 0 1 0,60M0,0 A20,20 0 0 0 0,40M0,0 A20,20 0 0 1 0,40M0,0 A30,30 0 0 0 0,60M0,0 A30,30 0 0 1 0,60M0,20 A20,20 0 0 1 0,60"></path><path stroke="#ffffff" fill="none" style="stroke-width: 2;" transform="matrix(1,0,0,1,150,120)" d="M0,20 A10,10 0 0 1 0,40M0,40 A10,10 0 0 0 0,60M0,0 A30,30 0 0 0 0,60M0,20 A20,20 0 0 0 0,60M0,20 A20,20 0 0 1 0,60"></path><path mask="url('#maskSib36249117')" stroke="#ffffff" fill="none" style="stroke-width: 4;" transform="matrix(1,0,0,1,150,120)" d="M0,20 A10,10 0 0 1 0,40M0,40 A10,10 0 0 0 0,60M0,0 A30,30 0 0 0 0,60M0,20 A20,20 0 0 0 0,60M0,20 A20,20 0 0 1 0,60"></path><path stroke="#ffffff" fill="none" style="stroke-width: 2;" transform="matrix(1,0,0,1,150,220)" d="M0,0 A10,10 0 0 0 0,20M0,0 A10,10 0 0 1 0,20M0,20 A10,10 0 0 0 0,40M0,20 A10,10 0 0 1 0,40M0,40 A10,10 0 0 0 0,60M0,0 A30,30 0 0 0 0,60M0,20 A20,20 0 0 0 0,60"></path><path mask="url('#maskSib3624911b')" stroke="#ffffff" fill="none" style="stroke-width: 4;" transform="matrix(1,0,0,1,150,220)" d="M0,0 A10,10 0 0 0 0,20M0,0 A10,10 0 0 1 0,20M0,20 A10,10 0 0 0 0,40M0,20 A10,10 0 0 1 0,40M0,40 A10,10 0 0 0 0,60M0,0 A30,30 0 0 0 0,60M0,20 A20,20 0 0 0 0,60"></path><path stroke="#ffffff" fill="none" style="stroke-width: 2;" transform="matrix(1,0,0,1,150,320)" d="M0,0 A10,10 0 0 0 0,20M0,0 A10,10 0 0 1 0,20M0,20 A10,10 0 0 1 0,40M0,0 A20,20 0 0 0 0,40M0,20 A20,20 0 0 0 0,60M0,20 A20,20 0 0 1 0,60"></path><path mask="url('#maskSib3624911f')" stroke="#ffffff" fill="none" style="stroke-width: 4;" transform="matrix(1,0,0,1,150,320)" d="M0,0 A10,10 0 0 0 0,20M0,0 A10,10 0 0 1 0,20M0,20 A10,10 0 0 1 0,40M0,0 A20,20 0 0 0 0,40M0,20 A20,20 0 0 0 0,60M0,20 A20,20 0 0 1 0,60"></path><path stroke="#ffffff" fill="none" style="stroke-width: 2;" transform="matrix(1,0,0,1,150,420)" d="M0,0 A10,10 0 0 1 0,20M0,20 A10,10 0 0 1 0,40M0,40 A10,10 0 0 0 0,60M0,40 A10,10 0 0 1 0,60M0,0 A20,20 0 0 0 0,40M0,0 A20,20 0 0 1 0,40M0,0 A30,30 0 0 0 0,60M0,20 A20,20 0 0 0 0,60M0,20 A20,20 0 0 1 0,60"></path><path mask="url('#maskSib3624911j')" stroke="#ffffff" fill="none" style="stroke-width: 4;" transform="matrix(1,0,0,1,150,420)" d="M0,0 A10,10 0 0 1 0,20M0,20 A10,10 0 0 1 0,40M0,40 A10,10 0 0 0 0,60M0,40 A10,10 0 0 1 0,60M0,0 A20,20 0 0 0 0,40M0,0 A20,20 0 0 1 0,40M0,0 A30,30 0 0 0 0,60M0,20 A20,20 0 0 0 0,60M0,20 A20,20 0 0 1 0,60"></path><path stroke="#ffffff" fill="none" style="stroke-width: 2;" transform="matrix(1,0,0,1,150,520)" d="M0,0 A10,10 0 0 0 0,20M0,0 A10,10 0 0 1 0,20M0,40 A10,10 0 0 0 0,60M0,40 A10,10 0 0 1 0,60M0,0 A20,20 0 0 0 0,40M0,0 A20,20 0 0 1 0,40M0,0 A30,30 0 0 1 0,60M0,20 A20,20 0 0 0 0,60"></path><path mask="url('#maskSib3624911n')" stroke="#ffffff" fill="none" style="stroke-width: 4;" transform="matrix(1,0,0,1,150,520)" d="M0,0 A10,10 0 0 0 0,20M0,0 A10,10 0 0 1 0,20M0,40 A10,10 0 0 0 0,60M0,40 A10,10 0 0 1 0,60M0,0 A20,20 0 0 0 0,40M0,0 A20,20 0 0 1 0,40M0,0 A30,30 0 0 1 0,60M0,20 A20,20 0 0 0 0,60"></path><path stroke="#ffffff" fill="none" style="stroke-width: 2;" transform="matrix(1,0,0,1,150,620)" d="M0,0 A10,10 0 0 1 0,20M0,20 A10,10 0 0 0 0,40M0,20 A10,10 0 0 1 0,40M0,40 A10,10 0 0 1 0,60M0,0 A30,30 0 0 0 0,60M0,0 A30,30 0 0 1 0,60M0,20 A20,20 0 0 1 0,60"></path><path mask="url('#maskSib3624911r')" stroke="#ffffff" fill="none" style="stroke-width: 4;" transform="matrix(1,0,0,1,150,620)" d="M0,0 A10,10 0 0 1 0,20M0,20 A10,10 0 0 0 0,40M0,20 A10,10 0 0 1 0,40M0,40 A10,10 0 0 1 0,60M0,0 A30,30 0 0 0 0,60M0,0 A30,30 0 0 1 0,60M0,20 A20,20 0 0 1 0,60"></path><path stroke="#ffffff" fill="none" style="stroke-width: 2;" transform="matrix(1,0,0,1,150,720)" d="M0,20 A10,10 0 0 0 0,40M0,0 A30,30 0 0 1 0,60M0,20 A20,20 0 0 1 0,60"></path><path mask="url('#maskSib3624911v')" stroke="#ffffff" fill="none" style="stroke-width: 4;" transform="matrix(1,0,0,1,150,720)" d="M0,20 A10,10 0 0 0 0,40M0,0 A30,30 0 0 1 0,60M0,20 A20,20 0 0 1 0,60"></path><path stroke="#ffffff" fill="none" style="stroke-width: 2;" transform="matrix(1,0,0,1,250,20)" d="M0,40 A10,10 0 0 1 0,60M0,0 A20,20 0 0 0 0,40M0,0 A20,20 0 0 1 0,40M0,0 A30,30 0 0 1 0,60M0,20 A20,20 0 0 0 0,60M0,20 A20,20 0 0 1 0,60"></path><path mask="url('#maskSib3624911z')" stroke="#ffffff" fill="none" style="stroke-width: 4;" transform="matrix(1,0,0,1,250,20)" d="M0,40 A10,10 0 0 1 0,60M0,0 A20,20 0 0 0 0,40M0,0 A20,20 0 0 1 0,40M0,0 A30,30 0 0 1 0,60M0,20 A20,20 0 0 0 0,60M0,20 A20,20 0 0 1 0,60"></path><path stroke="#ffffff" fill="none" style="stroke-width: 2;" transform="matrix(1,0,0,1,250,120)" d="M0,20 A10,10 0 0 1 0,40M0,40 A10,10 0 0 0 0,60M0,0 A20,20 0 0 0 0,40M0,0 A20,20 0 0 1 0,40"></path><path mask="url('#maskSib36249123')" stroke="#ffffff" fill="none" style="stroke-width: 4;" transform="matrix(1,0,0,1,250,120)" d="M0,20 A10,10 0 0 1 0,40M0,40 A10,10 0 0 0 0,60M0,0 A20,20 0 0 0 0,40M0,0 A20,20 0 0 1 0,40"></path><path stroke="#ffffff" fill="none" style="stroke-width: 2;" transform="matrix(1,0,0,1,250,220)" d="M0,20 A10,10 0 0 1 0,40M0,0 A20,20 0 0 1 0,40M0,0 A30,30 0 0 0 0,60M0,20 A20,20 0 0 0 0,60M0,20 A20,20 0 0 1 0,60"></path><path mask="url('#maskSib36249127')" stroke="#ffffff" fill="none" style="stroke-width: 4;" transform="matrix(1,0,0,1,250,220)" d="M0,20 A10,10 0 0 1 0,40M0,0 A20,20 0 0 1 0,40M0,0 A30,30 0 0 0 0,60M0,20 A20,20 0 0 0 0,60M0,20 A20,20 0 0 1 0,60"></path><path stroke="#ffffff" fill="none" style="stroke-width: 2;" transform="matrix(1,0,0,1,250,320)" d="M0,0 A10,10 0 0 1 0,20M0,40 A10,10 0 0 0 0,60M0,40 A10,10 0 0 1 0,60M0,0 A20,20 0 0 0 0,40M0,0 A20,20 0 0 1 0,40M0,0 A30,30 0 0 0 0,60M0,20 A20,20 0 0 0 0,60M0,20 A20,20 0 0 1 0,60"></path><path mask="url('#maskSib3624912b')" stroke="#ffffff" fill="none" style="stroke-width: 4;" transform="matrix(1,0,0,1,250,320)" d="M0,0 A10,10 0 0 1 0,20M0,40 A10,10 0 0 0 0,60M0,40 A10,10 0 0 1 0,60M0,0 A20,20 0 0 0 0,40M0,0 A20,20 0 0 1 0,40M0,0 A30,30 0 0 0 0,60M0,20 A20,20 0 0 0 0,60M0,20 A20,20 0 0 1 0,60"></path><path stroke="#ffffff" fill="none" style="stroke-width: 2;" transform="matrix(1,0,0,1,250,420)" d="M0,0 A10,10 0 0 0 0,20M0,0 A10,10 0 0 1 0,20M0,20 A10,10 0 0 1 0,40M0,0 A20,20 0 0 0 0,40"></path><path mask="url('#maskSib3624912f')" stroke="#ffffff" fill="none" style="stroke-width: 4;" transform="matrix(1,0,0,1,250,420)" d="M0,0 A10,10 0 0 0 0,20M0,0 A10,10 0 0 1 0,20M0,20 A10,10 0 0 1 0,40M0,0 A20,20 0 0 0 0,40"></path><path stroke="#ffffff" fill="none" style="stroke-width: 2;" transform="matrix(1,0,0,1,250,520)" d="M0,0 A10,10 0 0 0 0,20M0,40 A10,10 0 0 0 0,60M0,40 A10,10 0 0 1 0,60M0,0 A30,30 0 0 1 0,60"></path><path mask="url('#maskSib3624912j')" stroke="#ffffff" fill="none" style="stroke-width: 4;" transform="matrix(1,0,0,1,250,520)" d="M0,0 A10,10 0 0 0 0,20M0,40 A10,10 0 0 0 0,60M0,40 A10,10 0 0 1 0,60M0,0 A30,30 0 0 1 0,60"></path><path stroke="#ffffff" fill="none" style="stroke-width: 2;" transform="matrix(1,0,0,1,250,620)" d="M0,0 A10,10 0 0 1 0,20M0,20 A10,10 0 0 1 0,40M0,40 A10,10 0 0 0 0,60M0,40 A10,10 0 0 1 0,60M0,0 A30,30 0 0 0 0,60"></path><path mask="url('#maskSib3624912n')" stroke="#ffffff" fill="none" style="stroke-width: 4;" transform="matrix(1,0,0,1,250,620)" d="M0,0 A10,10 0 0 1 0,20M0,20 A10,10 0 0 1 0,40M0,40 A10,10 0 0 0 0,60M0,40 A10,10 0 0 1 0,60M0,0 A30,30 0 0 0 0,60"></path><path stroke="#ffffff" fill="none" style="stroke-width: 2;" transform="matrix(1,0,0,1,250,720)" d="M0,20 A10,10 0 0 0 0,40M0,0 A30,30 0 0 1 0,60"></path><path mask="url('#maskSib3624912r')" stroke="#ffffff" fill="none" style="stroke-width: 4;" transform="matrix(1,0,0,1,250,720)" d="M0,20 A10,10 0 0 0 0,40M0,0 A30,30 0 0 1 0,60"></path><path stroke="#ffffff" fill="none" style="stroke-width: 2;" transform="matrix(1,0,0,1,350,20)" d="M0,20 A10,10 0 0 1 0,40M0,0 A20,20 0 0 0 0,40M0,0 A30,30 0 0 0 0,60M0,20 A20,20 0 0 0 0,60M0,20 A20,20 0 0 1 0,60"></path><path mask="url('#maskSib3624912v')" stroke="#ffffff" fill="none" style="stroke-width: 4;" transform="matrix(1,0,0,1,350,20)" d="M0,20 A10,10 0 0 1 0,40M0,0 A20,20 0 0 0 0,40M0,0 A30,30 0 0 0 0,60M0,20 A20,20 0 0 0 0,60M0,20 A20,20 0 0 1 0,60"></path><path stroke="#ffffff" fill="none" style="stroke-width: 2;" transform="matrix(1,0,0,1,350,120)" d="M0,40 A10,10 0 0 0 0,60M0,40 A10,10 0 0 1 0,60M0,0 A20,20 0 0 0 0,40M0,0 A20,20 0 0 1 0,40"></path><path mask="url('#maskSib3624912z')" stroke="#ffffff" fill="none" style="stroke-width: 4;" transform="matrix(1,0,0,1,350,120)" d="M0,40 A10,10 0 0 0 0,60M0,40 A10,10 0 0 1 0,60M0,0 A20,20 0 0 0 0,40M0,0 A20,20 0 0 1 0,40"></path><path stroke="#ffffff" fill="none" style="stroke-width: 2;" transform="matrix(1,0,0,1,350,220)" d="M0,0 A10,10 0 0 1 0,20M0,20 A10,10 0 0 0 0,40M0,40 A10,10 0 0 0 0,60M0,40 A10,10 0 0 1 0,60M0,0 A20,20 0 0 0 0,40M0,0 A20,20 0 0 1 0,40M0,0 A30,30 0 0 0 0,60M0,20 A20,20 0 0 0 0,60M0,20 A20,20 0 0 1 0,60"></path><path mask="url('#maskSib36249133')" stroke="#ffffff" fill="none" style="stroke-width: 4;" transform="matrix(1,0,0,1,350,220)" d="M0,0 A10,10 0 0 1 0,20M0,20 A10,10 0 0 0 0,40M0,40 A10,10 0 0 0 0,60M0,40 A10,10 0 0 1 0,60M0,0 A20,20 0 0 0 0,40M0,0 A20,20 0 0 1 0,40M0,0 A30,30 0 0 0 0,60M0,20 A20,20 0 0 0 0,60M0,20 A20,20 0 0 1 0,60"></path><path stroke="#ffffff" fill="none" style="stroke-width: 2;" transform="matrix(1,0,0,1,350,320)" d="M0,20 A10,10 0 0 0 0,40M0,0 A20,20 0 0 0 0,40M0,20 A20,20 0 0 1 0,60"></path><path mask="url('#maskSib36249137')" stroke="#ffffff" fill="none" style="stroke-width: 4;" transform="matrix(1,0,0,1,350,320)" d="M0,20 A10,10 0 0 0 0,40M0,0 A20,20 0 0 0 0,40M0,20 A20,20 0 0 1 0,60"></path><path stroke="#ffffff" fill="none" style="stroke-width: 2;" transform="matrix(1,0,0,1,350,420)" d="M0,20 A10,10 0 0 0 0,40M0,20 A10,10 0 0 1 0,40M0,40 A10,10 0 0 1 0,60M0,0 A20,20 0 0 0 0,40M0,0 A30,30 0 0 0 0,60M0,20 A20,20 0 0 1 0,60"></path><path mask="url('#maskSib3624913b')" stroke="#ffffff" fill="none" style="stroke-width: 4;" transform="matrix(1,0,0,1,350,420)" d="M0,20 A10,10 0 0 0 0,40M0,20 A10,10 0 0 1 0,40M0,40 A10,10 0 0 1 0,60M0,0 A20,20 0 0 0 0,40M0,0 A30,30 0 0 0 0,60M0,20 A20,20 0 0 1 0,60"></path><path stroke="#ffffff" fill="none" style="stroke-width: 2;" transform="matrix(1,0,0,1,350,520)" d="M0,0 A10,10 0 0 0 0,20M0,20 A10,10 0 0 1 0,40M0,40 A10,10 0 0 1 0,60M0,0 A20,20 0 0 0 0,40M0,20 A20,20 0 0 1 0,60"></path><path mask="url('#maskSib3624913f')" stroke="#ffffff" fill="none" style="stroke-width: 4;" transform="matrix(1,0,0,1,350,520)" d="M0,0 A10,10 0 0 0 0,20M0,20 A10,10 0 0 1 0,40M0,40 A10,10 0 0 1 0,60M0,0 A20,20 0 0 0 0,40M0,20 A20,20 0 0 1 0,60"></path><path stroke="#ffffff" fill="none" style="stroke-width: 2;" transform="matrix(1,0,0,1,350,620)" d="M0,40 A10,10 0 0 0 0,60M0,40 A10,10 0 0 1 0,60M0,0 A20,20 0 0 0 0,40M0,0 A30,30 0 0 0 0,60M0,20 A20,20 0 0 0 0,60"></path><path mask="url('#maskSib3624913j')" stroke="#ffffff" fill="none" style="stroke-width: 4;" transform="matrix(1,0,0,1,350,620)" d="M0,40 A10,10 0 0 0 0,60M0,40 A10,10 0 0 1 0,60M0,0 A20,20 0 0 0 0,40M0,0 A30,30 0 0 0 0,60M0,20 A20,20 0 0 0 0,60"></path><path stroke="#ffffff" fill="none" style="stroke-width: 2;" transform="matrix(1,0,0,1,350,720)" d="M0,0 A10,10 0 0 1 0,20M0,20 A10,10 0 0 0 0,40M0,40 A10,10 0 0 0 0,60M0,0 A20,20 0 0 0 0,40M0,0 A30,30 0 0 1 0,60M0,20 A20,20 0 0 1 0,60"></path><path mask="url('#maskSib3624913n')" stroke="#ffffff" fill="none" style="stroke-width: 4;" transform="matrix(1,0,0,1,350,720)" d="M0,0 A10,10 0 0 1 0,20M0,20 A10,10 0 0 0 0,40M0,40 A10,10 0 0 0 0,60M0,0 A20,20 0 0 0 0,40M0,0 A30,30 0 0 1 0,60M0,20 A20,20 0 0 1 0,60"></path><path stroke="#ffffff" fill="none" style="stroke-width: 2;" transform="matrix(1,0,0,1,450,20)" d="M0,0 A10,10 0 0 0 0,20M0,0 A10,10 0 0 1 0,20M0,20 A10,10 0 0 1 0,40M0,0 A20,20 0 0 0 0,40M0,0 A20,20 0 0 1 0,40M0,20 A20,20 0 0 0 0,60"></path><path mask="url('#maskSib3624913r')" stroke="#ffffff" fill="none" style="stroke-width: 4;" transform="matrix(1,0,0,1,450,20)" d="M0,0 A10,10 0 0 0 0,20M0,0 A10,10 0 0 1 0,20M0,20 A10,10 0 0 1 0,40M0,0 A20,20 0 0 0 0,40M0,0 A20,20 0 0 1 0,40M0,20 A20,20 0 0 0 0,60"></path><path stroke="#ffffff" fill="none" style="stroke-width: 2;" transform="matrix(1,0,0,1,450,120)" d="M0,0 A10,10 0 0 0 0,20M0,20 A10,10 0 0 0 0,40M0,20 A10,10 0 0 1 0,40M0,40 A10,10 0 0 0 0,60M0,40 A10,10 0 0 1 0,60M0,0 A20,20 0 0 0 0,40M0,0 A20,20 0 0 1 0,40M0,0 A30,30 0 0 0 0,60M0,0 A30,30 0 0 1 0,60"></path><path mask="url('#maskSib3624913v')" stroke="#ffffff" fill="none" style="stroke-width: 4;" transform="matrix(1,0,0,1,450,120)" d="M0,0 A10,10 0 0 0 0,20M0,20 A10,10 0 0 0 0,40M0,20 A10,10 0 0 1 0,40M0,40 A10,10 0 0 0 0,60M0,40 A10,10 0 0 1 0,60M0,0 A20,20 0 0 0 0,40M0,0 A20,20 0 0 1 0,40M0,0 A30,30 0 0 0 0,60M0,0 A30,30 0 0 1 0,60"></path><path stroke="#ffffff" fill="none" style="stroke-width: 2;" transform="matrix(1,0,0,1,450,220)" d="M0,0 A10,10 0 0 0 0,20M0,40 A10,10 0 0 1 0,60M0,0 A20,20 0 0 0 0,40M0,0 A20,20 0 0 1 0,40M0,0 A30,30 0 0 0 0,60M0,20 A20,20 0 0 0 0,60M0,20 A20,20 0 0 1 0,60"></path><path mask="url('#maskSib3624913z')" stroke="#ffffff" fill="none" style="stroke-width: 4;" transform="matrix(1,0,0,1,450,220)" d="M0,0 A10,10 0 0 0 0,20M0,40 A10,10 0 0 1 0,60M0,0 A20,20 0 0 0 0,40M0,0 A20,20 0 0 1 0,40M0,0 A30,30 0 0 0 0,60M0,20 A20,20 0 0 0 0,60M0,20 A20,20 0 0 1 0,60"></path><path stroke="#ffffff" fill="none" style="stroke-width: 2;" transform="matrix(1,0,0,1,450,320)" d="M0,20 A10,10 0 0 0 0,40M0,40 A10,10 0 0 0 0,60M0,40 A10,10 0 0 1 0,60M0,0 A20,20 0 0 1 0,40M0,0 A30,30 0 0 0 0,60M0,20 A20,20 0 0 0 0,60M0,20 A20,20 0 0 1 0,60"></path><path mask="url('#maskSib36249143')" stroke="#ffffff" fill="none" style="stroke-width: 4;" transform="matrix(1,0,0,1,450,320)" d="M0,20 A10,10 0 0 0 0,40M0,40 A10,10 0 0 0 0,60M0,40 A10,10 0 0 1 0,60M0,0 A20,20 0 0 1 0,40M0,0 A30,30 0 0 0 0,60M0,20 A20,20 0 0 0 0,60M0,20 A20,20 0 0 1 0,60"></path><path stroke="#ffffff" fill="none" style="stroke-width: 2;" transform="matrix(1,0,0,1,450,420)" d="M0,0 A10,10 0 0 0 0,20M0,20 A10,10 0 0 1 0,40M0,40 A10,10 0 0 0 0,60M0,0 A20,20 0 0 0 0,40M0,0 A20,20 0 0 1 0,40M0,0 A30,30 0 0 0 0,60M0,0 A30,30 0 0 1 0,60M0,20 A20,20 0 0 1 0,60"></path><path mask="url('#maskSib36249147')" stroke="#ffffff" fill="none" style="stroke-width: 4;" transform="matrix(1,0,0,1,450,420)" d="M0,0 A10,10 0 0 0 0,20M0,20 A10,10 0 0 1 0,40M0,40 A10,10 0 0 0 0,60M0,0 A20,20 0 0 0 0,40M0,0 A20,20 0 0 1 0,40M0,0 A30,30 0 0 0 0,60M0,0 A30,30 0 0 1 0,60M0,20 A20,20 0 0 1 0,60"></path><path stroke="#ffffff" fill="none" style="stroke-width: 2;" transform="matrix(1,0,0,1,450,520)" d="M0,0 A10,10 0 0 0 0,20M0,0 A10,10 0 0 1 0,20M0,0 A20,20 0 0 1 0,40M0,0 A30,30 0 0 0 0,60M0,0 A30,30 0 0 1 0,60M0,20 A20,20 0 0 0 0,60M0,20 A20,20 0 0 1 0,60"></path><path mask="url('#maskSib3624914b')" stroke="#ffffff" fill="none" style="stroke-width: 4;" transform="matrix(1,0,0,1,450,520)" d="M0,0 A10,10 0 0 0 0,20M0,0 A10,10 0 0 1 0,20M0,0 A20,20 0 0 1 0,40M0,0 A30,30 0 0 0 0,60M0,0 A30,30 0 0 1 0,60M0,20 A20,20 0 0 0 0,60M0,20 A20,20 0 0 1 0,60"></path><path stroke="#ffffff" fill="none" style="stroke-width: 2;" transform="matrix(1,0,0,1,450,620)" d="M0,20 A10,10 0 0 0 0,40M0,0 A30,30 0 0 0 0,60M0,0 A30,30 0 0 1 0,60M0,20 A20,20 0 0 1 0,60"></path><path mask="url('#maskSib3624914f')" stroke="#ffffff" fill="none" style="stroke-width: 4;" transform="matrix(1,0,0,1,450,620)" d="M0,20 A10,10 0 0 0 0,40M0,0 A30,30 0 0 0 0,60M0,0 A30,30 0 0 1 0,60M0,20 A20,20 0 0 1 0,60"></path><path stroke="#ffffff" fill="none" style="stroke-width: 2;" transform="matrix(1,0,0,1,450,720)" d="M0,0 A10,10 0 0 1 0,20M0,40 A10,10 0 0 0 0,60M0,40 A10,10 0 0 1 0,60M0,0 A20,20 0 0 0 0,40M0,0 A20,20 0 0 1 0,40M0,0 A30,30 0 0 0 0,60M0,20 A20,20 0 0 0 0,60M0,20 A20,20 0 0 1 0,60"></path><path mask="url('#maskSib3624914j')" stroke="#ffffff" fill="none" style="stroke-width: 4;" transform="matrix(1,0,0,1,450,720)" d="M0,0 A10,10 0 0 1 0,20M0,40 A10,10 0 0 0 0,60M0,40 A10,10 0 0 1 0,60M0,0 A20,20 0 0 0 0,40M0,0 A20,20 0 0 1 0,40M0,0 A30,30 0 0 0 0,60M0,20 A20,20 0 0 0 0,60M0,20 A20,20 0 0 1 0,60"></path><path stroke="#ffffff" fill="none" style="stroke-width: 2;" transform="matrix(1,0,0,1,550,20)" d="M0,0 A10,10 0 0 0 0,20M0,0 A10,10 0 0 1 0,20M0,20 A10,10 0 0 0 0,40M0,40 A10,10 0 0 0 0,60M0,0 A30,30 0 0 0 0,60M0,20 A20,20 0 0 0 0,60M0,20 A20,20 0 0 1 0,60"></path><path mask="url('#maskSib3624914n')" stroke="#ffffff" fill="none" style="stroke-width: 4;" transform="matrix(1,0,0,1,550,20)" d="M0,0 A10,10 0 0 0 0,20M0,0 A10,10 0 0 1 0,20M0,20 A10,10 0 0 0 0,40M0,40 A10,10 0 0 0 0,60M0,0 A30,30 0 0 0 0,60M0,20 A20,20 0 0 0 0,60M0,20 A20,20 0 0 1 0,60"></path><path stroke="#ffffff" fill="none" style="stroke-width: 2;" transform="matrix(1,0,0,1,550,120)" d="M0,0 A10,10 0 0 0 0,20M0,20 A10,10 0 0 0 0,40M0,0 A20,20 0 0 1 0,40M0,0 A30,30 0 0 0 0,60M0,20 A20,20 0 0 0 0,60"></path><path mask="url('#maskSib3624914r')" stroke="#ffffff" fill="none" style="stroke-width: 4;" transform="matrix(1,0,0,1,550,120)" d="M0,0 A10,10 0 0 0 0,20M0,20 A10,10 0 0 0 0,40M0,0 A20,20 0 0 1 0,40M0,0 A30,30 0 0 0 0,60M0,20 A20,20 0 0 0 0,60"></path><path stroke="#ffffff" fill="none" style="stroke-width: 2;" transform="matrix(1,0,0,1,550,220)" d="M0,20 A10,10 0 0 0 0,40M0,20 A10,10 0 0 1 0,40M0,0 A30,30 0 0 1 0,60"></path><path mask="url('#maskSib3624914v')" stroke="#ffffff" fill="none" style="stroke-width: 4;" transform="matrix(1,0,0,1,550,220)" d="M0,20 A10,10 0 0 0 0,40M0,20 A10,10 0 0 1 0,40M0,0 A30,30 0 0 1 0,60"></path><path stroke="#ffffff" fill="none" style="stroke-width: 2;" transform="matrix(1,0,0,1,550,320)" d="M0,20 A10,10 0 0 0 0,40M0,40 A10,10 0 0 1 0,60M0,0 A20,20 0 0 0 0,40M0,0 A30,30 0 0 1 0,60M0,20 A20,20 0 0 0 0,60M0,20 A20,20 0 0 1 0,60"></path><path mask="url('#maskSib3624914z')" stroke="#ffffff" fill="none" style="stroke-width: 4;" transform="matrix(1,0,0,1,550,320)" d="M0,20 A10,10 0 0 0 0,40M0,40 A10,10 0 0 1 0,60M0,0 A20,20 0 0 0 0,40M0,0 A30,30 0 0 1 0,60M0,20 A20,20 0 0 0 0,60M0,20 A20,20 0 0 1 0,60"></path><path stroke="#ffffff" fill="none" style="stroke-width: 2;" transform="matrix(1,0,0,1,550,420)" d="M0,0 A20,20 0 0 1 0,40M0,0 A30,30 0 0 0 0,60M0,20 A20,20 0 0 0 0,60M0,20 A20,20 0 0 1 0,60"></path><path mask="url('#maskSib36249153')" stroke="#ffffff" fill="none" style="stroke-width: 4;" transform="matrix(1,0,0,1,550,420)" d="M0,0 A20,20 0 0 1 0,40M0,0 A30,30 0 0 0 0,60M0,20 A20,20 0 0 0 0,60M0,20 A20,20 0 0 1 0,60"></path><path stroke="#ffffff" fill="none" style="stroke-width: 2;" transform="matrix(1,0,0,1,550,520)" d="M0,0 A10,10 0 0 0 0,20M0,20 A10,10 0 0 0 0,40M0,40 A10,10 0 0 0 0,60M0,40 A10,10 0 0 1 0,60M0,0 A20,20 0 0 1 0,40M0,0 A30,30 0 0 0 0,60"></path><path mask="url('#maskSib36249157')" stroke="#ffffff" fill="none" style="stroke-width: 4;" transform="matrix(1,0,0,1,550,520)" d="M0,0 A10,10 0 0 0 0,20M0,20 A10,10 0 0 0 0,40M0,40 A10,10 0 0 0 0,60M0,40 A10,10 0 0 1 0,60M0,0 A20,20 0 0 1 0,40M0,0 A30,30 0 0 0 0,60"></path><path stroke="#ffffff" fill="none" style="stroke-width: 2;" transform="matrix(1,0,0,1,550,620)" d="M0,20 A10,10 0 0 0 0,40M0,40 A10,10 0 0 0 0,60M0,40 A10,10 0 0 1 0,60M0,0 A20,20 0 0 0 0,40M0,0 A20,20 0 0 1 0,40M0,0 A30,30 0 0 0 0,60M0,0 A30,30 0 0 1 0,60"></path><path mask="url('#maskSib3624915b')" stroke="#ffffff" fill="none" style="stroke-width: 4;" transform="matrix(1,0,0,1,550,620)" d="M0,20 A10,10 0 0 0 0,40M0,40 A10,10 0 0 0 0,60M0,40 A10,10 0 0 1 0,60M0,0 A20,20 0 0 0 0,40M0,0 A20,20 0 0 1 0,40M0,0 A30,30 0 0 0 0,60M0,0 A30,30 0 0 1 0,60"></path><path stroke="#ffffff" fill="none" style="stroke-width: 2;" transform="matrix(1,0,0,1,550,720)" d="M0,20 A10,10 0 0 1 0,40M0,40 A10,10 0 0 0 0,60M0,0 A20,20 0 0 0 0,40M0,0 A20,20 0 0 1 0,40M0,0 A30,30 0 0 0 0,60M0,0 A30,30 0 0 1 0,60M0,20 A20,20 0 0 0 0,60M0,20 A20,20 0 0 1 0,60"></path><path mask="url('#maskSib3624915f')" stroke="#ffffff" fill="none" style="stroke-width: 4;" transform="matrix(1,0,0,1,550,720)" d="M0,20 A10,10 0 0 1 0,40M0,40 A10,10 0 0 0 0,60M0,0 A20,20 0 0 0 0,40M0,0 A20,20 0 0 1 0,40M0,0 A30,30 0 0 0 0,60M0,0 A30,30 0 0 1 0,60M0,20 A20,20 0 0 0 0,60M0,20 A20,20 0 0 1 0,60"></path><path stroke="#ffffff" fill="none" style="stroke-width: 2;" transform="matrix(1,0,0,1,650,20)" d="M0,0 A10,10 0 0 1 0,20M0,20 A10,10 0 0 0 0,40M0,20 A10,10 0 0 1 0,40M0,40 A10,10 0 0 0 0,60M0,40 A10,10 0 0 1 0,60M0,0 A20,20 0 0 0 0,40M0,0 A20,20 0 0 1 0,40M0,0 A30,30 0 0 0 0,60M0,0 A30,30 0 0 1 0,60M0,20 A20,20 0 0 1 0,60"></path><path mask="url('#maskSib3624915j')" stroke="#ffffff" fill="none" style="stroke-width: 4;" transform="matrix(1,0,0,1,650,20)" d="M0,0 A10,10 0 0 1 0,20M0,20 A10,10 0 0 0 0,40M0,20 A10,10 0 0 1 0,40M0,40 A10,10 0 0 0 0,60M0,40 A10,10 0 0 1 0,60M0,0 A20,20 0 0 0 0,40M0,0 A20,20 0 0 1 0,40M0,0 A30,30 0 0 0 0,60M0,0 A30,30 0 0 1 0,60M0,20 A20,20 0 0 1 0,60"></path><path stroke="#ffffff" fill="none" style="stroke-width: 2;" transform="matrix(1,0,0,1,650,120)" d="M0,0 A10,10 0 0 1 0,20M0,20 A10,10 0 0 0 0,40M0,20 A10,10 0 0 1 0,40M0,40 A10,10 0 0 0 0,60M0,40 A10,10 0 0 1 0,60M0,0 A20,20 0 0 1 0,40M0,0 A30,30 0 0 1 0,60"></path><path mask="url('#maskSib3624915n')" stroke="#ffffff" fill="none" style="stroke-width: 4;" transform="matrix(1,0,0,1,650,120)" d="M0,0 A10,10 0 0 1 0,20M0,20 A10,10 0 0 0 0,40M0,20 A10,10 0 0 1 0,40M0,40 A10,10 0 0 0 0,60M0,40 A10,10 0 0 1 0,60M0,0 A20,20 0 0 1 0,40M0,0 A30,30 0 0 1 0,60"></path><path stroke="#ffffff" fill="none" style="stroke-width: 2;" transform="matrix(1,0,0,1,650,220)" d="M0,0 A10,10 0 0 0 0,20M0,0 A10,10 0 0 1 0,20M0,20 A10,10 0 0 1 0,40M0,40 A10,10 0 0 0 0,60M0,0 A30,30 0 0 0 0,60M0,0 A30,30 0 0 1 0,60M0,20 A20,20 0 0 0 0,60M0,20 A20,20 0 0 1 0,60"></path><path mask="url('#maskSib3624915r')" stroke="#ffffff" fill="none" style="stroke-width: 4;" transform="matrix(1,0,0,1,650,220)" d="M0,0 A10,10 0 0 0 0,20M0,0 A10,10 0 0 1 0,20M0,20 A10,10 0 0 1 0,40M0,40 A10,10 0 0 0 0,60M0,0 A30,30 0 0 0 0,60M0,0 A30,30 0 0 1 0,60M0,20 A20,20 0 0 0 0,60M0,20 A20,20 0 0 1 0,60"></path><path stroke="#ffffff" fill="none" style="stroke-width: 2;" transform="matrix(1,0,0,1,650,320)" d="M0,20 A10,10 0 0 0 0,40M0,20 A10,10 0 0 1 0,40M0,40 A10,10 0 0 0 0,60M0,40 A10,10 0 0 1 0,60M0,0 A20,20 0 0 0 0,40M0,0 A20,20 0 0 1 0,40M0,20 A20,20 0 0 1 0,60"></path><path mask="url('#maskSib3624915v')" stroke="#ffffff" fill="none" style="stroke-width: 4;" transform="matrix(1,0,0,1,650,320)" d="M0,20 A10,10 0 0 0 0,40M0,20 A10,10 0 0 1 0,40M0,40 A10,10 0 0 0 0,60M0,40 A10,10 0 0 1 0,60M0,0 A20,20 0 0 0 0,40M0,0 A20,20 0 0 1 0,40M0,20 A20,20 0 0 1 0,60"></path><path stroke="#ffffff" fill="none" style="stroke-width: 2;" transform="matrix(1,0,0,1,650,420)" d="M0,0 A10,10 0 0 1 0,20M0,20 A10,10 0 0 0 0,40M0,40 A10,10 0 0 0 0,60M0,0 A20,20 0 0 1 0,40M0,0 A30,30 0 0 0 0,60M0,20 A20,20 0 0 1 0,60"></path><path mask="url('#maskSib3624915z')" stroke="#ffffff" fill="none" style="stroke-width: 4;" transform="matrix(1,0,0,1,650,420)" d="M0,0 A10,10 0 0 1 0,20M0,20 A10,10 0 0 0 0,40M0,40 A10,10 0 0 0 0,60M0,0 A20,20 0 0 1 0,40M0,0 A30,30 0 0 0 0,60M0,20 A20,20 0 0 1 0,60"></path><path stroke="#ffffff" fill="none" style="stroke-width: 2;" transform="matrix(1,0,0,1,650,520)" d="M0,0 A10,10 0 0 1 0,20M0,20 A10,10 0 0 1 0,40M0,40 A10,10 0 0 0 0,60M0,0 A20,20 0 0 0 0,40M0,0 A20,20 0 0 1 0,40M0,0 A30,30 0 0 0 0,60M0,0 A30,30 0 0 1 0,60M0,20 A20,20 0 0 0 0,60"></path><path mask="url('#maskSib36249163')" stroke="#ffffff" fill="none" style="stroke-width: 4;" transform="matrix(1,0,0,1,650,520)" d="M0,0 A10,10 0 0 1 0,20M0,20 A10,10 0 0 1 0,40M0,40 A10,10 0 0 0 0,60M0,0 A20,20 0 0 0 0,40M0,0 A20,20 0 0 1 0,40M0,0 A30,30 0 0 0 0,60M0,0 A30,30 0 0 1 0,60M0,20 A20,20 0 0 0 0,60"></path><path stroke="#ffffff" fill="none" style="stroke-width: 2;" transform="matrix(1,0,0,1,650,620)" d="M0,0 A10,10 0 0 0 0,20M0,40 A10,10 0 0 0 0,60M0,40 A10,10 0 0 1 0,60M0,0 A20,20 0 0 1 0,40M0,20 A20,20 0 0 0 0,60"></path><path mask="url('#maskSib36249167')" stroke="#ffffff" fill="none" style="stroke-width: 4;" transform="matrix(1,0,0,1,650,620)" d="M0,0 A10,10 0 0 0 0,20M0,40 A10,10 0 0 0 0,60M0,40 A10,10 0 0 1 0,60M0,0 A20,20 0 0 1 0,40M0,20 A20,20 0 0 0 0,60"></path><path stroke="#ffffff" fill="none" style="stroke-width: 2;" transform="matrix(1,0,0,1,650,720)" d="M0,20 A10,10 0 0 0 0,40M0,40 A10,10 0 0 0 0,60M0,40 A10,10 0 0 1 0,60M0,0 A30,30 0 0 1 0,60M0,20 A20,20 0 0 0 0,60M0,20 A20,20 0 0 1 0,60"></path><path mask="url('#maskSib3624916b')" stroke="#ffffff" fill="none" style="stroke-width: 4;" transform="matrix(1,0,0,1,650,720)" d="M0,20 A10,10 0 0 0 0,40M0,40 A10,10 0 0 0 0,60M0,40 A10,10 0 0 1 0,60M0,0 A30,30 0 0 1 0,60M0,20 A20,20 0 0 0 0,60M0,20 A20,20 0 0 1 0,60"></path><path stroke="#ffffff" fill="none" style="stroke-width: 2;" transform="matrix(1,0,0,1,750,20)" d="M0,0 A10,10 0 0 1 0,20M0,20 A10,10 0 0 0 0,40M0,20 A10,10 0 0 1 0,40M0,0 A20,20 0 0 0 0,40M0,0 A20,20 0 0 1 0,40M0,0 A30,30 0 0 0 0,60"></path><path mask="url('#maskSib3624916f')" stroke="#ffffff" fill="none" style="stroke-width: 4;" transform="matrix(1,0,0,1,750,20)" d="M0,0 A10,10 0 0 1 0,20M0,20 A10,10 0 0 0 0,40M0,20 A10,10 0 0 1 0,40M0,0 A20,20 0 0 0 0,40M0,0 A20,20 0 0 1 0,40M0,0 A30,30 0 0 0 0,60"></path><path stroke="#ffffff" fill="none" style="stroke-width: 2;" transform="matrix(1,0,0,1,750,120)" d="M0,0 A10,10 0 0 1 0,20M0,40 A10,10 0 0 0 0,60M0,40 A10,10 0 0 1 0,60M0,0 A20,20 0 0 1 0,40M0,0 A30,30 0 0 0 0,60M0,0 A30,30 0 0 1 0,60M0,20 A20,20 0 0 1 0,60"></path><path mask="url('#maskSib3624916j')" stroke="#ffffff" fill="none" style="stroke-width: 4;" transform="matrix(1,0,0,1,750,120)" d="M0,0 A10,10 0 0 1 0,20M0,40 A10,10 0 0 0 0,60M0,40 A10,10 0 0 1 0,60M0,0 A20,20 0 0 1 0,40M0,0 A30,30 0 0 0 0,60M0,0 A30,30 0 0 1 0,60M0,20 A20,20 0 0 1 0,60"></path><path stroke="#ffffff" fill="none" style="stroke-width: 2;" transform="matrix(1,0,0,1,750,220)" d="M0,0 A10,10 0 0 0 0,20M0,40 A10,10 0 0 0 0,60M0,40 A10,10 0 0 1 0,60M0,0 A20,20 0 0 0 0,40M0,0 A20,20 0 0 1 0,40M0,0 A30,30 0 0 0 0,60M0,0 A30,30 0 0 1 0,60"></path><path mask="url('#maskSib3624916n')" stroke="#ffffff" fill="none" style="stroke-width: 4;" transform="matrix(1,0,0,1,750,220)" d="M0,0 A10,10 0 0 0 0,20M0,40 A10,10 0 0 0 0,60M0,40 A10,10 0 0 1 0,60M0,0 A20,20 0 0 0 0,40M0,0 A20,20 0 0 1 0,40M0,0 A30,30 0 0 0 0,60M0,0 A30,30 0 0 1 0,60"></path><path stroke="#ffffff" fill="none" style="stroke-width: 2;" transform="matrix(1,0,0,1,750,320)" d="M0,0 A10,10 0 0 0 0,20M0,0 A20,20 0 0 0 0,40M0,0 A20,20 0 0 1 0,40M0,0 A30,30 0 0 0 0,60M0,20 A20,20 0 0 1 0,60"></path><path mask="url('#maskSib3624916r')" stroke="#ffffff" fill="none" style="stroke-width: 4;" transform="matrix(1,0,0,1,750,320)" d="M0,0 A10,10 0 0 0 0,20M0,0 A20,20 0 0 0 0,40M0,0 A20,20 0 0 1 0,40M0,0 A30,30 0 0 0 0,60M0,20 A20,20 0 0 1 0,60"></path><path stroke="#ffffff" fill="none" style="stroke-width: 2;" transform="matrix(1,0,0,1,750,420)" d="M0,20 A10,10 0 0 0 0,40M0,20 A10,10 0 0 1 0,40M0,0 A20,20 0 0 1 0,40M0,20 A20,20 0 0 0 0,60"></path><path mask="url('#maskSib3624916v')" stroke="#ffffff" fill="none" style="stroke-width: 4;" transform="matrix(1,0,0,1,750,420)" d="M0,20 A10,10 0 0 0 0,40M0,20 A10,10 0 0 1 0,40M0,0 A20,20 0 0 1 0,40M0,20 A20,20 0 0 0 0,60"></path><path stroke="#ffffff" fill="none" style="stroke-width: 2;" transform="matrix(1,0,0,1,750,520)" d="M0,20 A10,10 0 0 1 0,40M0,40 A10,10 0 0 0 0,60M0,0 A20,20 0 0 1 0,40M0,0 A30,30 0 0 0 0,60M0,0 A30,30 0 0 1 0,60M0,20 A20,20 0 0 1 0,60"></path><path mask="url('#maskSib3624916z')" stroke="#ffffff" fill="none" style="stroke-width: 4;" transform="matrix(1,0,0,1,750,520)" d="M0,20 A10,10 0 0 1 0,40M0,40 A10,10 0 0 0 0,60M0,0 A20,20 0 0 1 0,40M0,0 A30,30 0 0 0 0,60M0,0 A30,30 0 0 1 0,60M0,20 A20,20 0 0 1 0,60"></path><path stroke="#ffffff" fill="none" style="stroke-width: 2;" transform="matrix(1,0,0,1,750,620)" d="M0,0 A10,10 0 0 1 0,20M0,20 A10,10 0 0 0 0,40M0,40 A10,10 0 0 1 0,60M0,0 A20,20 0 0 1 0,40M0,0 A30,30 0 0 0 0,60M0,0 A30,30 0 0 1 0,60"></path><path mask="url('#maskSib36249173')" stroke="#ffffff" fill="none" style="stroke-width: 4;" transform="matrix(1,0,0,1,750,620)" d="M0,0 A10,10 0 0 1 0,20M0,20 A10,10 0 0 0 0,40M0,40 A10,10 0 0 1 0,60M0,0 A20,20 0 0 1 0,40M0,0 A30,30 0 0 0 0,60M0,0 A30,30 0 0 1 0,60"></path><path stroke="#ffffff" fill="none" style="stroke-width: 2;" transform="matrix(1,0,0,1,750,720)" d="M0,0 A10,10 0 0 0 0,20M0,0 A10,10 0 0 1 0,20M0,20 A10,10 0 0 1 0,40M0,40 A10,10 0 0 1 0,60M0,0 A30,30 0 0 1 0,60M0,20 A20,20 0 0 1 0,60"></path><path mask="url('#maskSib36249177')" stroke="#ffffff" fill="none" style="stroke-width: 4;" transform="matrix(1,0,0,1,750,720)" d="M0,0 A10,10 0 0 0 0,20M0,0 A10,10 0 0 1 0,20M0,20 A10,10 0 0 1 0,40M0,40 A10,10 0 0 1 0,60M0,0 A30,30 0 0 1 0,60M0,20 A20,20 0 0 1 0,60"></path></svg>