<svg xmlns="http://www.w3.org/2000/svg" width="400" version="1.1" height="400"><desc>Created with Snap</desc><defs><filter filterUnits="userSpaceOnUse" id="Sibb2mu4z31"><feGaussianBlur stdDeviation="5,5"></feGaussianBlur></filter><filter filterUnits="userSpaceOnUse" id="Sibb2mu4z39"><feGaussianBlur stdDeviation="5,5"></feGaussianBlur></filter><filter filterUnits="userSpaceOnUse" id="Sibb2mu4z3h"><feGaussianBlur stdDeviation="5,5"></feGaussianBlur></filter><filter filterUnits="userSpaceOnUse" id="Sibb2mu4z3p"><feGaussianBlur stdDeviation="5,5"></feGaussianBlur></filter><filter filterUnits="userSpaceOnUse" id="Sibb2mu4z3x"><feGaussianBlur stdDeviation="5,5"></feGaussianBlur></filter><filter filterUnits="userSpaceOnUse" id="Sibb2mu4z45"><feGaussianBlur stdDeviation="5,5"></feGaussianBlur></filter><filter filterUnits="userSpaceOnUse" id="Sibb2mu4z4d"><feGaussianBlur stdDeviation="5,5"></feGaussianBlur></filter><filter filterUnits="userSpaceOnUse" id="Sibb2mu4z4l"><feGaussianBlur stdDeviation="5,5"></feGaussianBlur></filter><filter filterUnits="userSpaceOnUse" id="Sibb2mu4z4t"><feGaussianBlur stdDeviation="5,5"></feGaussianBlur></filter><filter filterUnits="userSpaceOnUse" id="Sibb2mu4z51"><feGaussianBlur stdDeviation="5,5"></feGaussianBlur></filter><filter filterUnits="userSpaceOnUse" id="Sibb2mu4z59"><feGaussianBlur stdDeviation="5,5"></feGaussianBlur></filter><filter filterUnits="userSpaceOnUse" id="Sibb2mu4z5h"><feGaussianBlur stdDeviation="5,5"></feGaussianBlur></filter><filter filterUnits="userSpaceOnUse" id="Sibb2mu4z5p"><feGaussianBlur stdDeviation="5,5"></feGaussianBlur></filter><filter filterUnits="userSpaceOnUse" id="Sibb2mu4z5x"><feGaussianBlur stdDeviation="5,5"></feGaussianBlur></filter><filter filterUnits="userSpaceOnUse" id="Sibb2mu4z65"><feGaussianBlur stdDeviation="5,5"></feGaussianBlur></filter><filter filterUnits="userSpaceOnUse" id="Sibb2mu4z6d"><feGaussianBlur stdDeviation="5,5"></feGaussianBlur></filter></defs><rect fill="#000000" style="" height="400" width="400" y="0" x="0"></rect><path stroke="#ff00a6" fill="none" style="" d="M0,0 V400 M100,0 V400 M200,0 V400 M300,0 V400 M400,0 V400 M0,0 H400 M0,100 H400 M0,200 H400 M0,300 H400 M0,400 H400 "></path><path stroke="none" fill="none" style="stroke-width: 2; stroke-linecap: square;" transform="matrix(1,0,0,1,50,20)" d="M0,0 A20,20 0 0 0 0,40M0,0 A30,30 0 0 0 0,60M0,0 A30,30 0 0 1 0,60M0,20 A20,20 0 0 0 0,60M0,20 A20,20 0 0 1 0,60"></path><path mask="url('#maskSibb2mu4z2y')" stroke="#ffff00" fill="none" style="stroke-width: 4; stroke-linecap: square;" transform="matrix(1,0,0,1,50,20)" d="M0,0 A20,20 0 0 0 0,40M0,0 A30,30 0 0 0 0,60M0,0 A30,30 0 0 1 0,60M0,20 A20,20 0 0 0 0,60M0,20 A20,20 0 0 1 0,60"></path><path filter="url('#Sibb2mu4z31')" mask="url('#maskSibb2mu4z2y')" stroke="#ffff00" fill="none" style="stroke-width: 4; stroke-linecap: square;" transform="matrix(1,0,0,1,50,20)" d="M0,0 A20,20 0 0 0 0,40M0,0 A30,30 0 0 0 0,60M0,0 A30,30 0 0 1 0,60M0,20 A20,20 0 0 0 0,60M0,20 A20,20 0 0 1 0,60"></path><mask id="maskSibb2mu4z2y"><path stroke="#000000" fill="#ffffff" style="stroke-width: 2; stroke-linecap: square;" transform="matrix(1,0,0,1,0,0)" d="M0,0 A20,20 0 0 0 0,40M0,0 A30,30 0 0 0 0,60M0,0 A30,30 0 0 1 0,60M0,20 A20,20 0 0 0 0,60M0,20 A20,20 0 0 1 0,60"></path></mask><path stroke="none" fill="none" style="stroke-width: 2; stroke-linecap: square;" transform="matrix(1,0,0,1,150,20)" d="M0,0 A10,10 0 0 0 0,20M0,0 A10,10 0 0 1 0,20M0,20 A10,10 0 0 0 0,40M0,20 A10,10 0 0 1 0,40M0,40 A10,10 0 0 1 0,60M0,0 A20,20 0 0 0 0,40M0,0 A20,20 0 0 1 0,40M0,20 A20,20 0 0 0 0,60M0,20 A20,20 0 0 1 0,60"></path><path mask="url('#maskSibb2mu4z36')" stroke="#9fff00" fill="none" style="stroke-width: 4; stroke-linecap: square;" transform="matrix(1,0,0,1,150,20)" d="M0,0 A10,10 0 0 0 0,20M0,0 A10,10 0 0 1 0,20M0,20 A10,10 0 0 0 0,40M0,20 A10,10 0 0 1 0,40M0,40 A10,10 0 0 1 0,60M0,0 A20,20 0 0 0 0,40M0,0 A20,20 0 0 1 0,40M0,20 A20,20 0 0 0 0,60M0,20 A20,20 0 0 1 0,60"></path><path filter="url('#Sibb2mu4z39')" mask="url('#maskSibb2mu4z36')" stroke="#9fff00" fill="none" style="stroke-width: 4; stroke-linecap: square;" transform="matrix(1,0,0,1,150,20)" d="M0,0 A10,10 0 0 0 0,20M0,0 A10,10 0 0 1 0,20M0,20 A10,10 0 0 0 0,40M0,20 A10,10 0 0 1 0,40M0,40 A10,10 0 0 1 0,60M0,0 A20,20 0 0 0 0,40M0,0 A20,20 0 0 1 0,40M0,20 A20,20 0 0 0 0,60M0,20 A20,20 0 0 1 0,60"></path><mask id="maskSibb2mu4z36"><path stroke="#000000" fill="#ffffff" style="stroke-width: 2; stroke-linecap: square;" transform="matrix(1,0,0,1,0,0)" d="M0,0 A10,10 0 0 0 0,20M0,0 A10,10 0 0 1 0,20M0,20 A10,10 0 0 0 0,40M0,20 A10,10 0 0 1 0,40M0,40 A10,10 0 0 1 0,60M0,0 A20,20 0 0 0 0,40M0,0 A20,20 0 0 1 0,40M0,20 A20,20 0 0 0 0,60M0,20 A20,20 0 0 1 0,60"></path></mask><path stroke="none" fill="none" style="stroke-width: 2; stroke-linecap: square;" transform="matrix(1,0,0,1,250,20)" d="M0,0 A10,10 0 0 0 0,20M0,20 A10,10 0 0 1 0,40M0,40 A10,10 0 0 0 0,60M0,40 A10,10 0 0 1 0,60M0,0 A20,20 0 0 1 0,40M0,0 A30,30 0 0 0 0,60M0,0 A30,30 0 0 1 0,60"></path><path mask="url('#maskSibb2mu4z3e')" stroke="#40ff00" fill="none" style="stroke-width: 4; stroke-linecap: square;" transform="matrix(1,0,0,1,250,20)" d="M0,0 A10,10 0 0 0 0,20M0,20 A10,10 0 0 1 0,40M0,40 A10,10 0 0 0 0,60M0,40 A10,10 0 0 1 0,60M0,0 A20,20 0 0 1 0,40M0,0 A30,30 0 0 0 0,60M0,0 A30,30 0 0 1 0,60"></path><path filter="url('#Sibb2mu4z3h')" mask="url('#maskSibb2mu4z3e')" stroke="#40ff00" fill="none" style="stroke-width: 4; stroke-linecap: square;" transform="matrix(1,0,0,1,250,20)" d="M0,0 A10,10 0 0 0 0,20M0,20 A10,10 0 0 1 0,40M0,40 A10,10 0 0 0 0,60M0,40 A10,10 0 0 1 0,60M0,0 A20,20 0 0 1 0,40M0,0 A30,30 0 0 0 0,60M0,0 A30,30 0 0 1 0,60"></path><mask id="maskSibb2mu4z3e"><path stroke="#000000" fill="#ffffff" style="stroke-width: 2; stroke-linecap: square;" transform="matrix(1,0,0,1,0,0)" d="M0,0 A10,10 0 0 0 0,20M0,20 A10,10 0 0 1 0,40M0,40 A10,10 0 0 0 0,60M0,40 A10,10 0 0 1 0,60M0,0 A20,20 0 0 1 0,40M0,0 A30,30 0 0 0 0,60M0,0 A30,30 0 0 1 0,60"></path></mask><path stroke="none" fill="none" style="stroke-width: 2; stroke-linecap: square;" transform="matrix(1,0,0,1,350,20)" d="M0,0 A10,10 0 0 1 0,20M0,0 A30,30 0 0 1 0,60"></path><path mask="url('#maskSibb2mu4z3m')" stroke="#00ff20" fill="none" style="stroke-width: 4; stroke-linecap: square;" transform="matrix(1,0,0,1,350,20)" d="M0,0 A10,10 0 0 1 0,20M0,0 A30,30 0 0 1 0,60"></path><path filter="url('#Sibb2mu4z3p')" mask="url('#maskSibb2mu4z3m')" stroke="#00ff20" fill="none" style="stroke-width: 4; stroke-linecap: square;" transform="matrix(1,0,0,1,350,20)" d="M0,0 A10,10 0 0 1 0,20M0,0 A30,30 0 0 1 0,60"></path><mask id="maskSibb2mu4z3m"><path stroke="#000000" fill="#ffffff" style="stroke-width: 2; stroke-linecap: square;" transform="matrix(1,0,0,1,0,0)" d="M0,0 A10,10 0 0 1 0,20M0,0 A30,30 0 0 1 0,60"></path></mask><path stroke="none" fill="none" style="stroke-width: 2; stroke-linecap: square;" transform="matrix(1,0,0,1,50,120)" d="M0,0 A10,10 0 0 1 0,20M0,20 A10,10 0 0 0 0,40M0,0 A20,20 0 0 0 0,40M0,20 A20,20 0 0 1 0,60"></path><path mask="url('#maskSibb2mu4z3u')" stroke="#00ff80" fill="none" style="stroke-width: 4; stroke-linecap: square;" transform="matrix(1,0,0,1,50,120)" d="M0,0 A10,10 0 0 1 0,20M0,20 A10,10 0 0 0 0,40M0,0 A20,20 0 0 0 0,40M0,20 A20,20 0 0 1 0,60"></path><path filter="url('#Sibb2mu4z3x')" mask="url('#maskSibb2mu4z3u')" stroke="#00ff80" fill="none" style="stroke-width: 4; stroke-linecap: square;" transform="matrix(1,0,0,1,50,120)" d="M0,0 A10,10 0 0 1 0,20M0,20 A10,10 0 0 0 0,40M0,0 A20,20 0 0 0 0,40M0,20 A20,20 0 0 1 0,60"></path><mask id="maskSibb2mu4z3u"><path stroke="#000000" fill="#ffffff" style="stroke-width: 2; stroke-linecap: square;" transform="matrix(1,0,0,1,0,0)" d="M0,0 A10,10 0 0 1 0,20M0,20 A10,10 0 0 0 0,40M0,0 A20,20 0 0 0 0,40M0,20 A20,20 0 0 1 0,60"></path></mask><path stroke="none" fill="none" style="stroke-width: 2; stroke-linecap: square;" transform="matrix(1,0,0,1,150,120)" d="M0,0 A20,20 0 0 1 0,40M0,0 A30,30 0 0 1 0,60"></path><path mask="url('#maskSibb2mu4z42')" stroke="#00ffdf" fill="none" style="stroke-width: 4; stroke-linecap: square;" transform="matrix(1,0,0,1,150,120)" d="M0,0 A20,20 0 0 1 0,40M0,0 A30,30 0 0 1 0,60"></path><path filter="url('#Sibb2mu4z45')" mask="url('#maskSibb2mu4z42')" stroke="#00ffdf" fill="none" style="stroke-width: 4; stroke-linecap: square;" transform="matrix(1,0,0,1,150,120)" d="M0,0 A20,20 0 0 1 0,40M0,0 A30,30 0 0 1 0,60"></path><mask id="maskSibb2mu4z42"><path stroke="#000000" fill="#ffffff" style="stroke-width: 2; stroke-linecap: square;" transform="matrix(1,0,0,1,0,0)" d="M0,0 A20,20 0 0 1 0,40M0,0 A30,30 0 0 1 0,60"></path></mask><path stroke="none" fill="none" style="stroke-width: 2; stroke-linecap: square;" transform="matrix(1,0,0,1,250,120)" d="M0,0 A10,10 0 0 1 0,20M0,20 A10,10 0 0 1 0,40M0,0 A30,30 0 0 0 0,60M0,20 A20,20 0 0 0 0,60M0,20 A20,20 0 0 1 0,60"></path><path mask="url('#maskSibb2mu4z4a')" stroke="#00bfff" fill="none" style="stroke-width: 4; stroke-linecap: square;" transform="matrix(1,0,0,1,250,120)" d="M0,0 A10,10 0 0 1 0,20M0,20 A10,10 0 0 1 0,40M0,0 A30,30 0 0 0 0,60M0,20 A20,20 0 0 0 0,60M0,20 A20,20 0 0 1 0,60"></path><path filter="url('#Sibb2mu4z4d')" mask="url('#maskSibb2mu4z4a')" stroke="#00bfff" fill="none" style="stroke-width: 4; stroke-linecap: square;" transform="matrix(1,0,0,1,250,120)" d="M0,0 A10,10 0 0 1 0,20M0,20 A10,10 0 0 1 0,40M0,0 A30,30 0 0 0 0,60M0,20 A20,20 0 0 0 0,60M0,20 A20,20 0 0 1 0,60"></path><mask id="maskSibb2mu4z4a"><path stroke="#000000" fill="#ffffff" style="stroke-width: 2; stroke-linecap: square;" transform="matrix(1,0,0,1,0,0)" d="M0,0 A10,10 0 0 1 0,20M0,20 A10,10 0 0 1 0,40M0,0 A30,30 0 0 0 0,60M0,20 A20,20 0 0 0 0,60M0,20 A20,20 0 0 1 0,60"></path></mask><path stroke="none" fill="none" style="stroke-width: 2; stroke-linecap: square;" transform="matrix(1,0,0,1,350,120)" d="M0,0 A10,10 0 0 0 0,20M0,20 A10,10 0 0 0 0,40M0,40 A10,10 0 0 1 0,60M0,0 A20,20 0 0 1 0,40M0,0 A30,30 0 0 1 0,60M0,20 A20,20 0 0 0 0,60"></path><path mask="url('#maskSibb2mu4z4i')" stroke="#0060ff" fill="none" style="stroke-width: 4; stroke-linecap: square;" transform="matrix(1,0,0,1,350,120)" d="M0,0 A10,10 0 0 0 0,20M0,20 A10,10 0 0 0 0,40M0,40 A10,10 0 0 1 0,60M0,0 A20,20 0 0 1 0,40M0,0 A30,30 0 0 1 0,60M0,20 A20,20 0 0 0 0,60"></path><path filter="url('#Sibb2mu4z4l')" mask="url('#maskSibb2mu4z4i')" stroke="#0060ff" fill="none" style="stroke-width: 4; stroke-linecap: square;" transform="matrix(1,0,0,1,350,120)" d="M0,0 A10,10 0 0 0 0,20M0,20 A10,10 0 0 0 0,40M0,40 A10,10 0 0 1 0,60M0,0 A20,20 0 0 1 0,40M0,0 A30,30 0 0 1 0,60M0,20 A20,20 0 0 0 0,60"></path><mask id="maskSibb2mu4z4i"><path stroke="#000000" fill="#ffffff" style="stroke-width: 2; stroke-linecap: square;" transform="matrix(1,0,0,1,0,0)" d="M0,0 A10,10 0 0 0 0,20M0,20 A10,10 0 0 0 0,40M0,40 A10,10 0 0 1 0,60M0,0 A20,20 0 0 1 0,40M0,0 A30,30 0 0 1 0,60M0,20 A20,20 0 0 0 0,60"></path></mask><path stroke="none" fill="none" style="stroke-width: 2; stroke-linecap: square;" transform="matrix(1,0,0,1,50,220)" d="M0,20 A10,10 0 0 0 0,40M0,40 A10,10 0 0 1 0,60M0,0 A20,20 0 0 0 0,40M0,0 A20,20 0 0 1 0,40M0,0 A30,30 0 0 0 0,60M0,0 A30,30 0 0 1 0,60M0,20 A20,20 0 0 1 0,60"></path><path mask="url('#maskSibb2mu4z4q')" stroke="#0000ff" fill="none" style="stroke-width: 4; stroke-linecap: square;" transform="matrix(1,0,0,1,50,220)" d="M0,20 A10,10 0 0 0 0,40M0,40 A10,10 0 0 1 0,60M0,0 A20,20 0 0 0 0,40M0,0 A20,20 0 0 1 0,40M0,0 A30,30 0 0 0 0,60M0,0 A30,30 0 0 1 0,60M0,20 A20,20 0 0 1 0,60"></path><path filter="url('#Sibb2mu4z4t')" mask="url('#maskSibb2mu4z4q')" stroke="#0000ff" fill="none" style="stroke-width: 4; stroke-linecap: square;" transform="matrix(1,0,0,1,50,220)" d="M0,20 A10,10 0 0 0 0,40M0,40 A10,10 0 0 1 0,60M0,0 A20,20 0 0 0 0,40M0,0 A20,20 0 0 1 0,40M0,0 A30,30 0 0 0 0,60M0,0 A30,30 0 0 1 0,60M0,20 A20,20 0 0 1 0,60"></path><mask id="maskSibb2mu4z4q"><path stroke="#000000" fill="#ffffff" style="stroke-width: 2; stroke-linecap: square;" transform="matrix(1,0,0,1,0,0)" d="M0,20 A10,10 0 0 0 0,40M0,40 A10,10 0 0 1 0,60M0,0 A20,20 0 0 0 0,40M0,0 A20,20 0 0 1 0,40M0,0 A30,30 0 0 0 0,60M0,0 A30,30 0 0 1 0,60M0,20 A20,20 0 0 1 0,60"></path></mask><path stroke="none" fill="none" style="stroke-width: 2; stroke-linecap: square;" transform="matrix(1,0,0,1,150,220)" d="M0,0 A10,10 0 0 1 0,20M0,20 A10,10 0 0 1 0,40M0,40 A10,10 0 0 0 0,60M0,0 A30,30 0 0 0 0,60M0,0 A30,30 0 0 1 0,60M0,20 A20,20 0 0 0 0,60"></path><path mask="url('#maskSibb2mu4z4y')" stroke="#6000ff" fill="none" style="stroke-width: 4; stroke-linecap: square;" transform="matrix(1,0,0,1,150,220)" d="M0,0 A10,10 0 0 1 0,20M0,20 A10,10 0 0 1 0,40M0,40 A10,10 0 0 0 0,60M0,0 A30,30 0 0 0 0,60M0,0 A30,30 0 0 1 0,60M0,20 A20,20 0 0 0 0,60"></path><path filter="url('#Sibb2mu4z51')" mask="url('#maskSibb2mu4z4y')" stroke="#6000ff" fill="none" style="stroke-width: 4; stroke-linecap: square;" transform="matrix(1,0,0,1,150,220)" d="M0,0 A10,10 0 0 1 0,20M0,20 A10,10 0 0 1 0,40M0,40 A10,10 0 0 0 0,60M0,0 A30,30 0 0 0 0,60M0,0 A30,30 0 0 1 0,60M0,20 A20,20 0 0 0 0,60"></path><mask id="maskSibb2mu4z4y"><path stroke="#000000" fill="#ffffff" style="stroke-width: 2; stroke-linecap: square;" transform="matrix(1,0,0,1,0,0)" d="M0,0 A10,10 0 0 1 0,20M0,20 A10,10 0 0 1 0,40M0,40 A10,10 0 0 0 0,60M0,0 A30,30 0 0 0 0,60M0,0 A30,30 0 0 1 0,60M0,20 A20,20 0 0 0 0,60"></path></mask><path stroke="none" fill="none" style="stroke-width: 2; stroke-linecap: square;" transform="matrix(1,0,0,1,250,220)" d="M0,0 A10,10 0 0 0 0,20M0,20 A10,10 0 0 1 0,40M0,40 A10,10 0 0 1 0,60M0,0 A20,20 0 0 1 0,40M0,0 A30,30 0 0 0 0,60M0,20 A20,20 0 0 1 0,60"></path><path mask="url('#maskSibb2mu4z56')" stroke="#bf00ff" fill="none" style="stroke-width: 4; stroke-linecap: square;" transform="matrix(1,0,0,1,250,220)" d="M0,0 A10,10 0 0 0 0,20M0,20 A10,10 0 0 1 0,40M0,40 A10,10 0 0 1 0,60M0,0 A20,20 0 0 1 0,40M0,0 A30,30 0 0 0 0,60M0,20 A20,20 0 0 1 0,60"></path><path filter="url('#Sibb2mu4z59')" mask="url('#maskSibb2mu4z56')" stroke="#bf00ff" fill="none" style="stroke-width: 4; stroke-linecap: square;" transform="matrix(1,0,0,1,250,220)" d="M0,0 A10,10 0 0 0 0,20M0,20 A10,10 0 0 1 0,40M0,40 A10,10 0 0 1 0,60M0,0 A20,20 0 0 1 0,40M0,0 A30,30 0 0 0 0,60M0,20 A20,20 0 0 1 0,60"></path><mask id="maskSibb2mu4z56"><path stroke="#000000" fill="#ffffff" style="stroke-width: 2; stroke-linecap: square;" transform="matrix(1,0,0,1,0,0)" d="M0,0 A10,10 0 0 0 0,20M0,20 A10,10 0 0 1 0,40M0,40 A10,10 0 0 1 0,60M0,0 A20,20 0 0 1 0,40M0,0 A30,30 0 0 0 0,60M0,20 A20,20 0 0 1 0,60"></path></mask><path stroke="none" fill="none" style="stroke-width: 2; stroke-linecap: square;" transform="matrix(1,0,0,1,350,220)" d="M0,0 A10,10 0 0 0 0,20M0,20 A10,10 0 0 0 0,40M0,40 A10,10 0 0 0 0,60M0,0 A20,20 0 0 0 0,40M0,0 A20,20 0 0 1 0,40M0,0 A30,30 0 0 0 0,60M0,0 A30,30 0 0 1 0,60"></path><path mask="url('#maskSibb2mu4z5e')" stroke="#ff00df" fill="none" style="stroke-width: 4; stroke-linecap: square;" transform="matrix(1,0,0,1,350,220)" d="M0,0 A10,10 0 0 0 0,20M0,20 A10,10 0 0 0 0,40M0,40 A10,10 0 0 0 0,60M0,0 A20,20 0 0 0 0,40M0,0 A20,20 0 0 1 0,40M0,0 A30,30 0 0 0 0,60M0,0 A30,30 0 0 1 0,60"></path><path filter="url('#Sibb2mu4z5h')" mask="url('#maskSibb2mu4z5e')" stroke="#ff00df" fill="none" style="stroke-width: 4; stroke-linecap: square;" transform="matrix(1,0,0,1,350,220)" d="M0,0 A10,10 0 0 0 0,20M0,20 A10,10 0 0 0 0,40M0,40 A10,10 0 0 0 0,60M0,0 A20,20 0 0 0 0,40M0,0 A20,20 0 0 1 0,40M0,0 A30,30 0 0 0 0,60M0,0 A30,30 0 0 1 0,60"></path><mask id="maskSibb2mu4z5e"><path stroke="#000000" fill="#ffffff" style="stroke-width: 2; stroke-linecap: square;" transform="matrix(1,0,0,1,0,0)" d="M0,0 A10,10 0 0 0 0,20M0,20 A10,10 0 0 0 0,40M0,40 A10,10 0 0 0 0,60M0,0 A20,20 0 0 0 0,40M0,0 A20,20 0 0 1 0,40M0,0 A30,30 0 0 0 0,60M0,0 A30,30 0 0 1 0,60"></path></mask><path stroke="none" fill="none" style="stroke-width: 2; stroke-linecap: square;" transform="matrix(1,0,0,1,50,320)" d="M0,20 A10,10 0 0 0 0,40M0,20 A10,10 0 0 1 0,40M0,40 A10,10 0 0 0 0,60M0,0 A20,20 0 0 0 0,40M0,0 A30,30 0 0 1 0,60M0,20 A20,20 0 0 1 0,60"></path><path mask="url('#maskSibb2mu4z5m')" stroke="#ff0080" fill="none" style="stroke-width: 4; stroke-linecap: square;" transform="matrix(1,0,0,1,50,320)" d="M0,20 A10,10 0 0 0 0,40M0,20 A10,10 0 0 1 0,40M0,40 A10,10 0 0 0 0,60M0,0 A20,20 0 0 0 0,40M0,0 A30,30 0 0 1 0,60M0,20 A20,20 0 0 1 0,60"></path><path filter="url('#Sibb2mu4z5p')" mask="url('#maskSibb2mu4z5m')" stroke="#ff0080" fill="none" style="stroke-width: 4; stroke-linecap: square;" transform="matrix(1,0,0,1,50,320)" d="M0,20 A10,10 0 0 0 0,40M0,20 A10,10 0 0 1 0,40M0,40 A10,10 0 0 0 0,60M0,0 A20,20 0 0 0 0,40M0,0 A30,30 0 0 1 0,60M0,20 A20,20 0 0 1 0,60"></path><mask id="maskSibb2mu4z5m"><path stroke="#000000" fill="#ffffff" style="stroke-width: 2; stroke-linecap: square;" transform="matrix(1,0,0,1,0,0)" d="M0,20 A10,10 0 0 0 0,40M0,20 A10,10 0 0 1 0,40M0,40 A10,10 0 0 0 0,60M0,0 A20,20 0 0 0 0,40M0,0 A30,30 0 0 1 0,60M0,20 A20,20 0 0 1 0,60"></path></mask><path stroke="none" fill="none" style="stroke-width: 2; stroke-linecap: square;" transform="matrix(1,0,0,1,150,320)" d="M0,0 A20,20 0 0 1 0,40M0,0 A30,30 0 0 1 0,60M0,20 A20,20 0 0 1 0,60"></path><path mask="url('#maskSibb2mu4z5u')" stroke="#ff0020" fill="none" style="stroke-width: 4; stroke-linecap: square;" transform="matrix(1,0,0,1,150,320)" d="M0,0 A20,20 0 0 1 0,40M0,0 A30,30 0 0 1 0,60M0,20 A20,20 0 0 1 0,60"></path><path filter="url('#Sibb2mu4z5x')" mask="url('#maskSibb2mu4z5u')" stroke="#ff0020" fill="none" style="stroke-width: 4; stroke-linecap: square;" transform="matrix(1,0,0,1,150,320)" d="M0,0 A20,20 0 0 1 0,40M0,0 A30,30 0 0 1 0,60M0,20 A20,20 0 0 1 0,60"></path><mask id="maskSibb2mu4z5u"><path stroke="#000000" fill="#ffffff" style="stroke-width: 2; stroke-linecap: square;" transform="matrix(1,0,0,1,0,0)" d="M0,0 A20,20 0 0 1 0,40M0,0 A30,30 0 0 1 0,60M0,20 A20,20 0 0 1 0,60"></path></mask><path stroke="none" fill="none" style="stroke-width: 2; stroke-linecap: square;" transform="matrix(1,0,0,1,250,320)" d="M0,0 A10,10 0 0 0 0,20M0,0 A10,10 0 0 1 0,20M0,20 A10,10 0 0 0 0,40M0,20 A10,10 0 0 1 0,40M0,40 A10,10 0 0 1 0,60M0,0 A20,20 0 0 1 0,40M0,0 A30,30 0 0 0 0,60M0,20 A20,20 0 0 1 0,60"></path><path mask="url('#maskSibb2mu4z62')" stroke="#ff4000" fill="none" style="stroke-width: 4; stroke-linecap: square;" transform="matrix(1,0,0,1,250,320)" d="M0,0 A10,10 0 0 0 0,20M0,0 A10,10 0 0 1 0,20M0,20 A10,10 0 0 0 0,40M0,20 A10,10 0 0 1 0,40M0,40 A10,10 0 0 1 0,60M0,0 A20,20 0 0 1 0,40M0,0 A30,30 0 0 0 0,60M0,20 A20,20 0 0 1 0,60"></path><path filter="url('#Sibb2mu4z65')" mask="url('#maskSibb2mu4z62')" stroke="#ff4000" fill="none" style="stroke-width: 4; stroke-linecap: square;" transform="matrix(1,0,0,1,250,320)" d="M0,0 A10,10 0 0 0 0,20M0,0 A10,10 0 0 1 0,20M0,20 A10,10 0 0 0 0,40M0,20 A10,10 0 0 1 0,40M0,40 A10,10 0 0 1 0,60M0,0 A20,20 0 0 1 0,40M0,0 A30,30 0 0 0 0,60M0,20 A20,20 0 0 1 0,60"></path><mask id="maskSibb2mu4z62"><path stroke="#000000" fill="#ffffff" style="stroke-width: 2; stroke-linecap: square;" transform="matrix(1,0,0,1,0,0)" d="M0,0 A10,10 0 0 0 0,20M0,0 A10,10 0 0 1 0,20M0,20 A10,10 0 0 0 0,40M0,20 A10,10 0 0 1 0,40M0,40 A10,10 0 0 1 0,60M0,0 A20,20 0 0 1 0,40M0,0 A30,30 0 0 0 0,60M0,20 A20,20 0 0 1 0,60"></path></mask><path stroke="none" fill="none" style="stroke-width: 2; stroke-linecap: square;" transform="matrix(1,0,0,1,350,320)" d="M0,0 A10,10 0 0 0 0,20M0,20 A10,10 0 0 0 0,40M0,40 A10,10 0 0 0 0,60M0,40 A10,10 0 0 1 0,60M0,0 A30,30 0 0 0 0,60M0,0 A30,30 0 0 1 0,60M0,20 A20,20 0 0 0 0,60"></path><path mask="url('#maskSibb2mu4z6a')" stroke="#ff9f00" fill="none" style="stroke-width: 4; stroke-linecap: square;" transform="matrix(1,0,0,1,350,320)" d="M0,0 A10,10 0 0 0 0,20M0,20 A10,10 0 0 0 0,40M0,40 A10,10 0 0 0 0,60M0,40 A10,10 0 0 1 0,60M0,0 A30,30 0 0 0 0,60M0,0 A30,30 0 0 1 0,60M0,20 A20,20 0 0 0 0,60"></path><path filter="url('#Sibb2mu4z6d')" mask="url('#maskSibb2mu4z6a')" stroke="#ff9f00" fill="none" style="stroke-width: 4; stroke-linecap: square;" transform="matrix(1,0,0,1,350,320)" d="M0,0 A10,10 0 0 0 0,20M0,20 A10,10 0 0 0 0,40M0,40 A10,10 0 0 0 0,60M0,40 A10,10 0 0 1 0,60M0,0 A30,30 0 0 0 0,60M0,0 A30,30 0 0 1 0,60M0,20 A20,20 0 0 0 0,60"></path><mask id="maskSibb2mu4z6a"><path stroke="#000000" fill="#ffffff" style="stroke-width: 2; stroke-linecap: square;" transform="matrix(1,0,0,1,0,0)" d="M0,0 A10,10 0 0 0 0,20M0,20 A10,10 0 0 0 0,40M0,40 A10,10 0 0 0 0,60M0,40 A10,10 0 0 1 0,60M0,0 A30,30 0 0 0 0,60M0,0 A30,30 0 0 1 0,60M0,20 A20,20 0 0 0 0,60"></path></mask></svg>